<svg width="1092" height="776" viewBox="0 0 1092 776" fill="none" xmlns="http://www.w3.org/2000/svg">
<path d="M253.522 294.402L230.946 450.975L151.948 401.245L178.582 497.424L33.6159 483.902L153.255 549.583L102.885 597.009L179.872 602.224L95.0472 689.996L218.882 647.305L247.465 739.377L280.231 641.248L336.069 677.118L342.492 633.085L426.837 664.24L401.69 610.991L550.355 640.009L431.144 570.782L505.608 496.632L407.382 507.128L473.538 404.077L349.426 460.24L357.036 352.281L299.586 427.269L253.522 294.402Z" fill="#2858FF"/>
<path d="M206.823 503.508C209.917 502.692 212.801 503.056 215.476 504.6C218.143 506.113 219.9 508.429 220.749 511.548C221.622 514.759 221.273 517.68 219.701 520.313C218.16 522.937 215.858 524.653 212.795 525.461L204.395 527.678L206.864 536.756L199.207 538.777L190.766 507.746L206.823 503.508ZM202.429 520.453L210.133 518.42C211.216 518.134 212.036 517.553 212.594 516.678C213.152 515.803 213.275 514.794 212.965 513.652C212.679 512.602 212.061 511.855 211.111 511.411C210.184 510.927 209.194 510.825 208.143 511.102L200.439 513.135L202.429 520.453ZM255.328 519.745C253.136 523.633 249.58 526.226 244.661 527.525C239.742 528.823 235.346 528.328 231.474 526.041C227.594 523.723 225.036 520.294 223.802 515.756C222.558 511.186 223.025 506.926 225.2 502.977C227.375 499.027 230.922 496.403 235.842 495.105C240.761 493.806 245.165 494.332 249.054 496.681C252.942 499.03 255.508 502.489 256.751 507.059C257.986 511.598 257.512 515.827 255.328 519.745ZM242.62 520.022C245.25 519.328 247.122 517.923 248.238 515.809C249.354 513.694 249.585 511.433 248.93 509.024C248.266 506.585 246.919 504.74 244.887 503.489C242.878 502.199 240.543 501.905 237.883 502.608C235.222 503.31 233.334 504.718 232.218 506.833C231.124 508.909 230.909 511.166 231.573 513.605C232.228 516.013 233.56 517.863 235.569 519.153C237.609 520.434 239.959 520.724 242.62 520.022ZM287.803 502.388L287.814 482.132L296.028 479.965L295.884 513.261L287.298 515.527L277.798 499.072L277.831 518.026L269.245 520.291L252.219 491.527L260.387 489.371L270.737 506.942L270.596 486.677L277.743 484.79L277.722 484.895L287.803 502.388ZM305.959 499.681L299.779 478.975L307.25 477.003L312.409 497.979L305.959 499.681ZM306.141 502.363L313.566 500.403L315.645 508.045L308.22 510.005L306.141 502.363ZM319.328 496.153L313.148 475.446L320.62 473.474L325.779 494.45L319.328 496.153ZM319.511 498.835L326.936 496.875L329.015 504.517L321.589 506.476L319.511 498.835ZM332.698 492.624L326.518 471.917L333.989 469.945L339.148 490.922L332.698 492.624ZM332.88 495.306L340.305 493.346L342.384 500.988L334.959 502.948L332.88 495.306ZM232.706 576.53L232.756 576.715C234.384 576.848 235.845 577.406 237.14 578.388C238.436 579.37 239.331 580.771 239.826 582.593C240.532 585.187 240.188 587.577 238.793 589.766C237.421 591.915 235.405 593.34 232.744 594.043L215.481 598.599L207.039 567.568L223.746 563.159C226.376 562.465 228.778 562.642 230.953 563.689C233.129 564.737 234.548 566.48 235.211 568.919C235.598 570.34 235.564 571.738 235.11 573.116C234.647 574.462 233.846 575.6 232.706 576.53ZM224.067 570.371L216.549 572.356L218.048 577.867L225.566 575.883C226.432 575.654 227.053 575.193 227.428 574.498C227.825 573.764 227.927 573.042 227.734 572.332C227.541 571.622 227.105 571.059 226.428 570.642C225.751 570.225 224.964 570.135 224.067 570.371ZM221.298 589.816L229.466 587.66C230.363 587.424 231.022 586.919 231.442 586.146C231.862 585.373 231.967 584.601 231.757 583.829C231.563 583.119 231.102 582.579 230.371 582.209C229.632 581.809 228.814 581.727 227.917 581.964L219.749 584.119L221.298 589.816ZM276.038 582.616L267.359 584.907L263.616 579.739L251.55 582.924L250.977 589.23L242.624 591.435L246.574 557.134L255.159 554.868L276.038 582.616ZM253.202 565.412L252.246 575.791L259.392 573.905L253.202 565.412ZM305.407 541.606L313.849 572.637L306.191 574.658L300.824 554.928L298.163 576.777L293.754 577.94L280.358 560.33L285.725 580.059L278.068 582.08L269.627 551.05L280.254 548.245L292.555 564.755L294.873 544.387L305.407 541.606ZM317.338 560.795L311.158 540.089L318.629 538.117L323.788 559.093L317.338 560.795ZM317.52 563.477L324.945 561.518L327.024 569.159L319.599 571.119L317.52 563.477ZM330.707 557.267L324.527 536.56L331.999 534.588L337.158 555.564L330.707 557.267ZM330.89 559.949L338.315 557.989L340.394 565.631L332.968 567.591L330.89 559.949ZM344.077 553.738L337.897 533.032L345.368 531.06L350.527 552.036L344.077 553.738ZM344.259 556.42L351.684 554.46L353.763 562.102L346.338 564.062L344.259 556.42Z" fill="white"/>
<rect x="578.029" y="301.558" width="82" height="584.264" transform="rotate(-52.4957 578.029 301.558)" fill="#2858FF"/>
<rect x="344.215" y="388.044" width="488" height="196.664" transform="rotate(-52.4957 344.215 388.044)" fill="#2858FF"/>
<path d="M413.789 365.441L443.022 387.876L437.497 395.076L418.91 380.811L431.704 402.624L428.523 406.769L404.143 400.053L422.73 414.317L417.205 421.517L387.972 399.081L395.64 389.09L418.262 395.567L406.188 375.346L413.789 365.441ZM443.285 359.981L431.812 341.956L437.471 334.582L453.415 360.06C455.008 362.623 455.931 364.973 456.186 367.109C456.435 369.195 455.71 371.343 454.014 373.554L447.618 381.888L440.724 376.597L446.383 369.223L415.371 363.379L421.532 355.351L443.285 359.981ZM468.82 293.734L475.145 308.71C478.249 305.268 481.88 305.143 486.04 308.336L497.384 317.042L491.859 324.241L482.173 316.807C481.096 315.981 480.134 316.121 479.286 317.226L474.096 323.989L485.396 332.662L479.871 339.861L468.571 331.188L463.38 337.951C462.532 339.057 462.646 340.022 463.722 340.848L473.409 348.282L467.884 355.481L456.539 346.775C452.38 343.583 451.561 340.043 454.083 336.154L437.98 333.919L443.941 326.152L459.899 328.485L461.808 325.998L450.638 317.426L456.163 310.227L467.333 318.799L469.241 316.312L462.86 301.5L468.82 293.734ZM495.219 297.098L486.524 270.666L492.049 263.466L521.282 285.901L515.757 293.101L497.519 279.104L506.214 305.536L500.689 312.735L471.456 290.3L476.981 283.101L495.219 297.098ZM515.98 232.285L521.741 247.452C524.976 243.418 528.789 243.086 533.182 246.457L544.744 255.33L539.219 262.53L529.315 254.929C528.238 254.103 527.276 254.242 526.428 255.348L518.894 265.165L530.412 274.005L524.887 281.204L495.654 258.769L501.179 251.57L512.131 259.975L515.781 255.219L509.919 240.182L515.98 232.285ZM559.795 210.515L565.454 203.141C568.887 206.376 570.772 210.273 571.111 214.831C571.449 219.389 570.022 223.748 566.83 227.908C563.347 232.445 559.08 234.994 554.028 235.554C548.976 236.114 544.298 234.743 539.993 231.439C535.659 228.113 533.094 223.926 532.299 218.879C531.476 213.809 532.805 209.006 536.287 204.468C539.39 200.425 543.172 197.966 547.634 197.091C552.066 196.194 556.253 196.912 560.195 199.243L554.469 206.704C552.476 205.868 550.483 205.725 548.489 206.275C546.466 206.803 544.733 208.038 543.289 209.98C541.465 212.417 540.803 214.936 541.302 217.537C541.823 220.11 543.233 222.278 545.531 224.042C547.829 225.805 550.314 226.603 552.985 226.434C555.627 226.244 557.886 224.926 559.761 222.483C561.257 220.534 562.009 218.5 562.018 216.381C561.998 214.239 561.257 212.284 559.795 210.515ZM570.556 161.17L576.318 176.337C579.553 172.303 583.366 171.971 587.759 175.342L599.321 184.216L593.796 191.415L583.892 183.814C582.815 182.988 581.853 183.127 581.005 184.233L573.471 194.05L584.989 202.89L579.464 210.089L550.231 187.654L555.756 180.455L566.708 188.86L570.357 184.104L564.496 169.067L570.556 161.17ZM624.368 151.578L618.107 159.737L611.123 157.636L602.416 168.98L606.286 175.139L600.259 182.993L579.966 148.908L586.161 140.837L624.368 151.578ZM591.727 151.833L598.083 161.98L603.239 155.261L591.727 151.833ZM623.956 120.497L624.131 120.631C625.632 119.518 627.325 118.968 629.209 118.982C631.087 118.944 632.884 119.584 634.601 120.901C637.044 122.776 638.381 125.189 638.613 128.14C638.866 131.061 638.033 133.773 636.113 136.274L625.03 150.717L618.049 145.359L628.094 132.269C628.764 131.397 629.085 130.557 629.057 129.75C629 128.92 628.681 128.283 628.099 127.836C627.518 127.39 626.833 127.257 626.047 127.439C625.26 127.621 624.532 128.149 623.862 129.021L616.495 138.62L609.601 133.33L616.834 123.905C617.459 123.091 617.732 122.283 617.653 121.483C617.574 120.683 617.258 120.071 616.705 119.646C616.124 119.2 615.465 119.064 614.73 119.24C613.988 119.363 613.293 119.847 612.646 120.691L602.734 133.606L595.796 128.281L606.813 113.927C608.733 111.425 611.001 109.884 613.619 109.305C616.258 108.696 618.727 109.273 621.025 111.037C622.479 112.153 623.49 113.576 624.058 115.306C624.596 117.013 624.562 118.743 623.956 120.497ZM667.435 95.4619L661.173 103.621L654.189 101.52L645.483 112.864L649.353 119.023L643.326 126.877L623.033 92.792L629.227 84.7201L667.435 95.4619ZM634.793 95.7164L641.149 105.863L646.306 99.1441L634.793 95.7164ZM660.378 44.1302L689.611 66.5653L684.086 73.7645L661.791 56.6536L654.826 65.729C662.241 71.6048 666.688 75.2953 668.168 76.8005C669.618 78.2833 670.724 79.7329 671.486 81.1495C672.218 82.5437 672.649 83.7292 672.778 84.706C672.906 85.6828 672.792 86.7046 672.436 87.7714C672.079 88.8382 671.751 89.6266 671.452 90.1366C671.147 90.5953 670.704 91.2027 670.123 91.959L668.348 94.2715L661.149 88.7465L662.221 87.3502C662.489 87.0012 662.683 86.688 662.803 86.4106C662.946 86.1042 662.912 85.5465 662.701 84.7374C662.49 83.9283 661.945 83.0716 661.068 82.1672C660.191 81.2627 658.523 79.8215 656.067 77.8435C653.603 75.8141 650.888 73.6609 647.921 71.3839C644.947 69.0555 643.184 67.6792 642.631 67.2551L660.378 44.1302Z" fill="white"/>
<path d="M469.227 405.879L498.461 428.314L492.936 435.514L474.348 421.249L487.143 443.062L483.962 447.207L459.581 440.491L478.169 454.755L472.644 461.955L443.41 439.519L451.078 429.528L473.701 436.005L461.626 415.784L469.227 405.879ZM498.723 400.419L487.251 382.394L492.91 375.02L508.854 400.498C510.446 403.061 511.37 405.411 511.625 407.547C511.873 409.633 511.149 411.781 509.452 413.992L503.057 422.326L496.163 417.035L501.822 409.661L470.81 403.817L476.971 395.789L498.723 400.419ZM524.259 334.172L530.583 349.148C533.687 345.706 537.319 345.581 541.478 348.773L552.823 357.48L547.297 364.679L537.611 357.245C536.535 356.419 535.573 356.559 534.724 357.664L529.534 364.427L540.835 373.1L535.31 380.299L524.009 371.626L518.819 378.389C517.971 379.495 518.085 380.46 519.161 381.286L528.847 388.72L523.322 395.919L511.978 387.213C507.818 384.021 506.999 380.481 509.521 376.592L493.419 374.357L499.379 366.59L515.338 368.923L517.246 366.436L506.076 357.864L511.601 350.665L522.771 359.237L524.68 356.75L518.299 341.938L524.259 334.172ZM550.657 337.536L541.963 311.104L547.488 303.904L576.721 326.339L571.196 333.539L552.958 319.542L561.653 345.974L556.128 353.173L526.894 330.738L532.419 323.539L550.657 337.536ZM571.418 272.723L577.179 287.89C580.414 283.856 584.228 283.524 588.62 286.895L600.183 295.768L594.658 302.968L584.753 295.367C583.677 294.541 582.715 294.68 581.866 295.786L574.332 305.603L585.851 314.443L580.326 321.642L551.093 299.207L556.618 292.008L567.569 300.413L571.219 295.657L565.357 280.62L571.418 272.723ZM615.233 250.953L620.892 243.579C624.325 246.814 626.211 250.711 626.549 255.269C626.887 259.827 625.46 264.186 622.268 268.346C618.786 272.883 614.519 275.432 609.467 275.992C604.415 276.552 599.736 275.181 595.431 271.877C591.097 268.551 588.533 264.364 587.738 259.317C586.914 254.247 588.243 249.444 591.726 244.906C594.829 240.863 598.611 238.404 603.072 237.529C607.504 236.632 611.691 237.35 615.633 239.681L609.907 247.142C607.914 246.306 605.921 246.163 603.928 246.713C601.905 247.241 600.171 248.476 598.727 250.418C596.903 252.855 596.241 255.374 596.74 257.975C597.262 260.548 598.672 262.716 600.97 264.48C603.268 266.243 605.752 267.041 608.424 266.872C611.066 266.682 613.325 265.364 615.2 262.921C616.695 260.972 617.448 258.938 617.456 256.819C617.436 254.677 616.695 252.722 615.233 250.953ZM625.799 201.863L648.051 218.941L650.964 215.145L663.879 225.056L658.622 231.907L652.688 227.353L638.758 245.504L644.692 250.057L639.435 256.908L626.52 246.996L627.525 245.687C627.793 245.338 627.987 245.025 628.107 244.748C628.25 244.441 628.216 243.883 628.005 243.074C627.794 242.265 627.249 241.408 626.372 240.504C625.495 239.6 623.798 238.136 621.283 236.113C618.79 234.062 616.046 231.886 613.05 229.587C610.047 227.236 608.269 225.849 607.717 225.425L625.799 201.863ZM634.49 236.612L642.526 226.14L627.255 214.42L619.955 223.932C626.876 229.428 631.091 232.94 632.599 234.468C633.447 235.35 634.078 236.064 634.49 236.612ZM677.496 195.028L660.017 217.803L630.783 195.368L648.263 172.592L655.244 177.95L643.29 193.527L647.478 196.741L657.758 183.346L664.303 188.369L654.023 201.764L658.561 205.246L670.515 189.67L677.496 195.028ZM671.213 142.687L700.447 165.122L694.922 172.322L672.626 155.211L665.661 164.286C673.076 170.162 677.524 173.852 679.003 175.357C680.453 176.84 681.559 178.29 682.321 179.706C683.054 181.101 683.484 182.286 683.613 183.263C683.741 184.24 683.627 185.262 683.271 186.328C682.914 187.395 682.587 188.184 682.288 188.694C681.982 189.152 681.539 189.76 680.958 190.516L679.184 192.829L671.984 187.304L673.056 185.907C673.324 185.558 673.518 185.245 673.638 184.968C673.781 184.661 673.747 184.103 673.536 183.294C673.325 182.485 672.781 181.629 671.903 180.724C671.026 179.82 669.359 178.379 666.902 176.401C664.438 174.371 661.723 172.218 658.756 169.941C655.782 167.613 654.019 166.236 653.466 165.812L671.213 142.687ZM726.013 131.809L719.751 139.969L712.767 137.867L704.061 149.211L707.931 155.371L701.903 163.224L681.61 129.14L687.805 121.068L726.013 131.809ZM693.371 132.064L699.727 142.211L704.884 135.492L693.371 132.064ZM718.956 80.4777L748.189 102.913L742.664 110.112L720.368 93.0011L713.403 102.077C720.819 107.952 725.266 111.643 726.746 113.148C728.196 114.631 729.302 116.08 730.064 117.497C730.796 118.891 731.227 120.077 731.355 121.053C731.484 122.03 731.37 123.052 731.013 124.119C730.657 125.186 730.329 125.974 730.03 126.484C729.724 126.943 729.281 127.55 728.701 128.307L726.926 130.619L719.727 125.094L720.798 123.698C721.066 123.349 721.26 123.035 721.381 122.758C721.524 122.452 721.489 121.894 721.278 121.085C721.067 120.276 720.523 119.419 719.646 118.515C718.768 117.61 717.101 116.169 714.644 114.191C712.181 112.162 709.465 110.008 706.498 107.731C703.525 105.403 701.761 104.027 701.209 103.603L718.956 80.4777Z" fill="white"/>
<path d="M681.604 314.872L670.572 319.062C673.507 321.414 673.748 324.188 671.296 327.382L664.843 335.791L659.607 331.773L665.135 324.57C665.736 323.787 665.634 323.087 664.83 322.47L657.691 316.991L651.261 325.368L646.026 321.35L662.342 300.089L667.578 304.108L661.465 312.072L664.924 314.727L675.86 310.464L681.604 314.872ZM684.643 335.608L697.752 327.265L703.115 331.38L684.585 342.976C682.722 344.134 681.013 344.806 679.459 344.991C677.942 345.172 676.38 344.645 674.772 343.411L668.711 338.76L672.559 333.746L677.922 337.862L682.172 315.307L688.01 319.788L684.643 335.608ZM723.716 347.19L707.399 368.451L702.163 364.433L714.608 348.218L705.881 341.52L693.437 357.736L688.201 353.717L704.517 332.457L723.716 347.19ZM722.195 367.1L741.419 360.777L746.655 364.795L730.338 386.055L725.102 382.037L735.282 368.773L716.059 375.097L710.823 371.078L727.139 349.818L732.375 353.836L722.195 367.1ZM758.396 392.209L771.505 383.866L776.868 387.982L758.338 399.577C756.474 400.735 754.766 401.407 753.211 401.593C751.695 401.773 750.132 401.247 748.525 400.013L742.464 395.361L746.312 390.348L751.674 394.463L755.924 371.909L761.763 376.39L758.396 392.209ZM806.575 410.781L795.684 415.381C798.187 417.638 798.278 420.279 795.956 423.304L789.624 431.555L784.389 427.536L789.795 420.492C790.396 419.709 790.294 419.009 789.49 418.392L784.572 414.618L778.264 422.836L773.028 418.818L779.336 410.599L774.417 406.825C773.613 406.208 772.911 406.291 772.31 407.073L766.904 414.118L761.668 410.1L768 401.849C770.322 398.824 772.896 398.229 775.724 400.063L777.35 388.352L782.998 392.687L781.302 404.293L783.111 405.681L789.345 397.557L794.581 401.576L788.346 409.699L790.155 411.087L800.927 406.446L806.575 410.781ZM809.321 446.67L792.756 433.958L809.073 412.698L825.637 425.41L821.741 430.487L810.412 421.793L808.074 424.839L817.816 432.316L814.163 437.075L804.421 429.599L801.889 432.899L813.217 441.593L809.321 446.67ZM845.831 440.151C849.131 442.684 850.969 445.808 851.343 449.525C851.735 453.22 850.721 456.644 848.302 459.796C845.899 462.927 842.87 464.771 839.216 465.327C835.561 465.884 832.084 464.896 828.784 462.364C825.759 460.042 823.936 457.248 823.316 453.983C822.697 450.717 823.288 447.625 825.091 444.706L830.454 448.821C829.76 450.339 829.607 451.852 829.996 453.361C830.401 454.848 831.312 456.135 832.729 457.223C834.062 458.246 835.443 458.768 836.872 458.789C838.322 458.826 839.668 458.431 840.909 457.602L833.928 452.244L837.338 447.802L844.351 453.184C844.83 451.77 844.875 450.376 844.485 449.001C844.111 447.605 843.266 446.384 841.949 445.34C840.569 444.248 839.119 443.706 837.599 443.716C836.095 443.705 834.722 444.18 833.479 445.143L828.053 440.978C830.383 438.599 833.19 437.307 836.472 437.103C839.771 436.878 842.89 437.894 845.831 440.151ZM856.707 449.254L875.714 463.841L871.818 468.918L864.932 463.634L852.512 479.817L847.276 475.799L859.696 459.616L852.81 454.331L856.707 449.254ZM881.066 497.445C877.369 497.97 873.839 496.941 870.475 494.36C867.112 491.778 865.205 488.634 864.756 484.928C864.322 481.2 865.299 477.781 867.685 474.672C870.088 471.541 873.154 469.692 876.883 469.125C880.612 468.558 884.159 469.566 887.522 472.147C890.886 474.729 892.776 477.894 893.194 481.643C893.611 485.391 892.618 488.831 890.215 491.962C887.829 495.072 884.779 496.9 881.066 497.445ZM874.421 489.219C876.219 490.599 878.104 491.121 880.076 490.786C882.047 490.45 883.667 489.458 884.933 487.807C886.215 486.136 886.756 484.315 886.553 482.345C886.389 480.37 885.397 478.684 883.577 477.288C881.758 475.892 879.862 475.361 877.891 475.697C875.956 476.027 874.348 477.028 873.065 478.699C871.799 480.35 871.248 482.162 871.413 484.138C871.599 486.129 872.601 487.823 874.421 489.219ZM898.603 481.407L917.611 495.995L913.714 501.072L906.828 495.787L894.408 511.971L889.173 507.953L901.593 491.769L894.707 486.484L898.603 481.407ZM936.747 536.447L949.192 520.231L954.428 524.25L938.111 545.51L910.885 524.616L927.201 503.355L932.437 507.373L919.993 523.588L925.768 528.021L938.212 511.805L943.448 515.824L931.004 532.039L936.747 536.447ZM968.828 535.302C970.944 536.925 972.169 539.008 972.503 541.551C972.854 544.072 972.21 546.401 970.57 548.538C968.881 550.738 966.763 551.986 964.216 552.284C961.69 552.597 959.379 551.95 957.285 550.343L951.542 545.935L946.768 552.154L941.533 548.136L957.849 526.875L968.828 535.302ZM955.341 540.985L960.608 545.027C961.349 545.595 962.151 545.842 963.016 545.766C963.881 545.69 964.614 545.261 965.215 544.478C965.767 543.759 965.949 542.974 965.761 542.124C965.61 541.269 965.175 540.565 964.456 540.013L959.188 535.971L955.341 540.985ZM973.42 559.902L992.643 553.578L997.879 557.596L981.562 578.857L976.327 574.839L986.506 561.575L967.283 567.898L962.047 563.88L978.363 542.619L983.599 546.637L973.42 559.902ZM1015.36 571.012L1019.99 574.567C1021.62 575.818 1022.54 577.228 1022.75 578.798C1022.95 580.369 1022.43 581.968 1021.18 583.597L1015.6 590.864C1014.35 592.493 1012.94 593.411 1011.37 593.617C1009.8 593.824 1008.2 593.302 1006.57 592.052L1001.94 588.496L999.043 592.273L993.808 588.254L996.706 584.478L992.104 580.947C990.475 579.697 989.547 578.279 989.319 576.692C989.113 575.122 989.634 573.522 990.885 571.893L996.461 564.626C997.711 562.997 999.122 562.08 1000.69 561.873C1002.28 561.683 1003.89 562.212 1005.52 563.463L1010.12 566.994L1011.34 565.407L1016.58 569.425L1015.36 571.012ZM997.331 577.093L1000.5 579.528L1006.32 571.944L1003.15 569.509C1002.26 568.827 1001.49 568.92 1000.82 569.787L996.997 574.769C996.331 575.636 996.443 576.411 997.331 577.093ZM1011.24 585.703L1015.07 580.721C1015.73 579.854 1015.62 579.079 1014.73 578.397L1011.56 575.962L1005.74 583.546L1008.91 585.982C1009.8 586.663 1010.58 586.571 1011.24 585.703ZM1026.46 579.532L1045.47 594.12L1041.57 599.197L1034.69 593.912L1022.27 610.096L1017.03 606.077L1029.45 589.894L1022.57 584.609L1026.46 579.532Z" fill="white"/>
</svg>
