<svg width="1198" height="187" viewBox="0 0 1198 187" fill="none" xmlns="http://www.w3.org/2000/svg">
<path d="M236.748 43.7711V43.8671C237.601 44.1871 238.252 44.6884 238.7 45.3711C239.148 46.0324 239.372 46.7898 239.372 47.6431C239.372 48.8378 238.935 49.8724 238.06 50.7471C237.207 51.6218 236.076 52.0591 234.668 52.0591H225.036V36.2831H234.124C235.532 36.2831 236.641 36.6884 237.452 37.4991C238.284 38.2884 238.7 39.2591 238.7 40.4111C238.7 41.9471 238.049 43.0671 236.748 43.7711ZM234.06 38.5871H227.436V42.9391H233.932C234.636 42.9391 235.201 42.7258 235.628 42.2991C236.076 41.8724 236.3 41.3498 236.3 40.7311C236.3 40.1338 236.087 39.6324 235.66 39.2271C235.255 38.8004 234.721 38.5871 234.06 38.5871ZM227.436 49.7551H234.572C235.276 49.7551 235.841 49.5311 236.268 49.0831C236.716 48.6351 236.94 48.1018 236.94 47.4831C236.94 46.8431 236.705 46.3098 236.236 45.8831C235.788 45.4564 235.191 45.2431 234.444 45.2431H227.436V49.7551Z" fill="#00479A"/>
<path d="M263.281 57.2831H267.249C268.678 57.2831 269.819 57.7204 270.673 58.5951C271.547 59.4484 271.985 60.5898 271.985 62.0191V68.2911C271.985 69.7204 271.547 70.8724 270.673 71.7471C269.819 72.6218 268.678 73.0591 267.249 73.0591H263.281V79.4591H260.881V73.0591H256.913C255.483 73.0591 254.331 72.6218 253.457 71.7471C252.603 70.8724 252.177 69.7204 252.177 68.2911V62.0191C252.177 60.5898 252.603 59.4484 253.457 58.5951C254.331 57.7204 255.483 57.2831 256.913 57.2831H260.881V51.6191H263.281V57.2831ZM257.137 70.7231H260.881V59.5871H257.137C256.347 59.5871 255.718 59.8218 255.249 60.2911C254.801 60.7604 254.577 61.3898 254.577 62.1791V68.1631C254.577 68.9524 254.801 69.5818 255.249 70.0511C255.718 70.4991 256.347 70.7231 257.137 70.7231ZM269.585 68.1631V62.1791C269.585 61.3898 269.35 60.7604 268.881 60.2911C268.433 59.8218 267.814 59.5871 267.025 59.5871H263.281V70.7231H267.025C267.814 70.7231 268.433 70.4991 268.881 70.0511C269.35 69.5818 269.585 68.9524 269.585 68.1631Z" fill="#00479A"/>
<path d="M311.353 48.0991V45.2831H313.721V61.0591H311.353V58.1151H311.257C309.87 60.3338 307.811 61.4538 305.081 61.4751C302.755 61.4964 300.825 60.7178 299.289 59.1391C297.774 57.5604 297.017 55.5658 297.017 53.1551C297.017 50.7444 297.774 48.7604 299.289 47.2031C300.803 45.6244 302.745 44.8458 305.113 44.8671C306.457 44.8884 307.662 45.1871 308.729 45.7631C309.795 46.3391 310.638 47.1178 311.257 48.0991H311.353ZM305.433 59.1711C307.161 59.1711 308.579 58.5844 309.689 57.4111C310.798 56.2378 311.353 54.8191 311.353 53.1551C311.353 51.4698 310.798 50.0511 309.689 48.8991C308.601 47.7471 307.182 47.1711 305.433 47.1711C303.641 47.1711 302.19 47.7471 301.081 48.8991C299.971 50.0511 299.417 51.4698 299.417 53.1551C299.417 54.8404 299.971 56.2698 301.081 57.4431C302.19 58.5951 303.641 59.1711 305.433 59.1711Z" fill="#00479A"/>
<path d="M341.8 30.6191H352.2V33.0191H341.928C340.947 33.0191 340.158 33.3178 339.56 33.9151C338.984 34.4911 338.696 35.1844 338.696 35.9951C338.696 36.6564 338.899 37.2644 339.304 37.8191C339.731 38.3524 340.328 38.7151 341.096 38.9071L349.096 40.8911C350.547 41.2538 351.656 41.9578 352.424 43.0031C353.192 44.0271 353.576 45.1471 353.576 46.3631C353.576 47.8991 353.043 49.2324 351.976 50.3631C350.91 51.4938 349.448 52.0591 347.592 52.0591H336.744V49.6591H347.496C348.542 49.6591 349.374 49.3391 349.992 48.6991C350.611 48.0378 350.92 47.2804 350.92 46.4271C350.92 45.7444 350.696 45.1044 350.248 44.5071C349.8 43.9098 349.171 43.5044 348.36 43.2911L340.328 41.3071C338.942 40.9658 337.875 40.3044 337.128 39.3231C336.403 38.3418 336.04 37.2538 336.04 36.0591C336.04 34.6084 336.552 33.3391 337.576 32.2511C338.622 31.1631 340.03 30.6191 341.8 30.6191Z" fill="#00479A"/>
<path d="M287.761 43.9311V36.2831H290.161V52.0591H287.761V46.2031H280.017C278.801 46.2031 277.862 45.8938 277.201 45.2751C276.539 44.6351 276.209 43.7178 276.209 42.5231V36.2831H278.609V42.2031C278.609 42.7364 278.769 43.1631 279.089 43.4831C279.409 43.7818 279.846 43.9311 280.401 43.9311H287.761Z" fill="#00479A"/>
<path d="M286.539 43.1765L282.259 38.9942L283.956 35.1051L278.006 29.2901L274.18 31.0992L270.06 27.0734L291.156 17.7111L295.39 21.8487L286.539 43.1765ZM288.652 24.3023L282.35 27.2714L285.875 30.7156L288.652 24.3023Z" fill="#00479A"/>
<path d="M236.748 43.7711V43.8671C237.601 44.1871 238.252 44.6884 238.7 45.3711C239.148 46.0324 239.372 46.7898 239.372 47.6431C239.372 48.8378 238.935 49.8724 238.06 50.7471C237.207 51.6218 236.076 52.0591 234.668 52.0591H225.036V36.2831H234.124C235.532 36.2831 236.641 36.6884 237.452 37.4991C238.284 38.2884 238.7 39.2591 238.7 40.4111C238.7 41.9471 238.049 43.0671 236.748 43.7711ZM234.06 38.5871H227.436V42.9391H233.932C234.636 42.9391 235.201 42.7258 235.628 42.2991C236.076 41.8724 236.3 41.3498 236.3 40.7311C236.3 40.1338 236.087 39.6324 235.66 39.2271C235.255 38.8004 234.721 38.5871 234.06 38.5871ZM227.436 49.7551H234.572C235.276 49.7551 235.841 49.5311 236.268 49.0831C236.716 48.6351 236.94 48.1018 236.94 47.4831C236.94 46.8431 236.705 46.3098 236.236 45.8831C235.788 45.4564 235.191 45.2431 234.444 45.2431H227.436V49.7551Z" fill="#00479A"/>
<path d="M263.281 57.2831H267.249C268.678 57.2831 269.819 57.7204 270.673 58.5951C271.547 59.4484 271.985 60.5898 271.985 62.0191V68.2911C271.985 69.7204 271.547 70.8724 270.673 71.7471C269.819 72.6218 268.678 73.0591 267.249 73.0591H263.281V79.4591H260.881V73.0591H256.913C255.483 73.0591 254.331 72.6218 253.457 71.7471C252.603 70.8724 252.177 69.7204 252.177 68.2911V62.0191C252.177 60.5898 252.603 59.4484 253.457 58.5951C254.331 57.7204 255.483 57.2831 256.913 57.2831H260.881V51.6191H263.281V57.2831ZM257.137 70.7231H260.881V59.5871H257.137C256.347 59.5871 255.718 59.8218 255.249 60.2911C254.801 60.7604 254.577 61.3898 254.577 62.1791V68.1631C254.577 68.9524 254.801 69.5818 255.249 70.0511C255.718 70.4991 256.347 70.7231 257.137 70.7231ZM269.585 68.1631V62.1791C269.585 61.3898 269.35 60.7604 268.881 60.2911C268.433 59.8218 267.814 59.5871 267.025 59.5871H263.281V70.7231H267.025C267.814 70.7231 268.433 70.4991 268.881 70.0511C269.35 69.5818 269.585 68.9524 269.585 68.1631Z" fill="#00479A"/>
<path d="M311.353 48.0991V45.2831H313.721V61.0591H311.353V58.1151H311.257C309.87 60.3338 307.811 61.4538 305.081 61.4751C302.755 61.4964 300.825 60.7178 299.289 59.1391C297.774 57.5604 297.017 55.5658 297.017 53.1551C297.017 50.7444 297.774 48.7604 299.289 47.2031C300.803 45.6244 302.745 44.8458 305.113 44.8671C306.457 44.8884 307.662 45.1871 308.729 45.7631C309.795 46.3391 310.638 47.1178 311.257 48.0991H311.353ZM305.433 59.1711C307.161 59.1711 308.579 58.5844 309.689 57.4111C310.798 56.2378 311.353 54.8191 311.353 53.1551C311.353 51.4698 310.798 50.0511 309.689 48.8991C308.601 47.7471 307.182 47.1711 305.433 47.1711C303.641 47.1711 302.19 47.7471 301.081 48.8991C299.971 50.0511 299.417 51.4698 299.417 53.1551C299.417 54.8404 299.971 56.2698 301.081 57.4431C302.19 58.5951 303.641 59.1711 305.433 59.1711Z" fill="#00479A"/>
<path d="M314.716 23.2511H317.308C316.732 25.6831 315.495 27.6564 313.596 29.1711C311.698 30.6858 309.436 31.4431 306.812 31.4431C303.612 31.4431 300.988 30.3764 298.94 28.2431C296.914 26.0884 295.9 23.4538 295.9 20.3391C295.9 17.2458 296.914 14.6218 298.94 12.4671C300.988 10.2911 303.612 9.20311 306.812 9.20311C309.415 9.20311 311.655 9.94978 313.532 11.4431C315.431 12.9364 316.679 14.8778 317.276 17.2671H314.684C314.151 15.6031 313.18 14.2484 311.772 13.2031C310.364 12.1364 308.722 11.6031 306.844 11.6031C304.391 11.6031 302.364 12.4564 300.764 14.1631C299.164 15.8698 298.364 17.9284 298.364 20.3391C298.364 22.7711 299.164 24.8404 300.764 26.5471C302.364 28.2324 304.391 29.0751 306.844 29.0751C308.786 29.0751 310.46 28.5311 311.868 27.4431C313.298 26.3551 314.247 24.9578 314.716 23.2511Z" fill="#00479A"/>
<path d="M283.748 64.9301L289.879 60.3582L291.314 62.2821L278.667 71.713L277.233 69.7891L281.927 66.2883L277.298 60.0804C276.571 59.1056 276.258 58.1682 276.358 57.2682C276.476 56.3555 277.014 55.542 277.971 54.8278L282.974 51.0976L284.408 53.0215L279.663 56.5605C279.235 56.8793 278.989 57.2626 278.923 57.7105C278.875 58.1455 279.017 58.5854 279.349 59.03L283.748 64.9301Z" fill="#00479A"/>
<path d="M254.529 22.3798L263.81 28.7052L260.927 32.9361L251.936 26.8089C251.601 26.5807 251.291 26.4858 251.007 26.5243C250.74 26.5748 250.523 26.7235 250.355 26.9703C250.018 27.4639 250.075 27.9674 250.526 28.4809L255.793 34.1618C256.917 35.3922 257.519 36.706 257.599 38.1033C257.679 39.5006 257.323 40.7809 256.53 41.9444C255.545 43.39 254.213 44.3024 252.535 44.6817C250.856 45.0611 249.162 44.668 247.452 43.5027L237.774 36.9069L240.657 32.676L250.177 39.1637C250.494 39.3799 250.816 39.4572 251.142 39.3954C251.48 39.316 251.733 39.1529 251.901 38.9061C252.25 38.3949 252.166 37.8733 251.651 37.3414L246.375 31.6161C245.252 30.3857 244.65 29.0718 244.569 27.6746C244.489 26.2773 244.839 25.0058 245.62 23.8599C246.581 22.4496 247.88 21.5664 249.517 21.2103C251.166 20.8366 252.836 21.2264 254.529 22.3798Z" fill="#00479A"/>
<path d="M262.046 55.0557V55.1517C262.9 55.4717 263.55 55.973 263.998 56.6557C264.446 57.317 264.67 58.0743 264.67 58.9277C264.67 60.1223 264.233 61.157 263.358 62.0317C262.505 62.9063 261.374 63.3437 259.966 63.3437H250.334V47.5677H259.422C260.83 47.5677 261.94 47.973 262.75 48.7837C263.582 49.573 263.998 50.5437 263.998 51.6957C263.998 53.2317 263.348 54.3517 262.046 55.0557ZM259.358 49.8717H252.734V54.2237H259.23C259.934 54.2237 260.5 54.0103 260.926 53.5837C261.374 53.157 261.598 52.6343 261.598 52.0157C261.598 51.4183 261.385 50.917 260.958 50.5117C260.553 50.085 260.02 49.8717 259.358 49.8717ZM252.734 61.0397H259.87C260.574 61.0397 261.14 60.8157 261.566 60.3677C262.014 59.9197 262.238 59.3863 262.238 58.7677C262.238 58.1277 262.004 57.5943 261.534 57.1677C261.086 56.741 260.489 56.5277 259.742 56.5277H252.734V61.0397Z" fill="#00479A"/>
<path d="M294.818 70.3907H298.786C300.215 70.3907 301.356 70.828 302.21 71.7027C303.084 72.556 303.522 73.6974 303.522 75.1267V81.3987C303.522 82.8281 303.084 83.9801 302.21 84.8547C301.356 85.7294 300.215 86.1667 298.786 86.1667H294.818V92.5667H292.418V86.1667H288.45C287.02 86.1667 285.868 85.7294 284.994 84.8547C284.14 83.9801 283.714 82.8281 283.714 81.3987V75.1267C283.714 73.6974 284.14 72.556 284.994 71.7027C285.868 70.828 287.02 70.3907 288.45 70.3907H292.418V64.7267H294.818V70.3907ZM288.674 83.8307H292.418V72.6947H288.674C287.884 72.6947 287.255 72.9294 286.786 73.3987C286.338 73.8681 286.114 74.4974 286.114 75.2867V81.2707C286.114 82.0601 286.338 82.6894 286.786 83.1587C287.255 83.6067 287.884 83.8307 288.674 83.8307ZM301.122 81.2707V75.2867C301.122 74.4974 300.887 73.8681 300.418 73.3987C299.97 72.9294 299.351 72.6947 298.562 72.6947H294.818V83.8307H298.562C299.351 83.8307 299.97 83.6067 300.418 83.1587C300.887 82.6894 301.122 82.0601 301.122 81.2707Z" fill="#00479A"/>
<path d="M336.651 59.3837V56.5677H339.019V72.3437H336.651V69.3997H336.555C335.168 71.6183 333.109 72.7383 330.379 72.7597C328.053 72.781 326.123 72.0023 324.587 70.4237C323.072 68.845 322.315 66.8503 322.315 64.4397C322.315 62.029 323.072 60.045 324.587 58.4877C326.101 56.909 328.043 56.1303 330.411 56.1517C331.755 56.173 332.96 56.4717 334.027 57.0477C335.093 57.6237 335.936 58.4023 336.555 59.3837H336.651ZM330.731 70.4557C332.459 70.4557 333.877 69.869 334.987 68.6957C336.096 67.5223 336.651 66.1037 336.651 64.4397C336.651 62.7543 336.096 61.3357 334.987 60.1837C333.899 59.0317 332.48 58.4557 330.731 58.4557C328.939 58.4557 327.488 59.0317 326.379 60.1837C325.269 61.3357 324.715 62.7543 324.715 64.4397C324.715 66.125 325.269 67.5543 326.379 68.7277C327.488 69.8797 328.939 70.4557 330.731 70.4557Z" fill="#00479A"/>
<path d="M330.411 28.7437L335.851 14.5677H338.283L331.083 33.2557C330.635 34.4503 330.027 35.325 329.259 35.8797C328.512 36.4557 327.531 36.7437 326.315 36.7437H322.699V34.3437H326.315C326.998 34.3437 327.531 34.205 327.915 33.9277C328.32 33.6503 328.651 33.1917 328.907 32.5517L329.163 31.8797L321.835 14.5677H324.491L330.411 28.7437Z" fill="#00479A"/>
<path d="M374.921 54.0317V47.5677H377.321V63.3437H374.921V56.3357H365.161V63.3437H362.761V47.5677H365.161V54.0317H374.921Z" fill="#00479A"/>
<path d="M312.041 40.8198V33.1718H314.441V48.9478H312.041V43.0918H304.297C303.081 43.0918 302.142 42.7825 301.481 42.1638C300.82 41.5238 300.489 40.6065 300.489 39.4118V33.1718H302.889V39.0918C302.889 39.6252 303.049 40.0518 303.369 40.3718C303.689 40.6705 304.126 40.8198 304.681 40.8198H312.041Z" fill="#00479A"/>
<path d="M262.046 55.0557V55.1517C262.9 55.4717 263.55 55.973 263.998 56.6557C264.446 57.317 264.67 58.0743 264.67 58.9277C264.67 60.1223 264.233 61.157 263.358 62.0317C262.505 62.9063 261.374 63.3437 259.966 63.3437H250.334V47.5677H259.422C260.83 47.5677 261.94 47.973 262.75 48.7837C263.582 49.573 263.998 50.5437 263.998 51.6957C263.998 53.2317 263.348 54.3517 262.046 55.0557ZM259.358 49.8717H252.734V54.2237H259.23C259.934 54.2237 260.5 54.0103 260.926 53.5837C261.374 53.157 261.598 52.6343 261.598 52.0157C261.598 51.4183 261.385 50.917 260.958 50.5117C260.553 50.085 260.02 49.8717 259.358 49.8717ZM252.734 61.0397H259.87C260.574 61.0397 261.14 60.8157 261.566 60.3677C262.014 59.9197 262.238 59.3863 262.238 58.7677C262.238 58.1277 262.004 57.5943 261.534 57.1677C261.086 56.741 260.489 56.5277 259.742 56.5277H252.734V61.0397Z" fill="#00479A"/>
<path d="M336.651 59.3837V56.5677H339.019V72.3437H336.651V69.3997H336.555C335.168 71.6183 333.109 72.7383 330.379 72.7597C328.053 72.781 326.123 72.0023 324.587 70.4237C323.072 68.845 322.315 66.8503 322.315 64.4397C322.315 62.029 323.072 60.045 324.587 58.4877C326.101 56.909 328.043 56.1303 330.411 56.1517C331.755 56.173 332.96 56.4717 334.027 57.0477C335.093 57.6237 335.936 58.4023 336.555 59.3837H336.651ZM330.731 70.4557C332.459 70.4557 333.877 69.869 334.987 68.6957C336.096 67.5223 336.651 66.1037 336.651 64.4397C336.651 62.7543 336.096 61.3357 334.987 60.1837C333.899 59.0317 332.48 58.4557 330.731 58.4557C328.939 58.4557 327.488 59.0317 326.379 60.1837C325.269 61.3357 324.715 62.7543 324.715 64.4397C324.715 66.125 325.269 67.5543 326.379 68.7277C327.488 69.8797 328.939 70.4557 330.731 70.4557Z" fill="#00479A"/>
<path d="M330.411 28.7437L335.851 14.5677H338.283L331.083 33.2557C330.635 34.4503 330.027 35.325 329.259 35.8797C328.512 36.4557 327.531 36.7437 326.315 36.7437H322.699V34.3437H326.315C326.998 34.3437 327.531 34.205 327.915 33.9277C328.32 33.6503 328.651 33.1917 328.907 32.5517L329.163 31.8797L321.835 14.5677H324.491L330.411 28.7437Z" fill="#00479A"/>
<path d="M374.921 54.0317V47.5677H377.321V63.3437H374.921V56.3357H365.161V63.3437H362.761V47.5677H365.161V54.0317H374.921Z" fill="#00479A"/>
<path d="M308.34 76.8844L314.471 72.3124L315.905 74.2363L303.259 83.6672L301.824 81.7433L306.518 78.2426L301.889 72.0346C301.162 71.0598 300.849 70.1224 300.95 69.2224C301.067 68.3097 301.605 67.4962 302.563 66.7821L307.565 63.0518L309 64.9757L304.254 68.5147C303.826 68.8335 303.58 69.2169 303.515 69.6647C303.467 70.0998 303.608 70.5396 303.94 70.9843L308.34 76.8844Z" fill="#00479A"/>
<path d="M323.747 67.1161L309.943 57.7091L322.018 39.9922L335.821 49.3992L332.937 53.6301L323.497 47.1966L321.767 49.7351L329.885 55.2676L327.182 59.2341L319.064 53.7016L317.19 56.4517L326.63 62.8852L323.747 67.1161Z" fill="#00479A"/>
<path d="M28.6735 56.5317V56.6277C29.5269 56.9477 30.1775 57.449 30.6255 58.1317C31.0735 58.793 31.2975 59.5503 31.2975 60.4037C31.2975 61.5983 30.8602 62.633 29.9855 63.5077C29.1322 64.3823 28.0015 64.8197 26.5935 64.8197H16.9615V49.0437H26.0495C27.4575 49.0437 28.5669 49.449 29.3775 50.2597C30.2095 51.049 30.6255 52.0197 30.6255 53.1717C30.6255 54.7077 29.9749 55.8277 28.6735 56.5317ZM25.9855 51.3477H19.3615V55.6997H25.8575C26.5615 55.6997 27.1269 55.4863 27.5535 55.0597C28.0015 54.633 28.2255 54.1103 28.2255 53.4917C28.2255 52.8943 28.0122 52.393 27.5855 51.9877C27.1802 51.561 26.6469 51.3477 25.9855 51.3477ZM19.3615 62.5157H26.4975C27.2015 62.5157 27.7669 62.2917 28.1935 61.8437C28.6415 61.3957 28.8655 60.8623 28.8655 60.2437C28.8655 59.6037 28.6309 59.0703 28.1615 58.6437C27.7135 58.217 27.1162 58.0037 26.3695 58.0037H19.3615V62.5157Z" fill="#00479A"/>
<path d="M55.2062 70.0437H59.1742C60.6035 70.0437 61.7449 70.481 62.5982 71.3557C63.4729 72.209 63.9102 73.3503 63.9102 74.7797V81.0517C63.9102 82.481 63.4729 83.633 62.5982 84.5077C61.7449 85.3823 60.6035 85.8197 59.1742 85.8197H55.2062V92.2197H52.8062V85.8197H48.8382C47.4089 85.8197 46.2569 85.3823 45.3822 84.5077C44.5289 83.633 44.1022 82.481 44.1022 81.0517V74.7797C44.1022 73.3503 44.5289 72.209 45.3822 71.3557C46.2569 70.481 47.4089 70.0437 48.8382 70.0437H52.8062V64.3797H55.2062V70.0437ZM49.0622 83.4837H52.8062V72.3477H49.0622C48.2729 72.3477 47.6435 72.5823 47.1742 73.0517C46.7262 73.521 46.5022 74.1503 46.5022 74.9397V80.9237C46.5022 81.713 46.7262 82.3423 47.1742 82.8117C47.6435 83.2597 48.2729 83.4837 49.0622 83.4837ZM61.5102 80.9237V74.9397C61.5102 74.1503 61.2755 73.521 60.8062 73.0517C60.3582 72.5823 59.7395 72.3477 58.9502 72.3477H55.2062V83.4837H58.9502C59.7395 83.4837 60.3582 83.2597 60.8062 82.8117C61.2755 82.3423 61.5102 81.713 61.5102 80.9237Z" fill="#00479A"/>
<path d="M103.278 60.8597V58.0437H105.646V73.8197H103.278V70.8757H103.182C101.795 73.0943 99.7366 74.2143 97.006 74.2357C94.6806 74.257 92.75 73.4783 91.214 71.8997C89.6993 70.321 88.942 68.3263 88.942 65.9157C88.942 63.505 89.6993 61.521 91.214 59.9637C92.7286 58.385 94.67 57.6063 97.038 57.6277C98.382 57.649 99.5873 57.9477 100.654 58.5237C101.721 59.0997 102.563 59.8783 103.182 60.8597H103.278ZM97.358 71.9317C99.086 71.9317 100.505 71.345 101.614 70.1717C102.723 68.9983 103.278 67.5797 103.278 65.9157C103.278 64.2303 102.723 62.8117 101.614 61.6597C100.526 60.5077 99.1073 59.9317 97.358 59.9317C95.566 59.9317 94.1153 60.5077 93.006 61.6597C91.8966 62.8117 91.342 64.2303 91.342 65.9157C91.342 67.601 91.8966 69.0303 93.006 70.2037C94.1153 71.3557 95.566 71.9317 97.358 71.9317Z" fill="#00479A"/>
<path d="M133.726 43.3797H144.126V45.7797H133.854C132.872 45.7797 132.083 46.0783 131.486 46.6757C130.91 47.2517 130.622 47.945 130.622 48.7557C130.622 49.417 130.824 50.025 131.23 50.5797C131.656 51.113 132.254 51.4757 133.022 51.6677L141.022 53.6517C142.473 54.0143 143.582 54.7183 144.35 55.7637C145.118 56.7877 145.502 57.9077 145.502 59.1237C145.502 60.6597 144.969 61.993 143.902 63.1237C142.835 64.2543 141.374 64.8197 139.518 64.8197H128.67V62.4197H139.422C140.467 62.4197 141.299 62.0997 141.918 61.4597C142.536 60.7983 142.846 60.041 142.846 59.1877C142.846 58.505 142.622 57.865 142.174 57.2677C141.726 56.6703 141.097 56.265 140.286 56.0517L132.254 54.0677C130.867 53.7263 129.8 53.065 129.054 52.0837C128.328 51.1023 127.966 50.0143 127.966 48.8197C127.966 47.369 128.478 46.0997 129.502 45.0117C130.547 43.9237 131.955 43.3797 133.726 43.3797Z" fill="#00479A"/>
<path d="M79.6861 56.6917V49.0437H82.0861V64.8197H79.6861V58.9637H71.9421C70.7261 58.9637 69.7874 58.6543 69.1261 58.0357C68.4647 57.3957 68.1341 56.4783 68.1341 55.2837V49.0437H70.5341V54.9637C70.5341 55.497 70.6941 55.9237 71.0141 56.2437C71.3341 56.5423 71.7714 56.6917 72.3261 56.6917H79.6861Z" fill="#00479A"/>
<path d="M78.4641 55.9371L74.1843 51.7547L75.882 47.8657L69.9315 42.0506L66.1054 43.8597L61.9859 39.834L83.0814 30.4716L87.3154 34.6092L78.4641 55.9371ZM80.5776 37.0629L74.2757 40.0319L77.8002 43.4762L80.5776 37.0629Z" fill="#00479A"/>
<path d="M28.6735 56.5317V56.6277C29.5269 56.9477 30.1775 57.449 30.6255 58.1317C31.0735 58.793 31.2975 59.5503 31.2975 60.4037C31.2975 61.5983 30.8602 62.633 29.9855 63.5077C29.1322 64.3823 28.0015 64.8197 26.5935 64.8197H16.9615V49.0437H26.0495C27.4575 49.0437 28.5669 49.449 29.3775 50.2597C30.2095 51.049 30.6255 52.0197 30.6255 53.1717C30.6255 54.7077 29.9749 55.8277 28.6735 56.5317ZM25.9855 51.3477H19.3615V55.6997H25.8575C26.5615 55.6997 27.1269 55.4863 27.5535 55.0597C28.0015 54.633 28.2255 54.1103 28.2255 53.4917C28.2255 52.8943 28.0122 52.393 27.5855 51.9877C27.1802 51.561 26.6469 51.3477 25.9855 51.3477ZM19.3615 62.5157H26.4975C27.2015 62.5157 27.7669 62.2917 28.1935 61.8437C28.6415 61.3957 28.8655 60.8623 28.8655 60.2437C28.8655 59.6037 28.6309 59.0703 28.1615 58.6437C27.7135 58.217 27.1162 58.0037 26.3695 58.0037H19.3615V62.5157Z" fill="#00479A"/>
<path d="M55.2062 70.0437H59.1742C60.6035 70.0437 61.7449 70.481 62.5982 71.3557C63.4729 72.209 63.9102 73.3503 63.9102 74.7797V81.0517C63.9102 82.481 63.4729 83.633 62.5982 84.5077C61.7449 85.3823 60.6035 85.8197 59.1742 85.8197H55.2062V92.2197H52.8062V85.8197H48.8382C47.4089 85.8197 46.2569 85.3823 45.3822 84.5077C44.5289 83.633 44.1022 82.481 44.1022 81.0517V74.7797C44.1022 73.3503 44.5289 72.209 45.3822 71.3557C46.2569 70.481 47.4089 70.0437 48.8382 70.0437H52.8062V64.3797H55.2062V70.0437ZM49.0622 83.4837H52.8062V72.3477H49.0622C48.2729 72.3477 47.6435 72.5823 47.1742 73.0517C46.7262 73.521 46.5022 74.1503 46.5022 74.9397V80.9237C46.5022 81.713 46.7262 82.3423 47.1742 82.8117C47.6435 83.2597 48.2729 83.4837 49.0622 83.4837ZM61.5102 80.9237V74.9397C61.5102 74.1503 61.2755 73.521 60.8062 73.0517C60.3582 72.5823 59.7395 72.3477 58.9502 72.3477H55.2062V83.4837H58.9502C59.7395 83.4837 60.3582 83.2597 60.8062 82.8117C61.2755 82.3423 61.5102 81.713 61.5102 80.9237Z" fill="#00479A"/>
<path d="M103.278 60.8597V58.0437H105.646V73.8197H103.278V70.8757H103.182C101.795 73.0943 99.7366 74.2143 97.006 74.2357C94.6806 74.257 92.75 73.4783 91.214 71.8997C89.6993 70.321 88.942 68.3263 88.942 65.9157C88.942 63.505 89.6993 61.521 91.214 59.9637C92.7286 58.385 94.67 57.6063 97.038 57.6277C98.382 57.649 99.5873 57.9477 100.654 58.5237C101.721 59.0997 102.563 59.8783 103.182 60.8597H103.278ZM97.358 71.9317C99.086 71.9317 100.505 71.345 101.614 70.1717C102.723 68.9983 103.278 67.5797 103.278 65.9157C103.278 64.2303 102.723 62.8117 101.614 61.6597C100.526 60.5077 99.1073 59.9317 97.358 59.9317C95.566 59.9317 94.1153 60.5077 93.006 61.6597C91.8966 62.8117 91.342 64.2303 91.342 65.9157C91.342 67.601 91.8966 69.0303 93.006 70.2037C94.1153 71.3557 95.566 71.9317 97.358 71.9317Z" fill="#00479A"/>
<path d="M106.642 36.0117H109.234C108.658 38.4437 107.421 40.417 105.522 41.9317C103.623 43.4463 101.362 44.2037 98.738 44.2037C95.538 44.2037 92.914 43.137 90.866 41.0037C88.8393 38.849 87.826 36.2143 87.826 33.0997C87.826 30.0063 88.8393 27.3823 90.866 25.2277C92.914 23.0517 95.538 21.9637 98.738 21.9637C101.341 21.9637 103.581 22.7103 105.458 24.2037C107.357 25.697 108.605 27.6383 109.202 30.0277H106.61C106.077 28.3637 105.106 27.009 103.698 25.9637C102.29 24.897 100.647 24.3637 98.77 24.3637C96.3167 24.3637 94.29 25.217 92.69 26.9237C91.09 28.6303 90.29 30.689 90.29 33.0997C90.29 35.5317 91.09 37.601 92.69 39.3077C94.29 40.993 96.3167 41.8357 98.77 41.8357C100.711 41.8357 102.386 41.2917 103.794 40.2037C105.223 39.1157 106.173 37.7183 106.642 36.0117Z" fill="#00479A"/>
<path d="M75.6739 77.6907L81.8049 73.1187L83.2396 75.0427L70.5929 84.4736L69.1581 82.5496L73.8526 79.0489L69.2232 72.841C68.4963 71.8662 68.1831 70.9288 68.2837 70.0288C68.4014 69.116 68.9391 68.3026 69.8968 67.5884L74.8991 63.8581L76.3338 65.7821L71.5881 69.321C71.1605 69.6399 70.9142 70.0232 70.8489 70.471C70.8008 70.9061 70.9425 71.3459 71.2741 71.7906L75.6739 77.6907Z" fill="#00479A"/>
<path d="M46.4541 35.1404L55.7356 41.4658L52.8522 45.6967L43.8616 39.5695C43.5266 39.3412 43.217 39.2463 42.9325 39.2849C42.6658 39.3354 42.4483 39.4841 42.2801 39.7309C41.9437 40.2245 42.0007 40.728 42.451 41.2415L47.7185 46.9224C48.842 48.1528 49.444 49.4666 49.5244 50.8639C49.6048 52.2611 49.2486 53.5415 48.4556 54.705C47.4705 56.1505 46.1387 57.063 44.4603 57.4423C42.7819 57.8216 41.0877 57.4286 39.3777 56.2632L29.6995 49.6675L32.5829 45.4366L42.1024 51.9242C42.4197 52.1405 42.7414 52.2177 43.0675 52.156C43.4056 52.0766 43.6587 51.9135 43.8269 51.6667C44.1753 51.1554 44.0919 50.6339 43.5766 50.102L38.3007 44.3766C37.1772 43.1462 36.5752 41.8324 36.4948 40.4351C36.4144 39.0379 36.7647 37.7663 37.5456 36.6205C38.5067 35.2102 39.8056 34.327 41.4424 33.9709C43.0912 33.5972 44.7617 33.987 46.4541 35.1404Z" fill="#00479A"/>
<path d="M53.9718 67.8162V67.9122C54.8251 68.2322 55.4758 68.7336 55.9238 69.4162C56.3718 70.0776 56.5958 70.8349 56.5958 71.6882C56.5958 72.8829 56.1585 73.9176 55.2838 74.7922C54.4305 75.6669 53.2998 76.1042 51.8918 76.1042H42.2598V60.3282H51.3478C52.7558 60.3282 53.8651 60.7336 54.6758 61.5442C55.5078 62.3336 55.9238 63.3042 55.9238 64.4562C55.9238 65.9922 55.2731 67.1122 53.9718 67.8162ZM51.2838 62.6322H44.6598V66.9842H51.1558C51.8598 66.9842 52.4251 66.7709 52.8518 66.3442C53.2998 65.9176 53.5238 65.3949 53.5238 64.7762C53.5238 64.1789 53.3105 63.6775 52.8838 63.2722C52.4785 62.8455 51.9451 62.6322 51.2838 62.6322ZM44.6598 73.8002H51.7958C52.4998 73.8002 53.0651 73.5762 53.4918 73.1282C53.9398 72.6802 54.1638 72.1469 54.1638 71.5282C54.1638 70.8882 53.9291 70.3549 53.4598 69.9282C53.0118 69.5016 52.4145 69.2882 51.6678 69.2882H44.6598V73.8002Z" fill="#00479A"/>
<path d="M86.7432 83.1513H90.7112C92.1405 83.1513 93.2819 83.5886 94.1352 84.4633C95.0099 85.3166 95.4472 86.4579 95.4472 87.8873V94.1593C95.4472 95.5886 95.0099 96.7406 94.1352 97.6153C93.2819 98.4899 92.1405 98.9273 90.7112 98.9273H86.7432V105.327H84.3432V98.9273H80.3752C78.9459 98.9273 77.7939 98.4899 76.9192 97.6153C76.0659 96.7406 75.6392 95.5886 75.6392 94.1593V87.8873C75.6392 86.4579 76.0659 85.3166 76.9192 84.4633C77.7939 83.5886 78.9459 83.1513 80.3752 83.1513H84.3432V77.4873H86.7432V83.1513ZM80.5992 96.5913H84.3432V85.4553H80.5992C79.8099 85.4553 79.1805 85.6899 78.7112 86.1593C78.2632 86.6286 78.0392 87.2579 78.0392 88.0473V94.0313C78.0392 94.8206 78.2632 95.4499 78.7112 95.9193C79.1805 96.3673 79.8099 96.5913 80.5992 96.5913ZM93.0472 94.0313V88.0473C93.0472 87.2579 92.8125 86.6286 92.3432 86.1593C91.8952 85.6899 91.2765 85.4553 90.4872 85.4553H86.7432V96.5913H90.4872C91.2765 96.5913 91.8952 96.3673 92.3432 95.9193C92.8125 95.4499 93.0472 94.8206 93.0472 94.0313Z" fill="#00479A"/>
<path d="M128.576 72.1442V69.3282H130.944V85.1042H128.576V82.1602H128.48C127.094 84.3789 125.035 85.4989 122.304 85.5202C119.979 85.5416 118.048 84.7629 116.512 83.1842C114.998 81.6056 114.24 79.6109 114.24 77.2002C114.24 74.7896 114.998 72.8056 116.512 71.2482C118.027 69.6695 119.968 68.8909 122.336 68.9122C123.68 68.9336 124.886 69.2322 125.952 69.8082C127.019 70.3842 127.862 71.1629 128.48 72.1442H128.576ZM122.656 83.2162C124.384 83.2162 125.803 82.6296 126.912 81.4562C128.022 80.2829 128.576 78.8642 128.576 77.2002C128.576 75.5149 128.022 74.0962 126.912 72.9442C125.824 71.7922 124.406 71.2162 122.656 71.2162C120.864 71.2162 119.414 71.7922 118.304 72.9442C117.195 74.0962 116.64 75.5149 116.64 77.2002C116.64 78.8856 117.195 80.3149 118.304 81.4882C119.414 82.6402 120.864 83.2162 122.656 83.2162Z" fill="#00479A"/>
<path d="M122.336 41.5042L127.776 27.3282H130.208L123.008 46.0162C122.56 47.2109 121.952 48.0856 121.184 48.6402C120.438 49.2162 119.456 49.5042 118.24 49.5042H114.624V47.1042H118.24C118.923 47.1042 119.456 46.9656 119.84 46.6882C120.246 46.4109 120.576 45.9522 120.832 45.3122L121.088 44.6402L113.76 27.3282H116.416L122.336 41.5042Z" fill="#00479A"/>
<path d="M166.846 66.7922V60.3282H169.246V76.1042H166.846V69.0962H157.086V76.1042H154.686V60.3282H157.086V66.7922H166.846Z" fill="#00479A"/>
<path d="M103.967 53.5804V45.9324H106.367V61.7084H103.967V55.8524H96.2225C95.0065 55.8524 94.0678 55.5431 93.4065 54.9244C92.7452 54.2844 92.4145 53.3671 92.4145 52.1724V45.9324H94.8145V51.8524C94.8145 52.3857 94.9745 52.8124 95.2945 53.1324C95.6145 53.4311 96.0518 53.5804 96.6065 53.5804H103.967Z" fill="#00479A"/>
<path d="M53.9718 67.8162V67.9122C54.8251 68.2322 55.4758 68.7336 55.9238 69.4162C56.3718 70.0776 56.5958 70.8349 56.5958 71.6882C56.5958 72.8829 56.1585 73.9176 55.2838 74.7922C54.4305 75.6669 53.2998 76.1042 51.8918 76.1042H42.2598V60.3282H51.3478C52.7558 60.3282 53.8651 60.7336 54.6758 61.5442C55.5078 62.3336 55.9238 63.3042 55.9238 64.4562C55.9238 65.9922 55.2731 67.1122 53.9718 67.8162ZM51.2838 62.6322H44.6598V66.9842H51.1558C51.8598 66.9842 52.4251 66.7709 52.8518 66.3442C53.2998 65.9176 53.5238 65.3949 53.5238 64.7762C53.5238 64.1789 53.3105 63.6775 52.8838 63.2722C52.4785 62.8455 51.9451 62.6322 51.2838 62.6322ZM44.6598 73.8002H51.7958C52.4998 73.8002 53.0651 73.5762 53.4918 73.1282C53.9398 72.6802 54.1638 72.1469 54.1638 71.5282C54.1638 70.8882 53.9291 70.3549 53.4598 69.9282C53.0118 69.5016 52.4145 69.2882 51.6678 69.2882H44.6598V73.8002Z" fill="#00479A"/>
<path d="M128.576 72.1442V69.3282H130.944V85.1042H128.576V82.1602H128.48C127.094 84.3789 125.035 85.4989 122.304 85.5202C119.979 85.5416 118.048 84.7629 116.512 83.1842C114.998 81.6056 114.24 79.6109 114.24 77.2002C114.24 74.7896 114.998 72.8056 116.512 71.2482C118.027 69.6695 119.968 68.8909 122.336 68.9122C123.68 68.9336 124.886 69.2322 125.952 69.8082C127.019 70.3842 127.862 71.1629 128.48 72.1442H128.576ZM122.656 83.2162C124.384 83.2162 125.803 82.6296 126.912 81.4562C128.022 80.2829 128.576 78.8642 128.576 77.2002C128.576 75.5149 128.022 74.0962 126.912 72.9442C125.824 71.7922 124.406 71.2162 122.656 71.2162C120.864 71.2162 119.414 71.7922 118.304 72.9442C117.195 74.0962 116.64 75.5149 116.64 77.2002C116.64 78.8856 117.195 80.3149 118.304 81.4882C119.414 82.6402 120.864 83.2162 122.656 83.2162Z" fill="#00479A"/>
<path d="M122.336 41.5042L127.776 27.3282H130.208L123.008 46.0162C122.56 47.2109 121.952 48.0856 121.184 48.6402C120.438 49.2162 119.456 49.5042 118.24 49.5042H114.624V47.1042H118.24C118.923 47.1042 119.456 46.9656 119.84 46.6882C120.246 46.4109 120.576 45.9522 120.832 45.3122L121.088 44.6402L113.76 27.3282H116.416L122.336 41.5042Z" fill="#00479A"/>
<path d="M166.846 66.7922V60.3282H169.246V76.1042H166.846V69.0962H157.086V76.1042H154.686V60.3282H157.086V66.7922H166.846Z" fill="#00479A"/>
<path d="M100.265 89.6449L106.396 85.073L107.831 86.9969L95.1842 96.4278L93.7495 94.5038L98.4439 91.0031L93.8145 84.7952C93.0876 83.8204 92.7745 82.883 92.8751 81.983C92.9928 81.0702 93.5305 80.2568 94.4882 79.5426L99.4905 75.8123L100.925 77.7363L96.1794 81.2753C95.7519 81.5941 95.5055 81.9774 95.4403 82.4252C95.3921 82.8603 95.5339 83.3002 95.8654 83.7448L100.265 89.6449Z" fill="#00479A"/>
<path d="M115.672 79.8767L101.869 70.4696L113.943 52.7528L127.746 62.1598L124.863 66.3907L115.423 59.9571L113.693 62.4957L121.811 68.0282L119.108 71.9946L110.99 66.4622L109.115 69.2122L118.556 75.6458L115.672 79.8767Z" fill="#00479A"/>
<path d="M433.112 67.575V67.671C433.965 67.991 434.616 68.4924 435.064 69.175C435.512 69.8364 435.736 70.5937 435.736 71.447C435.736 72.6417 435.299 73.6764 434.424 74.551C433.571 75.4257 432.44 75.863 431.032 75.863H421.4V60.087H430.488C431.896 60.087 433.005 60.4924 433.816 61.303C434.648 62.0924 435.064 63.063 435.064 64.215C435.064 65.751 434.413 66.871 433.112 67.575ZM430.424 62.391H423.8V66.743H430.296C431 66.743 431.565 66.5297 431.992 66.103C432.44 65.6764 432.664 65.1537 432.664 64.535C432.664 63.9377 432.451 63.4364 432.024 63.031C431.619 62.6044 431.085 62.391 430.424 62.391ZM423.8 73.559H430.936C431.64 73.559 432.205 73.335 432.632 72.887C433.08 72.439 433.304 71.9057 433.304 71.287C433.304 70.647 433.069 70.1137 432.6 69.687C432.152 69.2604 431.555 69.047 430.808 69.047H423.8V73.559Z" fill="#00479A"/>
<path d="M459.645 81.087H463.613C465.042 81.087 466.183 81.5244 467.037 82.399C467.911 83.2524 468.349 84.3937 468.349 85.823V92.095C468.349 93.5244 467.911 94.6764 467.037 95.551C466.183 96.4257 465.042 96.863 463.613 96.863H459.645V103.263H457.245V96.863H453.277C451.847 96.863 450.695 96.4257 449.821 95.551C448.967 94.6764 448.541 93.5244 448.541 92.095V85.823C448.541 84.3937 448.967 83.2524 449.821 82.399C450.695 81.5244 451.847 81.087 453.277 81.087H457.245V75.423H459.645V81.087ZM453.501 94.527H457.245V83.391H453.501C452.711 83.391 452.082 83.6257 451.613 84.095C451.165 84.5644 450.941 85.1937 450.941 85.983V91.967C450.941 92.7564 451.165 93.3857 451.613 93.855C452.082 94.303 452.711 94.527 453.501 94.527ZM465.949 91.967V85.983C465.949 85.1937 465.714 84.5644 465.245 84.095C464.797 83.6257 464.178 83.391 463.389 83.391H459.645V94.527H463.389C464.178 94.527 464.797 94.303 465.245 93.855C465.714 93.3857 465.949 92.7564 465.949 91.967Z" fill="#00479A"/>
<path d="M507.717 71.903V69.087H510.085V84.863H507.717V81.919H507.621C506.234 84.1377 504.175 85.2577 501.445 85.279C499.119 85.3004 497.189 84.5217 495.653 82.943C494.138 81.3644 493.381 79.3697 493.381 76.959C493.381 74.5484 494.138 72.5644 495.653 71.007C497.167 69.4284 499.109 68.6497 501.477 68.671C502.821 68.6924 504.026 68.991 505.093 69.567C506.159 70.143 507.002 70.9217 507.621 71.903H507.717ZM501.797 82.975C503.525 82.975 504.943 82.3884 506.053 81.215C507.162 80.0417 507.717 78.623 507.717 76.959C507.717 75.2737 507.162 73.855 506.053 72.703C504.965 71.551 503.546 70.975 501.797 70.975C500.005 70.975 498.554 71.551 497.445 72.703C496.335 73.855 495.781 75.2737 495.781 76.959C495.781 78.6444 496.335 80.0737 497.445 81.247C498.554 82.399 500.005 82.975 501.797 82.975Z" fill="#00479A"/>
<path d="M538.164 54.423H548.564V56.823H538.292C537.311 56.823 536.522 57.1217 535.924 57.719C535.348 58.295 535.06 58.9884 535.06 59.799C535.06 60.4604 535.263 61.0684 535.668 61.623C536.095 62.1564 536.692 62.519 537.46 62.711L545.46 64.695C546.911 65.0577 548.02 65.7617 548.788 66.807C549.556 67.831 549.94 68.951 549.94 70.167C549.94 71.703 549.407 73.0364 548.34 74.167C547.274 75.2977 545.812 75.863 543.956 75.863H533.108V73.463H543.86C544.906 73.463 545.738 73.143 546.356 72.503C546.975 71.8417 547.284 71.0844 547.284 70.231C547.284 69.5484 547.06 68.9084 546.612 68.311C546.164 67.7137 545.535 67.3084 544.724 67.095L536.692 65.111C535.306 64.7697 534.239 64.1084 533.492 63.127C532.767 62.1457 532.404 61.0577 532.404 59.863C532.404 58.4124 532.916 57.143 533.94 56.055C534.986 54.967 536.394 54.423 538.164 54.423Z" fill="#00479A"/>
<path d="M484.125 67.735V60.087H486.525V75.863H484.125V70.007H476.381C475.165 70.007 474.226 69.6977 473.565 69.079C472.903 68.439 472.573 67.5217 472.573 66.327V60.087H474.973V66.007C474.973 66.5404 475.133 66.967 475.453 67.287C475.773 67.5857 476.21 67.735 476.765 67.735H484.125Z" fill="#00479A"/>
<path d="M482.903 66.9804L478.623 62.7981L480.321 58.909L474.37 53.094L470.544 54.9031L466.424 50.8773L487.52 41.515L491.754 45.6526L482.903 66.9804ZM485.016 48.1062L478.714 51.0753L482.239 54.5196L485.016 48.1062Z" fill="#00479A"/>
<path d="M433.112 67.575V67.671C433.965 67.991 434.616 68.4924 435.064 69.175C435.512 69.8364 435.736 70.5937 435.736 71.447C435.736 72.6417 435.299 73.6764 434.424 74.551C433.571 75.4257 432.44 75.863 431.032 75.863H421.4V60.087H430.488C431.896 60.087 433.005 60.4924 433.816 61.303C434.648 62.0924 435.064 63.063 435.064 64.215C435.064 65.751 434.413 66.871 433.112 67.575ZM430.424 62.391H423.8V66.743H430.296C431 66.743 431.565 66.5297 431.992 66.103C432.44 65.6764 432.664 65.1537 432.664 64.535C432.664 63.9377 432.451 63.4364 432.024 63.031C431.619 62.6044 431.085 62.391 430.424 62.391ZM423.8 73.559H430.936C431.64 73.559 432.205 73.335 432.632 72.887C433.08 72.439 433.304 71.9057 433.304 71.287C433.304 70.647 433.069 70.1137 432.6 69.687C432.152 69.2604 431.555 69.047 430.808 69.047H423.8V73.559Z" fill="#00479A"/>
<path d="M459.645 81.087H463.613C465.042 81.087 466.183 81.5244 467.037 82.399C467.911 83.2524 468.349 84.3937 468.349 85.823V92.095C468.349 93.5244 467.911 94.6764 467.037 95.551C466.183 96.4257 465.042 96.863 463.613 96.863H459.645V103.263H457.245V96.863H453.277C451.847 96.863 450.695 96.4257 449.821 95.551C448.967 94.6764 448.541 93.5244 448.541 92.095V85.823C448.541 84.3937 448.967 83.2524 449.821 82.399C450.695 81.5244 451.847 81.087 453.277 81.087H457.245V75.423H459.645V81.087ZM453.501 94.527H457.245V83.391H453.501C452.711 83.391 452.082 83.6257 451.613 84.095C451.165 84.5644 450.941 85.1937 450.941 85.983V91.967C450.941 92.7564 451.165 93.3857 451.613 93.855C452.082 94.303 452.711 94.527 453.501 94.527ZM465.949 91.967V85.983C465.949 85.1937 465.714 84.5644 465.245 84.095C464.797 83.6257 464.178 83.391 463.389 83.391H459.645V94.527H463.389C464.178 94.527 464.797 94.303 465.245 93.855C465.714 93.3857 465.949 92.7564 465.949 91.967Z" fill="#00479A"/>
<path d="M507.717 71.903V69.087H510.085V84.863H507.717V81.919H507.621C506.234 84.1377 504.175 85.2577 501.445 85.279C499.119 85.3004 497.189 84.5217 495.653 82.943C494.138 81.3644 493.381 79.3697 493.381 76.959C493.381 74.5484 494.138 72.5644 495.653 71.007C497.167 69.4284 499.109 68.6497 501.477 68.671C502.821 68.6924 504.026 68.991 505.093 69.567C506.159 70.143 507.002 70.9217 507.621 71.903H507.717ZM501.797 82.975C503.525 82.975 504.943 82.3884 506.053 81.215C507.162 80.0417 507.717 78.623 507.717 76.959C507.717 75.2737 507.162 73.855 506.053 72.703C504.965 71.551 503.546 70.975 501.797 70.975C500.005 70.975 498.554 71.551 497.445 72.703C496.335 73.855 495.781 75.2737 495.781 76.959C495.781 78.6444 496.335 80.0737 497.445 81.247C498.554 82.399 500.005 82.975 501.797 82.975Z" fill="#00479A"/>
<path d="M511.081 47.055H513.673C513.097 49.487 511.859 51.4604 509.961 52.975C508.062 54.4897 505.801 55.247 503.177 55.247C499.977 55.247 497.353 54.1804 495.305 52.047C493.278 49.8924 492.265 47.2577 492.265 44.143C492.265 41.0497 493.278 38.4257 495.305 36.271C497.353 34.095 499.977 33.007 503.177 33.007C505.779 33.007 508.019 33.7537 509.897 35.247C511.795 36.7404 513.043 38.6817 513.641 41.071H511.049C510.515 39.407 509.545 38.0524 508.137 37.007C506.729 35.9404 505.086 35.407 503.209 35.407C500.755 35.407 498.729 36.2604 497.129 37.967C495.529 39.6737 494.729 41.7324 494.729 44.143C494.729 46.575 495.529 48.6444 497.129 50.351C498.729 52.0364 500.755 52.879 503.209 52.879C505.15 52.879 506.825 52.335 508.233 51.247C509.662 50.159 510.611 48.7617 511.081 47.055Z" fill="#00479A"/>
<path d="M480.113 88.7341L486.243 84.1621L487.678 86.086L475.031 95.5169L473.597 93.593L478.291 90.0923L473.662 83.8843C472.935 82.9095 472.622 81.9721 472.722 81.0721C472.84 80.1594 473.378 79.3459 474.335 78.6318L479.338 74.9015L480.772 76.8254L476.027 80.3644C475.599 80.6832 475.353 81.0666 475.288 81.5144C475.239 81.9495 475.381 82.3893 475.713 82.834L480.113 88.7341Z" fill="#00479A"/>
<path d="M450.893 46.1837L460.174 52.5091L457.291 56.74L448.3 50.6129C447.965 50.3846 447.656 50.2897 447.371 50.3282C447.104 50.3788 446.887 50.5274 446.719 50.7742C446.382 51.2678 446.439 51.7714 446.89 52.2848L452.157 57.9658C453.281 59.1961 453.883 60.51 453.963 61.9072C454.043 63.3045 453.687 64.5849 452.894 65.7484C451.909 67.1939 450.577 68.1064 448.899 68.4857C447.22 68.865 445.526 68.472 443.816 67.3066L434.138 60.7109L437.021 56.48L446.541 62.9676C446.858 63.1838 447.18 63.2611 447.506 63.1993C447.844 63.1199 448.097 62.9568 448.266 62.71C448.614 62.1988 448.53 61.6772 448.015 61.1454L442.739 55.42C441.616 54.1896 441.014 52.8758 440.933 51.4785C440.853 50.0812 441.203 48.8097 441.984 47.6638C442.945 46.2535 444.244 45.3703 445.881 45.0142C447.53 44.6405 449.2 45.0304 450.893 46.1837Z" fill="#00479A"/>
<path d="M458.41 78.8596V78.9556C459.264 79.2756 459.914 79.7769 460.362 80.4596C460.81 81.1209 461.034 81.8782 461.034 82.7316C461.034 83.9262 460.597 84.9609 459.722 85.8356C458.869 86.7102 457.738 87.1476 456.33 87.1476H446.698V71.3716H455.786C457.194 71.3716 458.304 71.7769 459.114 72.5876C459.946 73.3769 460.362 74.3476 460.362 75.4996C460.362 77.0356 459.712 78.1556 458.41 78.8596ZM455.722 73.6756H449.098V78.0276H455.594C456.298 78.0276 456.864 77.8142 457.29 77.3876C457.738 76.9609 457.962 76.4382 457.962 75.8196C457.962 75.2222 457.749 74.7209 457.322 74.3156C456.917 73.8889 456.384 73.6756 455.722 73.6756ZM449.098 84.8436H456.234C456.938 84.8436 457.504 84.6196 457.93 84.1716C458.378 83.7236 458.602 83.1902 458.602 82.5716C458.602 81.9316 458.368 81.3982 457.898 80.9716C457.45 80.5449 456.853 80.3316 456.106 80.3316H449.098V84.8436Z" fill="#00479A"/>
<path d="M491.182 94.1946H495.15C496.579 94.1946 497.72 94.632 498.574 95.5066C499.448 96.36 499.886 97.5013 499.886 98.9306V105.203C499.886 106.632 499.448 107.784 498.574 108.659C497.72 109.533 496.579 109.971 495.15 109.971H491.182V116.371H488.782V109.971H484.814C483.384 109.971 482.232 109.533 481.358 108.659C480.504 107.784 480.078 106.632 480.078 105.203V98.9306C480.078 97.5013 480.504 96.36 481.358 95.5066C482.232 94.632 483.384 94.1946 484.814 94.1946H488.782V88.5306H491.182V94.1946ZM485.038 107.635H488.782V96.4986H485.038C484.248 96.4986 483.619 96.7333 483.15 97.2026C482.702 97.672 482.478 98.3013 482.478 99.0906V105.075C482.478 105.864 482.702 106.493 483.15 106.963C483.619 107.411 484.248 107.635 485.038 107.635ZM497.486 105.075V99.0906C497.486 98.3013 497.251 97.672 496.782 97.2026C496.334 96.7333 495.715 96.4986 494.926 96.4986H491.182V107.635H494.926C495.715 107.635 496.334 107.411 496.782 106.963C497.251 106.493 497.486 105.864 497.486 105.075Z" fill="#00479A"/>
<path d="M533.015 83.1876V80.3716H535.383V96.1476H533.015V93.2036H532.919C531.532 95.4222 529.473 96.5422 526.743 96.5636C524.417 96.5849 522.487 95.8062 520.951 94.2276C519.436 92.6489 518.679 90.6542 518.679 88.2436C518.679 85.8329 519.436 83.8489 520.951 82.2916C522.465 80.7129 524.407 79.9342 526.775 79.9556C528.119 79.9769 529.324 80.2756 530.391 80.8516C531.457 81.4276 532.3 82.2062 532.919 83.1876H533.015ZM527.095 94.2596C528.823 94.2596 530.241 93.6729 531.351 92.4996C532.46 91.3262 533.015 89.9076 533.015 88.2436C533.015 86.5582 532.46 85.1396 531.351 83.9876C530.263 82.8356 528.844 82.2596 527.095 82.2596C525.303 82.2596 523.852 82.8356 522.743 83.9876C521.633 85.1396 521.079 86.5582 521.079 88.2436C521.079 89.9289 521.633 91.3582 522.743 92.5316C523.852 93.6836 525.303 94.2596 527.095 94.2596Z" fill="#00479A"/>
<path d="M526.775 52.5476L532.215 38.3716H534.647L527.447 57.0596C526.999 58.2542 526.391 59.1289 525.623 59.6836C524.876 60.2596 523.895 60.5476 522.679 60.5476H519.063V58.1476H522.679C523.362 58.1476 523.895 58.0089 524.279 57.7316C524.684 57.4542 525.015 56.9956 525.271 56.3556L525.527 55.6836L518.199 38.3716H520.855L526.775 52.5476Z" fill="#00479A"/>
<path d="M571.285 77.8356V71.3716H573.685V87.1476H571.285V80.1396H561.525V87.1476H559.125V71.3716H561.525V77.8356H571.285Z" fill="#00479A"/>
<path d="M508.405 64.6238V56.9758H510.805V72.7518H508.405V66.8958H500.661C499.445 66.8958 498.506 66.5864 497.845 65.9678C497.184 65.3278 496.853 64.4104 496.853 63.2158V56.9758H499.253V62.8958C499.253 63.4291 499.413 63.8558 499.733 64.1758C500.053 64.4744 500.49 64.6238 501.045 64.6238H508.405Z" fill="#00479A"/>
<path d="M458.41 78.8596V78.9556C459.264 79.2756 459.914 79.7769 460.362 80.4596C460.81 81.1209 461.034 81.8782 461.034 82.7316C461.034 83.9262 460.597 84.9609 459.722 85.8356C458.869 86.7102 457.738 87.1476 456.33 87.1476H446.698V71.3716H455.786C457.194 71.3716 458.304 71.7769 459.114 72.5876C459.946 73.3769 460.362 74.3476 460.362 75.4996C460.362 77.0356 459.712 78.1556 458.41 78.8596ZM455.722 73.6756H449.098V78.0276H455.594C456.298 78.0276 456.864 77.8142 457.29 77.3876C457.738 76.9609 457.962 76.4382 457.962 75.8196C457.962 75.2222 457.749 74.7209 457.322 74.3156C456.917 73.8889 456.384 73.6756 455.722 73.6756ZM449.098 84.8436H456.234C456.938 84.8436 457.504 84.6196 457.93 84.1716C458.378 83.7236 458.602 83.1902 458.602 82.5716C458.602 81.9316 458.368 81.3982 457.898 80.9716C457.45 80.5449 456.853 80.3316 456.106 80.3316H449.098V84.8436Z" fill="#00479A"/>
<path d="M533.015 83.1876V80.3716H535.383V96.1476H533.015V93.2036H532.919C531.532 95.4222 529.473 96.5422 526.743 96.5636C524.417 96.5849 522.487 95.8062 520.951 94.2276C519.436 92.6489 518.679 90.6542 518.679 88.2436C518.679 85.8329 519.436 83.8489 520.951 82.2916C522.465 80.7129 524.407 79.9342 526.775 79.9556C528.119 79.9769 529.324 80.2756 530.391 80.8516C531.457 81.4276 532.3 82.2062 532.919 83.1876H533.015ZM527.095 94.2596C528.823 94.2596 530.241 93.6729 531.351 92.4996C532.46 91.3262 533.015 89.9076 533.015 88.2436C533.015 86.5582 532.46 85.1396 531.351 83.9876C530.263 82.8356 528.844 82.2596 527.095 82.2596C525.303 82.2596 523.852 82.8356 522.743 83.9876C521.633 85.1396 521.079 86.5582 521.079 88.2436C521.079 89.9289 521.633 91.3582 522.743 92.5316C523.852 93.6836 525.303 94.2596 527.095 94.2596Z" fill="#00479A"/>
<path d="M526.775 52.5476L532.215 38.3716H534.647L527.447 57.0596C526.999 58.2542 526.391 59.1289 525.623 59.6836C524.876 60.2596 523.895 60.5476 522.679 60.5476H519.063V58.1476H522.679C523.362 58.1476 523.895 58.0089 524.279 57.7316C524.684 57.4542 525.015 56.9956 525.271 56.3556L525.527 55.6836L518.199 38.3716H520.855L526.775 52.5476Z" fill="#00479A"/>
<path d="M571.285 77.8356V71.3716H573.685V87.1476H571.285V80.1396H561.525V87.1476H559.125V71.3716H561.525V77.8356H571.285Z" fill="#00479A"/>
<path d="M504.704 100.688L510.835 96.1163L512.27 98.0403L499.623 107.471L498.188 105.547L502.882 102.046L498.253 95.8385C497.526 94.8637 497.213 93.9263 497.314 93.0264C497.431 92.1136 497.969 91.3001 498.927 90.586L503.929 86.8557L505.364 88.7797L500.618 92.3186C500.19 92.6375 499.944 93.0208 499.879 93.4686C499.831 93.9037 499.972 94.3435 500.304 94.7882L504.704 100.688Z" fill="#00479A"/>
<path d="M520.111 90.92L506.307 81.513L518.382 63.7961L532.185 73.2032L529.302 77.434L519.861 71.0005L518.131 73.539L526.249 79.0715L523.546 83.038L515.428 77.5055L513.554 80.2556L522.994 86.6891L520.111 90.92Z" fill="#00479A"/>
<path d="M640.112 55.4432V55.5392C640.965 55.8592 641.616 56.3605 642.064 57.0432C642.512 57.7045 642.736 58.4619 642.736 59.3152C642.736 60.5099 642.299 61.5445 641.424 62.4192C640.571 63.2939 639.44 63.7312 638.032 63.7312H628.4V47.9552H637.488C638.896 47.9552 640.005 48.3605 640.816 49.1712C641.648 49.9605 642.064 50.9312 642.064 52.0832C642.064 53.6192 641.413 54.7392 640.112 55.4432ZM637.424 50.2592H630.8V54.6112H637.296C638 54.6112 638.565 54.3979 638.992 53.9712C639.44 53.5445 639.664 53.0219 639.664 52.4032C639.664 51.8059 639.451 51.3045 639.024 50.8992C638.619 50.4725 638.085 50.2592 637.424 50.2592ZM630.8 61.4272H637.936C638.64 61.4272 639.205 61.2032 639.632 60.7552C640.08 60.3072 640.304 59.7739 640.304 59.1552C640.304 58.5152 640.069 57.9819 639.6 57.5552C639.152 57.1285 638.555 56.9152 637.808 56.9152H630.8V61.4272Z" fill="#00479A"/>
<path d="M666.645 68.9552H670.613C672.042 68.9552 673.183 69.3925 674.037 70.2672C674.911 71.1205 675.349 72.2619 675.349 73.6912V79.9632C675.349 81.3925 674.911 82.5445 674.037 83.4192C673.183 84.2939 672.042 84.7312 670.613 84.7312H666.645V91.1312H664.245V84.7312H660.277C658.847 84.7312 657.695 84.2939 656.821 83.4192C655.967 82.5445 655.541 81.3925 655.541 79.9632V73.6912C655.541 72.2619 655.967 71.1205 656.821 70.2672C657.695 69.3925 658.847 68.9552 660.277 68.9552H664.245V63.2912H666.645V68.9552ZM660.501 82.3952H664.245V71.2592H660.501C659.711 71.2592 659.082 71.4939 658.613 71.9632C658.165 72.4325 657.941 73.0619 657.941 73.8512V79.8352C657.941 80.6245 658.165 81.2539 658.613 81.7232C659.082 82.1712 659.711 82.3952 660.501 82.3952ZM672.949 79.8352V73.8512C672.949 73.0619 672.714 72.4325 672.245 71.9632C671.797 71.4939 671.178 71.2592 670.389 71.2592H666.645V82.3952H670.389C671.178 82.3952 671.797 82.1712 672.245 81.7232C672.714 81.2539 672.949 80.6245 672.949 79.8352Z" fill="#00479A"/>
<path d="M714.717 59.7712V56.9552H717.085V72.7312H714.717V69.7872H714.621C713.234 72.0059 711.175 73.1259 708.445 73.1472C706.119 73.1685 704.189 72.3899 702.653 70.8112C701.138 69.2325 700.381 67.2379 700.381 64.8272C700.381 62.4165 701.138 60.4325 702.653 58.8752C704.167 57.2965 706.109 56.5179 708.477 56.5392C709.821 56.5605 711.026 56.8592 712.093 57.4352C713.159 58.0112 714.002 58.7899 714.621 59.7712H714.717ZM708.797 70.8432C710.525 70.8432 711.943 70.2565 713.053 69.0832C714.162 67.9099 714.717 66.4912 714.717 64.8272C714.717 63.1419 714.162 61.7232 713.053 60.5712C711.965 59.4192 710.546 58.8432 708.797 58.8432C707.005 58.8432 705.554 59.4192 704.445 60.5712C703.335 61.7232 702.781 63.1419 702.781 64.8272C702.781 66.5125 703.335 67.9419 704.445 69.1152C705.554 70.2672 707.005 70.8432 708.797 70.8432Z" fill="#00479A"/>
<path d="M745.164 42.2912H755.564V44.6912H745.292C744.311 44.6912 743.522 44.9899 742.924 45.5872C742.348 46.1632 742.06 46.8565 742.06 47.6672C742.06 48.3285 742.263 48.9365 742.668 49.4912C743.095 50.0245 743.692 50.3872 744.46 50.5792L752.46 52.5632C753.911 52.9259 755.02 53.6299 755.788 54.6752C756.556 55.6992 756.94 56.8192 756.94 58.0352C756.94 59.5712 756.407 60.9045 755.34 62.0352C754.274 63.1659 752.812 63.7312 750.956 63.7312H740.108V61.3312H750.86C751.906 61.3312 752.738 61.0112 753.356 60.3712C753.975 59.7099 754.284 58.9525 754.284 58.0992C754.284 57.4165 754.06 56.7765 753.612 56.1792C753.164 55.5819 752.535 55.1765 751.724 54.9632L743.692 52.9792C742.306 52.6379 741.239 51.9765 740.492 50.9952C739.767 50.0139 739.404 48.9259 739.404 47.7312C739.404 46.2805 739.916 45.0112 740.94 43.9232C741.986 42.8352 743.394 42.2912 745.164 42.2912Z" fill="#00479A"/>
<path d="M691.125 55.6032V47.9552H693.525V63.7312H691.125V57.8752H683.381C682.165 57.8752 681.226 57.5659 680.565 56.9472C679.903 56.3072 679.573 55.3899 679.573 54.1952V47.9552H681.973V53.8752C681.973 54.4085 682.133 54.8352 682.453 55.1552C682.773 55.4539 683.21 55.6032 683.765 55.6032H691.125Z" fill="#00479A"/>
<path d="M689.903 54.8486L685.623 50.6663L687.321 46.7772L681.37 40.9622L677.544 42.7713L673.424 38.7455L694.52 29.3832L698.754 33.5208L689.903 54.8486ZM692.016 35.9744L685.714 38.9434L689.239 42.3877L692.016 35.9744Z" fill="#00479A"/>
<path d="M640.112 55.4432V55.5392C640.965 55.8592 641.616 56.3605 642.064 57.0432C642.512 57.7045 642.736 58.4619 642.736 59.3152C642.736 60.5099 642.299 61.5445 641.424 62.4192C640.571 63.2939 639.44 63.7312 638.032 63.7312H628.4V47.9552H637.488C638.896 47.9552 640.005 48.3605 640.816 49.1712C641.648 49.9605 642.064 50.9312 642.064 52.0832C642.064 53.6192 641.413 54.7392 640.112 55.4432ZM637.424 50.2592H630.8V54.6112H637.296C638 54.6112 638.565 54.3979 638.992 53.9712C639.44 53.5445 639.664 53.0219 639.664 52.4032C639.664 51.8059 639.451 51.3045 639.024 50.8992C638.619 50.4725 638.085 50.2592 637.424 50.2592ZM630.8 61.4272H637.936C638.64 61.4272 639.205 61.2032 639.632 60.7552C640.08 60.3072 640.304 59.7739 640.304 59.1552C640.304 58.5152 640.069 57.9819 639.6 57.5552C639.152 57.1285 638.555 56.9152 637.808 56.9152H630.8V61.4272Z" fill="#00479A"/>
<path d="M666.645 68.9552H670.613C672.042 68.9552 673.183 69.3925 674.037 70.2672C674.911 71.1205 675.349 72.2619 675.349 73.6912V79.9632C675.349 81.3925 674.911 82.5445 674.037 83.4192C673.183 84.2939 672.042 84.7312 670.613 84.7312H666.645V91.1312H664.245V84.7312H660.277C658.847 84.7312 657.695 84.2939 656.821 83.4192C655.967 82.5445 655.541 81.3925 655.541 79.9632V73.6912C655.541 72.2619 655.967 71.1205 656.821 70.2672C657.695 69.3925 658.847 68.9552 660.277 68.9552H664.245V63.2912H666.645V68.9552ZM660.501 82.3952H664.245V71.2592H660.501C659.711 71.2592 659.082 71.4939 658.613 71.9632C658.165 72.4325 657.941 73.0619 657.941 73.8512V79.8352C657.941 80.6245 658.165 81.2539 658.613 81.7232C659.082 82.1712 659.711 82.3952 660.501 82.3952ZM672.949 79.8352V73.8512C672.949 73.0619 672.714 72.4325 672.245 71.9632C671.797 71.4939 671.178 71.2592 670.389 71.2592H666.645V82.3952H670.389C671.178 82.3952 671.797 82.1712 672.245 81.7232C672.714 81.2539 672.949 80.6245 672.949 79.8352Z" fill="#00479A"/>
<path d="M714.717 59.7712V56.9552H717.085V72.7312H714.717V69.7872H714.621C713.234 72.0059 711.175 73.1259 708.445 73.1472C706.119 73.1685 704.189 72.3899 702.653 70.8112C701.138 69.2325 700.381 67.2379 700.381 64.8272C700.381 62.4165 701.138 60.4325 702.653 58.8752C704.167 57.2965 706.109 56.5179 708.477 56.5392C709.821 56.5605 711.026 56.8592 712.093 57.4352C713.159 58.0112 714.002 58.7899 714.621 59.7712H714.717ZM708.797 70.8432C710.525 70.8432 711.943 70.2565 713.053 69.0832C714.162 67.9099 714.717 66.4912 714.717 64.8272C714.717 63.1419 714.162 61.7232 713.053 60.5712C711.965 59.4192 710.546 58.8432 708.797 58.8432C707.005 58.8432 705.554 59.4192 704.445 60.5712C703.335 61.7232 702.781 63.1419 702.781 64.8272C702.781 66.5125 703.335 67.9419 704.445 69.1152C705.554 70.2672 707.005 70.8432 708.797 70.8432Z" fill="#00479A"/>
<path d="M718.081 34.9232H720.673C720.097 37.3552 718.859 39.3285 716.961 40.8432C715.062 42.3579 712.801 43.1152 710.177 43.1152C706.977 43.1152 704.353 42.0485 702.305 39.9152C700.278 37.7605 699.265 35.1259 699.265 32.0112C699.265 28.9179 700.278 26.2939 702.305 24.1392C704.353 21.9632 706.977 20.8752 710.177 20.8752C712.779 20.8752 715.019 21.6219 716.897 23.1152C718.795 24.6085 720.043 26.5499 720.641 28.9392H718.049C717.515 27.2752 716.545 25.9205 715.137 24.8752C713.729 23.8085 712.086 23.2752 710.209 23.2752C707.755 23.2752 705.729 24.1285 704.129 25.8352C702.529 27.5419 701.729 29.6005 701.729 32.0112C701.729 34.4432 702.529 36.5125 704.129 38.2192C705.729 39.9045 707.755 40.7472 710.209 40.7472C712.15 40.7472 713.825 40.2032 715.233 39.1152C716.662 38.0272 717.611 36.6299 718.081 34.9232Z" fill="#00479A"/>
<path d="M687.113 76.6022L693.243 72.0303L694.678 73.9542L682.031 83.3851L680.597 81.4611L685.291 77.9604L680.662 71.7525C679.935 70.7777 679.622 69.8403 679.722 68.9403C679.84 68.0275 680.378 67.2141 681.335 66.4999L686.338 62.7696L687.772 64.6936L683.027 68.2326C682.599 68.5514 682.353 68.9347 682.288 69.3825C682.239 69.8176 682.381 70.2575 682.713 70.7021L687.113 76.6022Z" fill="#00479A"/>
<path d="M657.893 34.0519L667.174 40.3773L664.291 44.6082L655.3 38.481C654.965 38.2527 654.656 38.1579 654.371 38.1964C654.104 38.2469 653.887 38.3956 653.719 38.6424C653.382 39.136 653.439 39.6395 653.89 40.153L659.157 45.8339C660.281 47.0643 660.883 48.3781 660.963 49.7754C661.043 51.1726 660.687 52.453 659.894 53.6165C658.909 55.0621 657.577 55.9745 655.899 56.3538C654.22 56.7332 652.526 56.3401 650.816 55.1748L641.138 48.579L644.021 44.3481L653.541 50.8357C653.858 51.052 654.18 51.1292 654.506 51.0675C654.844 50.9881 655.097 50.825 655.266 50.5782C655.614 50.067 655.53 49.5454 655.015 49.0135L649.739 43.2881C648.616 42.0578 648.014 40.7439 647.933 39.3467C647.853 37.9494 648.203 36.6778 648.984 35.532C649.945 34.1217 651.244 33.2385 652.881 32.8824C654.53 32.5087 656.2 32.8985 657.893 34.0519Z" fill="#00479A"/>
<path d="M665.41 66.7277V66.8237C666.264 67.1437 666.914 67.6451 667.362 68.3277C667.81 68.9891 668.034 69.7464 668.034 70.5997C668.034 71.7944 667.597 72.8291 666.722 73.7037C665.869 74.5784 664.738 75.0157 663.33 75.0157H653.698V59.2397H662.786C664.194 59.2397 665.304 59.6451 666.114 60.4557C666.946 61.2451 667.362 62.2157 667.362 63.3677C667.362 64.9037 666.712 66.0237 665.41 66.7277ZM662.722 61.5437H656.098V65.8957H662.594C663.298 65.8957 663.864 65.6824 664.29 65.2557C664.738 64.8291 664.962 64.3064 664.962 63.6877C664.962 63.0904 664.749 62.5891 664.322 62.1837C663.917 61.7571 663.384 61.5437 662.722 61.5437ZM656.098 72.7117H663.234C663.938 72.7117 664.504 72.4877 664.93 72.0397C665.378 71.5917 665.602 71.0584 665.602 70.4397C665.602 69.7997 665.368 69.2664 664.898 68.8397C664.45 68.4131 663.853 68.1997 663.106 68.1997H656.098V72.7117Z" fill="#00479A"/>
<path d="M698.182 82.0628H702.15C703.579 82.0628 704.72 82.5001 705.574 83.3748C706.448 84.2281 706.886 85.3695 706.886 86.7988V93.0708C706.886 94.5001 706.448 95.6521 705.574 96.5268C704.72 97.4015 703.579 97.8388 702.15 97.8388H698.182V104.239H695.782V97.8388H691.814C690.384 97.8388 689.232 97.4015 688.358 96.5268C687.504 95.6521 687.078 94.5001 687.078 93.0708V86.7988C687.078 85.3695 687.504 84.2281 688.358 83.3748C689.232 82.5001 690.384 82.0628 691.814 82.0628H695.782V76.3988H698.182V82.0628ZM692.038 95.5028H695.782V84.3668H692.038C691.248 84.3668 690.619 84.6015 690.15 85.0708C689.702 85.5401 689.478 86.1695 689.478 86.9588V92.9428C689.478 93.7321 689.702 94.3615 690.15 94.8308C690.619 95.2788 691.248 95.5028 692.038 95.5028ZM704.486 92.9428V86.9588C704.486 86.1695 704.251 85.5401 703.782 85.0708C703.334 84.6015 702.715 84.3668 701.926 84.3668H698.182V95.5028H701.926C702.715 95.5028 703.334 95.2788 703.782 94.8308C704.251 94.3615 704.486 93.7321 704.486 92.9428Z" fill="#00479A"/>
<path d="M740.015 71.0557V68.2397H742.383V84.0157H740.015V81.0717H739.919C738.532 83.2904 736.473 84.4104 733.743 84.4317C731.417 84.4531 729.487 83.6744 727.951 82.0957C726.436 80.5171 725.679 78.5224 725.679 76.1117C725.679 73.7011 726.436 71.7171 727.951 70.1597C729.465 68.5811 731.407 67.8024 733.775 67.8237C735.119 67.8451 736.324 68.1437 737.391 68.7197C738.457 69.2957 739.3 70.0744 739.919 71.0557H740.015ZM734.095 82.1277C735.823 82.1277 737.241 81.5411 738.351 80.3677C739.46 79.1944 740.015 77.7757 740.015 76.1117C740.015 74.4264 739.46 73.0077 738.351 71.8557C737.263 70.7037 735.844 70.1277 734.095 70.1277C732.303 70.1277 730.852 70.7037 729.743 71.8557C728.633 73.0077 728.079 74.4264 728.079 76.1117C728.079 77.7971 728.633 79.2264 729.743 80.3997C730.852 81.5517 732.303 82.1277 734.095 82.1277Z" fill="#00479A"/>
<path d="M733.775 40.4157L739.215 26.2397H741.647L734.447 44.9277C733.999 46.1224 733.391 46.9971 732.623 47.5517C731.876 48.1277 730.895 48.4157 729.679 48.4157H726.063V46.0157H729.679C730.362 46.0157 730.895 45.8771 731.279 45.5997C731.684 45.3224 732.015 44.8637 732.271 44.2237L732.527 43.5517L725.199 26.2397H727.855L733.775 40.4157Z" fill="#00479A"/>
<path d="M778.285 65.7037V59.2397H780.685V75.0157H778.285V68.0077H768.525V75.0157H766.125V59.2397H768.525V65.7037H778.285Z" fill="#00479A"/>
<path d="M715.405 52.4919V44.8439H717.805V60.6199H715.405V54.7639H707.661C706.445 54.7639 705.506 54.4546 704.845 53.8359C704.184 53.1959 703.853 52.2786 703.853 51.0839V44.8439H706.253V50.7639C706.253 51.2973 706.413 51.7239 706.733 52.0439C707.053 52.3426 707.49 52.4919 708.045 52.4919H715.405Z" fill="#00479A"/>
<path d="M665.41 66.7277V66.8237C666.264 67.1437 666.914 67.6451 667.362 68.3277C667.81 68.9891 668.034 69.7464 668.034 70.5997C668.034 71.7944 667.597 72.8291 666.722 73.7037C665.869 74.5784 664.738 75.0157 663.33 75.0157H653.698V59.2397H662.786C664.194 59.2397 665.304 59.6451 666.114 60.4557C666.946 61.2451 667.362 62.2157 667.362 63.3677C667.362 64.9037 666.712 66.0237 665.41 66.7277ZM662.722 61.5437H656.098V65.8957H662.594C663.298 65.8957 663.864 65.6824 664.29 65.2557C664.738 64.8291 664.962 64.3064 664.962 63.6877C664.962 63.0904 664.749 62.5891 664.322 62.1837C663.917 61.7571 663.384 61.5437 662.722 61.5437ZM656.098 72.7117H663.234C663.938 72.7117 664.504 72.4877 664.93 72.0397C665.378 71.5917 665.602 71.0584 665.602 70.4397C665.602 69.7997 665.368 69.2664 664.898 68.8397C664.45 68.4131 663.853 68.1997 663.106 68.1997H656.098V72.7117Z" fill="#00479A"/>
<path d="M740.015 71.0557V68.2397H742.383V84.0157H740.015V81.0717H739.919C738.532 83.2904 736.473 84.4104 733.743 84.4317C731.417 84.4531 729.487 83.6744 727.951 82.0957C726.436 80.5171 725.679 78.5224 725.679 76.1117C725.679 73.7011 726.436 71.7171 727.951 70.1597C729.465 68.5811 731.407 67.8024 733.775 67.8237C735.119 67.8451 736.324 68.1437 737.391 68.7197C738.457 69.2957 739.3 70.0744 739.919 71.0557H740.015ZM734.095 82.1277C735.823 82.1277 737.241 81.5411 738.351 80.3677C739.46 79.1944 740.015 77.7757 740.015 76.1117C740.015 74.4264 739.46 73.0077 738.351 71.8557C737.263 70.7037 735.844 70.1277 734.095 70.1277C732.303 70.1277 730.852 70.7037 729.743 71.8557C728.633 73.0077 728.079 74.4264 728.079 76.1117C728.079 77.7971 728.633 79.2264 729.743 80.3997C730.852 81.5517 732.303 82.1277 734.095 82.1277Z" fill="#00479A"/>
<path d="M733.775 40.4157L739.215 26.2397H741.647L734.447 44.9277C733.999 46.1224 733.391 46.9971 732.623 47.5517C731.876 48.1277 730.895 48.4157 729.679 48.4157H726.063V46.0157H729.679C730.362 46.0157 730.895 45.8771 731.279 45.5997C731.684 45.3224 732.015 44.8637 732.271 44.2237L732.527 43.5517L725.199 26.2397H727.855L733.775 40.4157Z" fill="#00479A"/>
<path d="M778.285 65.7037V59.2397H780.685V75.0157H778.285V68.0077H768.525V75.0157H766.125V59.2397H768.525V65.7037H778.285Z" fill="#00479A"/>
<path d="M711.704 88.5565L717.835 83.9845L719.27 85.9084L706.623 95.3393L705.188 93.4154L709.882 89.9147L705.253 83.7067C704.526 82.7319 704.213 81.7945 704.314 80.8945C704.431 79.9818 704.969 79.1683 705.927 78.4541L710.929 74.7239L712.364 76.6478L707.618 80.1868C707.19 80.5056 706.944 80.8889 706.879 81.3368C706.831 81.7718 706.972 82.2117 707.304 82.6563L711.704 88.5565Z" fill="#00479A"/>
<path d="M727.111 78.7882L713.307 69.3812L725.382 51.6643L739.185 61.0713L736.302 65.3022L726.861 58.8687L725.131 61.4072L733.249 66.9397L730.546 70.9062L722.428 65.3737L720.554 68.1238L729.994 74.5573L727.111 78.7882Z" fill="#00479A"/>
<path d="M832.277 51.1553L832.249 51.2469C832.967 51.8076 833.438 52.4807 833.661 53.2662C833.891 54.0313 833.878 54.8209 833.622 55.6352C833.265 56.7751 832.538 57.6314 831.441 58.2042C830.365 58.7834 829.156 58.8623 827.812 58.4409L818.622 55.5581L823.343 40.5052L832.015 43.2252C833.358 43.6466 834.295 44.3654 834.826 45.3815C835.384 46.3837 835.49 47.4343 835.145 48.5335C834.686 49.9991 833.73 50.873 832.277 51.1553ZM831.264 45.4044L824.944 43.4219L823.641 47.5744L829.839 49.5186C830.511 49.7293 831.114 49.695 831.649 49.4156C832.204 49.1425 832.575 48.7109 832.76 48.1206C832.938 47.5506 832.885 47.0084 832.599 46.494C832.34 45.9655 831.895 45.6024 831.264 45.4044ZM821.601 54.078L828.41 56.2137C829.082 56.4244 829.688 56.3799 830.229 56.0801C830.791 55.7868 831.164 55.3449 831.35 54.7546C831.541 54.1439 831.477 53.5648 831.157 53.0173C830.857 52.4761 830.351 52.0937 829.638 51.8703L822.952 49.7728L821.601 54.078Z" fill="#00479A"/>
<path d="M853.55 71.989L857.336 73.1766C858.7 73.6043 859.658 74.3632 860.21 75.4532C860.789 76.5292 860.865 77.7491 860.437 79.1129L858.56 85.0974C858.132 86.4612 857.37 87.4295 856.274 88.0023C855.198 88.5815 853.978 88.6572 852.614 88.2294L848.828 87.0418L846.913 93.1484L844.623 92.4301L846.538 86.3235L842.752 85.1359C841.388 84.7081 840.42 83.9461 839.847 82.8497C839.295 81.7597 839.232 80.5328 839.66 79.169L841.537 73.1845C841.965 71.8207 842.714 70.8594 843.783 70.3006C844.88 69.7278 846.11 69.6553 847.474 70.0831L851.26 71.2707L852.955 65.8663L855.245 66.5846L853.55 71.989ZM843.665 82.974L847.237 84.0946L850.57 73.469L846.998 72.3485C846.245 72.1123 845.574 72.1478 844.986 72.4552C844.418 72.7689 844.016 73.3023 843.779 74.0555L841.988 79.7652C841.752 80.5183 841.777 81.1859 842.064 81.7678C842.378 82.3357 842.912 82.7378 843.665 82.974ZM856.308 84.257L858.099 78.5473C858.336 77.7941 858.3 77.1234 857.993 76.5351C857.706 75.9532 857.186 75.5441 856.432 75.3079L852.86 74.1874L849.527 84.8129L853.1 85.9334C853.853 86.1697 854.51 86.1411 855.072 85.8477C855.66 85.5404 856.072 85.0101 856.308 84.257Z" fill="#00479A"/>
<path d="M902.167 77.6134L903.009 74.9265L905.269 75.6353L900.547 90.6881L898.288 89.9794L899.169 87.1703L899.077 87.1416C897.09 88.8435 894.791 89.2961 892.179 88.4991C889.954 87.8235 888.345 86.5027 887.351 84.5367C886.379 82.5771 886.253 80.4472 886.975 78.147C887.696 75.8469 889.012 74.1805 890.924 73.1479C892.841 72.0949 894.927 71.9329 897.18 72.662C898.456 73.0846 899.517 73.7303 900.362 74.5992C901.207 75.468 901.778 76.4632 902.075 77.5847L902.167 77.6134ZM893.204 86.4061C894.853 86.9233 896.382 86.7881 897.792 86.0006C899.202 85.213 900.155 84.0254 900.653 82.4377C901.158 80.8296 901.053 79.31 900.339 77.8788C899.646 76.4539 898.465 75.4797 896.796 74.9562C895.086 74.4198 893.529 74.5353 892.126 75.3024C890.723 76.0696 889.769 77.2572 889.265 78.8653C888.76 80.4734 888.862 82.0032 889.569 83.4548C890.283 84.886 891.494 85.8698 893.204 86.4061Z" fill="#00479A"/>
<path d="M936.45 70.0475L946.374 73.1602L945.655 75.4502L935.854 72.3758C934.918 72.0821 934.075 72.1309 933.327 72.522C932.605 72.8992 932.122 73.4746 931.88 74.2481C931.682 74.8791 931.693 75.5199 931.914 76.1705C932.161 76.8071 932.623 77.3319 933.298 77.7449L940.338 82.0323C941.613 82.8125 942.461 83.8163 942.881 85.0436C943.307 86.2505 943.339 87.4341 942.975 88.5943C942.515 90.0599 941.607 91.1725 940.251 91.9321C938.895 92.6917 937.331 92.7938 935.56 92.2383L925.209 88.9915L925.928 86.7016L936.187 89.9195C937.184 90.2324 938.074 90.1761 938.856 89.7506C939.644 89.3047 940.166 88.6747 940.421 87.8605C940.625 87.2091 940.603 86.5314 940.355 85.8274C940.106 85.1233 939.627 84.5482 938.917 84.102L931.847 79.8051C930.626 79.0644 929.806 78.1141 929.388 76.9543C928.989 75.8008 928.969 74.6542 929.326 73.5143C929.76 72.1301 930.629 71.0722 931.932 70.3405C933.255 69.6153 934.761 69.5176 936.45 70.0475Z" fill="#00479A"/>
<path d="M880.904 66.5756L883.193 59.2782L885.483 59.9965L880.761 75.0494L878.471 74.3311L880.224 68.7435L872.835 66.4258C871.674 66.0618 870.871 65.4857 870.425 64.6975C869.986 63.8889 869.945 62.9146 870.302 61.7747L872.17 55.8208L874.46 56.5391L872.688 62.1877C872.529 62.6966 872.554 63.1516 872.763 63.5527C872.979 63.9334 873.352 64.2068 873.881 64.3728L880.904 66.5756Z" fill="#00479A"/>
<path d="M879.963 65.4899L877.132 60.2184L879.915 57.0156L875.978 49.6862L871.786 50.2673L869.06 45.1931L891.991 42.5737L894.792 47.7888L879.963 65.4899ZM887.629 48.1134L880.727 49.0602L883.059 53.4015L887.629 48.1134Z" fill="#00479A"/>
<path d="M832.277 51.1553L832.249 51.2469C832.967 51.8076 833.438 52.4807 833.661 53.2662C833.891 54.0313 833.878 54.8209 833.622 55.6352C833.265 56.7751 832.538 57.6314 831.441 58.2042C830.365 58.7834 829.156 58.8623 827.812 58.4409L818.622 55.5581L823.343 40.5052L832.015 43.2252C833.358 43.6466 834.295 44.3654 834.826 45.3815C835.384 46.3837 835.49 47.4343 835.145 48.5335C834.686 49.9991 833.73 50.873 832.277 51.1553ZM831.264 45.4044L824.944 43.4219L823.641 47.5744L829.839 49.5186C830.511 49.7293 831.114 49.695 831.649 49.4156C832.204 49.1425 832.575 48.7109 832.76 48.1206C832.938 47.5506 832.885 47.0084 832.599 46.494C832.34 45.9655 831.895 45.6024 831.264 45.4044ZM821.601 54.078L828.41 56.2137C829.082 56.4244 829.688 56.3799 830.229 56.0801C830.791 55.7868 831.164 55.3449 831.35 54.7546C831.541 54.1439 831.477 53.5648 831.157 53.0173C830.857 52.4761 830.351 52.0937 829.638 51.8703L822.952 49.7728L821.601 54.078Z" fill="#00479A"/>
<path d="M853.55 71.989L857.336 73.1766C858.7 73.6043 859.658 74.3632 860.21 75.4532C860.789 76.5292 860.865 77.7491 860.437 79.1129L858.56 85.0974C858.132 86.4612 857.37 87.4295 856.274 88.0023C855.198 88.5815 853.978 88.6572 852.614 88.2294L848.828 87.0418L846.913 93.1484L844.623 92.4301L846.538 86.3235L842.752 85.1359C841.388 84.7081 840.42 83.9461 839.847 82.8497C839.295 81.7597 839.232 80.5328 839.66 79.169L841.537 73.1845C841.965 71.8207 842.714 70.8594 843.783 70.3006C844.88 69.7278 846.11 69.6553 847.474 70.0831L851.26 71.2707L852.955 65.8663L855.245 66.5846L853.55 71.989ZM843.665 82.974L847.237 84.0946L850.57 73.469L846.998 72.3485C846.245 72.1123 845.574 72.1478 844.986 72.4552C844.418 72.7689 844.016 73.3023 843.779 74.0555L841.988 79.7652C841.752 80.5183 841.777 81.1859 842.064 81.7678C842.378 82.3357 842.912 82.7378 843.665 82.974ZM856.308 84.257L858.099 78.5473C858.336 77.7941 858.3 77.1234 857.993 76.5351C857.706 75.9532 857.186 75.5441 856.432 75.3079L852.86 74.1874L849.527 84.8129L853.1 85.9334C853.853 86.1697 854.51 86.1411 855.072 85.8477C855.66 85.5404 856.072 85.0101 856.308 84.257Z" fill="#00479A"/>
<path d="M902.167 77.6134L903.009 74.9265L905.269 75.6353L900.547 90.6881L898.288 89.9794L899.169 87.1703L899.077 87.1416C897.09 88.8435 894.791 89.2961 892.179 88.4991C889.954 87.8235 888.345 86.5027 887.351 84.5367C886.379 82.5771 886.253 80.4472 886.975 78.147C887.696 75.8469 889.012 74.1805 890.924 73.1479C892.841 72.0949 894.927 71.9329 897.18 72.662C898.456 73.0846 899.517 73.7303 900.362 74.5992C901.207 75.468 901.778 76.4632 902.075 77.5847L902.167 77.6134ZM893.204 86.4061C894.853 86.9233 896.382 86.7881 897.792 86.0006C899.202 85.213 900.155 84.0254 900.653 82.4377C901.158 80.8296 901.053 79.31 900.339 77.8788C899.646 76.4539 898.465 75.4797 896.796 74.9562C895.086 74.4198 893.529 74.5353 892.126 75.3024C890.723 76.0696 889.769 77.2572 889.265 78.8653C888.76 80.4734 888.862 82.0032 889.569 83.4548C890.283 84.886 891.494 85.8698 893.204 86.4061Z" fill="#00479A"/>
<path d="M912.813 54.9113L915.286 55.687C914.009 57.8352 912.238 59.3477 909.973 60.2247C907.708 61.1017 905.323 61.1475 902.82 60.3622C899.766 59.4044 897.582 57.6013 896.266 54.9528C894.977 52.2903 894.799 49.4732 895.731 46.5013C896.657 43.5497 898.409 41.3493 900.988 39.9C903.593 38.4366 906.423 38.1839 909.476 39.1416C911.959 39.9206 913.873 41.3034 915.218 43.2902C916.582 45.2833 917.192 47.5092 917.047 49.9678L914.574 49.192C914.563 47.4446 914.042 45.8616 913.011 44.4427C911.987 43.0036 910.579 42.003 908.788 41.4412C906.447 40.7069 904.258 40.9146 902.221 42.0641C900.183 43.2137 898.804 44.9386 898.082 47.2387C897.354 49.5592 897.498 51.7732 898.514 53.8805C899.537 55.9674 901.218 57.378 903.559 58.1123C905.411 58.6933 907.172 58.6755 908.841 58.0587C910.531 57.4484 911.855 56.3992 912.813 54.9113Z" fill="#00479A"/>
<path d="M870.79 85.4113L878.009 82.8838L878.802 85.149L863.912 90.3625L863.119 88.0973L868.646 86.1621L866.087 78.8532C865.685 77.7055 865.667 76.7174 866.032 75.8887C866.418 75.053 867.174 74.4378 868.302 74.043L874.191 71.9809L874.984 74.246L869.397 76.2024C868.894 76.3787 868.544 76.6707 868.347 77.0784C868.171 77.4792 868.175 77.9413 868.358 78.4648L870.79 85.4113Z" fill="#00479A"/>
<path d="M855.645 36.0661L862.608 44.8795L858.59 48.0535L851.846 39.5163C851.594 39.1982 851.327 39.015 851.045 38.9667C850.775 38.935 850.523 39.0118 850.288 39.1969C849.82 39.5672 849.723 40.0648 849.999 40.6895L853.325 47.6865C854.029 49.1967 854.21 50.6305 853.869 51.9878C853.527 53.3451 852.804 54.4601 851.699 55.333C850.327 56.4174 848.783 56.8894 847.068 56.749C845.353 56.6086 843.854 55.7266 842.571 54.1028L835.311 44.9128L839.328 41.7388L846.47 50.7782C846.708 51.0795 846.991 51.2495 847.321 51.2882C847.667 51.3136 847.958 51.2337 848.192 51.0486C848.678 50.6651 848.754 50.1424 848.422 49.4807L845.101 42.4388C844.397 40.9285 844.216 39.4947 844.558 38.1375C844.899 36.7802 845.614 35.6717 846.702 34.8121C848.041 33.7541 849.545 33.3002 851.213 33.4503C852.898 33.5872 854.375 34.4591 855.645 36.0661Z" fill="#00479A"/>
<path d="M853.039 69.4942L853.01 69.5858C853.728 70.1465 854.199 70.8196 854.422 71.605C854.652 72.3701 854.639 73.1598 854.383 73.974C854.026 75.1139 853.299 75.9703 852.203 76.5431C851.127 77.1222 849.917 77.2011 848.573 76.7797L839.383 73.8969L844.105 58.8441L852.776 61.5641C854.119 61.9855 855.057 62.7042 855.587 63.7204C856.145 64.7225 856.251 65.7732 855.907 66.8724C855.447 68.338 854.491 69.2119 853.039 69.4942ZM852.025 63.7433L845.705 61.7608L844.402 65.9133L850.601 67.8575C851.272 68.0682 851.876 68.0338 852.41 67.7544C852.966 67.4814 853.336 67.0497 853.521 66.4594C853.7 65.8895 853.646 65.3473 853.36 64.8328C853.101 64.3044 852.656 63.9412 852.025 63.7433ZM842.362 72.4169L849.171 74.5526C849.843 74.7633 850.45 74.7188 850.991 74.419C851.552 74.1256 851.926 73.6838 852.111 73.0935C852.302 72.4828 852.238 71.9037 851.918 71.3561C851.618 70.8149 851.112 70.4326 850.4 70.2091L843.713 68.1117L842.362 72.4169Z" fill="#00479A"/>
<path d="M879.718 93.9345L883.504 95.1221C884.868 95.5499 885.826 96.3088 886.379 97.3988C886.958 98.4747 887.033 99.6947 886.606 101.058L884.728 107.043C884.301 108.407 883.539 109.375 882.442 109.948C881.366 110.527 880.146 110.603 878.783 110.175L874.996 108.987L873.081 115.094L870.791 114.376L872.706 108.269L868.92 107.081C867.556 106.654 866.588 105.892 866.015 104.795C865.463 103.705 865.401 102.478 865.828 101.115L867.706 95.1301C868.133 93.7663 868.882 92.805 869.952 92.2461C871.048 91.6733 872.278 91.6008 873.642 92.0286L877.428 93.2162L879.123 87.8118L881.413 88.5302L879.718 93.9345ZM869.833 104.92L873.406 106.04L876.738 95.4146L873.166 94.2941C872.413 94.0578 871.742 94.0934 871.154 94.4007C870.586 94.7145 870.184 95.2479 869.948 96.0011L868.157 101.711C867.92 102.464 867.946 103.131 868.233 103.713C868.547 104.281 869.08 104.683 869.833 104.92ZM882.477 106.203L884.268 100.493C884.504 99.7397 884.468 99.069 884.161 98.4807C883.874 97.8988 883.354 97.4897 882.601 97.2535L879.028 96.1329L875.696 106.758L879.268 107.879C880.021 108.115 880.678 108.087 881.24 107.793C881.828 107.486 882.241 106.956 882.477 106.203Z" fill="#00479A"/>
<path d="M922.928 95.9523L923.771 93.2654L926.03 93.9741L921.308 109.027L919.049 108.318L919.93 105.509L919.838 105.48C917.851 107.182 915.552 107.635 912.94 106.838C910.715 106.162 909.106 104.842 908.113 102.876C907.14 100.916 907.014 98.7861 907.736 96.4859C908.457 94.1857 909.774 92.5193 911.685 91.4867C913.603 90.4337 915.688 90.2718 917.941 91.0009C919.217 91.4235 920.278 92.0692 921.123 92.938C921.969 93.8069 922.54 94.8021 922.836 95.9236L922.928 95.9523ZM913.965 104.745C915.614 105.262 917.143 105.127 918.553 104.339C919.963 103.552 920.917 102.364 921.415 100.777C921.919 99.1685 921.814 97.6488 921.101 96.2176C920.407 94.7928 919.226 93.8186 917.557 93.295C915.847 92.7587 914.29 92.8741 912.887 93.6413C911.484 94.4085 910.53 95.5961 910.026 97.2042C909.521 98.8123 909.623 100.342 910.33 101.794C911.044 103.225 912.256 104.209 913.965 104.745Z" fill="#00479A"/>
<path d="M926.144 64.8493L935.578 52.9512L937.898 53.6791L925.435 69.3556C924.65 70.3614 923.808 71.014 922.909 71.3134C922.025 71.6395 921.002 71.6206 919.842 71.2567L916.392 70.1744L917.11 67.8844L920.56 68.9667C921.211 69.171 921.762 69.1983 922.211 69.0486C922.681 68.9053 923.134 68.5666 923.57 68.0326L924.015 67.468L922.204 48.7564L924.738 49.5513L926.144 64.8493Z" fill="#00479A"/>
<path d="M961.045 102.3L962.98 96.1318L965.27 96.8501L960.548 111.903L958.258 111.185L960.356 104.498L951.043 101.577L948.946 108.264L946.656 107.545L951.377 92.4924L953.667 93.2107L951.733 99.3784L961.045 102.3Z" fill="#00479A"/>
<path d="M905.002 70.8739L907.291 63.5765L909.581 64.2948L904.86 79.3477L902.57 78.6294L904.322 73.0418L896.933 70.7241C895.773 70.3601 894.97 69.784 894.524 68.9958C894.085 68.1872 894.044 67.213 894.401 66.073L896.269 60.1191L898.559 60.8374L896.787 66.486C896.627 66.9949 896.652 67.4499 896.862 67.851C897.078 68.2318 897.45 68.5051 897.98 68.6711L905.002 70.8739Z" fill="#00479A"/>
<path d="M853.039 69.4942L853.01 69.5858C853.728 70.1465 854.199 70.8196 854.422 71.605C854.652 72.3701 854.639 73.1598 854.383 73.974C854.026 75.1139 853.299 75.9703 852.203 76.5431C851.127 77.1222 849.917 77.2011 848.573 76.7797L839.383 73.8969L844.105 58.8441L852.776 61.5641C854.119 61.9855 855.057 62.7042 855.587 63.7204C856.145 64.7225 856.251 65.7732 855.907 66.8724C855.447 68.338 854.491 69.2119 853.039 69.4942ZM852.025 63.7433L845.705 61.7608L844.402 65.9133L850.601 67.8575C851.272 68.0682 851.876 68.0338 852.41 67.7544C852.966 67.4814 853.336 67.0497 853.521 66.4594C853.7 65.8895 853.646 65.3473 853.36 64.8328C853.101 64.3044 852.656 63.9412 852.025 63.7433ZM842.362 72.4169L849.171 74.5526C849.843 74.7633 850.45 74.7188 850.991 74.419C851.552 74.1256 851.926 73.6838 852.111 73.0935C852.302 72.4828 852.238 71.9037 851.918 71.3561C851.618 70.8149 851.112 70.4326 850.4 70.2091L843.713 68.1117L842.362 72.4169Z" fill="#00479A"/>
<path d="M922.928 95.9523L923.771 93.2654L926.03 93.9741L921.308 109.027L919.049 108.318L919.93 105.509L919.838 105.48C917.851 107.182 915.552 107.635 912.94 106.838C910.715 106.162 909.106 104.842 908.113 102.876C907.14 100.916 907.014 98.7861 907.736 96.4859C908.457 94.1857 909.774 92.5193 911.685 91.4867C913.603 90.4337 915.688 90.2718 917.941 91.0009C919.217 91.4235 920.278 92.0692 921.123 92.938C921.969 93.8069 922.54 94.8021 922.836 95.9236L922.928 95.9523ZM913.965 104.745C915.614 105.262 917.143 105.127 918.553 104.339C919.963 103.552 920.917 102.364 921.415 100.777C921.919 99.1685 921.814 97.6488 921.101 96.2176C920.407 94.7928 919.226 93.8186 917.557 93.295C915.847 92.7587 914.29 92.8741 912.887 93.6413C911.484 94.4085 910.53 95.5961 910.026 97.2042C909.521 98.8123 909.623 100.342 910.33 101.794C911.044 103.225 912.256 104.209 913.965 104.745Z" fill="#00479A"/>
<path d="M926.144 64.8493L935.578 52.9512L937.898 53.6791L925.435 69.3556C924.65 70.3614 923.808 71.014 922.909 71.3134C922.025 71.6395 921.002 71.6206 919.842 71.2567L916.392 70.1744L917.11 67.8844L920.56 68.9667C921.211 69.171 921.762 69.1983 922.211 69.0486C922.681 68.9053 923.134 68.5666 923.57 68.0326L924.015 67.468L922.204 48.7564L924.738 49.5513L926.144 64.8493Z" fill="#00479A"/>
<path d="M961.045 102.3L962.98 96.1318L965.27 96.8501L960.548 111.903L958.258 111.185L960.356 104.498L951.043 101.577L948.946 108.264L946.656 107.545L951.377 92.4924L953.667 93.2107L951.733 99.3784L961.045 102.3Z" fill="#00479A"/>
<path d="M890.677 104.178L897.895 101.65L898.688 103.915L883.799 109.129L883.005 106.864L888.532 104.928L885.973 97.6195C885.571 96.4718 885.553 95.4836 885.918 94.655C886.304 93.8193 887.06 93.2041 888.188 92.8093L894.077 90.7471L894.871 93.0123L889.283 94.9687C888.78 95.1449 888.43 95.4369 888.234 95.8447C888.058 96.2454 888.061 96.7075 888.244 97.2311L890.677 104.178Z" fill="#00479A"/>
<path d="M908.301 99.4682L897.946 86.3612L914.769 73.0701L925.124 86.1772L921.107 89.3512L914.025 80.3871L911.614 82.2915L917.704 90.0001L913.938 92.9757L907.848 85.2671L905.237 87.3302L912.318 96.2943L908.301 99.4682Z" fill="#00479A"/>
<path d="M1046.54 45.9166L1046.51 46.0082C1047.23 46.5689 1047.7 47.242 1047.92 48.0274C1048.15 48.7925 1048.14 49.5822 1047.88 50.3964C1047.53 51.5363 1046.8 52.3927 1045.7 52.9655C1044.63 53.5446 1043.42 53.6235 1042.07 53.2021L1032.88 50.3193L1037.61 35.2665L1046.28 37.9865C1047.62 38.4079 1048.56 39.1266 1049.09 40.1428C1049.65 41.1449 1049.75 42.1956 1049.41 43.2948C1048.95 44.7604 1047.99 45.6343 1046.54 45.9166ZM1045.53 40.1657L1039.21 38.1832L1037.9 42.3357L1044.1 44.2799C1044.77 44.4906 1045.38 44.4562 1045.91 44.1768C1046.47 43.9038 1046.84 43.4721 1047.02 42.8818C1047.2 42.3119 1047.15 41.7697 1046.86 41.2552C1046.6 40.7268 1046.16 40.3636 1045.53 40.1657ZM1035.86 48.8393L1042.67 50.975C1043.34 51.1857 1043.95 51.1412 1044.49 50.8414C1045.05 50.548 1045.43 50.1062 1045.61 49.5159C1045.8 48.9052 1045.74 48.3261 1045.42 47.7785C1045.12 47.2373 1044.61 46.855 1043.9 46.6315L1037.21 44.5341L1035.86 48.8393Z" fill="#00479A"/>
<path d="M1067.81 66.7502L1071.6 67.9378C1072.96 68.3656 1073.92 69.1245 1074.47 70.2145C1075.05 71.2905 1075.13 72.5104 1074.7 73.8742L1072.82 79.8587C1072.39 81.2225 1071.63 82.1908 1070.54 82.7636C1069.46 83.3428 1068.24 83.4185 1066.88 82.9907L1063.09 81.8031L1061.17 87.9097L1058.88 87.1914L1060.8 81.0848L1057.01 79.8972C1055.65 79.4694 1054.68 78.7073 1054.11 77.611C1053.56 76.521 1053.49 75.2941 1053.92 73.9303L1055.8 67.9458C1056.23 66.582 1056.98 65.6207 1058.05 65.0618C1059.14 64.489 1060.37 64.4165 1061.74 64.8443L1065.52 66.0319L1067.22 60.6276L1069.51 61.3459L1067.81 66.7502ZM1057.93 77.7353L1061.5 78.8559L1064.83 68.2303L1061.26 67.1098C1060.51 66.8735 1059.84 66.9091 1059.25 67.2164C1058.68 67.5302 1058.28 68.0636 1058.04 68.8168L1056.25 74.5265C1056.01 75.2796 1056.04 75.9471 1056.33 76.529C1056.64 77.097 1057.17 77.4991 1057.93 77.7353ZM1070.57 79.0182L1072.36 73.3085C1072.6 72.5554 1072.56 71.8847 1072.25 71.2964C1071.97 70.7145 1071.45 70.3054 1070.69 70.0692L1067.12 68.9486L1063.79 79.5742L1067.36 80.6947C1068.11 80.9309 1068.77 80.9024 1069.33 80.609C1069.92 80.3016 1070.33 79.7714 1070.57 79.0182Z" fill="#00479A"/>
<path d="M1116.43 72.3747L1117.27 69.6878L1119.53 70.3965L1114.81 85.4494L1112.55 84.7407L1113.43 81.9316L1113.34 81.9029C1111.35 83.6048 1109.05 84.0574 1106.44 83.2604C1104.22 82.5848 1102.61 81.264 1101.61 79.298C1100.64 77.3384 1100.51 75.2085 1101.24 72.9083C1101.96 70.6082 1103.27 68.9418 1105.19 67.9091C1107.1 66.8562 1109.19 66.6942 1111.44 67.4233C1112.72 67.8459 1113.78 68.4916 1114.62 69.3605C1115.47 70.2293 1116.04 71.2245 1116.34 72.346L1116.43 72.3747ZM1107.47 81.1674C1109.11 81.6846 1110.64 81.5494 1112.05 80.7619C1113.46 79.9743 1114.42 78.7867 1114.92 77.199C1115.42 75.5909 1115.32 74.0713 1114.6 72.64C1113.91 71.2152 1112.73 70.241 1111.06 69.7175C1109.35 69.1811 1107.79 69.2966 1106.39 70.0637C1104.98 70.8309 1104.03 72.0185 1103.53 73.6266C1103.02 75.2347 1103.12 76.7645 1103.83 78.2161C1104.54 79.6473 1105.76 80.6311 1107.47 81.1674Z" fill="#00479A"/>
<path d="M1150.71 64.8088L1160.64 67.9214L1159.92 70.2114L1150.12 67.1371C1149.18 66.8434 1148.34 66.8921 1147.59 67.2833C1146.87 67.6605 1146.38 68.2359 1146.14 69.0094C1145.94 69.6404 1145.96 70.2812 1146.18 70.9317C1146.42 71.5683 1146.88 72.0931 1147.56 72.5062L1154.6 76.7936C1155.88 77.5738 1156.72 78.5775 1157.14 79.8048C1157.57 81.0117 1157.6 82.1953 1157.24 83.3556C1156.78 84.8212 1155.87 85.9338 1154.51 86.6934C1153.16 87.453 1151.59 87.555 1149.82 86.9995L1139.47 83.7528L1140.19 81.4628L1150.45 84.6808C1151.45 84.9937 1152.34 84.9373 1153.12 84.5118C1153.91 84.066 1154.43 83.436 1154.68 82.6217C1154.89 81.9704 1154.87 81.2927 1154.62 80.5886C1154.37 79.8846 1153.89 79.3095 1153.18 78.8633L1146.11 74.5663C1144.89 73.8256 1144.07 72.8753 1143.65 71.7155C1143.25 70.5621 1143.23 69.4154 1143.59 68.2755C1144.02 66.8913 1144.89 65.8334 1146.19 65.1018C1147.52 64.3765 1149.02 64.2789 1150.71 64.8088Z" fill="#00479A"/>
<path d="M1095.17 61.3369L1097.45 54.0395L1099.74 54.7578L1095.02 69.8106L1092.73 69.0923L1094.49 63.5047L1087.1 61.187C1085.94 60.8231 1085.13 60.247 1084.69 59.4588C1084.25 58.6502 1084.21 57.6759 1084.56 56.536L1086.43 50.582L1088.72 51.3003L1086.95 56.949C1086.79 57.4579 1086.82 57.9129 1087.03 58.314C1087.24 58.6947 1087.61 58.9681 1088.14 59.1341L1095.17 61.3369Z" fill="#00479A"/>
<path d="M1094.23 60.2512L1091.39 54.9797L1094.18 51.7769L1090.24 44.4475L1086.05 45.0286L1083.32 39.9544L1106.25 37.335L1109.05 42.5501L1094.23 60.2512ZM1101.89 42.8747L1094.99 43.8215L1097.32 48.1628L1101.89 42.8747Z" fill="#00479A"/>
<path d="M1046.54 45.9166L1046.51 46.0082C1047.23 46.5689 1047.7 47.242 1047.92 48.0274C1048.15 48.7925 1048.14 49.5822 1047.88 50.3964C1047.53 51.5363 1046.8 52.3927 1045.7 52.9655C1044.63 53.5446 1043.42 53.6235 1042.07 53.2021L1032.88 50.3193L1037.61 35.2665L1046.28 37.9865C1047.62 38.4079 1048.56 39.1266 1049.09 40.1428C1049.65 41.1449 1049.75 42.1956 1049.41 43.2948C1048.95 44.7604 1047.99 45.6343 1046.54 45.9166ZM1045.53 40.1657L1039.21 38.1832L1037.9 42.3357L1044.1 44.2799C1044.77 44.4906 1045.38 44.4562 1045.91 44.1768C1046.47 43.9038 1046.84 43.4721 1047.02 42.8818C1047.2 42.3119 1047.15 41.7697 1046.86 41.2552C1046.6 40.7268 1046.16 40.3636 1045.53 40.1657ZM1035.86 48.8393L1042.67 50.975C1043.34 51.1857 1043.95 51.1412 1044.49 50.8414C1045.05 50.548 1045.43 50.1062 1045.61 49.5159C1045.8 48.9052 1045.74 48.3261 1045.42 47.7785C1045.12 47.2373 1044.61 46.855 1043.9 46.6315L1037.21 44.5341L1035.86 48.8393Z" fill="#00479A"/>
<path d="M1067.81 66.7502L1071.6 67.9378C1072.96 68.3656 1073.92 69.1245 1074.47 70.2145C1075.05 71.2905 1075.13 72.5104 1074.7 73.8742L1072.82 79.8587C1072.39 81.2225 1071.63 82.1908 1070.54 82.7636C1069.46 83.3428 1068.24 83.4185 1066.88 82.9907L1063.09 81.8031L1061.17 87.9097L1058.88 87.1914L1060.8 81.0848L1057.01 79.8972C1055.65 79.4694 1054.68 78.7073 1054.11 77.611C1053.56 76.521 1053.49 75.2941 1053.92 73.9303L1055.8 67.9458C1056.23 66.582 1056.98 65.6207 1058.05 65.0618C1059.14 64.489 1060.37 64.4165 1061.74 64.8443L1065.52 66.0319L1067.22 60.6276L1069.51 61.3459L1067.81 66.7502ZM1057.93 77.7353L1061.5 78.8559L1064.83 68.2303L1061.26 67.1098C1060.51 66.8735 1059.84 66.9091 1059.25 67.2164C1058.68 67.5302 1058.28 68.0636 1058.04 68.8168L1056.25 74.5265C1056.01 75.2796 1056.04 75.9471 1056.33 76.529C1056.64 77.097 1057.17 77.4991 1057.93 77.7353ZM1070.57 79.0182L1072.36 73.3085C1072.6 72.5554 1072.56 71.8847 1072.25 71.2964C1071.97 70.7145 1071.45 70.3054 1070.69 70.0692L1067.12 68.9486L1063.79 79.5742L1067.36 80.6947C1068.11 80.9309 1068.77 80.9024 1069.33 80.609C1069.92 80.3016 1070.33 79.7714 1070.57 79.0182Z" fill="#00479A"/>
<path d="M1116.43 72.3747L1117.27 69.6878L1119.53 70.3965L1114.81 85.4494L1112.55 84.7407L1113.43 81.9316L1113.34 81.9029C1111.35 83.6048 1109.05 84.0574 1106.44 83.2604C1104.22 82.5848 1102.61 81.264 1101.61 79.298C1100.64 77.3384 1100.51 75.2085 1101.24 72.9083C1101.96 70.6082 1103.27 68.9418 1105.19 67.9091C1107.1 66.8562 1109.19 66.6942 1111.44 67.4233C1112.72 67.8459 1113.78 68.4916 1114.62 69.3605C1115.47 70.2293 1116.04 71.2245 1116.34 72.346L1116.43 72.3747ZM1107.47 81.1674C1109.11 81.6846 1110.64 81.5494 1112.05 80.7619C1113.46 79.9743 1114.42 78.7867 1114.92 77.199C1115.42 75.5909 1115.32 74.0713 1114.6 72.64C1113.91 71.2152 1112.73 70.241 1111.06 69.7175C1109.35 69.1811 1107.79 69.2966 1106.39 70.0637C1104.98 70.8309 1104.03 72.0185 1103.53 73.6266C1103.02 75.2347 1103.12 76.7645 1103.83 78.2161C1104.54 79.6473 1105.76 80.6311 1107.47 81.1674Z" fill="#00479A"/>
<path d="M1127.08 49.6726L1129.55 50.4483C1128.27 52.5965 1126.5 54.109 1124.23 54.986C1121.97 55.863 1119.59 55.9088 1117.08 55.1234C1114.03 54.1657 1111.84 52.3626 1110.53 49.7141C1109.24 47.0516 1109.06 44.2344 1109.99 41.2626C1110.92 38.311 1112.67 36.1106 1115.25 34.6612C1117.86 33.1979 1120.68 32.9452 1123.74 33.9029C1126.22 34.6819 1128.14 36.0647 1129.48 38.0515C1130.84 40.0446 1131.45 42.2705 1131.31 44.729L1128.84 43.9533C1128.82 42.2059 1128.3 40.6229 1127.27 39.204C1126.25 37.7649 1124.84 36.7643 1123.05 36.2025C1120.71 35.4682 1118.52 35.6758 1116.48 36.8254C1114.45 37.975 1113.07 39.6998 1112.34 42C1111.62 44.3205 1111.76 46.5344 1112.78 48.6417C1113.8 50.7287 1115.48 52.1393 1117.82 52.8736C1119.67 53.4546 1121.43 53.4367 1123.1 52.82C1124.79 52.2097 1126.12 51.1605 1127.08 49.6726Z" fill="#00479A"/>
<path d="M1085.05 80.1725L1092.27 77.6451L1093.06 79.9103L1078.17 85.1238L1077.38 82.8586L1082.91 80.9234L1080.35 73.6145C1079.95 72.4668 1079.93 71.4786 1080.29 70.65C1080.68 69.8143 1081.44 69.1991 1082.56 68.8043L1088.45 66.7421L1089.25 69.0073L1083.66 70.9637C1083.16 71.1399 1082.81 71.4319 1082.61 71.8397C1082.43 72.2404 1082.44 72.7025 1082.62 73.226L1085.05 80.1725Z" fill="#00479A"/>
<path d="M1069.91 30.8274L1076.87 39.6407L1072.85 42.8147L1066.11 34.2776C1065.86 33.9595 1065.59 33.7763 1065.31 33.7279C1065.04 33.6963 1064.78 33.7731 1064.55 33.9582C1064.08 34.3285 1063.99 34.826 1064.26 35.4507L1067.59 42.4478C1068.29 43.958 1068.47 45.3918 1068.13 46.7491C1067.79 48.1063 1067.07 49.2214 1065.96 50.0942C1064.59 51.1787 1063.04 51.6507 1061.33 51.5103C1059.61 51.3699 1058.12 50.4878 1056.83 48.8641L1049.57 39.6741L1053.59 36.5001L1060.73 45.5395C1060.97 45.8408 1061.25 46.0108 1061.58 46.0494C1061.93 46.0749 1062.22 45.995 1062.45 45.8098C1062.94 45.4263 1063.02 44.9037 1062.68 44.242L1059.36 37.2C1058.66 35.6898 1058.48 34.256 1058.82 32.8987C1059.16 31.5414 1059.88 30.433 1060.96 29.5734C1062.3 28.5154 1063.81 28.0614 1065.47 28.2115C1067.16 28.3484 1068.64 29.2204 1069.91 30.8274Z" fill="#00479A"/>
<path d="M1067.3 64.2554L1067.27 64.347C1067.99 64.9078 1068.46 65.5808 1068.68 66.3663C1068.91 67.1314 1068.9 67.9211 1068.65 68.7353C1068.29 69.8752 1067.56 70.7315 1066.46 71.3043C1065.39 71.8835 1064.18 71.9624 1062.84 71.541L1053.64 68.6582L1058.37 53.6054L1067.04 56.3253C1068.38 56.7467 1069.32 57.4655 1069.85 58.4816C1070.41 59.4838 1070.51 60.5345 1070.17 61.6337C1069.71 63.0993 1068.75 63.9732 1067.3 64.2554ZM1066.29 58.5046L1059.97 56.522L1058.66 60.6746L1064.86 62.6188C1065.53 62.8295 1066.14 62.7951 1066.67 62.5157C1067.23 62.2427 1067.6 61.811 1067.78 61.2207C1067.96 60.6507 1067.91 60.1085 1067.62 59.5941C1067.36 59.0657 1066.92 58.7025 1066.29 58.5046ZM1056.62 67.1781L1063.43 69.3139C1064.1 69.5246 1064.71 69.48 1065.25 69.1803C1065.81 68.8869 1066.19 68.445 1066.37 67.8547C1066.56 67.2441 1066.5 66.665 1066.18 66.1174C1065.88 65.5762 1065.37 65.1939 1064.66 64.9704L1057.97 62.8729L1056.62 67.1781Z" fill="#00479A"/>
<path d="M1093.98 88.6958L1097.77 89.8834C1099.13 90.3112 1100.09 91.07 1100.64 92.16C1101.22 93.236 1101.3 94.4559 1100.87 95.8197L1098.99 101.804C1098.56 103.168 1097.8 104.136 1096.7 104.709C1095.63 105.288 1094.41 105.364 1093.04 104.936L1089.26 103.749L1087.34 109.855L1085.05 109.137L1086.97 103.03L1083.18 101.843C1081.82 101.415 1080.85 100.653 1080.28 99.5565C1079.72 98.4666 1079.66 97.2397 1080.09 95.8758L1081.97 89.8913C1082.4 88.5275 1083.14 87.5662 1084.21 87.0074C1085.31 86.4346 1086.54 86.3621 1087.9 86.7899L1091.69 87.9775L1093.39 82.5731L1095.68 83.2914L1093.98 88.6958ZM1084.1 99.6809L1087.67 100.801L1091 90.1759L1087.43 89.0553C1086.67 88.8191 1086 88.8546 1085.42 89.162C1084.85 89.4757 1084.45 90.0092 1084.21 90.7623L1082.42 96.472C1082.18 97.2252 1082.21 97.8927 1082.49 98.4746C1082.81 99.0425 1083.34 99.4446 1084.1 99.6809ZM1096.74 100.964L1098.53 95.2541C1098.77 94.5009 1098.73 93.8302 1098.42 93.2419C1098.14 92.66 1097.62 92.251 1096.86 92.0147L1093.29 90.8942L1089.96 101.52L1093.53 102.64C1094.28 102.877 1094.94 102.848 1095.5 102.555C1096.09 102.247 1096.5 101.717 1096.74 100.964Z" fill="#00479A"/>
<path d="M1137.19 90.7136L1138.03 88.0267L1140.29 88.7354L1135.57 103.788L1133.31 103.08L1134.19 100.27L1134.1 100.242C1132.11 101.944 1129.81 102.396 1127.2 101.599C1124.98 100.924 1123.37 99.6029 1122.37 97.6369C1121.4 95.6772 1121.28 93.5474 1122 91.2472C1122.72 88.947 1124.04 87.2806 1125.95 86.248C1127.86 85.195 1129.95 85.0331 1132.2 85.7622C1133.48 86.1848 1134.54 86.8305 1135.39 87.6993C1136.23 88.5682 1136.8 89.5634 1137.1 90.6849L1137.19 90.7136ZM1128.23 99.5063C1129.88 100.023 1131.41 99.8883 1132.81 99.1007C1134.22 98.3132 1135.18 97.1256 1135.68 95.5378C1136.18 93.9298 1136.08 92.4101 1135.36 90.9789C1134.67 89.5541 1133.49 88.5799 1131.82 88.0563C1130.11 87.52 1128.55 87.6354 1127.15 88.4026C1125.75 89.1698 1124.79 90.3574 1124.29 91.9655C1123.78 93.5736 1123.88 95.1034 1124.59 96.555C1125.31 97.9862 1126.52 98.9699 1128.23 99.5063Z" fill="#00479A"/>
<path d="M1140.41 59.6105L1149.84 47.7125L1152.16 48.4404L1139.7 64.1168C1138.91 65.1227 1138.07 65.7753 1137.17 66.0747C1136.29 66.4008 1135.26 66.3819 1134.1 66.0179L1130.65 64.9357L1131.37 62.6457L1134.82 63.7279C1135.47 63.9323 1136.02 63.9596 1136.47 63.8099C1136.94 63.6666 1137.4 63.3279 1137.83 62.7939L1138.28 62.2293L1136.47 43.5176L1139 44.3125L1140.41 59.6105Z" fill="#00479A"/>
<path d="M1175.31 97.0608L1177.24 90.8931L1179.53 91.6114L1174.81 106.664L1172.52 105.946L1174.62 99.2592L1165.3 96.3381L1163.21 103.025L1160.92 102.307L1165.64 87.2537L1167.93 87.972L1165.99 94.1397L1175.31 97.0608Z" fill="#00479A"/>
<path d="M1119.26 65.6352L1121.55 58.3378L1123.84 59.0561L1119.12 74.109L1116.83 73.3907L1118.58 67.8031L1111.2 65.4854C1110.03 65.1214 1109.23 64.5453 1108.79 63.7571C1108.35 62.9485 1108.31 61.9742 1108.66 60.8343L1110.53 54.8804L1112.82 55.5987L1111.05 61.2473C1110.89 61.7562 1110.91 62.2112 1111.12 62.6123C1111.34 62.993 1111.71 63.2664 1112.24 63.4324L1119.26 65.6352Z" fill="#00479A"/>
<path d="M1067.3 64.2554L1067.27 64.347C1067.99 64.9078 1068.46 65.5808 1068.68 66.3663C1068.91 67.1314 1068.9 67.9211 1068.65 68.7353C1068.29 69.8752 1067.56 70.7315 1066.46 71.3043C1065.39 71.8835 1064.18 71.9624 1062.84 71.541L1053.64 68.6582L1058.37 53.6054L1067.04 56.3253C1068.38 56.7467 1069.32 57.4655 1069.85 58.4816C1070.41 59.4838 1070.51 60.5345 1070.17 61.6337C1069.71 63.0993 1068.75 63.9732 1067.3 64.2554ZM1066.29 58.5046L1059.97 56.522L1058.66 60.6746L1064.86 62.6188C1065.53 62.8295 1066.14 62.7951 1066.67 62.5157C1067.23 62.2427 1067.6 61.811 1067.78 61.2207C1067.96 60.6507 1067.91 60.1085 1067.62 59.5941C1067.36 59.0657 1066.92 58.7025 1066.29 58.5046ZM1056.62 67.1781L1063.43 69.3139C1064.1 69.5246 1064.71 69.48 1065.25 69.1803C1065.81 68.8869 1066.19 68.445 1066.37 67.8547C1066.56 67.2441 1066.5 66.665 1066.18 66.1174C1065.88 65.5762 1065.37 65.1939 1064.66 64.9704L1057.97 62.8729L1056.62 67.1781Z" fill="#00479A"/>
<path d="M1137.19 90.7136L1138.03 88.0267L1140.29 88.7354L1135.57 103.788L1133.31 103.08L1134.19 100.27L1134.1 100.242C1132.11 101.944 1129.81 102.396 1127.2 101.599C1124.98 100.924 1123.37 99.6029 1122.37 97.6369C1121.4 95.6772 1121.28 93.5474 1122 91.2472C1122.72 88.947 1124.04 87.2806 1125.95 86.248C1127.86 85.195 1129.95 85.0331 1132.2 85.7622C1133.48 86.1848 1134.54 86.8305 1135.39 87.6993C1136.23 88.5682 1136.8 89.5634 1137.1 90.6849L1137.19 90.7136ZM1128.23 99.5063C1129.88 100.023 1131.41 99.8883 1132.81 99.1007C1134.22 98.3132 1135.18 97.1256 1135.68 95.5378C1136.18 93.9298 1136.08 92.4101 1135.36 90.9789C1134.67 89.5541 1133.49 88.5799 1131.82 88.0563C1130.11 87.52 1128.55 87.6354 1127.15 88.4026C1125.75 89.1698 1124.79 90.3574 1124.29 91.9655C1123.78 93.5736 1123.88 95.1034 1124.59 96.555C1125.31 97.9862 1126.52 98.9699 1128.23 99.5063Z" fill="#00479A"/>
<path d="M1140.41 59.6105L1149.84 47.7125L1152.16 48.4404L1139.7 64.1168C1138.91 65.1227 1138.07 65.7753 1137.17 66.0747C1136.29 66.4008 1135.26 66.3819 1134.1 66.0179L1130.65 64.9357L1131.37 62.6457L1134.82 63.7279C1135.47 63.9323 1136.02 63.9596 1136.47 63.8099C1136.94 63.6666 1137.4 63.3279 1137.83 62.7939L1138.28 62.2293L1136.47 43.5176L1139 44.3125L1140.41 59.6105Z" fill="#00479A"/>
<path d="M1175.31 97.0608L1177.24 90.8931L1179.53 91.6114L1174.81 106.664L1172.52 105.946L1174.62 99.2592L1165.3 96.3381L1163.21 103.025L1160.92 102.307L1165.64 87.2537L1167.93 87.972L1165.99 94.1397L1175.31 97.0608Z" fill="#00479A"/>
<path d="M1104.94 98.9388L1112.16 96.4114L1112.95 98.6766L1098.06 103.89L1097.27 101.625L1102.79 99.6897L1100.24 92.3807C1099.83 91.2331 1099.81 90.2449 1100.18 89.4163C1100.57 88.5806 1101.32 87.9654 1102.45 87.5706L1108.34 85.5084L1109.13 87.7736L1103.55 89.73C1103.04 89.9062 1102.69 90.1982 1102.5 90.606C1102.32 91.0067 1102.32 91.4688 1102.51 91.9923L1104.94 98.9388Z" fill="#00479A"/>
<path d="M1122.56 94.2295L1112.21 81.1224L1129.03 67.8314L1139.39 80.9384L1135.37 84.1124L1128.29 75.1484L1125.88 77.0528L1131.97 84.7613L1128.2 87.737L1122.11 80.0284L1119.5 82.0915L1126.58 91.0555L1122.56 94.2295Z" fill="#00479A"/>
<path d="M0 60.9273H183L159.814 160.927H21.774L0 60.9273Z" fill="#2858FF"/>
<circle cx="62.0785" cy="170.349" r="16.4215" fill="#2858FF"/>
<circle cx="120.921" cy="170.349" r="16.4215" fill="#2858FF"/>
<path d="M203 60.9273H386L362.814 160.927H224.774L203 60.9273Z" fill="#2858FF"/>
<circle cx="265.079" cy="170.349" r="16.4215" fill="#2858FF"/>
<circle cx="323.921" cy="170.349" r="16.4215" fill="#2858FF"/>
<path d="M406 60.9273H589L565.814 160.927H427.774L406 60.9273Z" fill="#2858FF"/>
<circle cx="468.079" cy="170.349" r="16.4215" fill="#2858FF"/>
<circle cx="526.922" cy="170.349" r="16.4215" fill="#2858FF"/>
<path d="M609 60.9273H792L768.814 160.927H630.774L609 60.9273Z" fill="#2858FF"/>
<circle cx="671.078" cy="170.349" r="16.4215" fill="#2858FF"/>
<circle cx="729.922" cy="170.349" r="16.4215" fill="#2858FF"/>
<path d="M812 60.9273H995L971.814 160.927H833.774L812 60.9273Z" fill="#2858FF"/>
<circle cx="874.078" cy="170.349" r="16.4215" fill="#2858FF"/>
<circle cx="932.922" cy="170.349" r="16.4215" fill="#2858FF"/>
<path d="M1015 60.9273H1198L1174.81 160.927H1036.77L1015 60.9273Z" fill="#2858FF"/>
<circle cx="1077.08" cy="170.349" r="16.4215" fill="#2858FF"/>
<circle cx="1135.92" cy="170.349" r="16.4215" fill="#2858FF"/>
</svg>
