<svg width="1221" height="1187" viewBox="0 0 1221 1187" fill="none" xmlns="http://www.w3.org/2000/svg">
<path d="M42.143 418.161L476.728 145.091L828.538 794.676L434.356 1042.36L478.864 1014.39L42.143 418.161Z" fill="#00479A"/>
<rect width="164.926" height="512.234" transform="matrix(0.999997 -0.0023355 0.00265957 0.999996 41.7141 417.479)" fill="#00479A"/>
<rect width="164.926" height="512.234" transform="matrix(0.435979 -0.899957 0.899815 0.436271 404.823 293.517)" fill="#00479A"/>
<rect x="42.2664" y="417.131" width="40.0895" height="202.264" transform="rotate(-32.1431 42.2664 417.131)" fill="white"/>
<rect width="40.0998" height="165.419" transform="matrix(-0.00803459 0.999968 -0.999965 -0.00836193 207.496 775.792)" fill="white"/>
<rect width="40.0998" height="165.419" transform="matrix(-0.904408 -0.426668 0.426372 -0.904548 763.465 466.342)" fill="white"/>
<rect x="442.783" y="166.42" width="40.0895" height="202.264" transform="rotate(-32.1431 442.783 166.42)" fill="white"/>
<path d="M209.216 494.189L221.402 511.829L217.058 514.83L209.31 503.614L212.503 517.976L210.002 519.704L197.699 511.635L205.447 522.851L201.103 525.852L188.917 508.212L194.946 504.047L206.318 511.67L203.24 498.317L209.216 494.189ZM237.987 500.372L224.243 509.866L212.057 492.226L225.801 482.732L228.711 486.945L219.312 493.438L221.058 495.965L229.141 490.382L231.869 494.331L223.786 499.915L225.677 502.653L235.077 496.16L237.987 500.372ZM226.871 481.993L242.642 471.098L245.552 475.311L239.838 479.258L249.114 492.685L244.77 495.686L235.494 482.259L229.781 486.206L226.871 481.993ZM271.326 477.341L266.403 480.742L262.91 478.332L256.065 483.061L257.109 487.163L252.37 490.437L247.213 467.94L252.084 464.575L271.326 477.341ZM253.204 471.658L254.914 478.411L258.968 475.61L253.204 471.658ZM276.577 447.656L288.763 465.296L284.419 468.297L275.125 454.843L269.649 458.626C272.707 463.203 274.511 466.04 275.062 467.138C275.601 468.218 275.954 469.218 276.123 470.138C276.28 471.041 276.307 471.774 276.204 472.338C276.101 472.902 275.856 473.448 275.468 473.975C275.08 474.502 274.758 474.88 274.501 475.109C274.25 475.309 273.896 475.566 273.44 475.881L272.045 476.845L269.044 472.501L269.886 471.919C270.097 471.773 270.26 471.635 270.376 471.502C270.51 471.358 270.591 471.043 270.618 470.558C270.646 470.072 270.497 469.5 270.173 468.843C269.848 468.185 269.182 467.09 268.174 465.556C267.172 463.993 266.053 462.316 264.816 460.525C263.584 458.705 262.854 457.629 262.623 457.295L276.577 447.656ZM295.193 434.796L307.378 452.436L303.034 455.437L293.74 441.983L288.264 445.766C291.322 450.344 293.126 453.181 293.677 454.278C294.216 455.358 294.57 456.358 294.739 457.279C294.896 458.182 294.922 458.915 294.819 459.479C294.716 460.043 294.471 460.588 294.083 461.115C293.695 461.642 293.373 462.021 293.116 462.25C292.865 462.449 292.512 462.706 292.055 463.022L290.66 463.986L287.659 459.641L288.501 459.059C288.712 458.914 288.875 458.775 288.991 458.643C289.125 458.499 289.206 458.184 289.233 457.698C289.261 457.212 289.112 456.641 288.788 455.983C288.463 455.326 287.797 454.23 286.79 452.697C285.787 451.133 284.668 449.456 283.431 447.666C282.2 445.846 281.469 444.769 281.238 444.436L295.193 434.796ZM229.109 522.986L241.295 540.626L236.951 543.627L229.203 532.411L232.396 546.773L229.895 548.501L217.592 540.432L225.34 551.648L220.996 554.649L208.81 537.009L214.839 532.844L226.212 540.467L223.133 527.114L229.109 522.986ZM261.394 526.742L256.47 530.143L252.978 527.733L246.132 532.462L247.176 536.563L242.437 539.837L237.281 517.341L242.152 513.976L261.394 526.742ZM243.272 521.059L244.981 527.812L249.036 525.011L243.272 521.059ZM260.035 499.678L254.874 503.243C254.33 503.619 253.761 503.752 253.168 503.644C252.574 503.535 252.089 503.209 251.713 502.665L250.549 500.98L253.604 498.87L254.058 499.528C254.18 499.704 254.328 499.731 254.503 499.609L256.768 498.045C256.943 497.924 256.97 497.776 256.849 497.6L256.394 496.942L259.449 494.832L260.613 496.517C260.988 497.061 261.122 497.63 261.014 498.224C260.905 498.817 260.579 499.302 260.035 499.678ZM262.307 516.31L262.208 500.121L266.552 497.12L278.738 514.76L274.394 517.761L266.791 506.756L266.89 522.945L262.546 525.946L250.36 508.306L254.704 505.305L262.307 516.31ZM285.668 493.677L281.103 487.069L285.447 484.068L297.633 501.708L293.289 504.709L288.56 497.863L281.188 502.956L285.917 509.801L281.572 512.802L269.386 495.162L273.731 492.161L278.296 498.77L285.668 493.677ZM300.231 490.112L300.132 473.923L304.477 470.922L316.662 488.562L312.318 491.563L304.716 480.558L304.815 496.747L300.47 499.748L288.284 482.107L292.629 479.106L300.231 490.112ZM323.592 467.479L319.027 460.87L323.372 457.869L335.557 475.509L331.213 478.51L326.484 471.665L319.112 476.758L323.841 483.603L319.497 486.604L307.311 468.964L311.655 465.963L316.22 472.571L323.592 467.479ZM342.739 470.548L338.395 473.549L326.209 455.909L338.952 447.106L341.862 451.319L333.463 457.121L342.739 470.548Z" fill="white"/>
<path d="M452.553 339.206L452.97 328.183L453.983 327.483L460.076 336.303L459.062 337.003L454.043 329.737L453.626 340.759L452.612 341.459L446.519 332.639L447.533 331.939L452.553 339.206ZM464.8 328.003L464.828 328.042C465.27 327.932 465.68 327.953 466.058 328.106C466.43 328.251 466.738 328.499 466.98 328.85C467.32 329.342 467.434 329.891 467.323 330.5C467.22 331.102 466.879 331.603 466.3 332.004L462.338 334.741L457.854 328.251L461.593 325.668C462.172 325.268 462.744 325.119 463.308 325.223C463.874 325.311 464.321 325.592 464.649 326.066C465.085 326.698 465.136 327.343 464.8 328.003ZM462.221 326.634L459.496 328.517L460.733 330.307L463.406 328.461C463.695 328.261 463.867 328.012 463.921 327.716C463.984 327.413 463.928 327.134 463.752 326.88C463.582 326.634 463.352 326.488 463.061 326.443C462.773 326.382 462.493 326.446 462.221 326.634ZM462.67 333.111L465.606 331.083C465.895 330.883 466.064 330.63 466.113 330.325C466.17 330.013 466.11 329.73 465.934 329.475C465.752 329.212 465.504 329.059 465.19 329.017C464.884 328.969 464.578 329.051 464.271 329.263L461.388 331.255L462.67 333.111ZM471.638 320.44L470.838 319.282L471.812 318.609L476.296 325.099L475.321 325.772L474.485 324.56L474.445 324.588C474.505 325.895 473.977 326.94 472.859 327.725C471.909 328.395 470.893 328.623 469.813 328.41C468.741 328.191 467.863 327.586 467.178 326.594C466.493 325.602 466.24 324.571 466.421 323.5C466.595 322.42 467.173 321.548 468.153 320.884C468.712 320.511 469.293 320.291 469.895 320.225C470.498 320.159 471.066 320.239 471.599 320.467L471.638 320.44ZM472.35 326.677C473.06 326.186 473.477 325.542 473.6 324.744C473.723 323.946 473.548 323.205 473.075 322.52C472.596 321.827 471.965 321.401 471.181 321.242C470.406 321.077 469.659 321.243 468.939 321.741C468.202 322.25 467.769 322.899 467.64 323.688C467.511 324.477 467.686 325.219 468.165 325.912C468.644 326.605 469.278 327.036 470.068 327.203C470.852 327.362 471.612 327.187 472.35 326.677ZM480.763 316.353L478.926 313.694L479.914 313.012L484.397 319.502L483.41 320.184L481.418 317.301L477.403 320.075L479.395 322.958L478.407 323.64L473.924 317.15L474.911 316.468L476.748 319.127L480.763 316.353ZM465.84 344.816L471.933 353.636L470.932 354.327L465.522 346.494L460.15 350.205L465.561 358.037L464.548 358.738L458.455 349.917L465.84 344.816ZM472.273 343.561C473.291 342.858 474.357 342.646 475.471 342.927C476.585 343.207 477.488 343.913 478.178 345.043L472.557 348.927C473.019 349.502 473.609 349.84 474.327 349.94C475.044 350.041 475.732 349.864 476.391 349.409C476.873 349.076 477.228 348.669 477.453 348.189C477.673 347.7 477.736 347.209 477.642 346.717L478.669 346.007C478.91 346.826 478.882 347.63 478.584 348.419C478.287 349.208 477.761 349.863 477.006 350.384C476.005 351.075 474.966 351.307 473.888 351.079C472.811 350.852 471.941 350.259 471.28 349.303C470.62 348.346 470.378 347.32 470.555 346.226C470.726 345.122 471.299 344.234 472.273 343.561ZM474.801 344.012C474.14 343.937 473.507 344.109 472.901 344.527C472.296 344.945 471.91 345.484 471.743 346.144C471.579 346.789 471.656 347.416 471.974 348.026L476.516 344.889C476.034 344.379 475.462 344.087 474.801 344.012ZM482.084 337.036L482.739 337.984L480.33 339.648L484.159 345.19L483.171 345.872L479.343 340.33L476.947 341.985L476.292 341.038L482.084 337.036ZM486.841 333.498C487.8 332.822 488.815 332.594 489.887 332.813C490.953 333.023 491.828 333.624 492.513 334.616C493.198 335.607 493.449 336.646 493.266 337.732C493.092 338.812 492.523 339.678 491.56 340.33C491.001 340.703 490.418 340.918 489.809 340.976C489.194 341.024 488.613 340.933 488.065 340.703L488.038 340.721L490.694 344.565L489.707 345.247L483.404 336.124L484.392 335.442L485.192 336.601L485.218 336.582C485.203 335.997 485.332 335.434 485.608 334.894C485.883 334.354 486.294 333.888 486.841 333.498ZM490.774 339.473C491.502 338.97 491.931 338.324 492.06 337.535C492.183 336.737 492.005 335.991 491.526 335.298C491.047 334.604 490.416 334.178 489.632 334.02C488.848 333.861 488.092 334.033 487.364 334.536C486.644 335.034 486.22 335.677 486.091 336.466C485.971 337.249 486.15 337.987 486.629 338.681C487.102 339.365 487.733 339.791 488.523 339.959C489.313 340.126 490.063 339.964 490.774 339.473ZM499.583 334.788C498.565 335.491 497.5 335.741 496.387 335.537C495.277 335.319 494.391 334.732 493.73 333.775C493.063 332.81 492.83 331.778 493.031 330.68C493.226 329.573 493.837 328.665 494.863 327.956C495.873 327.258 496.925 327.018 498.02 327.233C499.11 327.44 499.988 328.026 500.655 328.992C501.315 329.948 501.552 330.984 501.363 332.1C501.177 333.201 500.584 334.097 499.583 334.788ZM498.928 333.84C499.648 333.343 500.069 332.695 500.192 331.897C500.315 331.099 500.14 330.358 499.667 329.674C499.188 328.98 498.557 328.554 497.773 328.396C496.99 328.237 496.238 328.406 495.518 328.903C494.781 329.413 494.343 330.065 494.206 330.86C494.077 331.649 494.252 332.391 494.731 333.084C495.21 333.777 495.844 334.208 496.634 334.375C497.426 334.528 498.191 334.349 498.928 333.84ZM506.935 324.42L506.962 324.46C507.404 324.349 507.814 324.37 508.192 324.524C508.564 324.668 508.872 324.916 509.114 325.267C509.454 325.759 509.568 326.309 509.457 326.917C509.354 327.519 509.013 328.021 508.434 328.421L504.472 331.158L499.988 324.668L503.727 322.085C504.306 321.685 504.878 321.537 505.442 321.64C506.008 321.728 506.455 322.009 506.783 322.483C507.219 323.115 507.27 323.761 506.935 324.42ZM504.356 323.051L501.63 324.934L502.867 326.724L505.54 324.878C505.829 324.678 506.001 324.43 506.055 324.133C506.119 323.83 506.062 323.551 505.886 323.297C505.717 323.051 505.486 322.905 505.196 322.86C504.908 322.8 504.628 322.863 504.356 323.051ZM504.804 329.528L507.74 327.5C508.03 327.3 508.198 327.047 508.247 326.742C508.304 326.43 508.244 326.147 508.068 325.893C507.887 325.629 507.638 325.477 507.324 325.434C507.019 325.386 506.712 325.468 506.405 325.68L503.522 327.672L504.804 329.528Z" fill="white"/>
<rect x="340.633" y="774.408" width="867" height="164" rx="10" transform="rotate(-14.9792 340.633 774.408)" fill="#2858FF"/>
<path d="M429.056 810.136L422.716 786.441L430.367 784.394L438.679 815.462L398.895 826.106L390.583 795.039L398.233 792.992L404.573 816.687L413.012 814.429L406.673 790.734L414.323 788.687L420.663 812.381L429.056 810.136ZM448.203 800.392L456.233 777.474L463.884 775.427L472.196 806.494L464.545 808.541L459.359 789.159L451.33 812.077L443.679 814.124L435.367 783.057L443.018 781.01L448.203 800.392ZM497.021 766.56L492.948 780.122C497.332 779.048 500.148 780.846 501.397 785.513L504.685 797.801L497.034 799.848L494.217 789.323C493.911 788.179 493.171 787.764 491.996 788.078L481.563 790.87L484.839 803.111L477.188 805.158L468.875 774.091L476.526 772.044L479.64 783.683L484.695 782.33L488.629 768.806L497.021 766.56ZM539.369 788.521L530.698 790.841L526.981 785.674L514.925 788.9L514.33 795.22L505.984 797.454L510.052 763.074L518.63 760.779L539.369 788.521ZM516.638 771.349L515.645 781.751L522.786 779.84L516.638 771.349ZM549.129 752.618C552.221 751.791 555.098 752.148 557.763 753.687C560.419 755.196 562.165 757.511 563 760.634C563.86 763.848 563.501 766.777 561.922 769.419C560.374 772.052 558.07 773.778 555.01 774.597L546.617 776.843L549.049 785.931L541.398 787.978L533.086 756.911L549.129 752.618ZM544.682 769.609L552.379 767.55C553.461 767.26 554.282 766.676 554.842 765.798C555.402 764.919 555.529 763.908 555.223 762.764C554.941 761.713 554.328 760.966 553.381 760.524C552.457 760.042 551.47 759.942 550.419 760.224L542.722 762.283L544.682 769.609ZM595.579 773.481L571.375 779.958L563.062 748.89L587.267 742.414L589.252 749.833L572.698 754.262L573.889 758.714L588.125 754.905L589.986 761.86L575.75 765.669L577.041 770.492L593.594 766.062L595.579 773.481ZM615.021 747.46L611.907 735.821L619.558 733.774L627.871 764.842L620.22 766.889L616.994 754.833L604.011 758.307L607.236 770.362L599.586 772.41L591.273 741.342L598.924 739.295L602.038 750.934L615.021 747.46ZM663.388 722.047L669.715 745.695L673.75 744.616L677.422 758.341L670.142 760.289L668.455 753.983L649.165 759.144L650.852 765.45L643.573 767.398L639.9 753.673L641.291 753.301C641.662 753.201 641.963 753.088 642.194 752.96C642.456 752.824 642.728 752.419 643.012 751.747C643.296 751.075 643.375 750.193 643.248 749.1C643.121 748.008 642.725 746.093 642.059 743.356C641.424 740.611 640.68 737.647 639.829 734.463C638.999 731.239 638.506 729.334 638.349 728.747L663.388 722.047ZM650.936 750.72L662.065 747.743L657.722 731.513L647.614 734.218C649.484 741.701 650.535 746.372 650.767 748.231C650.885 749.293 650.942 750.122 650.936 750.72ZM698.518 712.648L706.831 743.715L699.18 745.762L692.84 722.068L683.195 724.648C685.206 732.657 686.323 737.575 686.547 739.403C686.763 741.201 686.758 742.792 686.532 744.177C686.299 745.532 685.967 746.581 685.536 747.326C685.106 748.07 684.484 748.717 683.67 749.266C682.857 749.815 682.211 750.186 681.733 750.381C681.277 750.536 680.648 750.721 679.844 750.936L677.386 751.593L675.339 743.942L676.823 743.545C677.194 743.446 677.495 743.332 677.726 743.204C677.987 743.068 678.26 742.664 678.544 741.992C678.828 741.319 678.907 740.437 678.78 739.345C678.653 738.252 678.265 736.369 677.616 733.694C676.989 730.979 676.254 728.046 675.41 724.893C674.589 721.7 674.1 719.811 673.943 719.223L698.518 712.648ZM732.416 703.578L740.728 734.646L733.077 736.693L730.397 726.677L719.501 729.592C718.326 729.907 717.892 730.636 718.198 731.78L720.418 740.08L712.767 742.127L710.187 732.482C709.294 729.143 710.089 726.794 712.574 725.433L712.525 725.248C710.096 724.341 708.488 722.419 707.702 719.482C706.958 716.7 707.377 714.303 708.958 712.289C710.562 710.237 713.033 708.764 716.372 707.871L732.416 703.578ZM720.842 721.979L728.586 719.907L726.75 713.044L718.96 715.129C717.785 715.443 716.905 715.993 716.321 716.779C715.736 717.565 715.584 718.483 715.865 719.534C716.163 720.647 716.75 721.418 717.627 721.846C718.534 722.265 719.606 722.31 720.842 721.979ZM776.277 691.843L782.604 715.491L786.638 714.412L790.31 728.137L783.03 730.085L781.343 723.779L762.054 728.94L763.741 735.246L756.461 737.194L752.789 723.468L754.18 723.096C754.551 722.997 754.852 722.883 755.082 722.755C755.344 722.619 755.617 722.215 755.901 721.543C756.185 720.87 756.263 719.988 756.137 718.896C756.01 717.803 755.614 715.889 754.948 713.152C754.312 710.407 753.569 707.442 752.717 704.258C751.888 701.035 751.395 699.13 751.237 698.542L776.277 691.843ZM763.824 720.516L774.953 717.538L770.611 701.309L760.502 704.014C762.372 711.497 763.423 716.168 763.655 718.027C763.774 719.088 763.83 719.918 763.824 720.516ZM796.016 707.331L804.045 684.413L811.696 682.366L820.008 713.433L812.357 715.48L807.172 696.098L799.142 719.016L791.491 721.063L783.179 689.996L790.83 687.949L796.016 707.331ZM839.206 690.906L839.255 691.091C840.886 691.119 842.35 691.638 843.647 692.649C844.967 693.621 845.871 695.019 846.359 696.843C847.054 699.439 846.697 701.821 845.289 703.986C843.912 706.143 841.894 707.578 839.235 708.289L823.887 712.395L821.902 704.976L835.813 701.254C836.74 701.006 837.409 700.596 837.819 700.022C838.22 699.418 838.338 698.807 838.173 698.188C838.007 697.57 837.604 697.115 836.963 696.823C836.321 696.531 835.537 696.509 834.61 696.757L824.408 699.486L822.448 692.16L832.464 689.48C833.329 689.248 833.947 688.835 834.318 688.239C834.689 687.643 834.795 687.051 834.638 686.464C834.473 685.845 834.089 685.401 833.487 685.132C832.907 684.823 832.169 684.789 831.273 685.029L817.548 688.701L815.575 681.328L830.83 677.247C833.489 676.535 835.878 676.674 837.998 677.664C840.149 678.646 841.551 680.357 842.204 682.799C842.618 684.345 842.561 685.867 842.035 687.366C841.5 688.835 840.557 690.014 839.206 690.906ZM882.608 696.684L873.937 699.004L870.219 693.837L858.164 697.063L857.569 703.384L849.223 705.617L853.291 671.237L861.869 668.942L882.608 696.684ZM859.877 679.512L858.884 689.914L866.025 688.003L859.877 679.512ZM894.345 657.768L885.256 660.2C884.298 660.456 883.427 660.358 882.643 659.905C881.86 659.452 881.34 658.747 881.083 657.789L880.289 654.821L885.668 653.382L885.978 654.541C886.061 654.85 886.257 654.963 886.566 654.881L890.554 653.814C890.863 653.731 890.976 653.535 890.893 653.226L890.583 652.067L895.962 650.628L896.756 653.595C897.012 654.554 896.914 655.425 896.461 656.208C896.008 656.992 895.303 657.512 894.345 657.768ZM889.161 682.409L897.191 659.491L904.841 657.444L913.154 688.511L905.503 690.558L900.317 671.176L892.288 694.094L884.637 696.141L876.325 665.074L883.975 663.027L889.161 682.409ZM933.582 662.226L930.468 650.588L938.118 648.541L946.431 679.608L938.78 681.655L935.554 669.599L922.571 673.073L925.797 685.129L918.146 687.176L909.833 656.109L917.484 654.061L920.598 665.7L933.582 662.226ZM981.821 670.139L973.15 672.459L969.433 667.292L957.377 670.518L956.782 676.838L948.436 679.071L952.504 644.692L961.082 642.396L981.821 670.139ZM959.091 652.966L958.097 663.368L965.238 661.458L959.091 652.966ZM1022.88 625.862L1031.19 656.929L1023.54 658.976L1018.26 639.223L1015.52 661.122L1011.12 662.301L997.808 644.694L1003.09 664.447L995.442 666.494L987.13 635.427L997.749 632.586L1009.97 649.093L1012.35 628.678L1022.88 625.862ZM1060.4 649.114L1036.2 655.59L1027.88 624.523L1052.09 618.047L1054.07 625.466L1037.52 629.895L1038.71 634.346L1052.95 630.538L1054.81 637.493L1040.57 641.302L1041.86 646.124L1058.42 641.695L1060.4 649.114ZM1072.14 612.682C1075.23 611.855 1078.11 612.211 1080.77 613.751C1083.43 615.26 1085.17 617.575 1086.01 620.697C1086.87 623.912 1086.51 626.841 1084.93 629.483C1083.38 632.116 1081.08 633.842 1078.02 634.661L1069.63 636.907L1072.06 645.995L1064.41 648.042L1056.09 616.975L1072.14 612.682ZM1067.69 629.673L1075.39 627.614C1076.47 627.324 1077.29 626.74 1077.85 625.862C1078.41 624.983 1078.54 623.972 1078.23 622.828C1077.95 621.777 1077.34 621.03 1076.39 620.588C1075.47 620.106 1074.48 620.006 1073.43 620.287L1065.73 622.347L1067.69 629.673ZM1107.73 617.519L1104.14 604.119L1111.8 602.072L1120.11 633.139L1112.46 635.186L1109.72 624.938L1098.45 627.953C1096.07 628.59 1094.08 628.46 1092.48 627.562C1090.9 626.626 1089.8 624.967 1089.16 622.587L1085.55 609.094L1093.2 607.047L1096.28 618.546C1096.62 619.814 1097.44 620.274 1098.73 619.926L1107.73 617.519ZM1155.52 623.663L1146.85 625.983L1143.14 620.816L1131.08 624.042L1130.48 630.362L1122.14 632.596L1126.21 598.216L1134.78 595.921L1155.52 623.663ZM1132.79 606.491L1131.8 616.893L1138.94 614.982L1132.79 606.491ZM510.122 848.006L518.151 825.088L525.802 823.041L534.114 854.108L526.464 856.155L521.278 836.773L513.248 859.691L505.597 861.738L497.285 830.671L504.936 828.624L510.122 848.006ZM560.629 813.722L567.399 811.911C569.779 811.274 571.792 811.431 573.438 812.382C575.084 813.333 576.225 814.999 576.862 817.379L579.703 827.997C580.34 830.378 580.183 832.391 579.232 834.036C578.281 835.682 576.615 836.823 574.235 837.46L567.465 839.272L568.941 844.79L561.291 846.837L559.814 841.319L553.091 843.118C550.71 843.755 548.682 843.602 547.005 842.659C545.36 841.708 544.218 840.042 543.582 837.662L540.74 827.044C540.104 824.663 540.261 822.65 541.212 821.005C542.193 819.351 543.874 818.205 546.255 817.568L552.978 815.769L552.358 813.451L560.009 811.404L560.629 813.722ZM553.242 835.326L557.879 834.085L554.914 823.003L550.277 824.244C548.978 824.591 548.499 825.398 548.838 826.666L550.786 833.946C551.125 835.213 551.944 835.673 553.242 835.326ZM571.605 828.375L569.658 821.095C569.318 819.828 568.5 819.368 567.201 819.715L562.565 820.956L565.53 832.038L570.167 830.797C571.465 830.45 571.945 829.643 571.605 828.375ZM613.172 828.732C610.97 832.633 607.411 835.242 602.496 836.557C597.581 837.872 593.195 837.389 589.339 835.109C585.474 832.797 582.934 829.369 581.718 824.825C580.494 820.25 580.974 815.98 583.16 812.017C585.346 808.053 588.897 805.414 593.812 804.099C598.727 802.784 603.121 803.297 606.994 805.64C610.867 807.982 613.416 811.441 614.64 816.016C615.856 820.56 615.366 824.799 613.172 828.732ZM600.486 829.045C603.114 828.342 604.989 826.93 606.11 824.808C607.232 822.686 607.47 820.419 606.825 818.008C606.172 815.566 604.833 813.721 602.81 812.474C600.809 811.187 598.48 810.899 595.822 811.61C593.163 812.322 591.273 813.738 590.151 815.86C589.052 817.943 588.83 820.206 589.483 822.648C590.128 825.059 591.451 826.908 593.451 828.195C595.483 829.473 597.828 829.757 600.486 829.045ZM629.161 795.386C632.252 794.559 635.13 794.915 637.794 796.455C640.45 797.964 642.196 800.279 643.032 803.401C643.892 806.616 643.532 809.545 641.954 812.186C640.406 814.82 638.102 816.546 635.041 817.365L626.649 819.611L629.08 828.699L621.429 830.746L613.117 799.679L629.161 795.386ZM624.713 812.377L632.41 810.318C633.492 810.028 634.313 809.444 634.873 808.565C635.433 807.687 635.56 806.676 635.254 805.532C634.973 804.481 634.359 803.734 633.412 803.292C632.489 802.81 631.501 802.71 630.45 802.991L622.753 805.051L624.713 812.377ZM678.844 782.093L687.157 813.16L679.506 815.207L674.221 795.454L671.484 817.353L667.079 818.532L653.772 800.925L659.057 820.678L651.406 822.725L643.094 791.658L653.712 788.817L665.93 805.324L668.318 784.909L678.844 782.093ZM693.968 787.934L700.969 786.061C704.06 785.234 706.93 785.559 709.578 787.037C712.218 788.484 713.968 790.815 714.828 794.03C715.663 797.152 715.311 800.045 713.771 802.71C712.224 805.343 709.904 807.074 706.813 807.901L692.16 811.821L683.848 780.754L691.499 778.707L693.968 787.934ZM720.306 804.291L711.994 773.223L719.645 771.176L727.957 802.243L720.306 804.291ZM697.826 802.355L704.132 800.668C705.338 800.345 706.185 799.738 706.675 798.845C707.165 797.952 707.282 797.026 707.025 796.068C706.769 795.109 706.206 794.366 705.335 793.837C704.465 793.308 703.427 793.204 702.221 793.527L695.915 795.214L697.826 802.355ZM762.905 779.03L770.742 776.933C771.398 780.997 770.633 784.697 768.444 788.032C766.256 791.367 762.951 793.626 758.531 794.808C753.709 796.099 749.4 795.595 745.605 793.298C741.811 791.001 739.301 787.565 738.077 782.989C736.845 778.383 737.295 774.122 739.427 770.206C741.551 766.259 745.024 763.64 749.846 762.35C754.143 761.2 758.068 761.508 761.621 763.274C765.166 765.009 767.683 767.731 769.173 771.44L761.243 773.561C760.308 771.923 759.005 770.765 757.332 770.086C755.652 769.376 753.796 769.31 751.764 769.887C749.206 770.604 747.409 771.996 746.372 774.062C745.365 776.12 745.189 778.37 745.842 780.812C746.496 783.255 747.792 785.127 749.73 786.43C751.661 787.703 753.924 787.991 756.521 787.297C758.592 786.742 760.194 785.734 761.327 784.272C762.451 782.778 762.977 781.031 762.905 779.03ZM803.539 777.797C801.336 781.699 797.778 784.308 792.862 785.623C787.947 786.938 783.562 786.455 779.705 784.174C775.84 781.863 773.3 778.435 772.084 773.891C770.86 769.315 771.341 765.046 773.527 761.082C775.712 757.119 779.263 754.479 784.178 753.164C789.093 751.849 793.487 752.363 797.36 754.706C801.233 757.048 803.782 760.507 805.006 765.082C806.222 769.626 805.733 773.865 803.539 777.797ZM790.853 778.111C793.48 777.408 795.355 775.995 796.476 773.873C797.598 771.751 797.836 769.485 797.191 767.074C796.538 764.631 795.199 762.787 793.176 761.539C791.176 760.253 788.846 759.965 786.188 760.676C783.529 761.387 781.639 762.804 780.518 764.926C779.419 767.009 779.196 769.271 779.849 771.714C780.494 774.125 781.817 775.974 783.818 777.26C785.849 778.539 788.194 778.822 790.853 778.111ZM801.089 749.385L828.864 741.953L830.849 749.372L820.787 752.065L827.115 775.713L819.464 777.76L813.137 754.112L803.074 756.804L801.089 749.385ZM847.783 736.892C850.874 736.064 853.752 736.421 856.417 737.96C859.073 739.469 860.819 741.785 861.654 744.907C862.514 748.122 862.155 751.05 860.576 753.692C859.028 756.325 856.724 758.052 853.664 758.87L845.271 761.116L847.703 770.204L840.052 772.251L831.739 741.184L847.783 736.892ZM843.335 753.882L851.033 751.823C852.115 751.534 852.936 750.949 853.496 750.071C854.055 749.192 854.182 748.181 853.876 747.037C853.595 745.986 852.981 745.24 852.035 744.797C851.111 744.316 850.124 744.215 849.072 744.497L841.375 746.556L843.335 753.882ZM879.308 746.593L880.947 728.018L888.783 725.922L886.279 752.032C886.019 754.652 885.41 756.77 884.45 758.385C883.514 759.96 881.871 761.062 879.521 761.691L870.665 764.061L868.705 756.734L876.541 754.638L858.179 734.11L866.711 731.827L879.308 746.593ZM916.624 718.473L922.951 742.121L926.985 741.041L930.658 754.767L923.378 756.714L921.69 750.408L902.401 755.569L904.088 761.875L896.808 763.823L893.136 750.098L894.527 749.726C894.898 749.627 895.199 749.513 895.43 749.385C895.691 749.249 895.964 748.844 896.248 748.172C896.532 747.5 896.61 746.618 896.484 745.525C896.357 744.433 895.961 742.518 895.295 739.781C894.66 737.036 893.916 734.072 893.064 730.888C892.235 727.665 891.742 725.759 891.585 725.172L916.624 718.473ZM904.172 747.145L915.3 744.168L910.958 727.939L900.85 730.643C902.719 738.126 903.77 742.797 904.003 744.656C904.121 745.718 904.177 746.548 904.172 747.145ZM947.275 722.743L944.16 711.105L951.811 709.058L960.124 740.125L952.473 742.172L949.247 730.116L936.264 733.59L939.49 745.646L931.839 747.693L923.526 716.626L931.177 714.579L934.291 726.217L947.275 722.743ZM969.645 725.056L977.675 702.138L985.326 700.091L993.638 731.158L985.987 733.205L980.801 713.823L972.772 736.741L965.121 738.788L956.809 707.721L964.46 705.674L969.645 725.056ZM1018.46 691.224L1014.39 704.786C1018.77 703.713 1021.59 705.51 1022.84 710.177L1026.13 722.465L1018.48 724.512L1015.66 713.987C1015.35 712.843 1014.61 712.428 1013.44 712.742L1003.01 715.534L1006.28 727.775L998.63 729.822L990.318 698.755L997.968 696.708L1001.08 708.347L1006.14 706.994L1010.07 693.47L1018.46 691.224ZM1055.85 710.289C1053.65 714.191 1050.09 716.799 1045.17 718.114C1040.26 719.429 1035.87 718.946 1032.02 716.666C1028.15 714.354 1025.61 710.926 1024.4 706.382C1023.17 701.807 1023.65 697.538 1025.84 693.574C1028.02 689.61 1031.58 686.971 1036.49 685.656C1041.41 684.341 1045.8 684.854 1049.67 687.197C1053.55 689.54 1056.09 692.998 1057.32 697.573C1058.53 702.118 1058.05 706.356 1055.85 710.289ZM1043.16 710.602C1045.79 709.899 1047.67 708.487 1048.79 706.365C1049.91 704.243 1050.15 701.976 1049.5 699.565C1048.85 697.123 1047.51 695.278 1045.49 694.031C1043.49 692.744 1041.16 692.456 1038.5 693.168C1035.84 693.879 1033.95 695.296 1032.83 697.418C1031.73 699.5 1031.51 701.763 1032.16 704.205C1032.81 706.616 1034.13 708.465 1036.13 709.752C1038.16 711.03 1040.51 711.314 1043.16 710.602ZM1081.38 690.141L1081.43 690.326C1083.06 690.455 1084.51 691.009 1085.8 691.989C1087.09 692.969 1087.98 694.371 1088.47 696.195C1089.16 698.792 1088.81 701.188 1087.41 703.385C1086.03 705.542 1084.02 706.976 1081.36 707.688L1064.11 712.303L1055.8 681.236L1072.49 676.769C1075.12 676.066 1077.51 676.237 1079.68 677.28C1081.85 678.323 1083.26 680.066 1083.91 682.508C1084.29 683.93 1084.25 685.332 1083.79 686.713C1083.33 688.064 1082.52 689.206 1081.38 690.141ZM1072.78 683.995L1065.27 686.005L1066.75 691.523L1074.26 689.513C1075.12 689.281 1075.74 688.817 1076.12 688.12C1076.52 687.384 1076.63 686.66 1076.44 685.949C1076.24 685.238 1075.81 684.675 1075.14 684.259C1074.46 683.843 1073.68 683.755 1072.78 683.995ZM1069.95 703.486L1078.11 701.303C1079 701.063 1079.66 700.555 1080.09 699.78C1080.51 699.004 1080.62 698.23 1080.41 697.457C1080.22 696.746 1079.76 696.207 1079.03 695.838C1078.3 695.439 1077.48 695.359 1076.58 695.599L1068.42 697.783L1069.95 703.486Z" fill="white"/>
</svg>
