<svg width="590" height="699" viewBox="0 0 590 699" fill="none" xmlns="http://www.w3.org/2000/svg">
<path d="M195.36 238.94C193.008 241.34 189.924 242.54 186.108 242.54C182.292 242.54 179.208 241.34 176.856 238.94C174.504 236.516 173.328 233.54 173.328 230.012C173.328 226.46 174.504 223.46 176.856 221.012C179.208 218.564 182.292 217.34 186.108 217.34C189.924 217.34 193.008 218.564 195.36 221.012C197.712 223.46 198.888 226.46 198.888 230.012C198.888 233.54 197.712 236.516 195.36 238.94ZM186.108 236.708C188.148 236.708 189.78 236.048 191.004 234.728C192.228 233.408 192.84 231.812 192.84 229.94C192.84 228.044 192.228 226.448 191.004 225.152C189.804 223.832 188.172 223.172 186.108 223.172C184.044 223.172 182.4 223.832 181.176 225.152C179.976 226.448 179.376 228.044 179.376 229.94C179.376 231.812 179.976 233.408 181.176 234.728C182.4 236.048 184.044 236.708 186.108 236.708ZM206.892 226.412L213.3 226.376C215.988 226.352 218.028 227.096 219.42 228.608C220.812 230.096 221.508 231.896 221.508 234.008C221.508 236.144 220.788 238.016 219.348 239.624C217.932 241.208 215.916 242 213.3 242H200.952V217.88H219.456V223.64H206.892V226.412ZM206.892 236.276H212.616C213.504 236.276 214.2 236.048 214.704 235.592C215.208 235.112 215.46 234.548 215.46 233.9C215.46 233.252 215.208 232.7 214.704 232.244C214.224 231.764 213.528 231.524 212.616 231.524H206.892V236.276ZM231.633 225.044H237.429C239.829 225.044 241.845 225.836 243.477 227.42C245.109 228.98 245.925 231.008 245.925 233.504C245.925 235.928 245.109 237.956 243.477 239.588C241.845 241.196 239.829 242 237.429 242H225.693V223.64H220.293V217.88H231.633V225.044ZM231.633 236.24H236.889C237.825 236.24 238.557 235.964 239.085 235.412C239.613 234.86 239.877 234.212 239.877 233.468C239.877 232.724 239.613 232.076 239.085 231.524C238.557 230.972 237.825 230.696 236.889 230.696H231.633V236.24ZM270.313 217.88V242H264.373V234.224H255.913C255.001 234.224 254.545 234.668 254.545 235.556V242H248.605V234.512C248.605 231.92 249.637 230.372 251.701 229.868V229.724C250.117 228.596 249.325 226.892 249.325 224.612C249.325 222.452 250.093 220.796 251.629 219.644C253.189 218.468 255.265 217.88 257.857 217.88H270.313ZM258.361 228.968H264.373V223.64H258.325C257.413 223.64 256.669 223.868 256.093 224.324C255.517 224.78 255.229 225.416 255.229 226.232C255.229 227.096 255.505 227.768 256.057 228.248C256.633 228.728 257.401 228.968 258.361 228.968ZM291.029 229.292V229.436C292.181 229.844 293.129 230.528 293.873 231.488C294.617 232.448 294.989 233.636 294.989 235.052C294.989 237.068 294.269 238.736 292.829 240.056C291.413 241.352 289.673 242 287.609 242H274.217V217.88H287.177C289.217 217.88 290.921 218.468 292.289 219.644C293.657 220.82 294.341 222.356 294.341 224.252C294.341 225.356 294.041 226.364 293.441 227.276C292.841 228.164 292.037 228.836 291.029 229.292ZM285.989 223.172H280.157V227.456H285.989C286.661 227.456 287.201 227.24 287.609 226.808C288.041 226.352 288.257 225.848 288.257 225.296C288.257 224.744 288.053 224.252 287.645 223.82C287.237 223.388 286.685 223.172 285.989 223.172ZM280.157 236.744H286.493C287.189 236.744 287.765 236.504 288.221 236.024C288.677 235.544 288.905 235.004 288.905 234.404C288.905 233.852 288.677 233.372 288.221 232.964C287.765 232.532 287.189 232.316 286.493 232.316H280.157V236.744ZM319.02 217.88V242H313.08V223.604H305.592C305.496 229.796 305.352 233.576 305.16 234.944C304.968 236.288 304.656 237.44 304.224 238.4C303.792 239.336 303.348 240.032 302.892 240.488C302.436 240.944 301.86 241.292 301.164 241.532C300.468 241.772 299.928 241.916 299.544 241.964C299.184 241.988 298.692 242 298.068 242H296.16V236.06H297.312C297.6 236.06 297.84 236.036 298.032 235.988C298.248 235.94 298.524 235.7 298.86 235.268C299.196 234.836 299.424 234.212 299.544 233.396C299.664 232.58 299.748 231.14 299.796 229.076C299.868 226.988 299.904 224.72 299.904 222.272C299.928 219.8 299.94 218.336 299.94 217.88H319.02ZM341.701 242H322.909V217.88H341.701V223.64H328.849V227.096H339.901V232.496H328.849V236.24H341.701V242ZM360.831 226.916V217.88H366.771V242H360.831V232.64H350.751V242H344.811V217.88H350.751V226.916H360.831ZM376.591 232.928L386.851 217.88H392.791V242H386.851V226.952L376.591 242H370.651V217.88H376.591V232.928ZM415.459 242H396.667V217.88H415.459V223.64H402.607V227.096H413.659V232.496H402.607V236.24H415.459V242Z" fill="#00479A"/>
<path d="M61.204 368.368V368.432C61.6947 368.645 62.0733 368.971 62.34 369.408C62.6067 369.845 62.74 370.347 62.74 370.912C62.74 371.787 62.4413 372.523 61.844 373.12C61.2467 373.707 60.4893 374 59.572 374H53.94V363.28H59.348C60.2227 363.28 60.9533 363.547 61.54 364.08C62.1267 364.613 62.42 365.307 62.42 366.16C62.42 367.163 62.0147 367.899 61.204 368.368ZM59.3 364.8H55.492V367.776H59.284C59.732 367.776 60.1053 367.637 60.404 367.36C60.7027 367.072 60.852 366.715 60.852 366.288C60.852 365.851 60.7027 365.493 60.404 365.216C60.1053 364.939 59.7373 364.8 59.3 364.8ZM55.492 372.464H59.572C60.0413 372.464 60.4253 372.32 60.724 372.032C61.0227 371.744 61.172 371.371 61.172 370.912C61.172 370.443 61.012 370.059 60.692 369.76C60.3827 369.451 59.988 369.296 59.508 369.296H55.492V372.464ZM77.593 369.92H79.241C78.985 371.179 78.3717 372.208 77.401 373.008C76.441 373.808 75.273 374.208 73.897 374.208C72.2863 374.208 70.969 373.669 69.945 372.592C68.9317 371.515 68.425 370.197 68.425 368.64C68.425 367.093 68.937 365.776 69.961 364.688C70.985 363.6 72.297 363.056 73.897 363.056C75.241 363.056 76.393 363.451 77.353 364.24C78.3237 365.019 78.9423 366.027 79.209 367.264H77.577C77.3423 366.475 76.8943 365.829 76.233 365.328C75.5823 364.827 74.8143 364.576 73.929 364.576C72.7877 364.576 71.8437 364.976 71.097 365.776C70.361 366.565 69.993 367.52 69.993 368.64C69.993 369.771 70.361 370.731 71.097 371.52C71.8437 372.299 72.7877 372.688 73.929 372.688C74.857 372.688 75.6463 372.432 76.297 371.92C76.9583 371.397 77.3903 370.731 77.593 369.92ZM88.5009 368.368V368.432C88.9915 368.645 89.3702 368.971 89.6369 369.408C89.9035 369.845 90.0369 370.347 90.0369 370.912C90.0369 371.787 89.7382 372.523 89.1409 373.12C88.5435 373.707 87.7862 374 86.8689 374H81.2369V363.28H86.6449C87.5195 363.28 88.2502 363.547 88.8369 364.08C89.4235 364.613 89.7169 365.307 89.7169 366.16C89.7169 367.163 89.3115 367.899 88.5009 368.368ZM86.5969 364.8H82.7889V367.776H86.5809C87.0289 367.776 87.4022 367.637 87.7009 367.36C87.9995 367.072 88.1489 366.715 88.1489 366.288C88.1489 365.851 87.9995 365.493 87.7009 365.216C87.4022 364.939 87.0342 364.8 86.5969 364.8ZM82.7889 372.464H86.8689C87.3382 372.464 87.7222 372.32 88.0209 372.032C88.3195 371.744 88.4689 371.371 88.4689 370.912C88.4689 370.443 88.3089 370.059 87.9889 369.76C87.6795 369.451 87.2849 369.296 86.8049 369.296H82.7889V372.464ZM100.961 363.28V374H99.4094V369.968H94.2894C93.756 369.968 93.4894 370.208 93.4894 370.688V374H91.9374V370.368C91.9374 369.344 92.3374 368.731 93.1374 368.528V368.496C92.4334 367.984 92.0814 367.243 92.0814 366.272C92.0814 365.344 92.4067 364.613 93.0574 364.08C93.708 363.547 94.5454 363.28 95.5694 363.28H100.961ZM95.6494 368.448H99.4094V364.8H95.6494C95.084 364.8 94.6094 364.971 94.2254 365.312C93.8414 365.653 93.6494 366.096 93.6494 366.64C93.6494 367.184 93.836 367.621 94.2094 367.952C94.5934 368.283 95.0734 368.448 95.6494 368.448ZM110.15 368.416V368.448C110.63 368.672 111.009 369.003 111.286 369.44C111.574 369.877 111.718 370.373 111.718 370.928C111.718 371.803 111.42 372.533 110.822 373.12C110.225 373.707 109.468 374 108.55 374H103.206V372.464H108.55C109.02 372.464 109.404 372.32 109.702 372.032C110.001 371.744 110.15 371.371 110.15 370.912C110.15 370.443 109.99 370.059 109.67 369.76C109.361 369.451 108.966 369.296 108.486 369.296H104.166V367.776H108.358C108.806 367.776 109.18 367.637 109.478 367.36C109.777 367.072 109.926 366.715 109.926 366.288C109.926 365.851 109.777 365.493 109.478 365.216C109.18 364.939 108.812 364.8 108.374 364.8H103.206V363.28H108.438C109.313 363.28 110.044 363.541 110.63 364.064C111.217 364.587 111.51 365.269 111.51 366.112C111.51 366.603 111.388 367.056 111.142 367.472C110.897 367.877 110.566 368.192 110.15 368.416ZM115.414 371.6L121.558 363.28H123.11V374H121.558V365.68L115.414 374H113.862V363.28H115.414V371.6ZM138.515 369.92H140.163C139.907 371.179 139.294 372.208 138.323 373.008C137.363 373.808 136.195 374.208 134.819 374.208C133.208 374.208 131.891 373.669 130.867 372.592C129.854 371.515 129.347 370.197 129.347 368.64C129.347 367.093 129.859 365.776 130.883 364.688C131.907 363.6 133.219 363.056 134.819 363.056C136.163 363.056 137.315 363.451 138.275 364.24C139.246 365.019 139.864 366.027 140.131 367.264H138.499C138.264 366.475 137.816 365.829 137.155 365.328C136.504 364.827 135.736 364.576 134.851 364.576C133.71 364.576 132.766 364.976 132.019 365.776C131.283 366.565 130.915 367.52 130.915 368.64C130.915 369.771 131.283 370.731 132.019 371.52C132.766 372.299 133.71 372.688 134.851 372.688C135.779 372.688 136.568 372.432 137.219 371.92C137.88 371.397 138.312 370.731 138.515 369.92ZM151.338 374.208C149.706 374.208 148.367 373.675 147.322 372.608C146.287 371.531 145.77 370.208 145.77 368.64C145.77 367.083 146.287 365.765 147.322 364.688C148.367 363.6 149.706 363.056 151.338 363.056C152.981 363.056 154.319 363.595 155.354 364.672C156.399 365.749 156.922 367.072 156.922 368.64C156.922 370.208 156.399 371.531 155.354 372.608C154.319 373.675 152.981 374.208 151.338 374.208ZM151.338 372.704C152.533 372.704 153.498 372.315 154.234 371.536C154.981 370.747 155.354 369.781 155.354 368.64C155.354 367.499 154.981 366.539 154.234 365.76C153.487 364.971 152.522 364.576 151.338 364.576C150.165 364.576 149.205 364.971 148.458 365.76C147.711 366.539 147.338 367.499 147.338 368.64C147.338 369.771 147.706 370.731 148.442 371.52C149.189 372.309 150.154 372.704 151.338 372.704ZM160.555 367.376H164.107C165.077 367.376 165.893 367.691 166.555 368.32C167.227 368.949 167.562 369.733 167.562 370.672C167.562 371.621 167.227 372.416 166.555 373.056C165.893 373.685 165.077 374 164.107 374H159.003V363.28H166.507V364.8H160.555V367.376ZM160.555 372.48H164.043C164.597 372.48 165.061 372.315 165.435 371.984C165.808 371.643 165.995 371.205 165.995 370.672C165.995 370.149 165.808 369.723 165.435 369.392C165.072 369.061 164.608 368.896 164.043 368.896H160.555V372.48ZM176.751 368.368V368.432C177.242 368.645 177.62 368.971 177.887 369.408C178.154 369.845 178.287 370.347 178.287 370.912C178.287 371.787 177.988 372.523 177.391 373.12C176.794 373.707 176.036 374 175.119 374H169.487V363.28H174.895C175.77 363.28 176.5 363.547 177.087 364.08C177.674 364.613 177.967 365.307 177.967 366.16C177.967 367.163 177.562 367.899 176.751 368.368ZM174.847 364.8H171.039V367.776H174.831C175.279 367.776 175.652 367.637 175.951 367.36C176.25 367.072 176.399 366.715 176.399 366.288C176.399 365.851 176.25 365.493 175.951 365.216C175.652 364.939 175.284 364.8 174.847 364.8ZM171.039 372.464H175.119C175.588 372.464 175.972 372.32 176.271 372.032C176.57 371.744 176.719 371.371 176.719 370.912C176.719 370.443 176.559 370.059 176.239 369.76C175.93 369.451 175.535 369.296 175.055 369.296H171.039V372.464ZM190.192 374H188.448L187.232 371.136H182.144L180.944 374H179.215L183.856 363.28H185.536L190.192 374ZM184.672 365.136L182.784 369.632H186.592L184.672 365.136ZM201.222 363.28V374H199.67V364.8H194.63C194.63 368.427 194.518 370.763 194.294 371.808C194.209 372.213 194.081 372.56 193.91 372.848C193.74 373.136 193.564 373.355 193.382 373.504C193.212 373.643 192.998 373.755 192.742 373.84C192.497 373.915 192.294 373.963 192.134 373.984C191.974 373.995 191.782 374 191.558 374H191.014V372.464H191.286C191.468 372.464 191.601 372.464 191.686 372.464C191.782 372.453 191.9 372.432 192.038 372.4C192.177 372.357 192.284 372.304 192.358 372.24C192.433 372.165 192.508 372.059 192.582 371.92C192.657 371.781 192.721 371.611 192.774 371.408C192.828 371.205 192.87 370.944 192.902 370.624C192.945 370.304 192.977 369.931 192.998 369.504C193.02 369.077 193.036 368.672 193.046 368.288C193.057 367.904 193.062 367.44 193.062 366.896C193.073 366.352 193.078 365.92 193.078 365.6C193.078 365.28 193.078 364.853 193.078 364.32C193.078 363.787 193.078 363.44 193.078 363.28H201.222ZM208.885 374.208C207.253 374.208 205.914 373.675 204.869 372.608C203.834 371.531 203.317 370.208 203.317 368.64C203.317 367.083 203.834 365.765 204.869 364.688C205.914 363.6 207.253 363.056 208.885 363.056C210.527 363.056 211.866 363.595 212.901 364.672C213.946 365.749 214.469 367.072 214.469 368.64C214.469 370.208 213.946 371.531 212.901 372.608C211.866 373.675 210.527 374.208 208.885 374.208ZM208.885 372.704C210.079 372.704 211.045 372.315 211.781 371.536C212.527 370.747 212.901 369.781 212.901 368.64C212.901 367.499 212.527 366.539 211.781 365.76C211.034 364.971 210.069 364.576 208.885 364.576C207.711 364.576 206.751 364.971 206.005 365.76C205.258 366.539 204.885 367.499 204.885 368.64C204.885 369.771 205.253 370.731 205.989 371.52C206.735 372.309 207.701 372.704 208.885 372.704ZM228.165 363.28V374H226.613V365.68L223.013 374H221.669L218.101 365.728V374H216.549V363.28H218.693L222.389 371.824L226.069 363.28H228.165ZM247.257 372.48V363.28H248.809V374H235.049V363.28H236.601V372.48H241.161V363.28H242.713V372.48H247.257ZM261.488 374H259.744L258.528 371.136H253.44L252.24 374H250.512L255.152 363.28H256.832L261.488 374ZM255.968 365.136L254.08 369.632H257.888L255.968 365.136ZM267.965 368.528L272.013 374H269.981L267.021 369.84L264.061 374H262.045L266.077 368.56L262.157 363.28H264.205L267.037 367.264L269.933 363.28H271.821L267.965 368.528ZM273.217 363.28H282.465V364.8H278.609V374H277.057V364.8H273.217V363.28ZM285.836 367.088H288.86C289.905 367.088 290.774 367.413 291.468 368.064C292.161 368.704 292.508 369.525 292.508 370.528C292.508 371.52 292.161 372.347 291.468 373.008C290.774 373.669 289.905 374 288.86 374H284.284V363.28H285.836V367.088ZM294.012 374V363.28H295.564V374H294.012ZM285.836 372.48H288.812C289.43 372.48 289.937 372.299 290.332 371.936C290.737 371.563 290.94 371.093 290.94 370.528C290.94 369.952 290.742 369.483 290.348 369.12C289.953 368.757 289.441 368.576 288.812 368.576H285.836V372.48ZM317.4 367.44C316.909 367.941 316.307 368.192 315.592 368.192C314.877 368.192 314.269 367.941 313.768 367.44C313.267 366.939 313.016 366.331 313.016 365.616C313.016 364.901 313.267 364.299 313.768 363.808C314.269 363.307 314.877 363.056 315.592 363.056C316.296 363.056 316.888 363.307 317.368 363.808C317.859 364.299 318.109 364.901 318.12 365.616C318.131 366.331 317.891 366.939 317.4 367.44ZM304.632 363.28L310.504 371.264V363.28H312.056V374H310.504L304.28 365.424V374H302.728V363.28H304.632ZM315.592 364.4C315.24 364.4 314.947 364.517 314.712 364.752C314.477 364.987 314.365 365.275 314.376 365.616C314.387 365.957 314.504 366.251 314.728 366.496C314.963 366.731 315.251 366.848 315.592 366.848C315.923 366.848 316.205 366.731 316.44 366.496C316.675 366.251 316.792 365.957 316.792 365.616C316.792 365.275 316.675 364.987 316.44 364.752C316.216 364.517 315.933 364.4 315.592 364.4ZM317.96 370.256H313.176V368.896H317.96V370.256ZM327.122 369.856H328.69V371.296H327.122V374H325.57V371.296H319.842V370.192L325.026 363.28H327.122V369.856ZM325.57 364.992L321.922 369.856H325.57V364.992ZM330.661 372.08H332.469L330.981 376.192H329.509L330.661 372.08ZM343.918 363.28C344.963 363.28 345.833 363.611 346.526 364.272C347.219 364.933 347.566 365.76 347.566 366.752C347.566 367.755 347.219 368.581 346.526 369.232C345.833 369.872 344.963 370.192 343.918 370.192H340.414V374H338.862V363.28H343.918ZM340.414 368.704H343.87C344.499 368.704 345.011 368.523 345.406 368.16C345.801 367.797 345.998 367.328 345.998 366.752C345.998 366.187 345.795 365.723 345.39 365.36C344.995 364.987 344.489 364.8 343.87 364.8H340.414V368.704ZM358.301 374H356.557L355.341 371.136H350.253L349.053 374H347.325L351.965 363.28H353.645L358.301 374ZM352.781 365.136L350.893 369.632H354.701L352.781 365.136ZM361.508 367.376H365.06C366.03 367.376 366.846 367.691 367.508 368.32C368.18 368.949 368.516 369.733 368.516 370.672C368.516 371.621 368.18 372.416 367.508 373.056C366.846 373.685 366.03 374 365.06 374H359.956V363.28H367.46V364.8H361.508V367.376ZM361.508 372.48H364.996C365.55 372.48 366.014 372.315 366.388 371.984C366.761 371.643 366.948 371.205 366.948 370.672C366.948 370.149 366.761 369.723 366.388 369.392C366.025 369.061 365.561 368.896 364.996 368.896H361.508V372.48ZM375.494 374.208C373.862 374.208 372.523 373.675 371.478 372.608C370.443 371.531 369.926 370.208 369.926 368.64C369.926 367.083 370.443 365.765 371.478 364.688C372.523 363.6 373.862 363.056 375.494 363.056C377.137 363.056 378.475 363.595 379.51 364.672C380.555 365.749 381.078 367.072 381.078 368.64C381.078 370.208 380.555 371.531 379.51 372.608C378.475 373.675 377.137 374.208 375.494 374.208ZM375.494 372.704C376.689 372.704 377.654 372.315 378.39 371.536C379.137 370.747 379.51 369.781 379.51 368.64C379.51 367.499 379.137 366.539 378.39 365.76C377.643 364.971 376.678 364.576 375.494 364.576C374.321 364.576 373.361 364.971 372.614 365.76C371.867 366.539 371.494 367.499 371.494 368.64C371.494 369.771 371.862 370.731 372.598 371.52C373.345 372.309 374.31 372.704 375.494 372.704ZM381.577 363.28H390.825V364.8H386.969V374H385.417V364.8H381.577V363.28ZM394.195 367.088H397.219C398.264 367.088 399.134 367.413 399.827 368.064C400.52 368.704 400.867 369.525 400.867 370.528C400.867 371.52 400.52 372.347 399.827 373.008C399.134 373.669 398.264 374 397.219 374H392.643V363.28H394.195V367.088ZM402.371 374V363.28H403.923V374H402.371ZM394.195 372.48H397.171C397.79 372.48 398.296 372.299 398.691 371.936C399.096 371.563 399.299 371.093 399.299 370.528C399.299 369.952 399.102 369.483 398.707 369.12C398.312 368.757 397.8 368.576 397.171 368.576H394.195V372.48ZM419.983 363.28V374H418.431V364.8H412.351V374H410.799V363.28H419.983ZM430.798 374H422.862V363.28H430.798V364.8H424.414V367.712H430.318V369.232H424.414V372.48H430.798V374ZM438.199 363.28C439.244 363.28 440.114 363.611 440.807 364.272C441.5 364.933 441.847 365.76 441.847 366.752C441.847 367.755 441.5 368.581 440.807 369.232C440.114 369.872 439.244 370.192 438.199 370.192H434.695V374H433.143V363.28H438.199ZM434.695 368.704H438.151C438.78 368.704 439.292 368.523 439.687 368.16C440.082 367.797 440.279 367.328 440.279 366.752C440.279 366.187 440.076 365.723 439.671 365.36C439.276 364.987 438.77 364.8 438.151 364.8H434.695V368.704ZM451.704 374H443.768V363.28H451.704V364.8H445.32V367.712H451.224V369.232H445.32V372.48H451.704V374ZM461.761 367.68V363.28H463.313V374H461.761V369.2H455.601V374H454.049V363.28H455.601V367.68H461.761ZM470.979 374.208C469.347 374.208 468.008 373.675 466.963 372.608C465.928 371.531 465.411 370.208 465.411 368.64C465.411 367.083 465.928 365.765 466.963 364.688C468.008 363.6 469.347 363.056 470.979 363.056C472.621 363.056 473.96 363.595 474.995 364.672C476.04 365.749 476.563 367.072 476.563 368.64C476.563 370.208 476.04 371.531 474.995 372.608C473.96 373.675 472.621 374.208 470.979 374.208ZM470.979 372.704C472.173 372.704 473.139 372.315 473.875 371.536C474.621 370.747 474.995 369.781 474.995 368.64C474.995 367.499 474.621 366.539 473.875 365.76C473.128 364.971 472.163 364.576 470.979 364.576C469.805 364.576 468.845 364.971 468.099 365.76C467.352 366.539 466.979 367.499 466.979 368.64C466.979 369.771 467.347 370.731 468.083 371.52C468.829 372.309 469.795 372.704 470.979 372.704ZM487.296 369.92H488.944C488.688 371.179 488.075 372.208 487.104 373.008C486.144 373.808 484.976 374.208 483.6 374.208C481.989 374.208 480.672 373.669 479.648 372.592C478.635 371.515 478.128 370.197 478.128 368.64C478.128 367.093 478.64 365.776 479.664 364.688C480.688 363.6 482 363.056 483.6 363.056C484.944 363.056 486.096 363.451 487.056 364.24C488.027 365.019 488.645 366.027 488.912 367.264H487.28C487.045 366.475 486.597 365.829 485.936 365.328C485.285 364.827 484.517 364.576 483.632 364.576C482.491 364.576 481.547 364.976 480.8 365.776C480.064 366.565 479.696 367.52 479.696 368.64C479.696 369.771 480.064 370.731 480.8 371.52C481.547 372.299 482.491 372.688 483.632 372.688C484.56 372.688 485.349 372.432 486 371.92C486.661 371.397 487.093 370.731 487.296 369.92ZM499.258 363.28V374H497.706V369.968H492.586C492.053 369.968 491.786 370.208 491.786 370.688V374H490.234V370.368C490.234 369.344 490.634 368.731 491.434 368.528V368.496C490.73 367.984 490.378 367.243 490.378 366.272C490.378 365.344 490.704 364.613 491.354 364.08C492.005 363.547 492.842 363.28 493.866 363.28H499.258ZM493.946 368.448H497.706V364.8H493.946C493.381 364.8 492.906 364.971 492.522 365.312C492.138 365.653 491.946 366.096 491.946 366.64C491.946 367.184 492.133 367.621 492.506 367.952C492.89 368.283 493.37 368.448 493.946 368.448ZM501.155 363.28H510.403V364.8H506.547V374H504.995V364.8H501.155V363.28ZM520.031 369.92H521.679C521.423 371.179 520.809 372.208 519.839 373.008C518.879 373.808 517.711 374.208 516.335 374.208C514.724 374.208 513.407 373.669 512.383 372.592C511.369 371.515 510.863 370.197 510.863 368.64C510.863 367.093 511.375 365.776 512.399 364.688C513.423 363.6 514.735 363.056 516.335 363.056C517.679 363.056 518.831 363.451 519.791 364.24C520.761 365.019 521.38 366.027 521.647 367.264H520.015C519.78 366.475 519.332 365.829 518.671 365.328C518.02 364.827 517.252 364.576 516.367 364.576C515.225 364.576 514.281 364.976 513.535 365.776C512.799 366.565 512.431 367.52 512.431 368.64C512.431 369.771 512.799 370.731 513.535 371.52C514.281 372.299 515.225 372.688 516.367 372.688C517.295 372.688 518.084 372.432 518.735 371.92C519.396 371.397 519.828 370.731 520.031 369.92ZM531.993 363.28V374H530.441V369.968H525.321C524.787 369.968 524.521 370.208 524.521 370.688V374H522.969V370.368C522.969 369.344 523.369 368.731 524.169 368.528V368.496C523.465 367.984 523.113 367.243 523.113 366.272C523.113 365.344 523.438 364.613 524.089 364.08C524.739 363.547 525.577 363.28 526.601 363.28H531.993ZM526.681 368.448H530.441V364.8H526.681C526.115 364.8 525.641 364.971 525.257 365.312C524.873 365.653 524.681 366.096 524.681 366.64C524.681 367.184 524.867 367.621 525.241 367.952C525.625 368.283 526.105 368.448 526.681 368.448ZM61.652 388.68V384.28H63.204V395H61.652V390.2H55.492V395H53.94V384.28H55.492V388.68H61.652ZM75.879 395H74.135L72.919 392.136H67.831L66.631 395H64.903L69.543 384.28H71.223L75.879 395ZM70.359 386.136L68.471 390.632H72.279L70.359 386.136ZM85.2383 384.28V395H83.6863V385.8H80.9663V384.28H85.2383ZM93.409 389.528L89.617 393.48H94.609V395H87.329V393.8L92.353 388.504C92.7477 388.12 92.945 387.677 92.945 387.176C92.945 386.771 92.7903 386.44 92.481 386.184C92.1823 385.928 91.7877 385.8 91.297 385.8H87.457V384.28H91.313C92.241 384.28 93.0037 384.547 93.601 385.08C94.1983 385.603 94.497 386.285 94.497 387.128C94.497 387.981 94.1343 388.781 93.409 389.528ZM96.5338 387.08H98.3738V389H96.5338V387.08ZM96.5338 393.08H98.3738V395H96.5338V393.08ZM101.18 391.08V388.2C101.18 387.016 101.575 386.029 102.364 385.24C103.153 384.451 104.145 384.056 105.34 384.056C106.524 384.056 107.516 384.451 108.316 385.24C109.116 386.029 109.516 387.016 109.516 388.2V391.08C109.516 392.264 109.116 393.251 108.316 394.04C107.516 394.829 106.524 395.224 105.34 395.224C104.145 395.224 103.153 394.829 102.364 394.04C101.575 393.251 101.18 392.264 101.18 391.08ZM102.732 388.2V391.08C102.732 391.848 102.977 392.477 103.468 392.968C103.959 393.448 104.583 393.688 105.34 393.688C106.097 393.688 106.721 393.448 107.212 392.968C107.713 392.477 107.964 391.848 107.964 391.08V388.2C107.964 387.432 107.713 386.803 107.212 386.312C106.721 385.821 106.097 385.576 105.34 385.576C104.583 385.576 103.959 385.821 103.468 386.312C102.977 386.803 102.732 387.432 102.732 388.2ZM111.446 391.08V388.2C111.446 387.016 111.84 386.029 112.63 385.24C113.419 384.451 114.411 384.056 115.606 384.056C116.79 384.056 117.782 384.451 118.582 385.24C119.382 386.029 119.782 387.016 119.782 388.2V391.08C119.782 392.264 119.382 393.251 118.582 394.04C117.782 394.829 116.79 395.224 115.606 395.224C114.411 395.224 113.419 394.829 112.63 394.04C111.84 393.251 111.446 392.264 111.446 391.08ZM112.998 388.2V391.08C112.998 391.848 113.243 392.477 113.734 392.968C114.224 393.448 114.848 393.688 115.606 393.688C116.363 393.688 116.987 393.448 117.478 392.968C117.979 392.477 118.23 391.848 118.23 391.08V388.2C118.23 387.432 117.979 386.803 117.478 386.312C116.987 385.821 116.363 385.576 115.606 385.576C114.848 385.576 114.224 385.821 113.734 386.312C113.243 386.803 112.998 387.432 112.998 388.2Z" fill="#00479A"/>
<path d="M59.976 466.94H61.212C61.02 467.884 60.56 468.656 59.832 469.256C59.112 469.856 58.236 470.156 57.204 470.156C55.996 470.156 55.008 469.752 54.24 468.944C53.48 468.136 53.1 467.148 53.1 465.98C53.1 464.82 53.484 463.832 54.252 463.016C55.02 462.2 56.004 461.792 57.204 461.792C58.212 461.792 59.076 462.088 59.796 462.68C60.524 463.264 60.988 464.02 61.188 464.948H59.964C59.788 464.356 59.452 463.872 58.956 463.496C58.468 463.12 57.892 462.932 57.228 462.932C56.372 462.932 55.664 463.232 55.104 463.832C54.552 464.424 54.276 465.14 54.276 465.98C54.276 466.828 54.552 467.548 55.104 468.14C55.664 468.724 56.372 469.016 57.228 469.016C57.924 469.016 58.516 468.824 59.004 468.44C59.5 468.048 59.824 467.548 59.976 466.94ZM68.2973 469.052L70.1813 464.06H71.3453L68.7293 470.924C68.5373 471.436 68.2853 471.808 67.9733 472.04C67.6693 472.28 67.2653 472.4 66.7613 472.4H65.3573V471.26H66.7613C67.0173 471.26 67.2133 471.208 67.3493 471.104C67.4853 471.008 67.6013 470.836 67.6973 470.588L67.7093 470.564L64.9973 464.06H66.2573L68.2973 469.052ZM76.8964 466.88V466.928C77.2004 467.048 77.4284 467.236 77.5804 467.492C77.7324 467.748 77.8084 468.024 77.8084 468.32C77.8084 468.776 77.6444 469.172 77.3164 469.508C76.9964 469.836 76.5564 470 75.9964 470H72.3484V464.06H75.7804C76.3484 464.06 76.7884 464.216 77.1004 464.528C77.4124 464.84 77.5684 465.216 77.5684 465.656C77.5684 466.216 77.3444 466.624 76.8964 466.88ZM75.7324 465.164H73.4884V466.484H75.7324C75.9484 466.484 76.1164 466.42 76.2364 466.292C76.3644 466.156 76.4284 465.996 76.4284 465.812C76.4284 465.636 76.3684 465.484 76.2484 465.356C76.1284 465.228 75.9564 465.164 75.7324 465.164ZM73.4884 468.896H75.9364C76.1604 468.896 76.3364 468.832 76.4644 468.704C76.5924 468.568 76.6564 468.408 76.6564 468.224C76.6564 468.048 76.5924 467.896 76.4644 467.768C76.3364 467.64 76.1604 467.576 75.9364 467.576H73.4884V468.896ZM83.9338 464.924V464.06H85.0618V470H83.9338V469.076H83.8858C83.3818 469.796 82.6698 470.16 81.7498 470.168C80.8858 470.184 80.1658 469.896 79.5898 469.304C79.0218 468.712 78.7378 467.952 78.7378 467.024C78.7378 466.096 79.0218 465.34 79.5898 464.756C80.1578 464.172 80.8818 463.884 81.7618 463.892C82.6738 463.9 83.3818 464.244 83.8858 464.924H83.9338ZM81.9178 469.064C82.5098 469.064 82.9898 468.868 83.3578 468.476C83.7338 468.084 83.9218 467.6 83.9218 467.024C83.9218 466.448 83.7338 465.964 83.3578 465.572C82.9898 465.18 82.5098 464.984 81.9178 464.984C81.3098 464.984 80.8178 465.18 80.4418 465.572C80.0658 465.964 79.8778 466.448 79.8778 467.024C79.8778 467.6 80.0658 468.084 80.4418 468.476C80.8178 468.868 81.3098 469.064 81.9178 469.064ZM94.8139 464.06L93.4219 466.424C93.8459 466.456 94.1699 466.596 94.3939 466.844C94.6259 467.092 94.7419 467.44 94.7419 467.888V470H93.6019V468.08C93.6019 467.696 93.4059 467.504 93.0139 467.504H91.2379V470H90.0979V467.504H88.3219C87.9299 467.504 87.7339 467.696 87.7339 468.08V470H86.5939V467.888C86.5939 467.44 86.7059 467.092 86.9299 466.844C87.1619 466.596 87.4899 466.456 87.9139 466.424L86.5219 464.06H87.7579L89.1619 466.424H90.0979V464.06H91.2379V466.424H92.1739L93.5779 464.06H94.8139ZM98.9075 463.892C99.8755 463.892 100.643 464.232 101.211 464.912C101.787 465.592 102.035 466.432 101.955 467.432H97.0475C97.0875 467.904 97.2875 468.296 97.6475 468.608C98.0075 468.92 98.4515 469.076 98.9795 469.076C99.3635 469.076 99.7035 468.992 99.9995 468.824C100.295 468.656 100.511 468.432 100.647 468.152H101.835C101.635 468.776 101.275 469.268 100.755 469.628C100.235 469.988 99.6275 470.168 98.9315 470.168C98.0035 470.168 97.2555 469.868 96.6875 469.268C96.1195 468.66 95.8355 467.916 95.8355 467.036C95.8355 466.148 96.1235 465.404 96.6995 464.804C97.2755 464.196 98.0115 463.892 98.9075 463.892ZM98.8835 464.984C98.4195 464.984 98.0235 465.12 97.6955 465.392C97.3675 465.656 97.1595 466 97.0715 466.424H100.719C100.631 465.992 100.419 465.644 100.083 465.38C99.7555 465.116 99.3555 464.984 98.8835 464.984ZM107.715 466.412V464.06H108.855V470H107.715V467.516H104.379V470H103.239V464.06H104.379V466.412H107.715ZM111.727 468.392L115.051 464.06H116.191V470H115.051V465.68L111.727 470H110.587V464.06H111.727V468.392ZM120.552 463.892C121.52 463.892 122.288 464.232 122.856 464.912C123.432 465.592 123.68 466.432 123.6 467.432H118.692C118.732 467.904 118.932 468.296 119.292 468.608C119.652 468.92 120.096 469.076 120.624 469.076C121.008 469.076 121.348 468.992 121.644 468.824C121.94 468.656 122.156 468.432 122.292 468.152H123.48C123.28 468.776 122.92 469.268 122.4 469.628C121.88 469.988 121.272 470.168 120.576 470.168C119.648 470.168 118.9 469.868 118.332 469.268C117.764 468.66 117.48 467.916 117.48 467.036C117.48 466.148 117.768 465.404 118.344 464.804C118.92 464.196 119.656 463.892 120.552 463.892ZM120.528 464.984C120.064 464.984 119.668 465.12 119.34 465.392C119.012 465.656 118.804 466 118.716 466.424H122.364C122.276 465.992 122.064 465.644 121.728 465.38C121.4 465.116 121 464.984 120.528 464.984ZM132 464.06V470H130.86V465.368L128.856 470H128.028L126.024 465.368V470H124.884V464.06H126.624L128.436 468.332L130.26 464.06H132ZM134.043 468.56H135.399L134.283 471.644H133.179L134.043 468.56ZM61.128 486H59.82L58.908 483.852H55.092L54.192 486H52.896L56.376 477.96H57.636L61.128 486ZM56.988 479.352L55.572 482.724H58.428L56.988 479.352ZM67.7202 480.06V484.896H68.7282V487.5H67.6122V486H62.7162V487.5H61.6002V484.896H61.6722C61.8082 484.896 61.9122 484.892 61.9842 484.884C62.0642 484.868 62.1602 484.832 62.2722 484.776C62.3922 484.712 62.4842 484.6 62.5482 484.44C62.6202 484.28 62.6642 484.072 62.6802 483.816C62.7042 483.512 62.7162 482.26 62.7162 480.06H67.7202ZM63.5442 484.896H66.5802V481.164H63.8322C63.8322 482.284 63.8162 483.132 63.7842 483.708C63.7602 484.164 63.6802 484.56 63.5442 484.896ZM76.9566 480.06V486H75.8166V481.368L73.8126 486H72.9846L70.9806 481.368V486H69.8406V480.06H71.5806L73.3926 484.332L75.2166 480.06H76.9566ZM79.8282 484.392L83.1522 480.06H84.2922V486H83.1522V481.68L79.8282 486H78.6882V480.06H79.8282V484.392ZM90.5002 482.412V480.06H91.6402V486H90.5002V483.516H87.1642V486H86.0242V480.06H87.1642V482.412H90.5002ZM94.5118 484.392L97.8358 480.06H98.9758V486H97.8358V481.68L94.5118 486H93.3718V480.06H94.5118V484.392ZM106.433 482.22H105.245C105.117 481.86 104.889 481.564 104.561 481.332C104.241 481.1 103.861 480.984 103.421 480.984C102.821 480.984 102.333 481.18 101.957 481.572C101.589 481.964 101.405 482.448 101.405 483.024C101.405 483.6 101.589 484.088 101.957 484.488C102.333 484.88 102.821 485.076 103.421 485.076C103.853 485.076 104.233 484.96 104.561 484.728C104.897 484.496 105.125 484.188 105.245 483.804H106.433C106.289 484.492 105.941 485.06 105.389 485.508C104.837 485.948 104.177 486.168 103.409 486.168C102.481 486.168 101.725 485.868 101.141 485.268C100.557 484.66 100.265 483.912 100.265 483.024C100.265 482.136 100.557 481.392 101.141 480.792C101.725 480.192 102.481 479.892 103.409 479.892C104.177 479.892 104.837 480.112 105.389 480.552C105.941 480.984 106.289 481.54 106.433 482.22ZM112.175 480.06V481.164H110.075V486H108.935V481.164H106.835V480.06H112.175ZM116.57 479.892C117.45 479.884 118.174 480.172 118.742 480.756C119.31 481.34 119.594 482.096 119.594 483.024C119.594 483.952 119.306 484.712 118.73 485.304C118.162 485.896 117.446 486.184 116.582 486.168C115.662 486.16 114.95 485.796 114.446 485.076H114.398V488.4H113.27V480.06H114.398V480.924H114.458C114.682 480.612 114.974 480.364 115.334 480.18C115.702 479.996 116.114 479.9 116.57 479.892ZM116.414 485.064C117.022 485.064 117.514 484.868 117.89 484.476C118.266 484.084 118.454 483.6 118.454 483.024C118.454 482.448 118.266 481.964 117.89 481.572C117.514 481.18 117.022 480.984 116.414 480.984C115.822 480.984 115.338 481.18 114.962 481.572C114.594 481.964 114.41 482.448 114.41 483.024C114.41 483.6 114.594 484.084 114.962 484.476C115.338 484.868 115.822 485.064 116.414 485.064ZM125.746 480.924V480.06H126.874V486H125.746V485.076H125.698C125.194 485.796 124.482 486.16 123.562 486.168C122.698 486.184 121.978 485.896 121.402 485.304C120.834 484.712 120.55 483.952 120.55 483.024C120.55 482.096 120.834 481.34 121.402 480.756C121.97 480.172 122.694 479.884 123.574 479.892C124.486 479.9 125.194 480.244 125.698 480.924H125.746ZM123.73 485.064C124.322 485.064 124.802 484.868 125.17 484.476C125.546 484.084 125.734 483.6 125.734 483.024C125.734 482.448 125.546 481.964 125.17 481.572C124.802 481.18 124.322 480.984 123.73 480.984C123.122 480.984 122.63 481.18 122.254 481.572C121.878 481.964 121.69 482.448 121.69 483.024C121.69 483.6 121.878 484.084 122.254 484.476C122.63 484.868 123.122 485.064 123.73 485.064ZM134.154 484.896H135.15V487.5H134.034V486H128.598V480.06H129.738V484.896H133.014V480.06H134.154V484.896ZM137.402 484.392L140.726 480.06H141.866V486H140.726V481.68L137.402 486H136.262V480.06H137.402V484.392ZM148.878 480.06V486H147.738V483.924H145.17C144.77 483.924 144.57 484.108 144.57 484.476V486H143.43V484.296C143.43 483.68 143.662 483.296 144.126 483.144V483.108C143.678 482.836 143.454 482.408 143.454 481.824C143.454 481.344 143.63 480.932 143.982 480.588C144.334 480.236 144.822 480.06 145.446 480.06H148.878ZM145.506 482.82H147.738V481.164H145.446C145.182 481.164 144.974 481.248 144.822 481.416C144.67 481.576 144.594 481.768 144.594 481.992C144.594 482.224 144.678 482.42 144.846 482.58C145.022 482.74 145.242 482.82 145.506 482.82ZM157.554 486.156C156.33 486.156 155.326 485.756 154.542 484.956C153.766 484.148 153.378 483.156 153.378 481.98C153.378 480.812 153.766 479.824 154.542 479.016C155.326 478.2 156.33 477.792 157.554 477.792C158.786 477.792 159.79 478.196 160.566 479.004C161.35 479.812 161.742 480.804 161.742 481.98C161.742 483.156 161.35 484.148 160.566 484.956C159.79 485.756 158.786 486.156 157.554 486.156ZM157.554 485.028C158.45 485.028 159.174 484.736 159.726 484.152C160.286 483.56 160.566 482.836 160.566 481.98C160.566 481.124 160.286 480.404 159.726 479.82C159.166 479.228 158.442 478.932 157.554 478.932C156.674 478.932 155.954 479.228 155.394 479.82C154.834 480.404 154.554 481.124 154.554 481.98C154.554 482.828 154.83 483.548 155.382 484.14C155.942 484.732 156.666 485.028 157.554 485.028ZM167.128 486.156C165.904 486.156 164.9 485.756 164.116 484.956C163.34 484.148 162.952 483.156 162.952 481.98C162.952 480.812 163.34 479.824 164.116 479.016C164.9 478.2 165.904 477.792 167.128 477.792C168.36 477.792 169.364 478.196 170.14 479.004C170.924 479.812 171.316 480.804 171.316 481.98C171.316 483.156 170.924 484.148 170.14 484.956C169.364 485.756 168.36 486.156 167.128 486.156ZM167.128 485.028C168.024 485.028 168.748 484.736 169.3 484.152C169.86 483.56 170.14 482.836 170.14 481.98C170.14 481.124 169.86 480.404 169.3 479.82C168.74 479.228 168.016 478.932 167.128 478.932C166.248 478.932 165.528 479.228 164.968 479.82C164.408 480.404 164.128 481.124 164.128 481.98C164.128 482.828 164.404 483.548 164.956 484.14C165.516 484.732 166.24 485.028 167.128 485.028ZM176.703 486.156C175.479 486.156 174.475 485.756 173.691 484.956C172.915 484.148 172.527 483.156 172.527 481.98C172.527 480.812 172.915 479.824 173.691 479.016C174.475 478.2 175.479 477.792 176.703 477.792C177.935 477.792 178.939 478.196 179.715 479.004C180.499 479.812 180.891 480.804 180.891 481.98C180.891 483.156 180.499 484.148 179.715 484.956C178.939 485.756 177.935 486.156 176.703 486.156ZM176.703 485.028C177.599 485.028 178.323 484.736 178.875 484.152C179.435 483.56 179.715 482.836 179.715 481.98C179.715 481.124 179.435 480.404 178.875 479.82C178.315 479.228 177.591 478.932 176.703 478.932C175.823 478.932 175.103 479.228 174.543 479.82C173.983 480.404 173.703 481.124 173.703 481.98C173.703 482.828 173.979 483.548 174.531 484.14C175.091 484.732 175.815 485.028 176.703 485.028ZM186.851 480.9H188.075L186.239 483.18L188.075 485.46H186.851L185.051 483.18L186.851 480.9ZM189.143 480.9H190.367L188.531 483.18L190.367 485.46H189.143L187.343 483.18L189.143 480.9ZM200.163 477.96V486H198.999V479.76L196.299 486H195.291L192.615 479.796V486H191.451V477.96H193.059L195.831 484.368L198.591 477.96H200.163ZM208.278 486H202.326V477.96H208.278V479.1H203.49V481.284H207.918V482.424H203.49V484.86H208.278V486ZM209.413 477.96H216.349V479.1H213.457V486H212.293V479.1H209.413V477.96ZM224.054 486H222.746L221.834 483.852H218.018L217.118 486H215.822L219.302 477.96H220.562L224.054 486ZM219.914 479.352L218.498 482.724H221.354L219.914 479.352ZM232.327 477.96V486H231.163V479.1H227.383C227.383 481.82 227.299 483.572 227.131 484.356C227.067 484.66 226.971 484.92 226.843 485.136C226.715 485.352 226.583 485.516 226.447 485.628C226.319 485.732 226.159 485.816 225.967 485.88C225.783 485.936 225.631 485.972 225.511 485.988C225.391 485.996 225.247 486 225.079 486H224.671V484.848H224.875C225.011 484.848 225.111 484.848 225.175 484.848C225.247 484.84 225.335 484.824 225.439 484.8C225.543 484.768 225.623 484.728 225.679 484.68C225.735 484.624 225.791 484.544 225.847 484.44C225.903 484.336 225.951 484.208 225.991 484.056C226.031 483.904 226.063 483.708 226.087 483.468C226.119 483.228 226.143 482.948 226.159 482.628C226.175 482.308 226.187 482.004 226.195 481.716C226.203 481.428 226.207 481.08 226.207 480.672C226.215 480.264 226.219 479.94 226.219 479.7C226.219 479.46 226.219 479.14 226.219 478.74C226.219 478.34 226.219 478.08 226.219 477.96H232.327ZM241.397 477.96V486H240.233V479.1H236.453C236.453 481.82 236.369 483.572 236.201 484.356C236.137 484.66 236.041 484.92 235.913 485.136C235.785 485.352 235.653 485.516 235.517 485.628C235.389 485.732 235.229 485.816 235.037 485.88C234.853 485.936 234.701 485.972 234.581 485.988C234.461 485.996 234.317 486 234.149 486H233.741V484.848H233.945C234.081 484.848 234.181 484.848 234.245 484.848C234.317 484.84 234.405 484.824 234.509 484.8C234.613 484.768 234.693 484.728 234.749 484.68C234.805 484.624 234.861 484.544 234.917 484.44C234.973 484.336 235.021 484.208 235.061 484.056C235.101 483.904 235.133 483.708 235.157 483.468C235.189 483.228 235.213 482.948 235.229 482.628C235.245 482.308 235.257 482.004 235.265 481.716C235.273 481.428 235.277 481.08 235.277 480.672C235.285 480.264 235.289 479.94 235.289 479.7C235.289 479.46 235.289 479.14 235.289 478.74C235.289 478.34 235.289 478.08 235.289 477.96H241.397ZM255.265 477.96V486H254.101V479.76L251.401 486H250.393L247.717 479.796V486H246.553V477.96H248.161L250.933 484.368L253.693 477.96H255.265ZM264.776 486H263.468L262.556 483.852H258.74L257.84 486H256.544L260.024 477.96H261.284L264.776 486ZM260.636 479.352L259.22 482.724H262.076L260.636 479.352ZM270.422 477.36H268.574C268.294 477.36 268.062 477.272 267.878 477.096C267.702 476.912 267.614 476.68 267.614 476.4V475.98H268.634V476.22C268.634 476.308 268.662 476.384 268.718 476.448C268.782 476.504 268.854 476.532 268.934 476.532H270.062C270.142 476.532 270.21 476.504 270.266 476.448C270.33 476.384 270.362 476.308 270.362 476.22V475.98H271.382V476.4C271.382 476.68 271.289 476.912 271.105 477.096C270.93 477.272 270.702 477.36 270.422 477.36ZM267.182 484.2L271.79 477.96H272.954V486H271.79V479.76L267.182 486H266.018V477.96H267.182V484.2ZM280.895 481.26V477.96H282.059V486H280.895V482.4H276.275V486H275.111V477.96H276.275V481.26H280.895ZM285.381 484.2L289.989 477.96H291.153V486H289.989V479.76L285.381 486H284.217V477.96H285.381V484.2ZM299.094 481.26V477.96H300.258V486H299.094V482.4H294.474V486H293.31V477.96H294.474V481.26H299.094ZM303.58 486H302.416V477.96H307.924V479.1H303.58V486ZM309.512 483.18L307.676 480.9H308.9L310.7 483.18L308.9 485.46H307.676L309.512 483.18ZM311.84 483.18L310.004 480.9H311.228L313.028 483.18L311.228 485.46H310.004L311.84 483.18Z" fill="#00479A"/>
<rect x="1.5" y="1.5" width="587" height="696" stroke="#00479A" stroke-width="3"/>
</svg>
