<svg width="1036" height="1109" viewBox="0 0 1036 1109" fill="none" xmlns="http://www.w3.org/2000/svg">
<path d="M32.7967 137.037L215.648 68.6843L245.824 146.233L0.175781 333.618L32.7967 137.037Z" fill="#2858FF"/>
<path d="M82.2711 335.035L265.122 266.682L298.752 353.26L278.863 531.616L154.199 500.133L82.2711 335.035Z" fill="#2858FF"/>
<path d="M396.347 792.212L564.055 919.209L492.215 1001.85L296.961 1090.24L263.489 956.963L396.347 792.212Z" fill="#2858FF"/>
<path d="M1001.82 377.304L877.646 527.925L805.232 469.761L733.279 305.356L856.982 270.289L1001.82 377.304Z" fill="#2858FF"/>
<path d="M393.244 35.0886L543.865 159.266L536.654 255.289L456.268 276.829L321.296 303.633L286.229 179.93L321.296 90.6274L393.244 35.0886Z" fill="#2858FF"/>
<path d="M810.405 636.601L639.519 669.652L548 650.697L569.54 570.311L600.443 488.396L699.58 472.273L768.458 529.304L810.405 636.601Z" fill="#2858FF"/>
<path d="M762.416 971.398L618.21 873.935L566.9 795.817L638.972 754.207L718.747 718.136L800.248 776.836L808.625 865.867L762.416 971.398Z" fill="#2858FF"/>
<path d="M671.405 778.777L673.049 781.625L667.36 780.891L665.151 786.185L663.507 783.337L665.776 778.147L671.405 778.777ZM673.769 782.872L675.413 785.719L669.724 784.986L667.515 790.279L665.871 787.432L668.14 782.242L673.769 782.872ZM682.934 787.705L687.146 795.001L683.82 796.921L679.74 789.854C679.588 789.591 679.41 789.426 679.205 789.359C679.008 789.307 678.813 789.336 678.619 789.448C678.231 789.672 678.106 790.031 678.243 790.525L679.952 796.078C680.311 797.275 680.29 798.359 679.889 799.329C679.489 800.299 678.831 801.048 677.917 801.576C676.781 802.232 675.584 802.415 674.326 802.125C673.069 801.835 672.052 801.018 671.276 799.674L666.884 792.067L670.21 790.147L674.53 797.629C674.674 797.878 674.866 798.035 675.106 798.1C675.36 798.156 675.585 798.128 675.779 798.016C676.18 797.784 676.294 797.405 676.119 796.878L674.418 791.292C674.059 790.095 674.08 789.011 674.481 788.041C674.881 787.071 675.532 786.325 676.433 785.805C677.541 785.165 678.706 784.992 679.928 785.284C681.164 785.568 682.166 786.375 682.934 787.705ZM680.919 804.376L683.128 799.082L684.772 801.93L682.503 807.12L676.874 806.49L675.23 803.642L680.919 804.376ZM683.343 808.575L685.552 803.281L687.196 806.128L684.927 811.318L679.298 810.688L677.654 807.841L683.343 808.575ZM699.504 824.566L694.226 824.592C694.479 825.222 694.509 825.851 694.318 826.479C694.14 827.099 693.725 827.597 693.074 827.973L688.979 830.337L687.119 827.115L690.195 825.339C690.639 825.083 690.721 824.713 690.441 824.228L688.749 821.297L685.007 823.457L683.147 820.236L693.54 814.236L695.4 817.457L691.451 819.737L692.315 821.234L697.488 821.074L699.504 824.566ZM703.249 833.98L704.517 833.248L706.365 836.449L695.972 842.449L694.124 839.248L695.392 838.516L695.344 838.433C694.681 838.373 694.044 838.149 693.433 837.763C692.822 837.377 692.317 836.837 691.917 836.145C691.117 834.759 690.958 833.317 691.442 831.818C691.933 830.334 692.99 829.123 694.611 828.187C696.218 827.259 697.798 826.939 699.349 827.225C700.922 827.518 702.117 828.371 702.933 829.785C703.333 830.477 703.547 831.185 703.576 831.907C703.605 832.629 703.48 833.293 703.201 833.897L703.249 833.98ZM695.455 835.265C695.863 835.972 696.431 836.411 697.158 836.583C697.907 836.76 698.628 836.648 699.321 836.248C700.027 835.84 700.484 835.272 700.691 834.543C700.898 833.813 700.802 833.102 700.402 832.409C700.002 831.717 699.434 831.278 698.699 831.092C697.978 830.899 697.257 831.01 696.537 831.426C695.816 831.842 695.352 832.415 695.145 833.144C694.952 833.866 695.055 834.573 695.455 835.265ZM713.297 848.456L708.019 848.482C708.272 849.112 708.302 849.741 708.111 850.369C707.933 850.989 707.518 851.487 706.867 851.863L702.772 854.227L700.912 851.005L703.988 849.229C704.432 848.973 704.514 848.603 704.234 848.118L702.542 845.187L698.8 847.347L696.94 844.126L707.333 838.126L709.193 841.347L705.244 843.627L706.108 845.124L711.281 844.964L713.297 848.456ZM712.578 864.636L721.359 862.42L723.255 865.704L708.882 868.793C707.997 868.989 707.169 868.914 706.395 868.566C705.608 868.226 704.99 867.668 704.542 866.892L702.694 863.691L705.812 861.891L707.6 864.988L707.66 865.092L716.391 853.815L718.431 857.349L712.578 864.636ZM727.466 884.326L735.905 879.454L737.885 882.884L723.959 890.924L721.979 887.494L727.167 875.936L718.271 881.072L716.291 877.642L730.217 869.602L732.413 873.406L727.466 884.326ZM733.18 906.895L730.936 903.008L732.949 900.543L729.829 895.139L726.7 895.671L724.54 891.93L741.67 889.439L743.89 893.285L733.18 906.895ZM738.527 893.693L733.375 894.561L735.223 897.762L738.527 893.693ZM749.649 903.259L753.861 910.554L750.535 912.474L746.455 905.408C746.303 905.144 746.125 904.979 745.92 904.913C745.723 904.86 745.528 904.89 745.334 905.002C744.946 905.226 744.82 905.585 744.958 906.078L746.667 911.631C747.026 912.828 747.005 913.912 746.604 914.882C746.204 915.853 745.546 916.602 744.632 917.13C743.496 917.786 742.299 917.969 741.041 917.679C739.784 917.388 738.767 916.571 737.991 915.227L733.599 907.62L736.924 905.7L741.244 913.183C741.388 913.432 741.581 913.589 741.821 913.653C742.075 913.71 742.299 913.682 742.493 913.57C742.895 913.338 743.009 912.958 742.834 912.431L741.133 906.845C740.774 905.648 740.795 904.565 741.196 903.594C741.596 902.624 742.247 901.879 743.148 901.359C744.256 900.719 745.421 900.545 746.643 900.837C747.879 901.122 748.881 901.929 749.649 903.259ZM749.082 934.439L746.838 930.552L748.852 928.087L745.732 922.683L742.602 923.215L740.442 919.474L757.572 916.983L759.792 920.828L749.082 934.439ZM754.43 921.236L749.278 922.105L751.126 925.305L754.43 921.236Z" fill="white"/>
<path d="M66.7277 188.192L76.9838 183.233C81.2792 181.138 85.1221 180.772 88.5126 182.134C91.8846 183.457 94.3783 185.813 95.9938 189.203C97.6275 192.631 97.9039 196.186 96.8229 199.868C95.7621 203.493 93.1325 206.306 88.9343 208.307L69.118 217.751L50.6691 179.043L80.3647 164.89L84.7704 174.133L64.6074 183.743L66.7277 188.192ZM74.2724 204.022L83.4584 199.644C84.8835 198.965 85.8261 198.066 86.2861 196.949C86.7278 195.793 86.7008 194.695 86.2052 193.655C85.7096 192.616 84.8829 191.922 83.7253 191.576C82.5879 191.173 81.2873 191.32 79.8237 192.018L70.6377 196.396L74.2724 204.022ZM107.839 151.795C111.691 149.959 115.55 149.727 119.418 151.098C123.267 152.43 126.118 155.041 127.972 158.931C129.881 162.937 130.122 166.863 128.694 170.71C127.305 174.539 124.704 177.362 120.891 179.18L110.434 184.164L115.831 195.487L106.298 200.031L87.8495 161.322L107.839 151.795ZM106.139 175.151L115.729 170.58C117.077 169.938 118.011 168.972 118.532 167.684C119.052 166.397 118.973 165.04 118.294 163.615C117.67 162.305 116.683 161.476 115.335 161.126C114.007 160.719 112.688 160.828 111.378 161.452L101.788 166.023L106.139 175.151ZM151.526 156.851L149.16 132.101L158.923 127.448L161.987 162.287C162.283 165.785 161.999 168.709 161.134 171.059C160.289 173.353 158.403 175.197 155.476 176.592L144.441 181.851L140.091 172.723L149.854 168.07L120.793 145.621L131.423 140.555L151.526 156.851Z" fill="white"/>
<path d="M187.926 371.967L201.229 362.962L207.149 371.707L171.639 395.744L165.72 386.999L179.499 377.671L169.454 362.832L155.674 372.16L149.755 363.415L185.264 339.377L191.183 348.122L177.881 357.127L187.926 371.967ZM206.388 393.303L211.805 401.305C214.197 404.839 215.04 408.596 214.335 412.577C213.665 416.534 211.492 419.757 207.818 422.244C204.249 424.66 200.45 425.48 196.421 424.703C192.428 423.903 189.235 421.737 186.843 418.203L175.506 401.456L211.015 377.418L216.935 386.163L206.388 393.303ZM197.283 433.626L232.792 409.589L238.712 418.333L203.203 442.371L197.283 433.626ZM189.905 404.46L194.785 411.668C195.718 413.046 196.853 413.849 198.192 414.076C199.531 414.303 200.748 414.046 201.843 413.305C202.939 412.563 203.63 411.529 203.916 410.201C204.203 408.874 203.879 407.521 202.947 406.143L198.067 398.935L189.905 404.46ZM259.655 443.562L252.623 433.175C251.882 432.079 251.625 430.939 251.853 429.754C252.082 428.569 252.743 427.606 253.839 426.865L257.231 424.568L261.392 430.716L260.067 431.613C259.714 431.852 259.657 432.149 259.896 432.502L262.982 437.06C263.221 437.413 263.517 437.47 263.87 437.231L265.195 436.334L269.357 442.482L265.965 444.778C264.87 445.52 263.73 445.776 262.545 445.548C261.36 445.32 260.396 444.658 259.655 443.562ZM226.349 447.792L258.727 447.9L264.647 456.645L229.138 480.683L223.218 471.938L245.371 456.941L212.993 456.833L207.073 448.088L242.583 424.051L248.502 432.796L226.349 447.792Z" fill="white"/>
<path d="M333.134 149.014L370.911 155.535L369.169 165.626L355.484 163.264L349.931 195.428L339.525 193.631L345.077 161.467L331.392 159.104L333.134 149.014ZM403.137 204.613L391.344 202.577L389.73 194.245L373.332 191.414L369.081 198.734L357.729 196.774L381.863 157.426L393.53 159.44L403.137 204.613ZM385.213 171.124L378.199 183.162L387.911 184.839L385.213 171.124ZM452.2 169.569L444.905 211.824L434.499 210.028L440.063 177.8L426.945 175.536C424.904 186.354 423.509 192.933 422.759 195.271C422.016 197.567 421.121 199.491 420.074 201.042C419.034 202.551 418.045 203.637 417.109 204.297C416.172 204.958 415.057 205.394 413.766 205.604C412.474 205.814 411.484 205.903 410.797 205.871C410.159 205.804 409.293 205.676 408.2 205.487L404.858 204.91L406.654 194.504L408.672 194.853C409.177 194.94 409.605 194.97 409.955 194.944C410.348 194.925 410.905 194.588 411.624 193.933C412.343 193.278 412.931 192.254 413.388 190.861C413.845 189.467 414.428 186.97 415.136 183.369C415.894 179.733 416.643 175.77 417.383 171.482C418.173 167.158 418.637 164.597 418.775 163.799L452.2 169.569ZM467.253 185.092L478.668 187.063C482.872 187.789 486.165 189.786 488.545 193.054C490.932 196.281 491.748 200.08 490.993 204.453C490.26 208.7 488.217 212.006 484.865 214.371C481.519 216.694 477.744 217.493 473.54 216.767L451.719 213L459.013 170.745L469.419 172.542L467.253 185.092ZM463.867 204.706L474.336 206.513C475.976 206.796 477.341 206.534 478.433 205.727C479.525 204.92 480.184 203.864 480.409 202.561C480.634 201.257 480.367 200.042 479.609 198.916C478.851 197.789 477.652 197.084 476.013 196.801L465.543 194.994L463.867 204.706Z" fill="white"/>
<path d="M307.747 1019.65L310.25 1017.12C311.297 1016.05 312.39 1015.55 313.531 1015.59C314.662 1015.63 315.643 1016.06 316.473 1016.89C317.312 1017.73 317.764 1018.75 317.83 1019.95C317.896 1021.13 317.415 1022.23 316.388 1023.26L311.537 1028.11L302.062 1018.63L309.331 1011.36L311.594 1013.63L306.658 1018.56L307.747 1019.65ZM311.622 1023.53L313.87 1021.28C314.219 1020.93 314.403 1020.57 314.422 1020.19C314.431 1019.8 314.309 1019.48 314.054 1019.23C313.8 1018.97 313.484 1018.85 313.107 1018.87C312.73 1018.87 312.362 1019.05 312.004 1019.41L309.755 1021.66L311.622 1023.53ZM320.033 1010.99L316.752 1003.94L319.142 1001.55L323.681 1011.49C324.134 1012.49 324.356 1013.38 324.346 1014.17C324.337 1014.93 323.974 1015.67 323.257 1016.39L320.556 1019.09L318.322 1016.85L320.712 1014.46L309.808 1010.89L312.41 1008.28L320.033 1010.99ZM328.351 992.343L329.709 998.085C331.067 996.784 332.457 996.845 333.881 998.269L337.629 1002.02L335.295 1004.35L332.085 1001.14C331.736 1000.79 331.382 1000.8 331.024 1001.15L327.842 1004.34L331.576 1008.07L329.242 1010.4L319.767 1000.93L322.1 998.594L325.65 1002.14L327.192 1000.6L325.792 994.903L328.351 992.343ZM340.55 989.111L340.606 989.168C341.219 988.875 341.86 988.772 342.529 988.856C343.199 988.941 343.812 989.262 344.368 989.818C345.16 990.61 345.532 991.548 345.485 992.632C345.438 993.698 345.009 994.636 344.198 995.447L338.937 1000.71L329.462 991.232L334.553 986.141C335.355 985.34 336.255 984.901 337.254 984.826C338.254 984.751 339.126 985.085 339.871 985.83C340.304 986.264 340.583 986.778 340.705 987.372C340.818 987.956 340.766 988.536 340.55 989.111ZM336.165 988.687L333.874 990.978L335.557 992.661L337.848 990.37C338.112 990.106 338.24 989.809 338.23 989.479C338.221 989.13 338.108 988.847 337.891 988.63C337.674 988.413 337.401 988.3 337.071 988.291C336.741 988.281 336.439 988.413 336.165 988.687ZM339.206 996.309L341.695 993.82C341.968 993.547 342.1 993.226 342.091 992.859C342.082 992.491 341.959 992.189 341.723 991.954C341.506 991.737 341.228 991.638 340.889 991.657C340.54 991.666 340.229 991.807 339.956 992.081L337.467 994.57L339.206 996.309ZM357.391 982.254L354.747 984.898L352.328 983.809L348.651 987.486L349.754 989.891L347.209 992.436L341.51 979.185L344.126 976.569L357.391 982.254ZM345.611 980.797L347.421 984.757L349.599 982.579L345.611 980.797ZM357.282 963.412L366.757 972.888L364.424 975.221L357.197 967.994L354.256 970.936C356.65 973.406 358.079 974.948 358.541 975.561C358.993 976.164 359.323 976.739 359.531 977.286C359.729 977.823 359.828 978.271 359.828 978.629C359.828 978.988 359.738 979.351 359.559 979.718C359.38 980.086 359.224 980.355 359.092 980.524C358.96 980.675 358.772 980.873 358.526 981.118L357.777 981.868L355.444 979.534L355.896 979.082C356.009 978.969 356.094 978.865 356.151 978.771C356.217 978.667 356.231 978.464 356.193 978.163C356.155 977.861 356 977.526 355.726 977.159C355.453 976.791 354.92 976.192 354.128 975.363C353.336 974.514 352.46 973.609 351.498 972.647C350.536 971.667 349.966 971.087 349.787 970.908L357.282 963.412ZM363.958 962.365L366.517 959.806C367.46 958.863 368.563 958.382 369.827 958.363C371.08 958.335 372.198 958.811 373.178 959.792C374.13 960.744 374.607 961.861 374.607 963.143C374.597 964.416 374.121 965.524 373.178 966.467L368.285 971.36L358.81 961.885L361.143 959.551L363.958 962.365ZM368.356 966.764L370.703 964.416C371.071 964.048 371.25 963.652 371.241 963.228C371.231 962.804 371.08 962.446 370.788 962.153C370.496 961.861 370.138 961.71 369.713 961.701C369.289 961.691 368.893 961.871 368.525 962.238L366.178 964.586L368.356 966.764ZM377.657 950.137L374.108 946.587L376.441 944.253L385.916 953.729L383.583 956.062L379.906 952.385L375.946 956.345L379.623 960.022L377.29 962.355L367.814 952.88L370.148 950.547L373.697 954.096L377.657 950.137ZM394.317 942.924C394.336 944.791 393.596 946.474 392.097 947.973C390.597 949.472 388.915 950.212 387.048 950.193C385.172 950.165 383.541 949.458 382.155 948.072C380.759 946.676 380.043 945.036 380.005 943.15C379.967 941.265 380.698 939.572 382.197 938.073C383.696 936.574 385.388 935.843 387.274 935.881C389.16 935.919 390.8 936.635 392.195 938.031C393.581 939.417 394.289 941.048 394.317 942.924ZM389.805 945.682C390.607 944.88 390.989 943.98 390.951 942.98C390.913 941.981 390.527 941.114 389.791 940.378C389.047 939.634 388.179 939.247 387.189 939.219C386.199 939.172 385.299 939.553 384.488 940.364C383.677 941.175 383.291 942.08 383.328 943.079C383.366 944.06 383.757 944.923 384.502 945.667C385.238 946.403 386.1 946.794 387.09 946.841C388.09 946.879 388.995 946.492 389.805 945.682ZM400.332 920.363L409.807 929.838L407.474 932.171L400.247 924.945L396.358 928.834L403.585 936.06L401.251 938.394L391.776 928.919L400.332 920.363ZM406.751 913.944C407.694 913.001 408.806 912.529 410.088 912.529C411.361 912.52 412.474 912.991 413.426 913.944C414.406 914.924 414.887 916.055 414.868 917.338C414.859 918.61 414.388 919.714 413.454 920.647L410.894 923.207L413.666 925.979L411.333 928.312L401.858 918.837L406.751 913.944ZM408.688 921.001L411.036 918.653C411.366 918.323 411.54 917.941 411.559 917.507C411.578 917.074 411.413 916.682 411.064 916.334C410.744 916.013 410.367 915.872 409.933 915.909C409.499 915.928 409.122 916.098 408.801 916.418L406.454 918.766L408.688 921.001ZM427.628 909.613C427.647 911.479 426.907 913.162 425.408 914.661C423.909 916.16 422.226 916.9 420.359 916.882C418.483 916.853 416.852 916.146 415.466 914.76C414.071 913.365 413.354 911.724 413.316 909.839C413.279 907.953 414.009 906.261 415.508 904.762C417.007 903.263 418.7 902.532 420.585 902.57C422.471 902.607 424.111 903.324 425.507 904.719C426.893 906.105 427.6 907.736 427.628 909.613ZM423.117 912.37C423.918 911.569 424.3 910.669 424.262 909.669C424.225 908.67 423.838 907.802 423.103 907.067C422.358 906.322 421.49 905.936 420.501 905.907C419.511 905.86 418.61 906.242 417.799 907.053C416.989 907.864 416.602 908.769 416.64 909.768C416.677 910.749 417.069 911.611 417.814 912.356C418.549 913.092 419.412 913.483 420.402 913.53C421.401 913.568 422.306 913.181 423.117 912.37ZM434.287 897.466L436.677 895.076C437.761 896.406 438.256 897.9 438.162 899.559C438.068 901.219 437.347 902.723 435.998 904.071C434.528 905.542 432.868 906.258 431.02 906.22C429.172 906.183 427.551 905.466 426.155 904.071C424.751 902.666 424.025 901.035 423.978 899.178C423.921 897.311 424.628 895.642 426.099 894.171C427.409 892.861 428.89 892.154 430.539 892.05C432.18 891.937 433.655 892.394 434.966 893.422L432.548 895.84C431.869 895.444 431.157 895.298 430.412 895.402C429.658 895.496 428.974 895.859 428.362 896.491C427.588 897.283 427.23 898.159 427.287 899.121C427.353 900.073 427.758 900.922 428.503 901.667C429.248 902.411 430.106 902.817 431.077 902.883C432.039 902.939 432.915 902.572 433.707 901.78C434.339 901.148 434.707 900.45 434.81 899.687C434.905 898.914 434.73 898.174 434.287 897.466ZM440.168 892.349L438.287 882.407L440.621 880.073L450.096 889.549L447.763 891.882L441.851 885.971L443.732 895.913L441.399 898.246L431.924 888.771L434.257 886.437L440.168 892.349ZM441.496 879.198L449.967 870.727L452.23 872.99L449.161 876.059L456.374 883.271L454.04 885.605L446.828 878.392L443.759 881.461L441.496 879.198ZM327.786 1033.61L323.699 1029.52L326.033 1027.19L335.508 1036.66L333.174 1039L330.049 1035.87L326.612 1039.31C325.886 1040.03 325.142 1040.4 324.378 1040.41C323.614 1040.4 322.869 1040.03 322.144 1039.31L318.028 1035.19L320.362 1032.86L323.869 1036.37C324.255 1036.75 324.647 1036.75 325.043 1036.35L327.786 1033.61ZM326.917 1026.3L335.388 1017.83L337.651 1020.1L334.582 1023.16L341.795 1030.38L339.461 1032.71L332.249 1025.5L329.18 1028.57L326.917 1026.3ZM352.396 1017.37C352.415 1019.24 351.675 1020.92 350.176 1022.42C348.677 1023.92 346.994 1024.66 345.127 1024.64C343.251 1024.61 341.62 1023.91 340.234 1022.52C338.838 1021.12 338.122 1019.48 338.084 1017.6C338.046 1015.71 338.777 1014.02 340.276 1012.52C341.775 1011.02 343.467 1010.29 345.353 1010.33C347.239 1010.37 348.879 1011.08 350.275 1012.48C351.66 1013.86 352.368 1015.5 352.396 1017.37ZM347.885 1020.13C348.686 1019.33 349.068 1018.43 349.03 1017.43C348.992 1016.43 348.606 1015.56 347.87 1014.83C347.126 1014.08 346.258 1013.69 345.268 1013.67C344.278 1013.62 343.378 1014 342.567 1014.81C341.756 1015.62 341.37 1016.53 341.407 1017.53C341.445 1018.51 341.836 1019.37 342.581 1020.12C343.317 1020.85 344.179 1021.24 345.169 1021.29C346.169 1021.33 347.074 1020.94 347.885 1020.13ZM353.087 1013.43L351.107 1011.45L356.198 1006.36L358.178 1008.34L353.087 1013.43ZM351.127 1002.09L359.599 993.623L361.861 995.886L358.792 998.954L366.005 1006.17L363.671 1008.5L356.459 1001.29L353.39 1004.36L351.127 1002.09ZM376.606 993.162C376.625 995.028 375.885 996.711 374.386 998.21C372.887 999.709 371.204 1000.45 369.337 1000.43C367.461 1000.4 365.83 999.695 364.444 998.309C363.048 996.914 362.332 995.274 362.294 993.388C362.256 991.502 362.987 989.81 364.486 988.311C365.985 986.812 367.678 986.081 369.563 986.119C371.449 986.157 373.089 986.873 374.485 988.268C375.871 989.654 376.578 991.285 376.606 993.162ZM372.095 995.919C372.896 995.118 373.278 994.218 373.24 993.218C373.202 992.219 372.816 991.351 372.081 990.616C371.336 989.871 370.468 989.485 369.478 989.456C368.488 989.409 367.588 989.791 366.777 990.602C365.966 991.413 365.58 992.318 365.618 993.317C365.655 994.298 366.047 995.16 366.791 995.905C367.527 996.641 368.389 997.032 369.379 997.079C370.379 997.117 371.284 996.73 372.095 995.919ZM382.31 982.734L380.429 972.792L382.762 970.459L392.238 979.934L389.904 982.268L383.993 976.356L385.874 986.298L383.54 988.632L374.065 979.156L376.399 976.823L382.31 982.734ZM395.189 958.033L404.664 967.508L402.33 969.841L396.306 963.817L399.884 972.288L398.54 973.632L390.069 970.054L396.094 976.078L393.76 978.412L384.285 968.936L387.524 965.698L395.372 969.106L391.978 961.243L395.189 958.033ZM409.817 950.504L406.267 946.954L408.601 944.621L418.076 954.096L415.742 956.429L412.065 952.752L408.106 956.712L411.783 960.389L409.449 962.723L399.974 953.247L402.307 950.914L405.857 954.464L409.817 950.504ZM428.87 943.302L426.225 945.947L423.807 944.858L420.13 948.535L421.233 950.939L418.687 953.484L412.988 940.233L415.604 937.617L428.87 943.302ZM417.089 941.845L418.899 945.805L421.077 943.627L417.089 941.845ZM428.569 924.652L438.044 934.127L435.711 936.461L428.484 929.234L424.595 933.123L431.822 940.35L429.488 942.683L420.013 933.208L428.569 924.652ZM438.34 926.704L436.459 916.762L438.792 914.429L448.268 923.904L445.934 926.238L440.023 920.326L441.904 930.268L439.57 932.602L430.095 923.126L432.428 920.793L438.34 926.704ZM452.636 911.644L455.026 909.254C456.11 910.584 456.605 912.078 456.511 913.738C456.417 915.397 455.695 916.901 454.347 918.249C452.876 919.72 451.217 920.436 449.369 920.398C447.521 920.361 445.9 919.644 444.504 918.249C443.099 916.844 442.374 915.213 442.326 913.356C442.27 911.489 442.977 909.82 444.448 908.349C445.758 907.039 447.238 906.332 448.888 906.228C450.529 906.115 452.004 906.572 453.315 907.6L450.897 910.018C450.218 909.622 449.506 909.476 448.761 909.58C448.007 909.674 447.323 910.037 446.71 910.669C445.937 911.461 445.579 912.337 445.636 913.299C445.702 914.251 446.107 915.1 446.852 915.845C447.597 916.59 448.455 916.995 449.426 917.061C450.387 917.117 451.264 916.75 452.056 915.958C452.688 915.326 453.056 914.628 453.159 913.865C453.254 913.092 453.079 912.352 452.636 911.644ZM468.644 903.527L466 906.172L463.582 905.083L459.905 908.76L461.008 911.164L458.462 913.71L452.763 900.459L455.379 897.842L468.644 903.527ZM456.864 902.071L458.674 906.031L460.852 903.853L456.864 902.071ZM457.856 895.365L466.327 886.894L468.59 889.157L465.521 892.225L472.734 899.438L470.4 901.771L463.188 894.559L460.119 897.628L457.856 895.365ZM472.352 886.498L474.912 883.938C475.855 882.995 476.958 882.515 478.221 882.496C479.475 882.467 480.592 882.944 481.573 883.924C482.525 884.876 483.001 885.993 483.001 887.276C482.992 888.549 482.515 889.656 481.573 890.599L476.68 895.492L467.204 886.017L469.538 883.684L472.352 886.498ZM476.75 890.896L479.098 888.549C479.466 888.181 479.645 887.785 479.635 887.361C479.626 886.936 479.475 886.578 479.183 886.286C478.89 885.993 478.532 885.843 478.108 885.833C477.684 885.824 477.288 886.003 476.92 886.371L474.572 888.718L476.75 890.896Z" fill="white"/>
<path d="M793.095 327.647L798.273 331.992C795.813 334.384 792.922 335.631 789.599 335.732C786.277 335.833 783.155 334.658 780.234 332.206C777.047 329.532 775.331 326.351 775.084 322.662C774.838 318.974 775.983 315.618 778.52 312.595C781.074 309.552 784.198 307.821 787.89 307.404C791.599 306.966 795.047 308.084 798.234 310.759C801.073 313.141 802.74 315.967 803.234 319.237C803.745 322.486 803.091 325.505 801.271 328.295L796.032 323.898C796.703 322.476 796.87 321.033 796.534 319.567C796.214 318.08 795.372 316.782 794.007 315.671C792.294 314.268 790.485 313.707 788.579 313.987C786.693 314.285 785.073 315.24 783.719 316.854C782.365 318.467 781.706 320.247 781.744 322.194C781.799 324.12 782.684 325.803 784.4 327.243C785.768 328.391 787.222 329.002 788.762 329.076C790.319 329.129 791.763 328.653 793.095 327.647ZM809.254 339.851L822.715 332.088L827.893 336.434L808.875 347.209C806.963 348.285 805.226 348.882 803.665 348.999C802.142 349.113 800.604 348.519 799.052 347.216L793.2 342.305L797.263 337.464L802.441 341.809L807.671 319.462L813.309 324.193L809.254 339.851ZM839.849 346.467C841.891 348.182 843.024 350.316 843.247 352.871C843.488 355.405 842.742 357.704 841.011 359.767C839.228 361.891 837.058 363.046 834.5 363.232C831.962 363.435 829.682 362.688 827.66 360.99L822.114 356.336L817.074 362.341L812.019 358.099L829.247 337.57L839.849 346.467ZM826.126 351.556L831.212 355.825C831.927 356.425 832.718 356.706 833.585 356.668C834.453 356.63 835.204 356.233 835.838 355.477C836.421 354.783 836.637 354.007 836.486 353.149C836.373 352.289 835.969 351.567 835.275 350.984L830.189 346.715L826.126 351.556ZM852.113 387.309C848.397 387.672 844.915 386.49 841.667 383.765C838.42 381.039 836.652 377.815 836.364 374.092C836.094 370.349 837.219 366.976 839.739 363.974C842.276 360.95 845.42 359.237 849.17 358.834C852.921 358.43 856.42 359.591 859.667 362.317C862.915 365.043 864.666 368.287 864.919 372.051C865.172 375.814 864.03 379.208 861.493 382.231C858.973 385.233 855.846 386.926 852.113 387.309ZM845.833 378.801C847.569 380.258 849.43 380.862 851.414 380.613C853.399 380.364 855.06 379.443 856.397 377.849C857.751 376.236 858.37 374.44 858.254 372.463C858.176 370.482 857.258 368.755 855.502 367.281C853.745 365.806 851.874 365.194 849.89 365.443C847.943 365.689 846.292 366.619 844.938 368.232C843.601 369.826 842.971 371.612 843.05 373.593C843.149 375.591 844.076 377.327 845.833 378.801ZM878.072 395.101L877.969 395.223C878.658 396.393 878.977 397.653 878.924 399.001C878.872 400.35 878.34 401.626 877.328 402.832C875.888 404.547 874.084 405.453 871.916 405.548C869.785 405.639 867.841 404.948 866.084 403.474L854.686 393.908L871.915 373.379L882.945 382.637C884.682 384.094 885.712 385.811 886.036 387.789C886.36 389.767 885.845 391.563 884.491 393.177C883.703 394.117 882.727 394.76 881.565 395.108C880.42 395.435 879.256 395.433 878.072 395.101ZM878.154 386.292L873.191 382.126L870.131 385.772L875.094 389.938C875.666 390.418 876.28 390.62 876.936 390.544C877.629 390.464 878.173 390.19 878.567 389.72C878.962 389.25 879.139 388.685 879.101 388.026C879.062 387.367 878.747 386.789 878.154 386.292ZM863.496 393.677L868.889 398.203C869.481 398.7 870.143 398.907 870.874 398.825C871.605 398.742 872.185 398.445 872.613 397.934C873.007 397.465 873.156 396.893 873.06 396.22C872.98 395.527 872.644 394.932 872.052 394.434L866.659 389.909L863.496 393.677ZM891.631 400.318L896.258 404.201C898.301 405.916 899.451 408.03 899.708 410.543C899.983 413.037 899.229 415.346 897.446 417.47C895.715 419.533 893.571 420.676 891.017 420.9C888.479 421.102 886.189 420.347 884.147 418.632L874.464 410.507L891.693 389.978L896.749 394.221L891.631 400.318ZM893.063 426.115L910.291 405.587L915.347 409.83L898.118 430.358L893.063 426.115ZM883.634 409.847L887.801 413.344C888.598 414.013 889.418 414.301 890.262 414.208C891.105 414.116 891.793 413.753 892.324 413.119C892.856 412.486 893.094 411.746 893.039 410.899C892.984 410.052 892.558 409.294 891.761 408.626L887.594 405.129L883.634 409.847ZM932.255 421.409L926.25 416.369C925.616 415.838 925.267 415.196 925.201 414.445C925.136 413.693 925.368 413.001 925.9 412.368L927.546 410.407L931.1 413.39L930.457 414.156C930.285 414.36 930.302 414.548 930.506 414.719L933.141 416.931C933.345 417.102 933.533 417.086 933.705 416.882L934.348 416.116L937.902 419.098L936.256 421.059C935.725 421.693 935.083 422.042 934.332 422.108C933.58 422.173 932.888 421.94 932.255 421.409ZM912.959 429.654L932.44 424.175L937.495 428.418L920.267 448.947L915.211 444.704L925.96 431.896L906.479 437.375L901.424 433.132L918.652 412.604L923.708 416.847L912.959 429.654Z" fill="white"/>
<path d="M621.645 563.774C619.79 563.277 618.401 562.228 617.477 560.628C616.56 559.002 616.35 557.262 616.847 555.407C617.33 553.604 618.372 552.24 619.972 551.316C621.579 550.367 623.31 550.14 625.165 550.637C626.968 551.12 628.328 552.175 629.245 553.801C630.169 555.401 630.389 557.103 629.906 558.906C629.409 560.761 628.357 562.163 626.75 563.113C625.176 564.043 623.474 564.264 621.645 563.774ZM600.321 544.601L606.043 562.037L610.018 547.2L616.394 548.908L609.457 574.795L603.082 573.087L596.923 554.499L592.689 570.302L586.314 568.594L593.25 542.707L600.321 544.601ZM625.091 556.167C624.808 555.677 624.397 555.359 623.856 555.214C623.315 555.069 622.799 555.138 622.309 555.421C621.852 555.685 621.551 556.088 621.406 556.629C621.254 557.195 621.307 557.72 621.564 558.203C621.821 558.686 622.233 559.004 622.8 559.155C623.341 559.3 623.856 559.231 624.346 558.948C624.836 558.666 625.157 558.241 625.309 557.674C625.447 557.159 625.374 556.657 625.091 556.167ZM626.322 571.819L613.495 568.381L614.82 563.436L627.647 566.873L626.322 571.819ZM637.201 567.652C635.372 567.162 634.005 566.133 633.1 564.566C632.195 562.998 631.988 561.3 632.478 559.471C632.954 557.694 633.976 556.352 635.544 555.447C637.118 554.517 638.82 554.296 640.649 554.786C642.426 555.262 643.764 556.297 644.662 557.891C645.567 559.458 645.781 561.131 645.305 562.908C644.815 564.737 643.786 566.104 642.219 567.009C640.677 567.921 639.004 568.135 637.201 567.652ZM629.616 580.197L654.712 559.176L659.271 560.397L634.175 581.418L629.616 580.197ZM636.715 562.511C637.08 563.106 637.598 563.493 638.268 563.673C638.937 563.852 639.579 563.776 640.193 563.443C640.813 563.085 641.217 562.558 641.403 561.862C641.582 561.193 641.49 560.561 641.124 559.966C640.766 559.345 640.252 558.945 639.582 558.766C638.913 558.586 638.268 558.676 637.647 559.034C637.059 559.373 636.675 559.878 636.496 560.548C636.31 561.243 636.383 561.898 636.715 562.511ZM648.316 585.828C646.487 585.338 645.12 584.309 644.215 582.742C643.31 581.174 643.102 579.476 643.592 577.647C644.068 575.87 645.09 574.528 646.658 573.623C648.233 572.692 649.934 572.472 651.763 572.962C653.54 573.438 654.878 574.473 655.776 576.067C656.681 577.634 656.896 579.307 656.42 581.084C655.93 582.913 654.901 584.28 653.333 585.185C651.791 586.097 650.119 586.311 648.316 585.828ZM647.83 580.687C648.195 581.282 648.712 581.669 649.382 581.849C650.052 582.028 650.693 581.952 651.307 581.619C651.928 581.261 652.331 580.734 652.517 580.038C652.697 579.369 652.604 578.736 652.239 578.142C651.881 577.521 651.367 577.121 650.697 576.942C650.027 576.762 649.382 576.852 648.761 577.21C648.174 577.549 647.79 578.054 647.61 578.724C647.424 579.419 647.497 580.074 647.83 580.687ZM663.771 561.603L673.739 564.274C676.083 564.902 677.715 566.126 678.635 567.946C679.581 569.773 679.796 571.653 679.278 573.585C678.76 575.517 677.622 577.034 675.864 578.136C674.138 579.22 672.103 579.447 669.759 578.819L668.561 578.498L667.95 580.778L662.155 579.225L664.173 571.691L670.626 573.42C671.244 573.585 671.765 573.546 672.19 573.3C672.647 573.037 672.941 572.66 673.073 572.17C673.204 571.681 673.134 571.221 672.863 570.789C672.618 570.365 672.186 570.069 671.568 569.904L662.218 567.398L663.771 561.603ZM665.721 589.871L659.539 588.214L661.247 581.839L667.429 583.496L665.721 589.871ZM698.713 591.464L703.006 599.861L695.317 597.801L692.985 593.366L688.613 594.845C686.402 595.578 684.297 595.552 682.298 594.768C680.325 593.991 678.963 592.687 678.211 590.857C677.459 589.027 677.523 587.139 678.404 585.194C679.316 583.23 680.722 581.95 682.621 581.355L686.103 580.259L685.229 578.575C684.496 577.191 684.169 575.834 684.25 574.503C684.356 573.178 684.776 572.076 685.509 571.196C686.241 570.316 687.251 569.689 688.538 569.316C689.851 568.95 691.267 568.971 692.787 569.378L701.635 571.749L700.124 577.39L691.817 575.164C691.43 575.06 691.138 575.12 690.94 575.343C690.768 575.573 690.773 575.864 690.955 576.217L696.055 586.238L703.881 583.614L702.079 590.337L698.713 591.464ZM686.512 589.396L690.24 588.158L688.736 585.271L685.478 586.303C684.905 586.481 684.509 586.775 684.289 587.185C684.068 587.595 684.033 587.986 684.182 588.357C684.31 588.806 684.566 589.137 684.951 589.35C685.368 589.545 685.889 589.56 686.512 589.396ZM721.622 577.104L736.497 581.09C739.125 581.794 741.057 583.237 742.295 585.418C743.565 587.58 743.848 589.975 743.144 592.602L740.535 602.339C740.018 604.271 738.979 605.621 737.42 606.391C735.894 607.141 734.265 607.298 732.532 606.862C731.23 606.568 730.096 605.96 729.128 605.039C728.193 604.098 727.627 602.966 727.429 601.643C726.806 602.525 725.921 603.199 724.775 603.665C723.661 604.112 722.383 604.142 720.941 603.756C718.751 603.169 717.137 601.881 716.096 599.89C715.056 597.9 714.874 595.643 715.55 593.118C716.227 590.594 717.507 588.701 719.391 587.439C721.275 586.177 723.338 585.846 725.579 586.447C727.871 587.061 729.331 588.363 729.957 590.353L730.485 588.382L735.431 589.707L732.563 600.41C732.439 600.874 732.48 601.285 732.688 601.644C732.928 601.985 733.254 602.21 733.666 602.32C734.052 602.424 734.409 602.381 734.735 602.193C735.095 601.986 735.336 601.65 735.461 601.186L738.028 591.604C738.38 590.291 738.245 589.095 737.623 588.017C737.001 586.939 736.033 586.225 734.719 585.873L720.771 582.135C719.457 581.783 718.262 581.918 717.184 582.541C716.106 583.163 715.391 584.131 715.039 585.444L711.343 599.238C710.991 600.552 711.126 601.747 711.749 602.825C712.371 603.903 713.339 604.618 714.652 604.97L729.721 609.007L728.406 613.914L712.874 609.752C710.247 609.048 708.301 607.602 707.038 605.414C705.794 603.259 705.523 600.867 706.227 598.24L710.11 583.751C710.814 581.124 712.243 579.188 714.399 577.943C716.587 576.68 718.995 576.4 721.622 577.104ZM723.422 599.286C724.53 599.583 725.532 599.451 726.427 598.89C727.349 598.336 727.954 597.519 728.244 596.437C728.541 595.329 728.425 594.318 727.897 593.404C727.402 592.47 726.601 591.855 725.493 591.558C724.411 591.269 723.413 591.388 722.498 591.916C721.584 592.444 720.975 593.274 720.671 594.408C720.368 595.541 720.48 596.565 721.008 597.479C721.536 598.394 722.341 598.996 723.422 599.286ZM759.885 587.357L762.792 599.689L756.726 598.064L755.554 591.621L751.278 596.604L745.212 594.979L753.896 585.752L759.885 587.357ZM783.233 605.456L781.763 610.943L762.385 612.79L763.989 606.801L775.216 606.166L775.258 606.011L765.977 599.383L767.582 593.394L783.233 605.456Z" fill="white"/>
<path d="M441.064 251.455L555.13 382.92L584.474 471.656L504.088 493.195L417.696 507.389L354.165 429.596L369.116 341.43L441.064 251.455Z" fill="#2858FF"/>
<path d="M391.391 381.221L399.061 374.622L402.248 375.476L398.78 388.419L395.593 387.565L397.756 379.49L390.087 386.09L386.899 385.236L390.367 372.292L393.555 373.146L391.391 381.221ZM416.161 385.767L416.141 385.844C416.7 386.229 417.11 386.732 417.372 387.355C417.633 387.977 417.662 388.668 417.458 389.428C417.168 390.509 416.542 391.301 415.579 391.802C414.633 392.294 413.606 392.392 412.499 392.095L405.312 390.169L408.78 377.226L415.735 379.089C416.83 379.383 417.66 379.943 418.225 380.771C418.79 381.599 418.936 382.521 418.663 383.539C418.505 384.131 418.199 384.629 417.746 385.032C417.296 385.422 416.768 385.667 416.161 385.767ZM414.337 381.758L411.207 380.92L410.591 383.219L413.721 384.057C414.081 384.154 414.402 384.116 414.683 383.942C414.981 383.76 415.169 383.52 415.248 383.224C415.328 382.928 415.289 382.635 415.132 382.344C414.975 382.054 414.71 381.858 414.337 381.758ZM409.256 388.203L412.656 389.114C413.029 389.214 413.373 389.168 413.686 388.976C414 388.784 414.2 388.527 414.286 388.205C414.366 387.909 414.312 387.618 414.126 387.334C413.944 387.037 413.666 386.838 413.292 386.738L409.892 385.827L409.256 388.203ZM422.291 380.846L433.863 383.947L433.034 387.038L428.842 385.914L426.202 395.767L423.015 394.913L425.655 385.06L421.463 383.937L422.291 380.846ZM442.766 398.445C441.159 399.395 439.331 399.595 437.283 399.046C435.236 398.498 433.753 397.41 432.836 395.784C431.922 394.145 431.719 392.379 432.227 390.486C432.737 388.58 433.8 387.139 435.414 386.164C437.028 385.188 438.859 384.975 440.907 385.524C442.955 386.072 444.433 387.172 445.344 388.824C446.254 390.476 446.453 392.255 445.943 394.161C445.435 396.054 444.376 397.482 442.766 398.445ZM438.122 395.917C439.217 396.21 440.187 396.091 441.034 395.558C441.881 395.026 442.438 394.258 442.708 393.253C442.98 392.236 442.881 391.291 442.411 390.42C441.957 389.539 441.176 388.95 440.068 388.653C438.961 388.356 437.983 388.474 437.137 389.006C436.307 389.529 435.755 390.3 435.482 391.317C435.213 392.322 435.306 393.264 435.76 394.145C436.227 395.03 437.014 395.62 438.122 395.917ZM470.856 393.859L466.706 398.068C468.294 398.632 468.841 399.834 468.348 401.676L467.002 406.699L463.814 405.845L464.963 401.556C465.091 401.08 464.91 400.776 464.421 400.645L461.427 399.842L460.086 404.846L456.898 403.992L458.239 398.988L455.245 398.186C454.755 398.055 454.447 398.227 454.319 398.704L453.17 402.993L449.982 402.139L451.328 397.116C451.822 395.274 452.897 394.506 454.554 394.812L453.064 389.092L456.503 390.013L457.94 395.699L459.041 395.994L460.366 391.048L463.554 391.902L462.229 396.848L463.33 397.143L467.418 392.938L470.856 393.859ZM478.993 409.912L468.909 407.21L472.377 394.266L482.461 396.969L481.633 400.06L474.736 398.212L474.239 400.066L480.17 401.655L479.394 404.553L473.463 402.964L472.924 404.973L479.821 406.821L478.993 409.912ZM495.963 407.15L495.943 407.227C496.502 407.612 496.913 408.115 497.174 408.737C497.435 409.36 497.464 410.051 497.26 410.81C496.97 411.892 496.344 412.684 495.382 413.185C494.435 413.677 493.408 413.775 492.301 413.478L485.114 411.552L488.583 398.609L495.537 400.472C496.632 400.766 497.462 401.326 498.027 402.154C498.592 402.982 498.738 403.904 498.465 404.922C498.307 405.514 498.001 406.012 497.548 406.415C497.098 406.805 496.57 407.05 495.963 407.15ZM494.139 403.141L491.009 402.303L490.393 404.602L493.523 405.44C493.883 405.537 494.204 405.499 494.485 405.325C494.783 405.143 494.971 404.903 495.05 404.607C495.13 404.311 495.091 404.018 494.934 403.727C494.777 403.437 494.512 403.241 494.139 403.141ZM489.058 409.586L492.458 410.497C492.831 410.597 493.175 410.551 493.489 410.359C493.802 410.167 494.002 409.91 494.089 409.588C494.168 409.292 494.115 409.001 493.929 408.717C493.746 408.419 493.468 408.221 493.094 408.121L489.694 407.21L489.058 409.586ZM507.737 403.741C509.025 404.086 509.989 404.814 510.631 405.924C511.275 407.022 511.423 408.221 511.075 409.522C510.716 410.861 509.976 411.844 508.856 412.468C507.749 413.097 506.558 413.24 505.283 412.898L501.787 411.961L500.772 415.748L497.585 414.894L501.053 401.95L507.737 403.741ZM502.594 408.948L505.801 409.807C506.252 409.928 506.67 409.888 507.055 409.687C507.44 409.487 507.696 409.148 507.824 408.672C507.941 408.234 507.875 407.836 507.626 407.48C507.392 407.114 507.057 406.872 506.619 406.755L503.412 405.895L502.594 408.948ZM520.158 420.942L510.074 418.24L513.542 405.297L523.626 407.999L522.798 411.09L515.901 409.242L515.404 411.096L521.335 412.685L520.559 415.583L514.628 413.994L514.09 416.003L520.986 417.851L520.158 420.942ZM540.19 412.437L536.722 425.38L533.534 424.526L535.739 416.297L530.192 423.631L528.357 423.139L527.22 414.014L525.015 422.243L521.827 421.389L525.295 408.446L529.719 409.631L530.692 418.133L535.805 411.262L540.19 412.437ZM554.31 416.22L550.842 429.164L547.654 428.31L548.772 424.137L544.232 422.92C543.743 422.789 543.434 422.962 543.307 423.438L542.38 426.897L539.193 426.042L540.269 422.024C540.642 420.633 541.418 419.951 542.598 419.977L542.619 419.9C541.931 419.067 541.751 418.039 542.079 416.815C542.39 415.656 543.04 414.878 544.03 414.48C545.036 414.074 546.235 414.057 547.626 414.429L554.31 416.22ZM546.302 420.452L549.528 421.316L550.294 418.457L547.049 417.588C546.559 417.456 546.127 417.472 545.752 417.634C545.378 417.796 545.132 418.095 545.014 418.533C544.89 418.997 544.942 419.397 545.169 419.734C545.409 420.075 545.787 420.314 546.302 420.452ZM396.709 396.767L393.241 409.711L392.159 409.421L395.342 397.54L388.001 395.573C387.95 395.766 387.87 396.062 387.763 396.462C386.516 401.014 385.619 403.845 385.073 404.955C385.027 405.025 384.987 405.097 384.953 405.171C384.74 405.556 384.497 405.87 384.224 406.115C383.968 406.35 383.724 406.512 383.493 406.602C383.278 406.682 383.019 406.723 382.715 406.725C382.424 406.73 382.199 406.718 382.041 406.689C381.883 406.661 381.688 406.615 381.456 406.553L381.051 406.445L381.346 405.343L381.655 405.426C382.003 405.519 382.277 405.579 382.477 405.605C382.693 405.622 382.945 405.558 383.232 405.414C383.519 405.27 383.761 405.01 383.958 404.635C384.172 404.251 384.392 403.737 384.62 403.094C384.863 402.442 385.095 401.758 385.314 401.044C385.536 400.317 385.758 399.541 385.979 398.717C386.216 397.883 386.426 397.097 386.61 396.36C386.81 395.613 387.008 394.9 387.204 394.221L396.709 396.767ZM404.469 395.554L405.512 395.834L404.947 397.94L403.904 397.66L404.469 395.554ZM407.54 396.377L408.583 396.657L408.019 398.763L406.976 398.483L407.54 396.377ZM406.823 413.35L397.511 410.855L400.98 397.912L410.291 400.407L410.012 401.45L401.782 399.245L400.524 403.939L408.174 405.989L407.895 407.032L400.244 404.982L398.873 410.102L407.102 412.307L406.823 413.35ZM411.214 414.527L410.133 414.237L413.601 401.294L422.217 403.602L421.937 404.645L414.403 402.627L411.214 414.527ZM430.286 411.914L431.291 412.183C431.986 412.369 432.466 412.691 432.73 413.149C433.007 413.609 433.054 414.181 432.871 414.863L431.504 419.964L430.423 419.674L431.748 414.728C431.969 413.904 431.667 413.381 430.843 413.16L423.907 411.302L422.251 417.484L421.169 417.194L424.637 404.251L425.719 404.541L424.182 410.278L429.127 411.603L433.813 406.71L435.011 407.03L430.286 411.914ZM437.091 419.68L448.672 410.691L449.753 410.981L446.285 423.924L445.203 423.634L448.226 412.352L436.645 421.341L435.564 421.051L439.032 408.108L440.114 408.398L437.091 419.68ZM460.857 412.921L458.288 412.232C457.876 412.122 457.575 411.903 457.387 411.577C457.214 411.241 457.184 410.866 457.294 410.454L457.475 409.778L458.46 410.042L458.305 410.622C458.253 410.815 458.275 410.993 458.369 411.156C458.467 411.307 458.612 411.408 458.805 411.46L460.795 411.993C460.988 412.045 461.165 412.03 461.325 411.948C461.488 411.854 461.595 411.71 461.647 411.517L461.803 410.938L462.807 411.207L462.626 411.883C462.515 412.295 462.295 412.602 461.965 412.803C461.639 412.992 461.269 413.031 460.857 412.921ZM452.089 423.698L463.67 414.71L464.752 414.999L461.284 427.943L460.202 427.653L463.225 416.371L451.644 425.36L450.562 425.07L454.03 412.127L455.112 412.416L452.089 423.698Z" fill="white"/>
</svg>
