<svg width="387" height="231" viewBox="0 0 387 231" fill="none" xmlns="http://www.w3.org/2000/svg">
<g clip-path="url(#clip0_206_2016)">
<rect width="387" height="231" fill="#2858FF"/>
<path d="M100.644 63.795C86.4435 63.795 74.5435 58.995 64.9435 49.395C55.3435 39.795 50.5435 27.895 50.5435 13.695C50.5435 -0.104986 55.3435 -11.805 64.9435 -21.405C74.5435 -31.205 86.4435 -36.105 100.644 -36.105C114.444 -36.105 126.144 -31.205 135.744 -21.405C145.344 -11.805 150.144 -0.104986 150.144 13.695C150.144 27.895 145.344 39.795 135.744 49.395C126.344 58.995 114.644 63.795 100.644 63.795ZM70.0435 169.395L211.044 -31.605H246.444L105.444 169.395H70.0435ZM87.1435 27.495C90.9435 31.095 95.4435 32.895 100.644 32.895C105.844 32.895 110.344 31.095 114.144 27.495C117.944 23.695 119.844 19.095 119.844 13.695C119.844 8.49501 117.944 4.09501 114.144 0.495013C110.344 -3.30499 105.844 -5.20499 100.644 -5.20499C95.4435 -5.20499 90.9435 -3.30499 87.1435 0.495013C83.5435 4.09501 81.7435 8.49501 81.7435 13.695C81.7435 19.095 83.5435 23.695 87.1435 27.495ZM216.444 173.895C202.244 173.895 190.344 169.095 180.744 159.495C171.144 149.895 166.344 137.995 166.344 123.795C166.344 109.995 171.144 98.295 180.744 88.695C190.344 78.895 202.244 73.995 216.444 73.995C230.244 73.995 241.944 78.895 251.544 88.695C261.144 98.295 265.944 109.995 265.944 123.795C265.944 137.995 261.144 149.895 251.544 159.495C242.144 169.095 230.444 173.895 216.444 173.895ZM202.944 137.595C206.744 141.195 211.244 142.995 216.444 142.995C221.644 142.995 226.144 141.195 229.944 137.595C233.744 133.795 235.644 129.195 235.644 123.795C235.644 118.595 233.744 114.195 229.944 110.595C226.144 106.795 221.644 104.895 216.444 104.895C211.244 104.895 206.744 106.795 202.944 110.595C199.344 114.195 197.544 118.595 197.544 123.795C197.544 129.195 199.344 133.795 202.944 137.595Z" fill="white"/>
</g>
<defs>
<clipPath id="clip0_206_2016">
<rect width="387" height="231" fill="white"/>
</clipPath>
</defs>
</svg>
