<svg width="387" height="231" viewBox="0 0 387 231" fill="none" xmlns="http://www.w3.org/2000/svg">
<g clip-path="url(#clip0_206_2028)">
<rect width="387" height="231" fill="white"/>
<path d="M129.282 86.8352H179.983C177.383 112.435 166.783 133.535 148.183 150.135C129.582 166.735 105.982 175.035 77.3825 175.035C46.1825 175.035 20.9825 165.035 1.78249 145.035C-17.4175 125.035 -27.0175 100.235 -27.0175 70.6352C-27.0175 40.8352 -17.4175 15.8352 1.78249 -4.36485C20.9825 -24.7649 46.1825 -34.9649 77.3825 -34.9649C105.183 -34.9649 128.383 -26.7649 146.983 -10.3649C165.583 5.83515 176.382 26.3352 179.382 51.1351H128.082C125.082 39.7352 119.082 30.6352 110.082 23.8351C101.082 16.8351 89.9825 13.4351 76.7825 13.6352C60.1825 13.8352 47.0825 19.3352 37.4825 30.1351C28.0825 40.9351 23.3825 54.2351 23.3825 70.0352C23.3825 85.8352 28.1825 99.2352 37.7825 110.235C47.3825 121.035 60.5825 126.435 77.3825 126.435C90.7825 126.435 102.082 122.935 111.282 115.935C120.482 108.735 126.482 99.0352 129.282 86.8352Z" fill="#2858FF"/>
</g>
<rect x="1.5" y="1.5" width="384" height="228" stroke="#2858FF" stroke-width="3"/>
<defs>
<clipPath id="clip0_206_2028">
<rect width="387" height="231" fill="white"/>
</clipPath>
</defs>
</svg>
