<svg width="387" height="231" viewBox="0 0 387 231" fill="none" xmlns="http://www.w3.org/2000/svg">
<g clip-path="url(#clip0_206_2022)">
<rect width="387" height="231" fill="#2858FF"/>
<path d="M153.307 121.391V122.591H183.607V167.591H79.207C48.207 167.591 23.107 157.691 3.90703 137.891C-15.293 117.891 -24.893 93.4908 -24.893 64.6908C-24.893 35.4908 -15.293 10.8908 3.90703 -9.10919C23.107 -29.3092 48.207 -39.4092 79.207 -39.4092C109.807 -39.4092 134.707 -29.9092 153.907 -10.9092C173.307 7.89081 183.007 30.9908 183.007 58.3908C183.007 71.1908 180.407 83.0908 175.207 94.0908C170.007 105.091 162.707 114.191 153.307 121.391ZM39.907 102.791C49.707 113.591 62.807 118.991 79.207 118.991C95.607 118.991 108.707 113.591 118.507 102.791C128.307 91.9908 133.207 79.0908 133.207 64.0908C133.207 48.8908 128.307 35.9908 118.507 25.3908C108.707 14.5908 95.607 9.19082 79.207 9.19082C62.807 9.19082 49.707 14.5908 39.907 25.3908C30.307 35.9908 25.507 48.8908 25.507 64.0908C25.507 79.0908 30.307 91.9908 39.907 102.791Z" fill="white"/>
</g>
<defs>
<clipPath id="clip0_206_2022">
<rect width="387" height="231" fill="white"/>
</clipPath>
</defs>
</svg>
