<svg width="387" height="231" viewBox="0 0 387 231" fill="none" xmlns="http://www.w3.org/2000/svg">
<g clip-path="url(#clip0_206_2020)">
<rect width="387" height="231" fill="white"/>
<path d="M394.604 161.923L442.004 214.423H382.304L356.804 186.823L328.004 206.023C313.404 215.623 298.104 219.523 282.104 217.723C266.304 215.923 253.904 209.123 244.904 197.323C235.904 185.523 232.704 171.723 235.304 155.923C238.104 139.923 245.804 127.923 258.404 119.923L281.504 105.223L271.904 94.7233C263.904 86.1233 258.904 76.9233 256.904 67.1233C255.104 57.3233 256.004 48.5233 259.604 40.7233C263.204 32.9233 269.304 26.4233 277.904 21.2233C286.704 16.0233 297.004 13.4233 308.804 13.4233H377.504V57.2233H313.004C310.004 57.2233 308.004 58.2233 307.004 60.2233C306.204 62.2233 306.804 64.3233 308.804 66.5233L365.204 129.223L416.804 95.0233V147.223L394.604 161.923ZM302.204 170.623L326.804 154.423L310.304 136.423L288.704 150.223C284.904 152.623 282.604 155.523 281.804 158.923C281.004 162.323 281.504 165.223 283.304 167.623C285.104 170.623 287.604 172.523 290.804 173.323C294.204 173.923 298.004 173.023 302.204 170.623Z" fill="#2858FF"/>
</g>
<rect x="1.5" y="1.5" width="384" height="228" stroke="#2858FF" stroke-width="3"/>
<defs>
<clipPath id="clip0_206_2020">
<rect width="387" height="231" fill="white"/>
</clipPath>
</defs>
</svg>
