<svg width="1207" height="427" viewBox="0 0 1207 427" fill="none" xmlns="http://www.w3.org/2000/svg">
<rect width="387" height="236" transform="translate(0 3.20996)" fill="#2858FF"/>
<path d="M138.391 127.102V96.83H146.071V139.71H138.391L114.391 107.454V139.71H106.711V96.83H115.671L138.391 127.102ZM168.216 107.006C173.464 107.006 177.603 108.862 180.632 112.574C183.662 116.243 184.942 120.83 184.472 126.334H159.32C159.619 128.425 160.579 130.195 162.2 131.646C163.864 133.054 165.912 133.779 168.344 133.822C170.136 133.865 171.758 133.523 173.208 132.798C174.659 132.03 175.704 131.006 176.344 129.726H183.96C182.936 133.139 180.995 135.806 178.136 137.726C175.32 139.646 172.014 140.606 168.216 140.606C163.182 140.606 159.171 138.985 156.184 135.742C153.198 132.499 151.704 128.531 151.704 123.838C151.704 119.059 153.24 115.07 156.312 111.87C159.427 108.627 163.395 107.006 168.216 107.006ZM168.088 113.79C165.912 113.79 164.035 114.387 162.456 115.582C160.92 116.777 159.918 118.355 159.448 120.318H176.856C176.387 118.313 175.363 116.734 173.784 115.582C172.206 114.387 170.307 113.79 168.088 113.79ZM220.206 107.454L213.166 119.614C215.214 119.827 216.814 120.595 217.966 121.918C219.16 123.198 219.758 124.947 219.758 127.166V139.71H212.398V129.086C212.398 128.233 212.12 127.571 211.566 127.102C211.054 126.59 210.371 126.334 209.518 126.334H197.422V139.71H190.062V93.63H197.422V119.55H205.358L212.206 107.454H220.206ZM234.618 107.902H252.218V115.07H234.81C234.213 115.07 233.722 115.262 233.338 115.646C232.954 115.987 232.762 116.457 232.762 117.054C232.762 118.163 233.296 118.825 234.362 119.038L246.906 121.79C249.21 122.259 251.045 123.283 252.41 124.862C253.776 126.441 254.458 128.297 254.458 130.43C254.458 133.118 253.52 135.337 251.642 137.086C249.808 138.835 247.504 139.71 244.73 139.71H226.298V132.606H244.666C245.264 132.606 245.754 132.414 246.138 132.03C246.522 131.603 246.714 131.07 246.714 130.43C246.714 129.278 246.16 128.574 245.05 128.318L232.442 125.566C230.181 125.054 228.368 124.03 227.002 122.494C225.68 120.915 225.018 119.081 225.018 116.99C225.018 114.345 225.914 112.169 227.706 110.462C229.541 108.755 231.845 107.902 234.618 107.902ZM282.989 107.902V115.07H269.229V129.79C269.229 131.625 270.189 132.542 272.109 132.542H282.989V139.71H270.637C267.863 139.71 265.709 138.963 264.173 137.47C262.637 135.934 261.869 133.801 261.869 131.07V115.07H256.749V107.902H261.869V96.83H269.229V107.902H282.989Z" fill="white"/>
<g filter="url(#filter0_d_303_1555)">
<rect x="305" y="179.21" width="387" height="236" fill="white"/>
<path d="M343.763 215.926V229.198H345.923V235.438H343.187V232.006H331.475V235.438H328.763V229.198H329.003C329.275 229.198 329.483 229.19 329.627 229.174C329.771 229.142 329.947 229.086 330.155 229.006C330.363 228.91 330.531 228.742 330.659 228.502C330.787 228.262 330.891 227.942 330.971 227.542C331.067 227.142 331.139 226.582 331.187 225.862C331.251 225.126 331.291 224.27 331.307 223.294C331.339 222.318 331.355 221.446 331.355 220.678C331.371 219.894 331.379 218.982 331.379 217.942C331.379 216.902 331.379 216.23 331.379 215.926H343.763ZM333.419 229.198H340.883V218.734H334.187C334.155 223.646 334.011 226.718 333.755 227.95C333.643 228.494 333.531 228.91 333.419 229.198ZM353.334 219.742C355.302 219.742 356.854 220.438 357.99 221.83C359.126 223.206 359.606 224.926 359.43 226.99H349.998C350.11 227.774 350.47 228.438 351.078 228.982C351.702 229.51 352.47 229.782 353.382 229.798C354.054 229.814 354.662 229.686 355.206 229.414C355.75 229.126 356.142 228.742 356.382 228.262H359.238C358.854 229.542 358.126 230.542 357.054 231.262C355.998 231.982 354.758 232.342 353.334 232.342C351.446 232.342 349.942 231.734 348.822 230.518C347.702 229.302 347.142 227.814 347.142 226.054C347.142 224.262 347.718 222.766 348.87 221.566C350.038 220.35 351.526 219.742 353.334 219.742ZM353.286 222.286C352.47 222.286 351.766 222.51 351.174 222.958C350.598 223.406 350.222 223.998 350.046 224.734H356.574C356.398 223.982 356.014 223.39 355.422 222.958C354.83 222.51 354.118 222.286 353.286 222.286ZM370.237 224.614V220.078H372.997V232.006H370.237V227.254H364.357V232.006H361.597V220.078H364.357V224.614H370.237ZM378.677 228.094L384.629 220.078H387.389V232.006H384.629V224.014L378.677 232.006H375.917V220.078H378.677V228.094ZM401.831 224.518H398.927C398.719 223.894 398.327 223.39 397.751 223.006C397.191 222.606 396.535 222.406 395.783 222.406C394.711 222.406 393.847 222.758 393.191 223.462C392.551 224.15 392.231 225.014 392.231 226.054C392.231 227.078 392.559 227.942 393.215 228.646C393.871 229.35 394.727 229.702 395.783 229.702C396.535 229.702 397.191 229.502 397.751 229.102C398.327 228.702 398.719 228.182 398.927 227.542H401.831C401.559 228.95 400.871 230.102 399.767 230.998C398.663 231.894 397.327 232.342 395.759 232.342C393.887 232.342 392.367 231.742 391.199 230.542C390.047 229.342 389.471 227.838 389.471 226.03C389.471 224.238 390.047 222.742 391.199 221.542C392.367 220.342 393.887 219.742 395.759 219.742C397.327 219.742 398.663 220.19 399.767 221.086C400.871 221.966 401.559 223.11 401.831 224.518ZM422.648 225.694H425.648C425.312 227.63 424.416 229.222 422.96 230.47C421.504 231.718 419.704 232.342 417.56 232.342C415.128 232.342 413.144 231.534 411.608 229.918C410.072 228.302 409.304 226.326 409.304 223.99C409.304 221.638 410.072 219.654 411.608 218.038C413.144 216.406 415.128 215.59 417.56 215.59C419.656 215.59 421.432 216.198 422.888 217.414C424.344 218.63 425.248 220.19 425.6 222.094H422.6C422.28 220.99 421.672 220.094 420.776 219.406C419.88 218.718 418.816 218.382 417.584 218.398C416 218.414 414.704 218.966 413.696 220.054C412.704 221.126 412.208 222.43 412.208 223.966C412.208 225.502 412.704 226.814 413.696 227.902C414.704 228.974 416 229.51 417.584 229.51C418.88 229.51 419.976 229.158 420.872 228.454C421.768 227.75 422.36 226.83 422.648 225.694ZM433.514 219.742C435.482 219.742 437.034 220.438 438.17 221.83C439.306 223.206 439.786 224.926 439.61 226.99H430.178C430.29 227.774 430.65 228.438 431.258 228.982C431.882 229.51 432.65 229.782 433.562 229.798C434.234 229.814 434.842 229.686 435.386 229.414C435.93 229.126 436.322 228.742 436.562 228.262H439.418C439.034 229.542 438.306 230.542 437.234 231.262C436.178 231.982 434.938 232.342 433.514 232.342C431.626 232.342 430.122 231.734 429.002 230.518C427.882 229.302 427.322 227.814 427.322 226.054C427.322 224.262 427.898 222.766 429.05 221.566C430.218 220.35 431.706 219.742 433.514 219.742ZM433.466 222.286C432.65 222.286 431.946 222.51 431.354 222.958C430.778 223.406 430.402 223.998 430.226 224.734H436.754C436.578 223.982 436.194 223.39 435.602 222.958C435.01 222.51 434.298 222.286 433.466 222.286ZM448.688 219.742C450.4 219.726 451.808 220.31 452.912 221.494C454.016 222.678 454.568 224.198 454.568 226.054C454.568 227.91 454.008 229.43 452.888 230.614C451.784 231.798 450.384 232.374 448.688 232.342C447.808 232.342 447.016 232.158 446.312 231.79C445.608 231.406 445.048 230.902 444.632 230.278H444.512V236.806H441.776V220.078H444.512V221.734H444.632C445.048 221.142 445.608 220.67 446.312 220.318C447.016 219.95 447.808 219.758 448.688 219.742ZM448.136 229.702C449.208 229.702 450.08 229.35 450.752 228.646C451.44 227.942 451.784 227.07 451.784 226.03C451.784 224.99 451.44 224.118 450.752 223.414C450.08 222.71 449.208 222.358 448.136 222.358C447.08 222.358 446.216 222.71 445.544 223.414C444.872 224.118 444.536 224.99 444.536 226.03C444.536 227.054 444.872 227.926 445.544 228.646C446.216 229.35 447.08 229.702 448.136 229.702ZM462.295 219.742C464.263 219.742 465.815 220.438 466.951 221.83C468.087 223.206 468.567 224.926 468.391 226.99H458.959C459.071 227.774 459.431 228.438 460.039 228.982C460.663 229.51 461.431 229.782 462.343 229.798C463.015 229.814 463.623 229.686 464.167 229.414C464.711 229.126 465.103 228.742 465.343 228.262H468.199C467.815 229.542 467.087 230.542 466.015 231.262C464.959 231.982 463.719 232.342 462.295 232.342C460.407 232.342 458.903 231.734 457.783 230.518C456.663 229.302 456.103 227.814 456.103 226.054C456.103 224.262 456.679 222.766 457.831 221.566C458.999 220.35 460.487 219.742 462.295 219.742ZM462.247 222.286C461.431 222.286 460.727 222.51 460.135 222.958C459.559 223.406 459.183 223.998 459.007 224.734H465.535C465.359 223.982 464.975 223.39 464.383 222.958C463.791 222.51 463.079 222.286 462.247 222.286ZM477.277 220.51C478.925 220.51 480.285 221.054 481.357 222.142C482.429 223.23 482.965 224.606 482.965 226.27C482.965 227.998 482.381 229.438 481.213 230.59C480.045 231.742 478.517 232.318 476.629 232.318C474.741 232.318 473.205 231.742 472.021 230.59C470.853 229.422 470.269 227.966 470.269 226.222V221.062C470.269 219.19 470.837 217.67 471.973 216.502C473.125 215.318 474.629 214.726 476.485 214.726H481.717V217.534H476.341C475.301 217.534 474.461 217.854 473.821 218.494C473.197 219.134 472.885 219.974 472.885 221.014V222.454H472.981C473.989 221.158 475.421 220.51 477.277 220.51ZM476.653 229.678C477.693 229.678 478.541 229.358 479.197 228.718C479.853 228.062 480.181 227.262 480.181 226.318C480.181 225.39 479.853 224.614 479.197 223.99C478.541 223.35 477.693 223.03 476.653 223.03C475.581 223.03 474.709 223.35 474.037 223.99C473.381 224.614 473.053 225.398 473.053 226.342C473.053 227.302 473.389 228.102 474.061 228.742C474.733 229.366 475.597 229.678 476.653 229.678ZM491.931 219.742C493.643 219.726 495.051 220.31 496.155 221.494C497.259 222.678 497.811 224.198 497.811 226.054C497.811 227.91 497.251 229.43 496.131 230.614C495.027 231.798 493.627 232.374 491.931 232.342C491.051 232.342 490.259 232.158 489.555 231.79C488.851 231.406 488.291 230.902 487.875 230.278H487.755V236.806H485.019V220.078H487.755V221.734H487.875C488.291 221.142 488.851 220.67 489.555 220.318C490.259 219.95 491.051 219.758 491.931 219.742ZM491.379 229.702C492.451 229.702 493.323 229.35 493.995 228.646C494.683 227.942 495.027 227.07 495.027 226.03C495.027 224.99 494.683 224.118 493.995 223.414C493.323 222.71 492.451 222.358 491.379 222.358C490.323 222.358 489.459 222.71 488.787 223.414C488.115 224.118 487.779 224.99 487.779 226.03C487.779 227.054 488.115 227.926 488.787 228.646C489.459 229.35 490.323 229.702 491.379 229.702ZM510.795 220.078V232.006H508.035V227.95H503.619C502.819 227.95 502.419 228.318 502.419 229.054V232.006H499.659V228.766C499.659 227.502 500.147 226.726 501.123 226.438V226.318C500.179 225.774 499.707 224.902 499.707 223.702C499.707 222.71 500.067 221.862 500.787 221.158C501.523 220.438 502.539 220.078 503.835 220.078H510.795ZM504.027 225.526H508.035V222.67H503.931C503.467 222.67 503.099 222.814 502.827 223.102C502.571 223.39 502.443 223.726 502.443 224.11C502.443 224.51 502.587 224.846 502.875 225.118C503.179 225.39 503.563 225.526 504.027 225.526ZM524.985 220.078L522.297 224.782C523.065 224.862 523.673 225.142 524.121 225.622C524.569 226.102 524.793 226.766 524.793 227.614V232.006H522.033V228.262C522.033 227.942 521.937 227.694 521.745 227.518C521.553 227.326 521.289 227.23 520.953 227.23H516.513V232.006H513.753V220.078H516.513V224.758H519.321L521.985 220.078H524.985ZM533.082 232.342C531.178 232.342 529.626 231.742 528.426 230.542C527.226 229.326 526.626 227.822 526.626 226.03C526.626 224.238 527.218 222.742 528.402 221.542C529.602 220.342 531.162 219.742 533.082 219.742C534.97 219.742 536.498 220.342 537.666 221.542C538.85 222.742 539.442 224.238 539.442 226.03C539.442 227.822 538.85 229.326 537.666 230.542C536.482 231.742 534.954 232.342 533.082 232.342ZM533.082 229.702C534.138 229.702 535.002 229.35 535.674 228.646C536.346 227.942 536.682 227.078 536.682 226.054C536.682 225.014 536.346 224.15 535.674 223.462C535.002 222.758 534.138 222.406 533.082 222.406C531.994 222.406 531.106 222.758 530.418 223.462C529.746 224.15 529.41 225.014 529.41 226.054C529.41 227.078 529.746 227.942 530.418 228.646C531.106 229.35 531.994 229.702 533.082 229.702ZM550.765 225.766V225.838C551.421 226.062 551.909 226.43 552.229 226.942C552.549 227.438 552.709 227.998 552.709 228.622C552.709 229.534 552.389 230.326 551.749 230.998C551.109 231.67 550.221 232.006 549.085 232.006H541.573V220.078H548.581C549.749 220.078 550.645 220.39 551.269 221.014C551.893 221.638 552.205 222.39 552.205 223.27C552.205 224.406 551.725 225.238 550.765 225.766ZM548.221 222.526H544.333V224.83H548.221C548.605 224.83 548.901 224.718 549.109 224.494C549.333 224.254 549.445 223.974 549.445 223.654C549.445 223.334 549.341 223.07 549.133 222.862C548.925 222.638 548.621 222.526 548.221 222.526ZM544.333 229.558H548.653C549.053 229.558 549.365 229.446 549.589 229.222C549.813 228.982 549.925 228.702 549.925 228.382C549.925 228.062 549.813 227.79 549.589 227.566C549.365 227.342 549.053 227.23 548.653 227.23H544.333V229.558Z" fill="#00479A"/>
<path d="M338.803 256.534V250.086H340.323V258.006H329.315V250.086H330.835V256.534H334.067V250.086H335.587V256.534H338.803ZM347.028 249.862C348.201 249.852 349.167 250.236 349.924 251.014C350.681 251.793 351.06 252.801 351.06 254.038C351.06 255.276 350.676 256.289 349.908 257.078C349.151 257.868 348.196 258.252 347.044 258.23C345.817 258.22 344.868 257.734 344.196 256.774H344.132V261.206H342.628V250.086H344.132V251.238H344.212C344.511 250.822 344.9 250.492 345.38 250.246C345.871 250.001 346.42 249.873 347.028 249.862ZM346.82 256.758C347.631 256.758 348.287 256.497 348.788 255.974C349.289 255.452 349.54 254.806 349.54 254.038C349.54 253.27 349.289 252.625 348.788 252.102C348.287 251.58 347.631 251.318 346.82 251.318C346.031 251.318 345.385 251.58 344.884 252.102C344.393 252.625 344.148 253.27 344.148 254.038C344.148 254.806 344.393 255.452 344.884 255.974C345.385 256.497 346.031 256.758 346.82 256.758ZM354.289 255.862L358.721 250.086H360.241V258.006H358.721V252.246L354.289 258.006H352.769V250.086H354.289V255.862ZM368.136 250.086H370.024C370.728 250.086 371.31 250.321 371.768 250.79C372.238 251.249 372.472 251.83 372.472 252.534V255.558C372.472 256.262 372.238 256.849 371.768 257.318C371.31 257.777 370.728 258.006 370.024 258.006H368.136V261.206H366.616V258.006H364.728C364.024 258.006 363.438 257.777 362.968 257.318C362.51 256.849 362.28 256.262 362.28 255.558V252.534C362.28 251.83 362.51 251.249 362.968 250.79C363.438 250.321 364.024 250.086 364.728 250.086H366.616V247.286H368.136V250.086ZM364.936 256.534H366.616V251.558H364.936C364.606 251.558 364.334 251.665 364.12 251.878C363.907 252.092 363.8 252.364 363.8 252.694V255.398C363.8 255.729 363.907 256.001 364.12 256.214C364.334 256.428 364.606 256.534 364.936 256.534ZM370.952 255.398V252.694C370.952 252.364 370.846 252.092 370.632 251.878C370.419 251.665 370.147 251.558 369.816 251.558H368.136V256.534H369.816C370.147 256.534 370.419 256.428 370.632 256.214C370.846 256.001 370.952 255.729 370.952 255.398ZM380.652 250.086V251.558H377.852V258.006H376.332V251.558H373.532V250.086H380.652ZM385.544 258.23C384.275 258.23 383.24 257.83 382.44 257.03C381.651 256.22 381.256 255.222 381.256 254.038C381.256 252.854 381.651 251.862 382.44 251.062C383.24 250.262 384.275 249.862 385.544 249.862C386.792 249.862 387.806 250.262 388.584 251.062C389.374 251.862 389.768 252.854 389.768 254.038C389.768 255.222 389.374 256.22 388.584 257.03C387.795 257.83 386.782 258.23 385.544 258.23ZM385.544 256.774C386.334 256.774 386.979 256.508 387.48 255.974C387.992 255.441 388.248 254.796 388.248 254.038C388.248 253.27 387.992 252.625 387.48 252.102C386.979 251.58 386.334 251.318 385.544 251.318C384.734 251.318 384.072 251.58 383.56 252.102C383.048 252.625 382.792 253.27 382.792 254.038C382.792 254.806 383.048 255.457 383.56 255.99C384.072 256.513 384.734 256.774 385.544 256.774ZM397.536 253.846V253.91C397.941 254.07 398.245 254.321 398.448 254.662C398.65 255.004 398.752 255.372 398.752 255.766C398.752 256.374 398.533 256.902 398.096 257.35C397.669 257.788 397.082 258.006 396.336 258.006H391.472V250.086H396.048C396.805 250.086 397.392 250.294 397.808 250.71C398.224 251.126 398.432 251.628 398.432 252.214C398.432 252.961 398.133 253.505 397.536 253.846ZM395.984 251.558H392.992V253.318H395.984C396.272 253.318 396.496 253.233 396.656 253.062C396.826 252.881 396.912 252.668 396.912 252.422C396.912 252.188 396.832 251.985 396.672 251.814C396.512 251.644 396.282 251.558 395.984 251.558ZM392.992 256.534H396.256C396.554 256.534 396.789 256.449 396.96 256.278C397.13 256.097 397.216 255.884 397.216 255.638C397.216 255.404 397.13 255.201 396.96 255.03C396.789 254.86 396.554 254.774 396.256 254.774H392.992V256.534ZM402.023 252.678H404.679C405.426 252.678 406.055 252.94 406.567 253.462C407.09 253.974 407.351 254.593 407.351 255.318C407.351 256.065 407.09 256.7 406.567 257.222C406.055 257.745 405.426 258.006 404.679 258.006H400.503V250.086H402.023V252.678ZM408.439 258.006V250.086H409.959V258.006H408.439ZM402.023 256.534H404.679C404.999 256.534 405.271 256.417 405.495 256.182C405.719 255.948 405.831 255.66 405.831 255.318C405.831 254.998 405.719 254.726 405.495 254.502C405.271 254.268 404.999 254.15 404.679 254.15H402.023V256.534ZM417.149 248.806H414.749C414.375 248.806 414.061 248.684 413.805 248.438C413.559 248.182 413.437 247.868 413.437 247.494V246.486H414.717V247.238C414.717 247.356 414.754 247.457 414.829 247.542C414.914 247.617 415.01 247.654 415.117 247.654H416.781C416.887 247.654 416.978 247.617 417.053 247.542C417.138 247.457 417.181 247.356 417.181 247.238V246.486H418.461V247.494C418.461 247.868 418.333 248.182 418.077 248.438C417.831 248.684 417.522 248.806 417.149 248.806ZM413.789 255.862L418.221 250.086H419.741V258.006H418.221V252.246L413.789 258.006H412.269V250.086H413.789V255.862ZM433.426 250.086V256.534H434.77V260.006H433.282V258.006H426.754V260.006H425.266V256.534H425.362C425.543 256.534 425.682 256.529 425.778 256.518C425.885 256.497 426.013 256.449 426.162 256.374C426.322 256.289 426.445 256.14 426.53 255.926C426.626 255.713 426.685 255.436 426.706 255.094C426.738 254.689 426.754 253.02 426.754 250.086H433.426ZM427.858 256.534H431.906V251.558H428.242C428.242 253.052 428.221 254.182 428.178 254.95C428.146 255.558 428.039 256.086 427.858 256.534ZM437.773 255.862L442.205 250.086H443.725V258.006H442.205V252.246L437.773 258.006H436.253V250.086H437.773V255.862ZM451.378 253.91V253.974C451.752 254.102 452.034 254.332 452.226 254.662C452.429 254.993 452.53 255.356 452.53 255.75C452.53 256.358 452.312 256.886 451.874 257.334C451.448 257.782 450.861 258.006 450.114 258.006H445.522V256.534H450.034C450.333 256.534 450.568 256.449 450.738 256.278C450.909 256.097 450.994 255.884 450.994 255.638C450.994 255.404 450.909 255.201 450.738 255.03C450.568 254.86 450.333 254.774 450.034 254.774H446.722V253.334H449.922C450.21 253.334 450.434 253.249 450.594 253.078C450.765 252.897 450.85 252.684 450.85 252.438C450.85 252.204 450.77 252.001 450.61 251.83C450.45 251.649 450.221 251.558 449.922 251.558H445.522V250.086H449.986C450.744 250.086 451.33 250.3 451.746 250.726C452.162 251.142 452.37 251.644 452.37 252.23C452.37 252.593 452.285 252.929 452.114 253.238C451.944 253.548 451.698 253.772 451.378 253.91ZM460.763 251.238V250.086H462.267V258.006H460.763V256.774H460.699C460.027 257.734 459.077 258.22 457.851 258.23C456.699 258.252 455.739 257.868 454.971 257.078C454.213 256.289 453.835 255.276 453.835 254.038C453.835 252.801 454.213 251.793 454.971 251.014C455.728 250.236 456.693 249.852 457.867 249.862C459.083 249.873 460.027 250.332 460.699 251.238H460.763ZM458.075 256.758C458.864 256.758 459.504 256.497 459.995 255.974C460.496 255.452 460.747 254.806 460.747 254.038C460.747 253.27 460.496 252.625 459.995 252.102C459.504 251.58 458.864 251.318 458.075 251.318C457.264 251.318 456.608 251.58 456.107 252.102C455.605 252.625 455.355 253.27 455.355 254.038C455.355 254.806 455.605 255.452 456.107 255.974C456.608 256.497 457.264 256.758 458.075 256.758ZM469.445 248.806H467.045C466.672 248.806 466.357 248.684 466.101 248.438C465.856 248.182 465.733 247.868 465.733 247.494V246.486H467.013V247.238C467.013 247.356 467.051 247.457 467.125 247.542C467.211 247.617 467.307 247.654 467.413 247.654H469.077C469.184 247.654 469.275 247.617 469.349 247.542C469.435 247.457 469.477 247.356 469.477 247.238V246.486H470.757V247.494C470.757 247.868 470.629 248.182 470.373 248.438C470.128 248.684 469.819 248.806 469.445 248.806ZM466.085 255.862L470.517 250.086H472.037V258.006H470.517V252.246L466.085 258.006H464.565V250.086H466.085V255.862ZM480.315 253.222V250.086H481.835V258.006H480.315V254.694H475.867V258.006H474.347V250.086H475.867V253.222H480.315ZM487.649 249.862C488.94 249.862 489.964 250.316 490.721 251.222C491.489 252.129 491.82 253.249 491.713 254.582H485.169C485.223 255.212 485.489 255.734 485.969 256.15C486.449 256.566 487.041 256.774 487.745 256.774C488.257 256.774 488.711 256.662 489.105 256.438C489.5 256.214 489.788 255.916 489.969 255.542H491.553C491.287 256.374 490.807 257.03 490.113 257.51C489.42 257.99 488.609 258.23 487.681 258.23C486.444 258.23 485.447 257.83 484.689 257.03C483.932 256.22 483.553 255.228 483.553 254.054C483.553 252.87 483.937 251.878 484.705 251.078C485.473 250.268 486.455 249.862 487.649 249.862ZM487.617 251.318C486.999 251.318 486.471 251.5 486.033 251.862C485.596 252.214 485.319 252.673 485.201 253.238H490.065C489.948 252.662 489.665 252.198 489.217 251.846C488.78 251.494 488.247 251.318 487.617 251.318ZM497.825 249.862C498.998 249.852 499.964 250.236 500.721 251.014C501.478 251.793 501.857 252.801 501.857 254.038C501.857 255.276 501.473 256.289 500.705 257.078C499.948 257.868 498.993 258.252 497.841 258.23C496.614 258.22 495.665 257.734 494.993 256.774H494.929V261.206H493.425V250.086H494.929V251.238H495.009C495.308 250.822 495.697 250.492 496.177 250.246C496.668 250.001 497.217 249.873 497.825 249.862ZM497.617 256.758C498.428 256.758 499.084 256.497 499.585 255.974C500.086 255.452 500.337 254.806 500.337 254.038C500.337 253.27 500.086 252.625 499.585 252.102C499.084 251.58 498.428 251.318 497.617 251.318C496.828 251.318 496.182 251.58 495.681 252.102C495.19 252.625 494.945 253.27 494.945 254.038C494.945 254.806 495.19 255.452 495.681 255.974C496.182 256.497 496.828 256.758 497.617 256.758Z" fill="#00479A"/>
<path d="M333.428 329.51H336.548V330.95H333.428V334.07H331.988V330.95H328.868V329.51H331.988V326.39H333.428V329.51ZM342.153 326.214V324.694H349.481V325.894L345.033 335.414H343.305L347.673 326.214H342.153ZM363.182 328.054C363.182 328.278 363.155 328.512 363.102 328.758L362.174 333.526C361.939 334.784 361.081 335.414 359.598 335.414H356.03V333.894H359.566C359.907 333.894 360.169 333.83 360.35 333.702C360.531 333.574 360.654 333.355 360.718 333.046L361.15 330.87H361.102C360.387 331.371 359.598 331.622 358.734 331.622C357.507 331.632 356.537 331.312 355.822 330.662C355.107 330 354.75 329.142 354.75 328.086C354.75 327.03 355.134 326.166 355.902 325.494C356.681 324.822 357.683 324.486 358.91 324.486C360.211 324.486 361.246 324.822 362.014 325.494C362.793 326.155 363.182 327.008 363.182 328.054ZM360.91 329.574C361.39 329.19 361.63 328.683 361.63 328.054C361.63 327.424 361.395 326.928 360.926 326.566C360.467 326.192 359.795 326.006 358.91 326.006C358.11 326.006 357.475 326.198 357.006 326.582C356.537 326.966 356.302 327.467 356.302 328.086C356.302 328.704 356.542 329.206 357.022 329.59C357.513 329.963 358.169 330.15 358.99 330.15C359.79 330.15 360.43 329.958 360.91 329.574ZM364.738 332.406C364.738 331.819 364.903 331.302 365.234 330.854C365.564 330.395 366.039 330.054 366.658 329.83V329.798C366.114 329.574 365.698 329.259 365.41 328.854C365.132 328.438 364.994 327.963 364.994 327.43C364.994 326.544 365.367 325.83 366.114 325.286C366.871 324.742 367.831 324.47 368.994 324.47C370.156 324.47 371.116 324.742 371.874 325.286C372.631 325.819 373.01 326.534 373.01 327.43C373.01 327.963 372.866 328.438 372.578 328.854C372.29 329.259 371.874 329.574 371.33 329.798V329.83C371.948 330.054 372.423 330.395 372.754 330.854C373.095 331.302 373.266 331.819 373.266 332.406C373.266 333.366 372.86 334.144 372.05 334.742C371.239 335.328 370.22 335.622 368.994 335.622C367.778 335.622 366.764 335.323 365.954 334.726C365.143 334.128 364.738 333.355 364.738 332.406ZM366.562 327.542C366.562 328 366.786 328.374 367.234 328.662C367.682 328.939 368.268 329.078 368.994 329.078C369.719 329.078 370.306 328.939 370.754 328.662C371.212 328.374 371.442 328 371.442 327.542C371.442 327.072 371.218 326.699 370.77 326.422C370.322 326.134 369.73 325.99 368.994 325.99C368.258 325.99 367.666 326.134 367.218 326.422C366.78 326.699 366.562 327.072 366.562 327.542ZM367.042 331.062C366.551 331.371 366.306 331.792 366.306 332.326C366.306 332.859 366.556 333.291 367.058 333.622C367.57 333.942 368.215 334.102 368.994 334.102C369.794 334.102 370.444 333.942 370.946 333.622C371.447 333.291 371.698 332.859 371.698 332.326C371.698 331.803 371.447 331.387 370.946 331.078C370.444 330.758 369.794 330.598 368.994 330.598C368.194 330.598 367.543 330.752 367.042 331.062ZM383.135 328.054C383.135 328.278 383.108 328.512 383.055 328.758L382.127 333.526C381.892 334.784 381.034 335.414 379.551 335.414H375.983V333.894H379.519C379.86 333.894 380.122 333.83 380.303 333.702C380.484 333.574 380.607 333.355 380.671 333.046L381.103 330.87H381.055C380.34 331.371 379.551 331.622 378.687 331.622C377.46 331.632 376.49 331.312 375.775 330.662C375.06 330 374.703 329.142 374.703 328.086C374.703 327.03 375.087 326.166 375.855 325.494C376.634 324.822 377.636 324.486 378.863 324.486C380.164 324.486 381.199 324.822 381.967 325.494C382.746 326.155 383.135 327.008 383.135 328.054ZM380.863 329.574C381.343 329.19 381.583 328.683 381.583 328.054C381.583 327.424 381.348 326.928 380.879 326.566C380.42 326.192 379.748 326.006 378.863 326.006C378.063 326.006 377.428 326.198 376.959 326.582C376.49 326.966 376.255 327.467 376.255 328.086C376.255 328.704 376.495 329.206 376.975 329.59C377.466 329.963 378.122 330.15 378.943 330.15C379.743 330.15 380.383 329.958 380.863 329.574ZM388.945 331.494V328.614C388.945 327.43 389.34 326.443 390.129 325.654C390.918 324.864 391.91 324.47 393.105 324.47C394.289 324.47 395.281 324.864 396.081 325.654C396.881 326.443 397.281 327.43 397.281 328.614V331.494C397.281 332.678 396.881 333.664 396.081 334.454C395.281 335.243 394.289 335.638 393.105 335.638C391.91 335.638 390.918 335.243 390.129 334.454C389.34 333.664 388.945 332.678 388.945 331.494ZM390.497 328.614V331.494C390.497 332.262 390.742 332.891 391.233 333.382C391.724 333.862 392.348 334.102 393.105 334.102C393.862 334.102 394.486 333.862 394.977 333.382C395.478 332.891 395.729 332.262 395.729 331.494V328.614C395.729 327.846 395.478 327.216 394.977 326.726C394.486 326.235 393.862 325.99 393.105 325.99C392.348 325.99 391.724 326.235 391.233 326.726C390.742 327.216 390.497 327.846 390.497 328.614ZM399.211 331.494V328.614C399.211 327.43 399.605 326.443 400.395 325.654C401.184 324.864 402.176 324.47 403.371 324.47C404.555 324.47 405.547 324.864 406.347 325.654C407.147 326.443 407.547 327.43 407.547 328.614V331.494C407.547 332.678 407.147 333.664 406.347 334.454C405.547 335.243 404.555 335.638 403.371 335.638C402.176 335.638 401.184 335.243 400.395 334.454C399.605 333.664 399.211 332.678 399.211 331.494ZM400.763 328.614V331.494C400.763 332.262 401.008 332.891 401.499 333.382C401.989 333.862 402.613 334.102 403.371 334.102C404.128 334.102 404.752 333.862 405.243 333.382C405.744 332.891 405.995 332.262 405.995 331.494V328.614C405.995 327.846 405.744 327.216 405.243 326.726C404.752 326.235 404.128 325.99 403.371 325.99C402.613 325.99 401.989 326.235 401.499 326.726C401.008 327.216 400.763 327.846 400.763 328.614ZM409.476 331.494V328.614C409.476 327.43 409.871 326.443 410.66 325.654C411.45 324.864 412.442 324.47 413.636 324.47C414.82 324.47 415.812 324.864 416.612 325.654C417.412 326.443 417.812 327.43 417.812 328.614V331.494C417.812 332.678 417.412 333.664 416.612 334.454C415.812 335.243 414.82 335.638 413.636 335.638C412.442 335.638 411.45 335.243 410.66 334.454C409.871 333.664 409.476 332.678 409.476 331.494ZM411.028 328.614V331.494C411.028 332.262 411.274 332.891 411.764 333.382C412.255 333.862 412.879 334.102 413.636 334.102C414.394 334.102 415.018 333.862 415.508 333.382C416.01 332.891 416.26 332.262 416.26 331.494V328.614C416.26 327.846 416.01 327.216 415.508 326.726C415.018 326.235 414.394 325.99 413.636 325.99C412.879 325.99 412.255 326.235 411.764 326.726C411.274 327.216 411.028 327.846 411.028 328.614ZM423.82 331.494V328.614C423.82 327.43 424.215 326.443 425.004 325.654C425.793 324.864 426.785 324.47 427.98 324.47C429.164 324.47 430.156 324.864 430.956 325.654C431.756 326.443 432.156 327.43 432.156 328.614V331.494C432.156 332.678 431.756 333.664 430.956 334.454C430.156 335.243 429.164 335.638 427.98 335.638C426.785 335.638 425.793 335.243 425.004 334.454C424.215 333.664 423.82 332.678 423.82 331.494ZM425.372 328.614V331.494C425.372 332.262 425.617 332.891 426.108 333.382C426.599 333.862 427.223 334.102 427.98 334.102C428.737 334.102 429.361 333.862 429.852 333.382C430.353 332.891 430.604 332.262 430.604 331.494V328.614C430.604 327.846 430.353 327.216 429.852 326.726C429.361 326.235 428.737 325.99 427.98 325.99C427.223 325.99 426.599 326.235 426.108 326.726C425.617 327.216 425.372 327.846 425.372 328.614ZM434.086 331.494V328.614C434.086 327.43 434.48 326.443 435.27 325.654C436.059 324.864 437.051 324.47 438.246 324.47C439.43 324.47 440.422 324.864 441.222 325.654C442.022 326.443 442.422 327.43 442.422 328.614V331.494C442.422 332.678 442.022 333.664 441.222 334.454C440.422 335.243 439.43 335.638 438.246 335.638C437.051 335.638 436.059 335.243 435.27 334.454C434.48 333.664 434.086 332.678 434.086 331.494ZM435.638 328.614V331.494C435.638 332.262 435.883 332.891 436.374 333.382C436.864 333.862 437.488 334.102 438.246 334.102C439.003 334.102 439.627 333.862 440.118 333.382C440.619 332.891 440.87 332.262 440.87 331.494V328.614C440.87 327.846 440.619 327.216 440.118 326.726C439.627 326.235 439.003 325.99 438.246 325.99C437.488 325.99 436.864 326.235 436.374 326.726C435.883 327.216 435.638 327.846 435.638 328.614ZM448.429 331.494V328.614C448.429 327.43 448.824 326.443 449.613 325.654C450.403 324.864 451.395 324.47 452.589 324.47C453.773 324.47 454.765 324.864 455.565 325.654C456.365 326.443 456.765 327.43 456.765 328.614V331.494C456.765 332.678 456.365 333.664 455.565 334.454C454.765 335.243 453.773 335.638 452.589 335.638C451.395 335.638 450.403 335.243 449.613 334.454C448.824 333.664 448.429 332.678 448.429 331.494ZM449.981 328.614V331.494C449.981 332.262 450.227 332.891 450.717 333.382C451.208 333.862 451.832 334.102 452.589 334.102C453.347 334.102 453.971 333.862 454.461 333.382C454.963 332.891 455.213 332.262 455.213 331.494V328.614C455.213 327.846 454.963 327.216 454.461 326.726C453.971 326.235 453.347 325.99 452.589 325.99C451.832 325.99 451.208 326.235 450.717 326.726C450.227 327.216 449.981 327.846 449.981 328.614ZM458.695 331.494V328.614C458.695 327.43 459.09 326.443 459.879 325.654C460.668 324.864 461.66 324.47 462.855 324.47C464.039 324.47 465.031 324.864 465.831 325.654C466.631 326.443 467.031 327.43 467.031 328.614V331.494C467.031 332.678 466.631 333.664 465.831 334.454C465.031 335.243 464.039 335.638 462.855 335.638C461.66 335.638 460.668 335.243 459.879 334.454C459.09 333.664 458.695 332.678 458.695 331.494ZM460.247 328.614V331.494C460.247 332.262 460.492 332.891 460.983 333.382C461.474 333.862 462.098 334.102 462.855 334.102C463.612 334.102 464.236 333.862 464.727 333.382C465.228 332.891 465.479 332.262 465.479 331.494V328.614C465.479 327.846 465.228 327.216 464.727 326.726C464.236 326.235 463.612 325.99 462.855 325.99C462.098 325.99 461.474 326.235 460.983 326.726C460.492 327.216 460.247 327.846 460.247 328.614Z" fill="#00479A"/>
<path d="M332.869 349.27C333.882 349.27 334.698 349.6 335.317 350.262C335.936 350.912 336.245 351.782 336.245 352.87V357.414H334.725V353.142C334.725 352.438 334.528 351.862 334.133 351.414C333.749 350.966 333.221 350.742 332.549 350.742C331.824 350.742 331.232 350.998 330.773 351.51C330.325 352.011 330.101 352.662 330.101 353.462V357.414H328.581V349.494H330.069V350.566H330.133C330.816 349.702 331.728 349.27 332.869 349.27ZM341.946 349.27C343.237 349.27 344.261 349.723 345.018 350.63C345.786 351.536 346.117 352.656 346.01 353.99H339.466C339.52 354.619 339.786 355.142 340.266 355.558C340.746 355.974 341.338 356.182 342.042 356.182C342.554 356.182 343.008 356.07 343.402 355.846C343.797 355.622 344.085 355.323 344.266 354.95H345.85C345.584 355.782 345.104 356.438 344.41 356.918C343.717 357.398 342.906 357.638 341.978 357.638C340.741 357.638 339.744 357.238 338.986 356.438C338.229 355.627 337.85 354.635 337.85 353.462C337.85 352.278 338.234 351.286 339.002 350.486C339.77 349.675 340.752 349.27 341.946 349.27ZM341.914 350.726C341.296 350.726 340.768 350.907 340.33 351.27C339.893 351.622 339.616 352.08 339.498 352.646H344.362C344.245 352.07 343.962 351.606 343.514 351.254C343.077 350.902 342.544 350.726 341.914 350.726ZM355.018 349.318L353.178 352.502C354.341 352.587 354.922 353.232 354.922 354.438V357.414H353.402V354.694C353.402 354.182 353.136 353.926 352.602 353.926H349.21V357.414H347.69V345.894H349.21V352.486H351.514L353.354 349.318H355.018ZM358.7 349.494H363.1V350.966H358.732C358.529 350.966 358.364 351.03 358.236 351.158C358.118 351.275 358.06 351.435 358.06 351.638C358.06 352.011 358.236 352.235 358.588 352.31L361.852 353.046C362.406 353.174 362.844 353.43 363.164 353.814C363.494 354.198 363.66 354.656 363.66 355.19C363.66 355.83 363.446 356.363 363.02 356.79C362.593 357.206 362.054 357.414 361.404 357.414H356.78V355.942H361.372C361.574 355.942 361.74 355.878 361.868 355.75C361.996 355.611 362.06 355.43 362.06 355.206C362.06 354.822 361.878 354.587 361.516 354.502L358.236 353.782C357.692 353.664 357.26 353.414 356.94 353.03C356.62 352.635 356.46 352.176 356.46 351.654C356.46 351.024 356.668 350.507 357.084 350.102C357.51 349.696 358.049 349.494 358.7 349.494ZM371.029 349.494V350.966H367.429V355.142C367.429 355.664 367.696 355.926 368.229 355.926H371.029V357.414H367.925C367.275 357.414 366.773 357.243 366.421 356.902C366.08 356.56 365.909 356.07 365.909 355.43V350.966H364.469V349.494H365.909V346.694H367.429V349.494H371.029ZM372.619 355.494H374.459V357.414H372.619V355.494ZM384.277 352.374H382.693C382.523 351.894 382.219 351.499 381.781 351.19C381.355 350.88 380.848 350.726 380.261 350.726C379.461 350.726 378.811 350.987 378.309 351.51C377.819 352.032 377.573 352.678 377.573 353.446C377.573 354.214 377.819 354.864 378.309 355.398C378.811 355.92 379.461 356.182 380.261 356.182C380.837 356.182 381.344 356.027 381.781 355.718C382.229 355.408 382.533 354.998 382.693 354.486H384.277C384.085 355.403 383.621 356.16 382.885 356.758C382.149 357.344 381.269 357.638 380.245 357.638C379.008 357.638 378 357.238 377.221 356.438C376.443 355.627 376.053 354.63 376.053 353.446C376.053 352.262 376.443 351.27 377.221 350.47C378 349.67 379.008 349.27 380.245 349.27C381.269 349.27 382.149 349.563 382.885 350.15C383.621 350.726 384.085 351.467 384.277 352.374ZM389.747 357.638C388.478 357.638 387.443 357.238 386.643 356.438C385.854 355.627 385.459 354.63 385.459 353.446C385.459 352.262 385.854 351.27 386.643 350.47C387.443 349.67 388.478 349.27 389.747 349.27C390.995 349.27 392.009 349.67 392.787 350.47C393.577 351.27 393.971 352.262 393.971 353.446C393.971 354.63 393.577 355.627 392.787 356.438C391.998 357.238 390.985 357.638 389.747 357.638ZM389.747 356.182C390.537 356.182 391.182 355.915 391.683 355.382C392.195 354.848 392.451 354.203 392.451 353.446C392.451 352.678 392.195 352.032 391.683 351.51C391.182 350.987 390.537 350.726 389.747 350.726C388.937 350.726 388.275 350.987 387.763 351.51C387.251 352.032 386.995 352.678 386.995 353.446C386.995 354.214 387.251 354.864 387.763 355.398C388.275 355.92 388.937 356.182 389.747 356.182ZM404.747 349.286C405.664 349.286 406.384 349.584 406.907 350.182C407.44 350.779 407.707 351.568 407.707 352.55V357.414H406.187V352.71C406.187 352.102 406.027 351.622 405.707 351.27C405.398 350.918 404.971 350.742 404.427 350.742C403.904 350.742 403.446 350.95 403.051 351.366C402.656 351.782 402.459 352.4 402.459 353.222V357.414H400.939V352.71C400.939 352.102 400.779 351.622 400.459 351.27C400.15 350.907 399.718 350.731 399.163 350.742C398.576 350.752 398.102 351.003 397.739 351.494C397.376 351.984 397.195 352.603 397.195 353.35V357.414H395.675V349.494H397.131V350.63H397.195C397.739 349.734 398.518 349.286 399.531 349.286C400.694 349.286 401.531 349.798 402.043 350.822H402.091C402.646 349.798 403.531 349.286 404.747 349.286Z" fill="#00479A"/>
<path d="M332.283 371.27C333.297 371.27 334.113 371.6 334.731 372.262C335.35 372.912 335.659 373.782 335.659 374.87V379.414H334.139V375.142C334.139 374.438 333.942 373.862 333.547 373.414C333.163 372.966 332.635 372.742 331.963 372.742C331.238 372.742 330.646 372.998 330.187 373.51C329.739 374.011 329.515 374.662 329.515 375.462V379.414H327.995V371.494H329.483V372.566H329.547C330.23 371.702 331.142 371.27 332.283 371.27ZM341.36 371.27C342.651 371.27 343.675 371.723 344.432 372.63C345.2 373.536 345.531 374.656 345.424 375.99H338.88C338.934 376.619 339.2 377.142 339.68 377.558C340.16 377.974 340.752 378.182 341.456 378.182C341.968 378.182 342.422 378.07 342.816 377.846C343.211 377.622 343.499 377.323 343.68 376.95H345.264C344.998 377.782 344.518 378.438 343.824 378.918C343.131 379.398 342.32 379.638 341.392 379.638C340.155 379.638 339.158 379.238 338.4 378.438C337.643 377.627 337.264 376.635 337.264 375.462C337.264 374.278 337.648 373.286 338.416 372.486C339.184 371.675 340.166 371.27 341.36 371.27ZM341.328 372.726C340.71 372.726 340.182 372.907 339.744 373.27C339.307 373.622 339.03 374.08 338.912 374.646H343.776C343.659 374.07 343.376 373.606 342.928 373.254C342.491 372.902 341.958 372.726 341.328 372.726ZM354.433 371.318L352.593 374.502C353.755 374.587 354.337 375.232 354.337 376.438V379.414H352.817V376.694C352.817 376.182 352.55 375.926 352.017 375.926H348.625V379.414H347.105V367.894H348.625V374.486H350.929L352.769 371.318H354.433ZM358.114 371.494H362.514V372.966H358.146C357.943 372.966 357.778 373.03 357.65 373.158C357.532 373.275 357.474 373.435 357.474 373.638C357.474 374.011 357.65 374.235 358.002 374.31L361.266 375.046C361.82 375.174 362.258 375.43 362.578 375.814C362.908 376.198 363.074 376.656 363.074 377.19C363.074 377.83 362.86 378.363 362.434 378.79C362.007 379.206 361.468 379.414 360.818 379.414H356.194V377.942H360.786C360.988 377.942 361.154 377.878 361.282 377.75C361.41 377.611 361.474 377.43 361.474 377.206C361.474 376.822 361.292 376.587 360.93 376.502L357.65 375.782C357.106 375.664 356.674 375.414 356.354 375.03C356.034 374.635 355.874 374.176 355.874 373.654C355.874 373.024 356.082 372.507 356.498 372.102C356.924 371.696 357.463 371.494 358.114 371.494ZM370.443 371.494V372.966H366.843V377.142C366.843 377.664 367.11 377.926 367.643 377.926H370.443V379.414H367.339C366.689 379.414 366.187 379.243 365.835 378.902C365.494 378.56 365.323 378.07 365.323 377.43V372.966H363.883V371.494H365.323V368.694H366.843V371.494H370.443ZM376.022 368.694H382.55C383.552 368.694 384.379 369.014 385.03 369.654C385.68 370.294 386.006 371.099 386.006 372.07V376.662C386.006 377.398 385.776 377.968 385.318 378.374C384.87 378.779 384.336 378.982 383.718 378.982C383.238 378.982 382.8 378.864 382.406 378.63C382.011 378.384 381.728 378.032 381.558 377.574C380.939 378.512 380.07 378.982 378.95 378.982C377.958 378.982 377.126 378.651 376.454 377.99C375.792 377.328 375.462 376.464 375.462 375.398C375.462 374.342 375.792 373.483 376.454 372.822C377.126 372.16 377.958 371.83 378.95 371.83C379.974 371.83 380.795 372.214 381.414 372.982V372.038H382.79V376.726C382.79 377.056 382.88 377.307 383.062 377.478C383.243 377.638 383.462 377.718 383.718 377.718C383.963 377.718 384.171 377.638 384.342 377.478C384.523 377.307 384.614 377.056 384.614 376.726V372.214C384.614 371.606 384.406 371.094 383.99 370.678C383.574 370.262 383.051 370.054 382.422 370.054H376.166C375.526 370.054 374.992 370.262 374.566 370.678C374.15 371.083 373.942 371.595 373.942 372.214V378.55C373.942 379.168 374.15 379.686 374.566 380.102C374.992 380.518 375.526 380.726 376.166 380.726H382.694V382.086H376.022C375.019 382.086 374.187 381.771 373.526 381.142C372.875 380.512 372.55 379.718 372.55 378.758V372.07C372.55 371.099 372.875 370.294 373.526 369.654C374.187 369.014 375.019 368.694 376.022 368.694ZM379.11 377.638C379.792 377.638 380.342 377.424 380.758 376.998C381.184 376.56 381.398 376.027 381.398 375.398C381.398 374.779 381.184 374.256 380.758 373.83C380.342 373.403 379.798 373.19 379.126 373.19C378.464 373.19 377.92 373.398 377.494 373.814C377.067 374.23 376.854 374.758 376.854 375.398C376.854 376.048 377.062 376.587 377.478 377.014C377.904 377.43 378.448 377.638 379.11 377.638ZM397.52 371.286C398.438 371.286 399.158 371.584 399.68 372.182C400.214 372.779 400.48 373.568 400.48 374.55V379.414H398.96V374.71C398.96 374.102 398.8 373.622 398.48 373.27C398.171 372.918 397.744 372.742 397.2 372.742C396.678 372.742 396.219 372.95 395.824 373.366C395.43 373.782 395.232 374.4 395.232 375.222V379.414H393.712V374.71C393.712 374.102 393.552 373.622 393.232 373.27C392.923 372.907 392.491 372.731 391.936 372.742C391.35 372.752 390.875 373.003 390.512 373.494C390.15 373.984 389.968 374.603 389.968 375.35V379.414H388.448V371.494H389.904V372.63H389.968C390.512 371.734 391.291 371.286 392.304 371.286C393.467 371.286 394.304 371.798 394.816 372.822H394.864C395.419 371.798 396.304 371.286 397.52 371.286ZM409.036 372.646V371.494H410.54V379.414H409.036V378.182H408.972C408.3 379.142 407.351 379.627 406.124 379.638C404.972 379.659 404.012 379.275 403.244 378.486C402.487 377.696 402.108 376.683 402.108 375.446C402.108 374.208 402.487 373.2 403.244 372.422C404.002 371.643 404.967 371.259 406.14 371.27C407.356 371.28 408.3 371.739 408.972 372.646H409.036ZM406.348 378.166C407.138 378.166 407.778 377.904 408.268 377.382C408.77 376.859 409.02 376.214 409.02 375.446C409.02 374.678 408.77 374.032 408.268 373.51C407.778 372.987 407.138 372.726 406.348 372.726C405.538 372.726 404.882 372.987 404.38 373.51C403.879 374.032 403.628 374.678 403.628 375.446C403.628 376.214 403.879 376.859 404.38 377.382C404.882 377.904 405.538 378.166 406.348 378.166ZM412.839 367.894H414.359V370.214H412.839V367.894ZM412.839 371.494H414.359V379.414H412.839V371.494ZM416.587 377.366V367.894H418.107V377.158C418.107 377.68 418.374 377.942 418.907 377.942H420.187V379.414H418.683C418.011 379.414 417.494 379.238 417.131 378.886C416.768 378.523 416.587 378.016 416.587 377.366ZM421.705 377.494H423.545V379.414H421.705V377.494ZM429.571 371.494H431.091V373.03H429.587C428.851 373.03 428.265 373.259 427.827 373.718C427.39 374.176 427.171 374.806 427.171 375.606V379.414H425.651V371.494H427.123V372.854H427.187C427.603 371.947 428.398 371.494 429.571 371.494ZM432.428 375.878V371.494H433.948V375.862C433.948 376.534 434.15 377.088 434.556 377.526C434.961 377.963 435.489 378.182 436.14 378.182C436.801 378.182 437.334 377.963 437.74 377.526C438.145 377.088 438.348 376.534 438.348 375.862V371.494H439.868V375.878C439.868 377.008 439.526 377.92 438.844 378.614C438.161 379.296 437.26 379.638 436.14 379.638C435.03 379.638 434.134 379.296 433.452 378.614C432.769 377.92 432.428 377.008 432.428 375.878Z" fill="#00479A"/>
<rect x="305.5" y="179.71" width="386" height="235" stroke="#002B5C"/>
</g>
<g filter="url(#filter1_d_303_1555)">
<rect x="813" y="3.20996" width="387" height="236" fill="white"/>
<path d="M851.763 39.9263V53.1983H853.923V59.4383H851.187V56.0063H839.475V59.4383H836.763V53.1983H837.003C837.275 53.1983 837.483 53.1903 837.627 53.1743C837.771 53.1423 837.947 53.0863 838.155 53.0063C838.363 52.9103 838.531 52.7423 838.659 52.5023C838.787 52.2623 838.891 51.9423 838.971 51.5423C839.067 51.1423 839.139 50.5823 839.187 49.8623C839.251 49.1263 839.291 48.2703 839.307 47.2943C839.339 46.3183 839.355 45.4463 839.355 44.6783C839.371 43.8943 839.379 42.9823 839.379 41.9423C839.379 40.9023 839.379 40.2303 839.379 39.9263H851.763ZM841.419 53.1983H848.883V42.7343H842.187C842.155 47.6463 842.011 50.7183 841.755 51.9503C841.643 52.4943 841.531 52.9103 841.419 53.1983ZM861.334 43.7423C863.302 43.7423 864.854 44.4383 865.99 45.8303C867.126 47.2063 867.606 48.9263 867.43 50.9903H857.998C858.11 51.7743 858.47 52.4383 859.078 52.9823C859.702 53.5103 860.47 53.7823 861.382 53.7983C862.054 53.8143 862.662 53.6863 863.206 53.4143C863.75 53.1263 864.142 52.7423 864.382 52.2623H867.238C866.854 53.5423 866.126 54.5423 865.054 55.2623C863.998 55.9823 862.758 56.3423 861.334 56.3423C859.446 56.3423 857.942 55.7343 856.822 54.5183C855.702 53.3023 855.142 51.8143 855.142 50.0543C855.142 48.2623 855.718 46.7663 856.87 45.5663C858.038 44.3503 859.526 43.7423 861.334 43.7423ZM861.286 46.2863C860.47 46.2863 859.766 46.5103 859.174 46.9583C858.598 47.4063 858.222 47.9983 858.046 48.7343H864.574C864.398 47.9823 864.014 47.3903 863.422 46.9583C862.83 46.5103 862.118 46.2863 861.286 46.2863ZM878.237 48.6143V44.0783H880.997V56.0063H878.237V51.2543H872.357V56.0063H869.597V44.0783H872.357V48.6143H878.237ZM886.677 52.0943L892.629 44.0783H895.389V56.0063H892.629V48.0143L886.677 56.0063H883.917V44.0783H886.677V52.0943ZM909.831 48.5183H906.927C906.719 47.8943 906.327 47.3903 905.751 47.0063C905.191 46.6063 904.535 46.4063 903.783 46.4063C902.711 46.4063 901.847 46.7583 901.191 47.4623C900.551 48.1503 900.231 49.0143 900.231 50.0543C900.231 51.0783 900.559 51.9423 901.215 52.6463C901.871 53.3503 902.727 53.7023 903.783 53.7023C904.535 53.7023 905.191 53.5023 905.751 53.1023C906.327 52.7023 906.719 52.1823 906.927 51.5423H909.831C909.559 52.9503 908.871 54.1023 907.767 54.9983C906.663 55.8943 905.327 56.3423 903.759 56.3423C901.887 56.3423 900.367 55.7423 899.199 54.5423C898.047 53.3423 897.471 51.8383 897.471 50.0303C897.471 48.2383 898.047 46.7423 899.199 45.5423C900.367 44.3423 901.887 43.7423 903.759 43.7423C905.327 43.7423 906.663 44.1903 907.767 45.0863C908.871 45.9663 909.559 47.1103 909.831 48.5183ZM930.648 49.6943H933.648C933.312 51.6303 932.416 53.2223 930.96 54.4703C929.504 55.7183 927.704 56.3423 925.56 56.3423C923.128 56.3423 921.144 55.5343 919.608 53.9183C918.072 52.3023 917.304 50.3263 917.304 47.9903C917.304 45.6383 918.072 43.6543 919.608 42.0383C921.144 40.4063 923.128 39.5903 925.56 39.5903C927.656 39.5903 929.432 40.1983 930.888 41.4143C932.344 42.6303 933.248 44.1903 933.6 46.0943H930.6C930.28 44.9903 929.672 44.0943 928.776 43.4063C927.88 42.7183 926.816 42.3823 925.584 42.3983C924 42.4143 922.704 42.9663 921.696 44.0543C920.704 45.1263 920.208 46.4303 920.208 47.9663C920.208 49.5023 920.704 50.8143 921.696 51.9023C922.704 52.9743 924 53.5103 925.584 53.5103C926.88 53.5103 927.976 53.1583 928.872 52.4543C929.768 51.7503 930.36 50.8303 930.648 49.6943ZM941.514 43.7423C943.482 43.7423 945.034 44.4383 946.17 45.8303C947.306 47.2063 947.786 48.9263 947.61 50.9903H938.178C938.29 51.7743 938.65 52.4383 939.258 52.9823C939.882 53.5103 940.65 53.7823 941.562 53.7983C942.234 53.8143 942.842 53.6863 943.386 53.4143C943.93 53.1263 944.322 52.7423 944.562 52.2623H947.418C947.034 53.5423 946.306 54.5423 945.234 55.2623C944.178 55.9823 942.938 56.3423 941.514 56.3423C939.626 56.3423 938.122 55.7343 937.002 54.5183C935.882 53.3023 935.322 51.8143 935.322 50.0543C935.322 48.2623 935.898 46.7663 937.05 45.5663C938.218 44.3503 939.706 43.7423 941.514 43.7423ZM941.466 46.2863C940.65 46.2863 939.946 46.5103 939.354 46.9583C938.778 47.4063 938.402 47.9983 938.226 48.7343H944.754C944.578 47.9823 944.194 47.3903 943.602 46.9583C943.01 46.5103 942.298 46.2863 941.466 46.2863ZM956.688 43.7423C958.4 43.7263 959.808 44.3103 960.912 45.4943C962.016 46.6783 962.568 48.1983 962.568 50.0543C962.568 51.9103 962.008 53.4303 960.888 54.6143C959.784 55.7983 958.384 56.3743 956.688 56.3423C955.808 56.3423 955.016 56.1583 954.312 55.7903C953.608 55.4063 953.048 54.9023 952.632 54.2783H952.512V60.8063H949.776V44.0783H952.512V45.7343H952.632C953.048 45.1423 953.608 44.6703 954.312 44.3183C955.016 43.9503 955.808 43.7583 956.688 43.7423ZM956.136 53.7023C957.208 53.7023 958.08 53.3503 958.752 52.6463C959.44 51.9423 959.784 51.0703 959.784 50.0303C959.784 48.9903 959.44 48.1183 958.752 47.4143C958.08 46.7103 957.208 46.3583 956.136 46.3583C955.08 46.3583 954.216 46.7103 953.544 47.4143C952.872 48.1183 952.536 48.9903 952.536 50.0303C952.536 51.0543 952.872 51.9263 953.544 52.6463C954.216 53.3503 955.08 53.7023 956.136 53.7023ZM970.295 43.7423C972.263 43.7423 973.815 44.4383 974.951 45.8303C976.087 47.2063 976.567 48.9263 976.391 50.9903H966.959C967.071 51.7743 967.431 52.4383 968.039 52.9823C968.663 53.5103 969.431 53.7823 970.343 53.7983C971.015 53.8143 971.623 53.6863 972.167 53.4143C972.711 53.1263 973.103 52.7423 973.343 52.2623H976.199C975.815 53.5423 975.087 54.5423 974.015 55.2623C972.959 55.9823 971.719 56.3423 970.295 56.3423C968.407 56.3423 966.903 55.7343 965.783 54.5183C964.663 53.3023 964.103 51.8143 964.103 50.0543C964.103 48.2623 964.679 46.7663 965.831 45.5663C966.999 44.3503 968.487 43.7423 970.295 43.7423ZM970.247 46.2863C969.431 46.2863 968.727 46.5103 968.135 46.9583C967.559 47.4063 967.183 47.9983 967.007 48.7343H973.535C973.359 47.9823 972.975 47.3903 972.383 46.9583C971.791 46.5103 971.079 46.2863 970.247 46.2863ZM985.277 44.5103C986.925 44.5103 988.285 45.0543 989.357 46.1423C990.429 47.2303 990.965 48.6063 990.965 50.2703C990.965 51.9983 990.381 53.4383 989.213 54.5903C988.045 55.7423 986.517 56.3183 984.629 56.3183C982.741 56.3183 981.205 55.7423 980.021 54.5903C978.853 53.4223 978.269 51.9663 978.269 50.2223V45.0623C978.269 43.1903 978.837 41.6703 979.973 40.5023C981.125 39.3183 982.629 38.7263 984.485 38.7263H989.717V41.5343H984.341C983.301 41.5343 982.461 41.8543 981.821 42.4943C981.197 43.1343 980.885 43.9743 980.885 45.0143V46.4543H980.981C981.989 45.1583 983.421 44.5103 985.277 44.5103ZM984.653 53.6783C985.693 53.6783 986.541 53.3583 987.197 52.7183C987.853 52.0623 988.181 51.2623 988.181 50.3183C988.181 49.3903 987.853 48.6143 987.197 47.9903C986.541 47.3503 985.693 47.0303 984.653 47.0303C983.581 47.0303 982.709 47.3503 982.037 47.9903C981.381 48.6143 981.053 49.3983 981.053 50.3423C981.053 51.3023 981.389 52.1023 982.061 52.7423C982.733 53.3663 983.597 53.6783 984.653 53.6783ZM999.931 43.7423C1001.64 43.7263 1003.05 44.3103 1004.15 45.4943C1005.26 46.6783 1005.81 48.1983 1005.81 50.0543C1005.81 51.9103 1005.25 53.4303 1004.13 54.6143C1003.03 55.7983 1001.63 56.3743 999.931 56.3423C999.051 56.3423 998.259 56.1583 997.555 55.7903C996.851 55.4063 996.291 54.9023 995.875 54.2783H995.755V60.8063H993.019V44.0783H995.755V45.7343H995.875C996.291 45.1423 996.851 44.6703 997.555 44.3183C998.259 43.9503 999.051 43.7583 999.931 43.7423ZM999.379 53.7023C1000.45 53.7023 1001.32 53.3503 1001.99 52.6463C1002.68 51.9423 1003.03 51.0703 1003.03 50.0303C1003.03 48.9903 1002.68 48.1183 1001.99 47.4143C1001.32 46.7103 1000.45 46.3583 999.379 46.3583C998.323 46.3583 997.459 46.7103 996.787 47.4143C996.115 48.1183 995.779 48.9903 995.779 50.0303C995.779 51.0543 996.115 51.9263 996.787 52.6463C997.459 53.3503 998.323 53.7023 999.379 53.7023ZM1018.8 44.0783V56.0063H1016.04V51.9503H1011.62C1010.82 51.9503 1010.42 52.3183 1010.42 53.0543V56.0063H1007.66V52.7663C1007.66 51.5023 1008.15 50.7263 1009.12 50.4383V50.3183C1008.18 49.7743 1007.71 48.9023 1007.71 47.7023C1007.71 46.7103 1008.07 45.8623 1008.79 45.1583C1009.52 44.4383 1010.54 44.0783 1011.84 44.0783H1018.8ZM1012.03 49.5263H1016.04V46.6703H1011.93C1011.47 46.6703 1011.1 46.8143 1010.83 47.1023C1010.57 47.3903 1010.44 47.7263 1010.44 48.1103C1010.44 48.5103 1010.59 48.8463 1010.88 49.1183C1011.18 49.3903 1011.56 49.5263 1012.03 49.5263ZM1032.99 44.0783L1030.3 48.7823C1031.07 48.8623 1031.67 49.1423 1032.12 49.6223C1032.57 50.1023 1032.79 50.7663 1032.79 51.6143V56.0063H1030.03V52.2623C1030.03 51.9423 1029.94 51.6943 1029.75 51.5183C1029.55 51.3263 1029.29 51.2303 1028.95 51.2303H1024.51V56.0063H1021.75V44.0783H1024.51V48.7583H1027.32L1029.99 44.0783H1032.99ZM1041.08 56.3423C1039.18 56.3423 1037.63 55.7423 1036.43 54.5423C1035.23 53.3263 1034.63 51.8223 1034.63 50.0303C1034.63 48.2383 1035.22 46.7423 1036.4 45.5423C1037.6 44.3423 1039.16 43.7423 1041.08 43.7423C1042.97 43.7423 1044.5 44.3423 1045.67 45.5423C1046.85 46.7423 1047.44 48.2383 1047.44 50.0303C1047.44 51.8223 1046.85 53.3263 1045.67 54.5423C1044.48 55.7423 1042.95 56.3423 1041.08 56.3423ZM1041.08 53.7023C1042.14 53.7023 1043 53.3503 1043.67 52.6463C1044.35 51.9423 1044.68 51.0783 1044.68 50.0543C1044.68 49.0143 1044.35 48.1503 1043.67 47.4623C1043 46.7583 1042.14 46.4063 1041.08 46.4063C1039.99 46.4063 1039.11 46.7583 1038.42 47.4623C1037.75 48.1503 1037.41 49.0143 1037.41 50.0543C1037.41 51.0783 1037.75 51.9423 1038.42 52.6463C1039.11 53.3503 1039.99 53.7023 1041.08 53.7023ZM1058.77 49.7663V49.8383C1059.42 50.0623 1059.91 50.4303 1060.23 50.9423C1060.55 51.4383 1060.71 51.9983 1060.71 52.6223C1060.71 53.5343 1060.39 54.3263 1059.75 54.9983C1059.11 55.6703 1058.22 56.0063 1057.09 56.0063H1049.57V44.0783H1056.58C1057.75 44.0783 1058.65 44.3903 1059.27 45.0143C1059.89 45.6383 1060.21 46.3903 1060.21 47.2703C1060.21 48.4063 1059.73 49.2383 1058.77 49.7663ZM1056.22 46.5263H1052.33V48.8303H1056.22C1056.61 48.8303 1056.9 48.7183 1057.11 48.4943C1057.33 48.2543 1057.45 47.9743 1057.45 47.6543C1057.45 47.3343 1057.34 47.0703 1057.13 46.8623C1056.93 46.6383 1056.62 46.5263 1056.22 46.5263ZM1052.33 53.5583H1056.65C1057.05 53.5583 1057.37 53.4463 1057.59 53.2223C1057.81 52.9823 1057.93 52.7023 1057.93 52.3823C1057.93 52.0623 1057.81 51.7903 1057.59 51.5663C1057.37 51.3423 1057.05 51.2303 1056.65 51.2303H1052.33V53.5583Z" fill="#00479A"/>
<path d="M846.803 80.5343V74.0863H848.323V82.0063H837.315V74.0863H838.835V80.5343H842.067V74.0863H843.587V80.5343H846.803ZM855.028 73.8623C856.201 73.8517 857.167 74.2357 857.924 75.0143C858.681 75.793 859.06 76.801 859.06 78.0383C859.06 79.2757 858.676 80.289 857.908 81.0783C857.151 81.8677 856.196 82.2517 855.044 82.2303C853.817 82.2197 852.868 81.7343 852.196 80.7743H852.132V85.2063H850.628V74.0863H852.132V75.2383H852.212C852.511 74.8223 852.9 74.4917 853.38 74.2463C853.871 74.001 854.42 73.873 855.028 73.8623ZM854.82 80.7583C855.631 80.7583 856.287 80.497 856.788 79.9743C857.289 79.4517 857.54 78.8063 857.54 78.0383C857.54 77.2703 857.289 76.625 856.788 76.1023C856.287 75.5797 855.631 75.3183 854.82 75.3183C854.031 75.3183 853.385 75.5797 852.884 76.1023C852.393 76.625 852.148 77.2703 852.148 78.0383C852.148 78.8063 852.393 79.4517 852.884 79.9743C853.385 80.497 854.031 80.7583 854.82 80.7583ZM862.289 79.8623L866.721 74.0863H868.241V82.0063H866.721V76.2463L862.289 82.0063H860.769V74.0863H862.289V79.8623ZM876.136 74.0863H878.024C878.728 74.0863 879.31 74.321 879.768 74.7903C880.238 75.249 880.472 75.8303 880.472 76.5343V79.5583C880.472 80.2623 880.238 80.849 879.768 81.3183C879.31 81.777 878.728 82.0063 878.024 82.0063H876.136V85.2063H874.616V82.0063H872.728C872.024 82.0063 871.438 81.777 870.968 81.3183C870.51 80.849 870.28 80.2623 870.28 79.5583V76.5343C870.28 75.8303 870.51 75.249 870.968 74.7903C871.438 74.321 872.024 74.0863 872.728 74.0863H874.616V71.2863H876.136V74.0863ZM872.936 80.5343H874.616V75.5583H872.936C872.606 75.5583 872.334 75.665 872.12 75.8783C871.907 76.0917 871.8 76.3637 871.8 76.6943V79.3983C871.8 79.729 871.907 80.001 872.12 80.2143C872.334 80.4277 872.606 80.5343 872.936 80.5343ZM878.952 79.3983V76.6943C878.952 76.3637 878.846 76.0917 878.632 75.8783C878.419 75.665 878.147 75.5583 877.816 75.5583H876.136V80.5343H877.816C878.147 80.5343 878.419 80.4277 878.632 80.2143C878.846 80.001 878.952 79.729 878.952 79.3983ZM888.652 74.0863V75.5583H885.852V82.0063H884.332V75.5583H881.532V74.0863H888.652ZM893.544 82.2303C892.275 82.2303 891.24 81.8303 890.44 81.0303C889.651 80.2197 889.256 79.2223 889.256 78.0383C889.256 76.8543 889.651 75.8623 890.44 75.0623C891.24 74.2623 892.275 73.8623 893.544 73.8623C894.792 73.8623 895.806 74.2623 896.584 75.0623C897.374 75.8623 897.768 76.8543 897.768 78.0383C897.768 79.2223 897.374 80.2197 896.584 81.0303C895.795 81.8303 894.782 82.2303 893.544 82.2303ZM893.544 80.7743C894.334 80.7743 894.979 80.5077 895.48 79.9743C895.992 79.441 896.248 78.7957 896.248 78.0383C896.248 77.2703 895.992 76.625 895.48 76.1023C894.979 75.5797 894.334 75.3183 893.544 75.3183C892.734 75.3183 892.072 75.5797 891.56 76.1023C891.048 76.625 890.792 77.2703 890.792 78.0383C890.792 78.8063 891.048 79.457 891.56 79.9903C892.072 80.513 892.734 80.7743 893.544 80.7743ZM905.536 77.8463V77.9103C905.941 78.0703 906.245 78.321 906.448 78.6623C906.65 79.0037 906.752 79.3717 906.752 79.7663C906.752 80.3743 906.533 80.9023 906.096 81.3503C905.669 81.7877 905.082 82.0063 904.336 82.0063H899.472V74.0863H904.048C904.805 74.0863 905.392 74.2943 905.808 74.7103C906.224 75.1263 906.432 75.6277 906.432 76.2143C906.432 76.961 906.133 77.505 905.536 77.8463ZM903.984 75.5583H900.992V77.3183H903.984C904.272 77.3183 904.496 77.233 904.656 77.0623C904.826 76.881 904.912 76.6677 904.912 76.4223C904.912 76.1877 904.832 75.985 904.672 75.8143C904.512 75.6437 904.282 75.5583 903.984 75.5583ZM900.992 80.5343H904.256C904.554 80.5343 904.789 80.449 904.96 80.2783C905.13 80.097 905.216 79.8837 905.216 79.6383C905.216 79.4037 905.13 79.201 904.96 79.0303C904.789 78.8597 904.554 78.7743 904.256 78.7743H900.992V80.5343ZM910.023 76.6783H912.679C913.426 76.6783 914.055 76.9397 914.567 77.4623C915.09 77.9743 915.351 78.593 915.351 79.3183C915.351 80.065 915.09 80.6997 914.567 81.2223C914.055 81.745 913.426 82.0063 912.679 82.0063H908.503V74.0863H910.023V76.6783ZM916.439 82.0063V74.0863H917.959V82.0063H916.439ZM910.023 80.5343H912.679C912.999 80.5343 913.271 80.417 913.495 80.1823C913.719 79.9477 913.831 79.6597 913.831 79.3183C913.831 78.9983 913.719 78.7263 913.495 78.5023C913.271 78.2677 912.999 78.1503 912.679 78.1503H910.023V80.5343ZM925.149 72.8063H922.749C922.375 72.8063 922.061 72.6837 921.805 72.4383C921.559 72.1823 921.437 71.8677 921.437 71.4943V70.4863H922.717V71.2383C922.717 71.3557 922.754 71.457 922.829 71.5423C922.914 71.617 923.01 71.6543 923.117 71.6543H924.781C924.887 71.6543 924.978 71.617 925.053 71.5423C925.138 71.457 925.181 71.3557 925.181 71.2383V70.4863H926.461V71.4943C926.461 71.8677 926.333 72.1823 926.077 72.4383C925.831 72.6837 925.522 72.8063 925.149 72.8063ZM921.789 79.8623L926.221 74.0863H927.741V82.0063H926.221V76.2463L921.789 82.0063H920.269V74.0863H921.789V79.8623ZM941.426 74.0863V80.5343H942.77V84.0063H941.282V82.0063H934.754V84.0063H933.266V80.5343H933.362C933.543 80.5343 933.682 80.529 933.778 80.5183C933.885 80.497 934.013 80.449 934.162 80.3743C934.322 80.289 934.445 80.1397 934.53 79.9263C934.626 79.713 934.685 79.4357 934.706 79.0943C934.738 78.689 934.754 77.0197 934.754 74.0863H941.426ZM935.858 80.5343H939.906V75.5583H936.242C936.242 77.0517 936.221 78.1823 936.178 78.9503C936.146 79.5583 936.039 80.0863 935.858 80.5343ZM945.773 79.8623L950.205 74.0863H951.725V82.0063H950.205V76.2463L945.773 82.0063H944.253V74.0863H945.773V79.8623ZM959.378 77.9103V77.9743C959.752 78.1023 960.034 78.3317 960.226 78.6623C960.429 78.993 960.53 79.3557 960.53 79.7503C960.53 80.3583 960.312 80.8863 959.874 81.3343C959.448 81.7823 958.861 82.0063 958.114 82.0063H953.522V80.5343H958.034C958.333 80.5343 958.568 80.449 958.738 80.2783C958.909 80.097 958.994 79.8837 958.994 79.6383C958.994 79.4037 958.909 79.201 958.738 79.0303C958.568 78.8597 958.333 78.7743 958.034 78.7743H954.722V77.3343H957.922C958.21 77.3343 958.434 77.249 958.594 77.0783C958.765 76.897 958.85 76.6837 958.85 76.4383C958.85 76.2037 958.77 76.001 958.61 75.8303C958.45 75.649 958.221 75.5583 957.922 75.5583H953.522V74.0863H957.986C958.744 74.0863 959.33 74.2997 959.746 74.7263C960.162 75.1423 960.37 75.6437 960.37 76.2303C960.37 76.593 960.285 76.929 960.114 77.2383C959.944 77.5477 959.698 77.7717 959.378 77.9103ZM968.763 75.2383V74.0863H970.267V82.0063H968.763V80.7743H968.699C968.027 81.7343 967.077 82.2197 965.851 82.2303C964.699 82.2517 963.739 81.8677 962.971 81.0783C962.213 80.289 961.835 79.2757 961.835 78.0383C961.835 76.801 962.213 75.793 962.971 75.0143C963.728 74.2357 964.693 73.8517 965.867 73.8623C967.083 73.873 968.027 74.3317 968.699 75.2383H968.763ZM966.075 80.7583C966.864 80.7583 967.504 80.497 967.995 79.9743C968.496 79.4517 968.747 78.8063 968.747 78.0383C968.747 77.2703 968.496 76.625 967.995 76.1023C967.504 75.5797 966.864 75.3183 966.075 75.3183C965.264 75.3183 964.608 75.5797 964.107 76.1023C963.605 76.625 963.355 77.2703 963.355 78.0383C963.355 78.8063 963.605 79.4517 964.107 79.9743C964.608 80.497 965.264 80.7583 966.075 80.7583ZM977.445 72.8063H975.045C974.672 72.8063 974.357 72.6837 974.101 72.4383C973.856 72.1823 973.733 71.8677 973.733 71.4943V70.4863H975.013V71.2383C975.013 71.3557 975.051 71.457 975.125 71.5423C975.211 71.617 975.307 71.6543 975.413 71.6543H977.077C977.184 71.6543 977.275 71.617 977.349 71.5423C977.435 71.457 977.477 71.3557 977.477 71.2383V70.4863H978.757V71.4943C978.757 71.8677 978.629 72.1823 978.373 72.4383C978.128 72.6837 977.819 72.8063 977.445 72.8063ZM974.085 79.8623L978.517 74.0863H980.037V82.0063H978.517V76.2463L974.085 82.0063H972.565V74.0863H974.085V79.8623ZM988.315 77.2223V74.0863H989.835V82.0063H988.315V78.6943H983.867V82.0063H982.347V74.0863H983.867V77.2223H988.315ZM995.649 73.8623C996.94 73.8623 997.964 74.3157 998.721 75.2223C999.489 76.129 999.82 77.249 999.713 78.5823H993.169C993.223 79.2117 993.489 79.7343 993.969 80.1503C994.449 80.5663 995.041 80.7743 995.745 80.7743C996.257 80.7743 996.711 80.6623 997.105 80.4383C997.5 80.2143 997.788 79.9157 997.969 79.5423H999.553C999.287 80.3743 998.807 81.0303 998.113 81.5103C997.42 81.9903 996.609 82.2303 995.681 82.2303C994.444 82.2303 993.447 81.8303 992.689 81.0303C991.932 80.2197 991.553 79.2277 991.553 78.0543C991.553 76.8703 991.937 75.8783 992.705 75.0783C993.473 74.2677 994.455 73.8623 995.649 73.8623ZM995.617 75.3183C994.999 75.3183 994.471 75.4997 994.033 75.8623C993.596 76.2143 993.319 76.673 993.201 77.2383H998.065C997.948 76.6623 997.665 76.1983 997.217 75.8463C996.78 75.4943 996.247 75.3183 995.617 75.3183ZM1005.82 73.8623C1007 73.8517 1007.96 74.2357 1008.72 75.0143C1009.48 75.793 1009.86 76.801 1009.86 78.0383C1009.86 79.2757 1009.47 80.289 1008.7 81.0783C1007.95 81.8677 1006.99 82.2517 1005.84 82.2303C1004.61 82.2197 1003.66 81.7343 1002.99 80.7743H1002.93V85.2063H1001.42V74.0863H1002.93V75.2383H1003.01C1003.31 74.8223 1003.7 74.4917 1004.18 74.2463C1004.67 74.001 1005.22 73.873 1005.82 73.8623ZM1005.62 80.7583C1006.43 80.7583 1007.08 80.497 1007.58 79.9743C1008.09 79.4517 1008.34 78.8063 1008.34 78.0383C1008.34 77.2703 1008.09 76.625 1007.58 76.1023C1007.08 75.5797 1006.43 75.3183 1005.62 75.3183C1004.83 75.3183 1004.18 75.5797 1003.68 76.1023C1003.19 76.625 1002.94 77.2703 1002.94 78.0383C1002.94 78.8063 1003.19 79.4517 1003.68 79.9743C1004.18 80.497 1004.83 80.7583 1005.62 80.7583Z" fill="#00479A"/>
<path d="M841.428 153.51H844.548V154.95H841.428V158.07H839.988V154.95H836.868V153.51H839.988V150.39H841.428V153.51ZM850.153 150.214V148.694H857.481V149.894L853.033 159.414H851.305L855.673 150.214H850.153ZM871.182 152.054C871.182 152.278 871.155 152.512 871.102 152.758L870.174 157.526C869.939 158.784 869.081 159.414 867.598 159.414H864.03V157.894H867.566C867.907 157.894 868.169 157.83 868.35 157.702C868.531 157.574 868.654 157.355 868.718 157.046L869.15 154.87H869.102C868.387 155.371 867.598 155.622 866.734 155.622C865.507 155.632 864.537 155.312 863.822 154.662C863.107 154 862.75 153.142 862.75 152.086C862.75 151.03 863.134 150.166 863.902 149.494C864.681 148.822 865.683 148.486 866.91 148.486C868.211 148.486 869.246 148.822 870.014 149.494C870.793 150.155 871.182 151.008 871.182 152.054ZM868.91 153.574C869.39 153.19 869.63 152.683 869.63 152.054C869.63 151.424 869.395 150.928 868.926 150.566C868.467 150.192 867.795 150.006 866.91 150.006C866.11 150.006 865.475 150.198 865.006 150.582C864.537 150.966 864.302 151.467 864.302 152.086C864.302 152.704 864.542 153.206 865.022 153.59C865.513 153.963 866.169 154.15 866.99 154.15C867.79 154.15 868.43 153.958 868.91 153.574ZM872.738 156.406C872.738 155.819 872.903 155.302 873.234 154.854C873.564 154.395 874.039 154.054 874.658 153.83V153.798C874.114 153.574 873.698 153.259 873.41 152.854C873.132 152.438 872.994 151.963 872.994 151.43C872.994 150.544 873.367 149.83 874.114 149.286C874.871 148.742 875.831 148.47 876.994 148.47C878.156 148.47 879.116 148.742 879.874 149.286C880.631 149.819 881.01 150.534 881.01 151.43C881.01 151.963 880.866 152.438 880.578 152.854C880.29 153.259 879.874 153.574 879.33 153.798V153.83C879.948 154.054 880.423 154.395 880.754 154.854C881.095 155.302 881.266 155.819 881.266 156.406C881.266 157.366 880.86 158.144 880.05 158.742C879.239 159.328 878.22 159.622 876.994 159.622C875.778 159.622 874.764 159.323 873.954 158.726C873.143 158.128 872.738 157.355 872.738 156.406ZM874.562 151.542C874.562 152 874.786 152.374 875.234 152.662C875.682 152.939 876.268 153.078 876.994 153.078C877.719 153.078 878.306 152.939 878.754 152.662C879.212 152.374 879.442 152 879.442 151.542C879.442 151.072 879.218 150.699 878.77 150.422C878.322 150.134 877.73 149.99 876.994 149.99C876.258 149.99 875.666 150.134 875.218 150.422C874.78 150.699 874.562 151.072 874.562 151.542ZM875.042 155.062C874.551 155.371 874.306 155.792 874.306 156.326C874.306 156.859 874.556 157.291 875.058 157.622C875.57 157.942 876.215 158.102 876.994 158.102C877.794 158.102 878.444 157.942 878.946 157.622C879.447 157.291 879.698 156.859 879.698 156.326C879.698 155.803 879.447 155.387 878.946 155.078C878.444 154.758 877.794 154.598 876.994 154.598C876.194 154.598 875.543 154.752 875.042 155.062ZM891.135 152.054C891.135 152.278 891.108 152.512 891.055 152.758L890.127 157.526C889.892 158.784 889.034 159.414 887.551 159.414H883.983V157.894H887.519C887.86 157.894 888.122 157.83 888.303 157.702C888.484 157.574 888.607 157.355 888.671 157.046L889.103 154.87H889.055C888.34 155.371 887.551 155.622 886.687 155.622C885.46 155.632 884.49 155.312 883.775 154.662C883.06 154 882.703 153.142 882.703 152.086C882.703 151.03 883.087 150.166 883.855 149.494C884.634 148.822 885.636 148.486 886.863 148.486C888.164 148.486 889.199 148.822 889.967 149.494C890.746 150.155 891.135 151.008 891.135 152.054ZM888.863 153.574C889.343 153.19 889.583 152.683 889.583 152.054C889.583 151.424 889.348 150.928 888.879 150.566C888.42 150.192 887.748 150.006 886.863 150.006C886.063 150.006 885.428 150.198 884.959 150.582C884.49 150.966 884.255 151.467 884.255 152.086C884.255 152.704 884.495 153.206 884.975 153.59C885.466 153.963 886.122 154.15 886.943 154.15C887.743 154.15 888.383 153.958 888.863 153.574ZM896.945 155.494V152.614C896.945 151.43 897.34 150.443 898.129 149.654C898.918 148.864 899.91 148.47 901.105 148.47C902.289 148.47 903.281 148.864 904.081 149.654C904.881 150.443 905.281 151.43 905.281 152.614V155.494C905.281 156.678 904.881 157.664 904.081 158.454C903.281 159.243 902.289 159.638 901.105 159.638C899.91 159.638 898.918 159.243 898.129 158.454C897.34 157.664 896.945 156.678 896.945 155.494ZM898.497 152.614V155.494C898.497 156.262 898.742 156.891 899.233 157.382C899.724 157.862 900.348 158.102 901.105 158.102C901.862 158.102 902.486 157.862 902.977 157.382C903.478 156.891 903.729 156.262 903.729 155.494V152.614C903.729 151.846 903.478 151.216 902.977 150.726C902.486 150.235 901.862 149.99 901.105 149.99C900.348 149.99 899.724 150.235 899.233 150.726C898.742 151.216 898.497 151.846 898.497 152.614ZM907.211 155.494V152.614C907.211 151.43 907.605 150.443 908.395 149.654C909.184 148.864 910.176 148.47 911.371 148.47C912.555 148.47 913.547 148.864 914.347 149.654C915.147 150.443 915.547 151.43 915.547 152.614V155.494C915.547 156.678 915.147 157.664 914.347 158.454C913.547 159.243 912.555 159.638 911.371 159.638C910.176 159.638 909.184 159.243 908.395 158.454C907.605 157.664 907.211 156.678 907.211 155.494ZM908.763 152.614V155.494C908.763 156.262 909.008 156.891 909.499 157.382C909.989 157.862 910.613 158.102 911.371 158.102C912.128 158.102 912.752 157.862 913.243 157.382C913.744 156.891 913.995 156.262 913.995 155.494V152.614C913.995 151.846 913.744 151.216 913.243 150.726C912.752 150.235 912.128 149.99 911.371 149.99C910.613 149.99 909.989 150.235 909.499 150.726C909.008 151.216 908.763 151.846 908.763 152.614ZM917.476 155.494V152.614C917.476 151.43 917.871 150.443 918.66 149.654C919.45 148.864 920.442 148.47 921.636 148.47C922.82 148.47 923.812 148.864 924.612 149.654C925.412 150.443 925.812 151.43 925.812 152.614V155.494C925.812 156.678 925.412 157.664 924.612 158.454C923.812 159.243 922.82 159.638 921.636 159.638C920.442 159.638 919.45 159.243 918.66 158.454C917.871 157.664 917.476 156.678 917.476 155.494ZM919.028 152.614V155.494C919.028 156.262 919.274 156.891 919.764 157.382C920.255 157.862 920.879 158.102 921.636 158.102C922.394 158.102 923.018 157.862 923.508 157.382C924.01 156.891 924.26 156.262 924.26 155.494V152.614C924.26 151.846 924.01 151.216 923.508 150.726C923.018 150.235 922.394 149.99 921.636 149.99C920.879 149.99 920.255 150.235 919.764 150.726C919.274 151.216 919.028 151.846 919.028 152.614ZM931.82 155.494V152.614C931.82 151.43 932.215 150.443 933.004 149.654C933.793 148.864 934.785 148.47 935.98 148.47C937.164 148.47 938.156 148.864 938.956 149.654C939.756 150.443 940.156 151.43 940.156 152.614V155.494C940.156 156.678 939.756 157.664 938.956 158.454C938.156 159.243 937.164 159.638 935.98 159.638C934.785 159.638 933.793 159.243 933.004 158.454C932.215 157.664 931.82 156.678 931.82 155.494ZM933.372 152.614V155.494C933.372 156.262 933.617 156.891 934.108 157.382C934.599 157.862 935.223 158.102 935.98 158.102C936.737 158.102 937.361 157.862 937.852 157.382C938.353 156.891 938.604 156.262 938.604 155.494V152.614C938.604 151.846 938.353 151.216 937.852 150.726C937.361 150.235 936.737 149.99 935.98 149.99C935.223 149.99 934.599 150.235 934.108 150.726C933.617 151.216 933.372 151.846 933.372 152.614ZM942.086 155.494V152.614C942.086 151.43 942.48 150.443 943.27 149.654C944.059 148.864 945.051 148.47 946.246 148.47C947.43 148.47 948.422 148.864 949.222 149.654C950.022 150.443 950.422 151.43 950.422 152.614V155.494C950.422 156.678 950.022 157.664 949.222 158.454C948.422 159.243 947.43 159.638 946.246 159.638C945.051 159.638 944.059 159.243 943.27 158.454C942.48 157.664 942.086 156.678 942.086 155.494ZM943.638 152.614V155.494C943.638 156.262 943.883 156.891 944.374 157.382C944.864 157.862 945.488 158.102 946.246 158.102C947.003 158.102 947.627 157.862 948.118 157.382C948.619 156.891 948.87 156.262 948.87 155.494V152.614C948.87 151.846 948.619 151.216 948.118 150.726C947.627 150.235 947.003 149.99 946.246 149.99C945.488 149.99 944.864 150.235 944.374 150.726C943.883 151.216 943.638 151.846 943.638 152.614ZM956.429 155.494V152.614C956.429 151.43 956.824 150.443 957.613 149.654C958.403 148.864 959.395 148.47 960.589 148.47C961.773 148.47 962.765 148.864 963.565 149.654C964.365 150.443 964.765 151.43 964.765 152.614V155.494C964.765 156.678 964.365 157.664 963.565 158.454C962.765 159.243 961.773 159.638 960.589 159.638C959.395 159.638 958.403 159.243 957.613 158.454C956.824 157.664 956.429 156.678 956.429 155.494ZM957.981 152.614V155.494C957.981 156.262 958.227 156.891 958.717 157.382C959.208 157.862 959.832 158.102 960.589 158.102C961.347 158.102 961.971 157.862 962.461 157.382C962.963 156.891 963.213 156.262 963.213 155.494V152.614C963.213 151.846 962.963 151.216 962.461 150.726C961.971 150.235 961.347 149.99 960.589 149.99C959.832 149.99 959.208 150.235 958.717 150.726C958.227 151.216 957.981 151.846 957.981 152.614ZM966.695 155.494V152.614C966.695 151.43 967.09 150.443 967.879 149.654C968.668 148.864 969.66 148.47 970.855 148.47C972.039 148.47 973.031 148.864 973.831 149.654C974.631 150.443 975.031 151.43 975.031 152.614V155.494C975.031 156.678 974.631 157.664 973.831 158.454C973.031 159.243 972.039 159.638 970.855 159.638C969.66 159.638 968.668 159.243 967.879 158.454C967.09 157.664 966.695 156.678 966.695 155.494ZM968.247 152.614V155.494C968.247 156.262 968.492 156.891 968.983 157.382C969.474 157.862 970.098 158.102 970.855 158.102C971.612 158.102 972.236 157.862 972.727 157.382C973.228 156.891 973.479 156.262 973.479 155.494V152.614C973.479 151.846 973.228 151.216 972.727 150.726C972.236 150.235 971.612 149.99 970.855 149.99C970.098 149.99 969.474 150.235 968.983 150.726C968.492 151.216 968.247 151.846 968.247 152.614Z" fill="#00479A"/>
<path d="M840.869 173.27C841.882 173.27 842.698 173.6 843.317 174.262C843.936 174.912 844.245 175.782 844.245 176.87V181.414H842.725V177.142C842.725 176.438 842.528 175.862 842.133 175.414C841.749 174.966 841.221 174.742 840.549 174.742C839.824 174.742 839.232 174.998 838.773 175.51C838.325 176.011 838.101 176.662 838.101 177.462V181.414H836.581V173.494H838.069V174.566H838.133C838.816 173.702 839.728 173.27 840.869 173.27ZM849.946 173.27C851.237 173.27 852.261 173.723 853.018 174.63C853.786 175.536 854.117 176.656 854.01 177.99H847.466C847.52 178.619 847.786 179.142 848.266 179.558C848.746 179.974 849.338 180.182 850.042 180.182C850.554 180.182 851.008 180.07 851.402 179.846C851.797 179.622 852.085 179.323 852.266 178.95H853.85C853.584 179.782 853.104 180.438 852.41 180.918C851.717 181.398 850.906 181.638 849.978 181.638C848.741 181.638 847.744 181.238 846.986 180.438C846.229 179.627 845.85 178.635 845.85 177.462C845.85 176.278 846.234 175.286 847.002 174.486C847.77 173.675 848.752 173.27 849.946 173.27ZM849.914 174.726C849.296 174.726 848.768 174.907 848.33 175.27C847.893 175.622 847.616 176.08 847.498 176.646H852.362C852.245 176.07 851.962 175.606 851.514 175.254C851.077 174.902 850.544 174.726 849.914 174.726ZM863.018 173.318L861.178 176.502C862.341 176.587 862.922 177.232 862.922 178.438V181.414H861.402V178.694C861.402 178.182 861.136 177.926 860.602 177.926H857.21V181.414H855.69V169.894H857.21V176.486H859.514L861.354 173.318H863.018ZM866.7 173.494H871.1V174.966H866.732C866.529 174.966 866.364 175.03 866.236 175.158C866.118 175.275 866.06 175.435 866.06 175.638C866.06 176.011 866.236 176.235 866.588 176.31L869.852 177.046C870.406 177.174 870.844 177.43 871.164 177.814C871.494 178.198 871.66 178.656 871.66 179.19C871.66 179.83 871.446 180.363 871.02 180.79C870.593 181.206 870.054 181.414 869.404 181.414H864.78V179.942H869.372C869.574 179.942 869.74 179.878 869.868 179.75C869.996 179.611 870.06 179.43 870.06 179.206C870.06 178.822 869.878 178.587 869.516 178.502L866.236 177.782C865.692 177.664 865.26 177.414 864.94 177.03C864.62 176.635 864.46 176.176 864.46 175.654C864.46 175.024 864.668 174.507 865.084 174.102C865.51 173.696 866.049 173.494 866.7 173.494ZM879.029 173.494V174.966H875.429V179.142C875.429 179.664 875.696 179.926 876.229 179.926H879.029V181.414H875.925C875.275 181.414 874.773 181.243 874.421 180.902C874.08 180.56 873.909 180.07 873.909 179.43V174.966H872.469V173.494H873.909V170.694H875.429V173.494H879.029ZM880.619 179.494H882.459V181.414H880.619V179.494ZM892.277 176.374H890.693C890.523 175.894 890.219 175.499 889.781 175.19C889.355 174.88 888.848 174.726 888.261 174.726C887.461 174.726 886.811 174.987 886.309 175.51C885.819 176.032 885.573 176.678 885.573 177.446C885.573 178.214 885.819 178.864 886.309 179.398C886.811 179.92 887.461 180.182 888.261 180.182C888.837 180.182 889.344 180.027 889.781 179.718C890.229 179.408 890.533 178.998 890.693 178.486H892.277C892.085 179.403 891.621 180.16 890.885 180.758C890.149 181.344 889.269 181.638 888.245 181.638C887.008 181.638 886 181.238 885.221 180.438C884.443 179.627 884.053 178.63 884.053 177.446C884.053 176.262 884.443 175.27 885.221 174.47C886 173.67 887.008 173.27 888.245 173.27C889.269 173.27 890.149 173.563 890.885 174.15C891.621 174.726 892.085 175.467 892.277 176.374ZM897.747 181.638C896.478 181.638 895.443 181.238 894.643 180.438C893.854 179.627 893.459 178.63 893.459 177.446C893.459 176.262 893.854 175.27 894.643 174.47C895.443 173.67 896.478 173.27 897.747 173.27C898.995 173.27 900.009 173.67 900.787 174.47C901.577 175.27 901.971 176.262 901.971 177.446C901.971 178.63 901.577 179.627 900.787 180.438C899.998 181.238 898.985 181.638 897.747 181.638ZM897.747 180.182C898.537 180.182 899.182 179.915 899.683 179.382C900.195 178.848 900.451 178.203 900.451 177.446C900.451 176.678 900.195 176.032 899.683 175.51C899.182 174.987 898.537 174.726 897.747 174.726C896.937 174.726 896.275 174.987 895.763 175.51C895.251 176.032 894.995 176.678 894.995 177.446C894.995 178.214 895.251 178.864 895.763 179.398C896.275 179.92 896.937 180.182 897.747 180.182ZM912.747 173.286C913.664 173.286 914.384 173.584 914.907 174.182C915.44 174.779 915.707 175.568 915.707 176.55V181.414H914.187V176.71C914.187 176.102 914.027 175.622 913.707 175.27C913.398 174.918 912.971 174.742 912.427 174.742C911.904 174.742 911.446 174.95 911.051 175.366C910.656 175.782 910.459 176.4 910.459 177.222V181.414H908.939V176.71C908.939 176.102 908.779 175.622 908.459 175.27C908.15 174.907 907.718 174.731 907.163 174.742C906.576 174.752 906.102 175.003 905.739 175.494C905.376 175.984 905.195 176.603 905.195 177.35V181.414H903.675V173.494H905.131V174.63H905.195C905.739 173.734 906.518 173.286 907.531 173.286C908.694 173.286 909.531 173.798 910.043 174.822H910.091C910.646 173.798 911.531 173.286 912.747 173.286Z" fill="#00479A"/>
<path d="M840.283 195.27C841.297 195.27 842.113 195.6 842.731 196.262C843.35 196.912 843.659 197.782 843.659 198.87V203.414H842.139V199.142C842.139 198.438 841.942 197.862 841.547 197.414C841.163 196.966 840.635 196.742 839.963 196.742C839.238 196.742 838.646 196.998 838.187 197.51C837.739 198.011 837.515 198.662 837.515 199.462V203.414H835.995V195.494H837.483V196.566H837.547C838.23 195.702 839.142 195.27 840.283 195.27ZM849.36 195.27C850.651 195.27 851.675 195.723 852.432 196.63C853.2 197.536 853.531 198.656 853.424 199.99H846.88C846.934 200.619 847.2 201.142 847.68 201.558C848.16 201.974 848.752 202.182 849.456 202.182C849.968 202.182 850.422 202.07 850.816 201.846C851.211 201.622 851.499 201.323 851.68 200.95H853.264C852.998 201.782 852.518 202.438 851.824 202.918C851.131 203.398 850.32 203.638 849.392 203.638C848.155 203.638 847.158 203.238 846.4 202.438C845.643 201.627 845.264 200.635 845.264 199.462C845.264 198.278 845.648 197.286 846.416 196.486C847.184 195.675 848.166 195.27 849.36 195.27ZM849.328 196.726C848.71 196.726 848.182 196.907 847.744 197.27C847.307 197.622 847.03 198.08 846.912 198.646H851.776C851.659 198.07 851.376 197.606 850.928 197.254C850.491 196.902 849.958 196.726 849.328 196.726ZM862.433 195.318L860.593 198.502C861.755 198.587 862.337 199.232 862.337 200.438V203.414H860.817V200.694C860.817 200.182 860.55 199.926 860.017 199.926H856.625V203.414H855.105V191.894H856.625V198.486H858.929L860.769 195.318H862.433ZM866.114 195.494H870.514V196.966H866.146C865.943 196.966 865.778 197.03 865.65 197.158C865.532 197.275 865.474 197.435 865.474 197.638C865.474 198.011 865.65 198.235 866.002 198.31L869.266 199.046C869.82 199.174 870.258 199.43 870.578 199.814C870.908 200.198 871.074 200.656 871.074 201.19C871.074 201.83 870.86 202.363 870.434 202.79C870.007 203.206 869.468 203.414 868.818 203.414H864.194V201.942H868.786C868.988 201.942 869.154 201.878 869.282 201.75C869.41 201.611 869.474 201.43 869.474 201.206C869.474 200.822 869.292 200.587 868.93 200.502L865.65 199.782C865.106 199.664 864.674 199.414 864.354 199.03C864.034 198.635 863.874 198.176 863.874 197.654C863.874 197.024 864.082 196.507 864.498 196.102C864.924 195.696 865.463 195.494 866.114 195.494ZM878.443 195.494V196.966H874.843V201.142C874.843 201.664 875.11 201.926 875.643 201.926H878.443V203.414H875.339C874.689 203.414 874.187 203.243 873.835 202.902C873.494 202.56 873.323 202.07 873.323 201.43V196.966H871.883V195.494H873.323V192.694H874.843V195.494H878.443ZM884.022 192.694H890.55C891.552 192.694 892.379 193.014 893.03 193.654C893.68 194.294 894.006 195.099 894.006 196.07V200.662C894.006 201.398 893.776 201.968 893.318 202.374C892.87 202.779 892.336 202.982 891.718 202.982C891.238 202.982 890.8 202.864 890.406 202.63C890.011 202.384 889.728 202.032 889.558 201.574C888.939 202.512 888.07 202.982 886.95 202.982C885.958 202.982 885.126 202.651 884.454 201.99C883.792 201.328 883.462 200.464 883.462 199.398C883.462 198.342 883.792 197.483 884.454 196.822C885.126 196.16 885.958 195.83 886.95 195.83C887.974 195.83 888.795 196.214 889.414 196.982V196.038H890.79V200.726C890.79 201.056 890.88 201.307 891.062 201.478C891.243 201.638 891.462 201.718 891.718 201.718C891.963 201.718 892.171 201.638 892.342 201.478C892.523 201.307 892.614 201.056 892.614 200.726V196.214C892.614 195.606 892.406 195.094 891.99 194.678C891.574 194.262 891.051 194.054 890.422 194.054H884.166C883.526 194.054 882.992 194.262 882.566 194.678C882.15 195.083 881.942 195.595 881.942 196.214V202.55C881.942 203.168 882.15 203.686 882.566 204.102C882.992 204.518 883.526 204.726 884.166 204.726H890.694V206.086H884.022C883.019 206.086 882.187 205.771 881.526 205.142C880.875 204.512 880.55 203.718 880.55 202.758V196.07C880.55 195.099 880.875 194.294 881.526 193.654C882.187 193.014 883.019 192.694 884.022 192.694ZM887.11 201.638C887.792 201.638 888.342 201.424 888.758 200.998C889.184 200.56 889.398 200.027 889.398 199.398C889.398 198.779 889.184 198.256 888.758 197.83C888.342 197.403 887.798 197.19 887.126 197.19C886.464 197.19 885.92 197.398 885.494 197.814C885.067 198.23 884.854 198.758 884.854 199.398C884.854 200.048 885.062 200.587 885.478 201.014C885.904 201.43 886.448 201.638 887.11 201.638ZM905.52 195.286C906.438 195.286 907.158 195.584 907.68 196.182C908.214 196.779 908.48 197.568 908.48 198.55V203.414H906.96V198.71C906.96 198.102 906.8 197.622 906.48 197.27C906.171 196.918 905.744 196.742 905.2 196.742C904.678 196.742 904.219 196.95 903.824 197.366C903.43 197.782 903.232 198.4 903.232 199.222V203.414H901.712V198.71C901.712 198.102 901.552 197.622 901.232 197.27C900.923 196.907 900.491 196.731 899.936 196.742C899.35 196.752 898.875 197.003 898.512 197.494C898.15 197.984 897.968 198.603 897.968 199.35V203.414H896.448V195.494H897.904V196.63H897.968C898.512 195.734 899.291 195.286 900.304 195.286C901.467 195.286 902.304 195.798 902.816 196.822H902.864C903.419 195.798 904.304 195.286 905.52 195.286ZM917.036 196.646V195.494H918.54V203.414H917.036V202.182H916.972C916.3 203.142 915.351 203.627 914.124 203.638C912.972 203.659 912.012 203.275 911.244 202.486C910.487 201.696 910.108 200.683 910.108 199.446C910.108 198.208 910.487 197.2 911.244 196.422C912.002 195.643 912.967 195.259 914.14 195.27C915.356 195.28 916.3 195.739 916.972 196.646H917.036ZM914.348 202.166C915.138 202.166 915.778 201.904 916.268 201.382C916.77 200.859 917.02 200.214 917.02 199.446C917.02 198.678 916.77 198.032 916.268 197.51C915.778 196.987 915.138 196.726 914.348 196.726C913.538 196.726 912.882 196.987 912.38 197.51C911.879 198.032 911.628 198.678 911.628 199.446C911.628 200.214 911.879 200.859 912.38 201.382C912.882 201.904 913.538 202.166 914.348 202.166ZM920.839 191.894H922.359V194.214H920.839V191.894ZM920.839 195.494H922.359V203.414H920.839V195.494ZM924.587 201.366V191.894H926.107V201.158C926.107 201.68 926.374 201.942 926.907 201.942H928.187V203.414H926.683C926.011 203.414 925.494 203.238 925.131 202.886C924.768 202.523 924.587 202.016 924.587 201.366ZM929.705 201.494H931.545V203.414H929.705V201.494ZM937.571 195.494H939.091V197.03H937.587C936.851 197.03 936.265 197.259 935.827 197.718C935.39 198.176 935.171 198.806 935.171 199.606V203.414H933.651V195.494H935.123V196.854H935.187C935.603 195.947 936.398 195.494 937.571 195.494ZM940.428 199.878V195.494H941.948V199.862C941.948 200.534 942.15 201.088 942.556 201.526C942.961 201.963 943.489 202.182 944.14 202.182C944.801 202.182 945.334 201.963 945.74 201.526C946.145 201.088 946.348 200.534 946.348 199.862V195.494H947.868V199.878C947.868 201.008 947.526 201.92 946.844 202.614C946.161 203.296 945.26 203.638 944.14 203.638C943.03 203.638 942.134 203.296 941.452 202.614C940.769 201.92 940.428 201.008 940.428 199.878Z" fill="#00479A"/>
<rect x="813.5" y="3.70996" width="386" height="235" stroke="#002B5C"/>
</g>
<rect width="387" height="236" transform="translate(543 95.8833)" fill="#2858FF"/>
<path d="M681.391 219.775V189.503H689.071V232.383H681.391L657.391 200.127V232.383H649.711V189.503H658.671L681.391 219.775ZM711.216 199.679C716.464 199.679 720.603 201.535 723.632 205.247C726.662 208.917 727.942 213.503 727.472 219.007H702.32C702.619 221.098 703.579 222.869 705.2 224.319C706.864 225.727 708.912 226.453 711.344 226.495C713.136 226.538 714.758 226.197 716.208 225.471C717.659 224.703 718.704 223.679 719.344 222.399H726.96C725.936 225.813 723.995 228.479 721.136 230.399C718.32 232.319 715.014 233.279 711.216 233.279C706.182 233.279 702.171 231.658 699.184 228.415C696.198 225.173 694.704 221.205 694.704 216.511C694.704 211.733 696.24 207.743 699.312 204.543C702.427 201.301 706.395 199.679 711.216 199.679ZM711.088 206.463C708.912 206.463 707.035 207.061 705.456 208.255C703.92 209.45 702.918 211.029 702.448 212.991H719.856C719.387 210.986 718.363 209.407 716.784 208.255C715.206 207.061 713.307 206.463 711.088 206.463ZM763.206 200.127L756.166 212.287C758.214 212.501 759.814 213.269 760.966 214.591C762.16 215.871 762.758 217.621 762.758 219.839V232.383H755.398V221.759C755.398 220.906 755.12 220.245 754.566 219.775C754.054 219.263 753.371 219.007 752.518 219.007H740.422V232.383H733.062V186.303H740.422V212.223H748.358L755.206 200.127H763.206ZM777.618 200.575H795.218V207.743H777.81C777.213 207.743 776.722 207.935 776.338 208.319C775.954 208.661 775.762 209.13 775.762 209.727C775.762 210.837 776.296 211.498 777.362 211.711L789.906 214.463C792.21 214.933 794.045 215.957 795.41 217.535C796.776 219.114 797.458 220.97 797.458 223.103C797.458 225.791 796.52 228.01 794.642 229.759C792.808 231.509 790.504 232.383 787.73 232.383H769.298V225.279H787.666C788.264 225.279 788.754 225.087 789.138 224.703C789.522 224.277 789.714 223.743 789.714 223.103C789.714 221.951 789.16 221.247 788.05 220.991L775.442 218.239C773.181 217.727 771.368 216.703 770.002 215.167C768.68 213.589 768.018 211.754 768.018 209.663C768.018 207.018 768.914 204.842 770.706 203.135C772.541 201.429 774.845 200.575 777.618 200.575ZM825.989 200.575V207.743H812.229V222.463C812.229 224.298 813.189 225.215 815.109 225.215H825.989V232.383H813.637C810.863 232.383 808.709 231.637 807.173 230.143C805.637 228.607 804.869 226.474 804.869 223.743V207.743H799.749V200.575H804.869V189.503H812.229V200.575H825.989Z" fill="white"/>
<defs>
<filter id="filter0_d_303_1555" x="298" y="176.21" width="401" height="250" filterUnits="userSpaceOnUse" color-interpolation-filters="sRGB">
<feFlood flood-opacity="0" result="BackgroundImageFix"/>
<feColorMatrix in="SourceAlpha" type="matrix" values="0 0 0 0 0 0 0 0 0 0 0 0 0 0 0 0 0 0 127 0" result="hardAlpha"/>
<feOffset dy="4"/>
<feGaussianBlur stdDeviation="3.5"/>
<feComposite in2="hardAlpha" operator="out"/>
<feColorMatrix type="matrix" values="0 0 0 0 1 0 0 0 0 1 0 0 0 0 1 0 0 0 0.25 0"/>
<feBlend mode="normal" in2="BackgroundImageFix" result="effect1_dropShadow_303_1555"/>
<feBlend mode="normal" in="SourceGraphic" in2="effect1_dropShadow_303_1555" result="shape"/>
</filter>
<filter id="filter1_d_303_1555" x="806" y="0.209961" width="401" height="250" filterUnits="userSpaceOnUse" color-interpolation-filters="sRGB">
<feFlood flood-opacity="0" result="BackgroundImageFix"/>
<feColorMatrix in="SourceAlpha" type="matrix" values="0 0 0 0 0 0 0 0 0 0 0 0 0 0 0 0 0 0 127 0" result="hardAlpha"/>
<feOffset dy="4"/>
<feGaussianBlur stdDeviation="3.5"/>
<feComposite in2="hardAlpha" operator="out"/>
<feColorMatrix type="matrix" values="0 0 0 0 1 0 0 0 0 1 0 0 0 0 1 0 0 0 0.25 0"/>
<feBlend mode="normal" in2="BackgroundImageFix" result="effect1_dropShadow_303_1555"/>
<feBlend mode="normal" in="SourceGraphic" in2="effect1_dropShadow_303_1555" result="shape"/>
</filter>
</defs>
</svg>
